<svg width="22" height="25" fill="none" xmlns="http://www.w3.org/2000/svg"><path d="M5.68 21.642a2.4 2.4 0 01-2.4 2.4h15.84a1.92 1.92 0 001.92-1.92v-1.92H5.68v1.44z" fill="#fff"/><path d="M18.866.099a.48.48 0 00-.493.024L15.76 1.865 13.146.123a.479.479 0 00-.533 0L10 1.865 7.386.123a.479.479 0 00-.533 0L4.24 1.865 1.626.123a.48.48 0 00-.747.399v20.64a1.92 1.92 0 103.84 0v-1.92h14.4V.522a.48.48 0 00-.253-.423zM8.08 10.602h3.84a1.442 1.442 0 011.44 1.44v.96a1.441 1.441 0 01-1.44 1.44h-1.44v.48a.48.48 0 01-.96 0v-.48h-2.4a.48.48 0 010-.96h4.8a.48.48 0 00.48-.48v-.96a.481.481 0 00-.48-.48H8.08a1.441 1.441 0 01-1.44-1.44v-.96a1.442 1.442 0 011.44-1.44h1.44v-.48a.48.48 0 01.96 0v.48h2.4a.48.48 0 010 .96h-4.8a.48.48 0 00-.48.48v.96a.48.48 0 00.48.48z" fill="#fff"/></svg>