<svg width="24" height="24" fill="none" xmlns="http://www.w3.org/2000/svg"><path d="M11.984 14.875c.768.767 4.87-2.963 6.457-4.482l-1.976-1.975c-1.522 1.586-5.256 5.677-4.48 6.457zm9.482-10.888c-1.175.84-2.581 2.053-4.005 3.438l1.973 1.973c1.385-1.423 2.6-2.83 3.438-4.005.94-1.315 1.31-2.185 1.044-2.452-.402-.402-1.987.715-2.45 1.046zm-17.2.279V.412L.412 4.266h3.854z" fill="#fff"/><path d="M11.608 16.245l-1.321 1.322-.994-.995 1.276-1.276c-.411-.925-.058-2.924 5.393-8.376a48.627 48.627 0 012.413-2.26V0H5.672v5.672H0V24h18.375V12.4c-1.664 1.538-4.851 4.505-6.767 3.844zM2.86 7.078h7.078v1.406H2.86V7.078zm0 2.813h4.22v1.406H2.86V9.89zm0 2.812h4.22v1.406H2.86v-1.406zm5.734 8.023c-.195-.43-.509-.834-.693-.956a3.888 3.888 0 00-.127.275c-.299.692-.739 1.213-1.51 1.086-.85-.137-.976-1.058-1.079-1.797-.044-.317-.125-.904-.249-1.027-.184.021-.595 1.007-.67 2.176l-1.404-.09c.037-.58.31-3.471 2.108-3.471 1.302 0 1.494 1.389 1.609 2.219 0 .01.002.02.004.03.202-.391.592-.843 1.246-.843 1.173 0 1.912 1.518 2.048 1.822l-1.283.576z" fill="#fff"/></svg>