<svg width="72" height="30" fill="none" xmlns="http://www.w3.org/2000/svg"><g clip-path="url(#clip0_171_834)"><path d="M51.285 10.68v.288c.05.488-.031.98-.234 1.425a1.025 1.025 0 01-.875.61c-.488 0-.777-.405-.777-.985-.005-1.137.964-1.337 1.881-1.337h.005zm-16.676 0v.288c.049.486-.032.977-.234 1.42-.16.354-.496.588-.875.61-.488 0-.777-.405-.777-.984-.017-1.133.968-1.333 1.886-1.333zm28.276-2.49a.815.815 0 01.85.662c.143.594.205 1.205.182 1.817 0 .87-.043 2.34-1.024 2.34-.98 0-.993-1.809-.993-2.645 0-.837.042-2.191.964-2.191l.02.017zM54.86 6.882a.231.231 0 00-.17.075.244.244 0 00-.064.178v.984c-.003.066.02.13.064.178a.23.23 0 00.17.075h2.183l-2.497 3.781c-.12.202-.182.435-.179.671v1.002a.23.23 0 00.091.193.22.22 0 00.207.03 4.598 4.598 0 014.417 0 .229.229 0 00.215-.025.237.237 0 00.1-.198v-1.059a.437.437 0 00-.234-.374 4.448 4.448 0 00-2.383-.545l2.166-3.258c.154-.173.262-.383.315-.61v-.845a.244.244 0 00-.064-.178.232.232 0 00-.17-.075h-4.184.017zm15.291-.118c-.879 0-1.38.436-1.737 1.39v-1.05a.247.247 0 00-.234-.187h-1.176a.244.244 0 00-.246.222v6.866a.259.259 0 00.233.252h1.274a.254.254 0 00.247-.252V10.31a3.25 3.25 0 01.216-1.306.819.819 0 01.684-.536c.88 0 .794 1.097.794 1.847v3.733a.253.253 0 00.234.222h1.274a.253.253 0 00.247-.222V9.714c0-.667 0-1.59-.332-2.14a1.659 1.659 0 00-1.486-.814l.008.004zm-7.263 0c-1.84 0-2.863 1.66-2.863 3.799 0 2.139 1.011 3.834 2.863 3.834 1.78 0 2.91-1.669 2.91-3.769-.009-2.16-1.033-3.864-2.936-3.864h.026zm-21.662 0a1.705 1.705 0 00-1.674 1.268v-.897a.254.254 0 00-.234-.24H38.13a.254.254 0 00-.246.253v6.874c.011.127.11.228.233.24h1.275a.254.254 0 00.246-.253v-3.65c0-.798-.038-1.883.875-1.883s.777 1.12.777 1.882v3.647a.259.259 0 00.234.252h1.274a.254.254 0 00.247-.252v-3.647c-.03-.439.01-.88.114-1.307a.853.853 0 01.748-.583.65.65 0 01.492.137.68.68 0 01.251.455c.042.434.053.871.034 1.307v3.646a.259.259 0 00.234.253h1.274a.254.254 0 00.246-.253V9.657c0-.736.072-1.577-.33-2.156a1.834 1.834 0 00-1.757-.704 1.869 1.869 0 00-1.45 1.235c-.379-.871-.88-1.268-1.674-1.268zm9.378-.07c-1.21 0-2.548.48-2.846 2.052a.227.227 0 00.033.177c.035.051.09.085.15.093l1.24.153a.281.281 0 00.217-.266.977.977 0 011.023-.797.842.842 0 01.71.34c.138.301.19.637.149.967V9.6a8.35 8.35 0 00-2.383.458 2.282 2.282 0 00-1.355 2.178c0 1.394.85 2.087 1.903 2.087a2.467 2.467 0 002.102-.968c.189.334.435.629.727.872a.25.25 0 00.297-.035c.255-.24.718-.671.977-.897a.266.266 0 000-.358 1.871 1.871 0 01-.48-1.237V9.666c0-.872.055-1.7-.56-2.31a2.759 2.759 0 00-1.904-.661zm-16.676 0c-1.21 0-2.548.48-2.846 2.052a.227.227 0 00.034.177.214.214 0 00.15.093l1.24.153a.282.282 0 00.2-.266.977.977 0 011.023-.797.842.842 0 01.71.34c.144.3.201.635.165.967V9.6a8.455 8.455 0 00-2.4.458 2.282 2.282 0 00-1.355 2.178c0 1.394.85 2.087 1.903 2.087a2.463 2.463 0 002.102-.968c.19.333.435.629.727.872a.25.25 0 00.297-.035c.255-.24.718-.671.977-.897a.262.262 0 000-.358 1.868 1.868 0 01-.48-1.237V9.666c0-.872.072-1.7-.548-2.31a2.797 2.797 0 00-1.899-.661zm.991 14.652c0 .307-.078.594-.232.858a1.72 1.72 0 01-.706.647c-.316.166-.706.25-1.17.25-.451 0-.854-.078-1.208-.232a2.232 2.232 0 01-.841-.646 1.827 1.827 0 01-.358-.942h.938c.02.185.084.366.193.545.116.172.277.317.483.434.213.11.468.166.764.166.387 0 .683-.098.89-.295.206-.198.309-.45.309-.758 0-.264-.074-.48-.223-.646a1.441 1.441 0 00-.531-.388 6.875 6.875 0 00-.87-.314c-.432-.135-.78-.261-1.044-.378a1.85 1.85 0 01-.667-.545c-.18-.24-.271-.557-.271-.951 0-.339.084-.637.251-.896.174-.258.42-.459.735-.6.322-.142.7-.213 1.131-.213.67 0 1.202.157 1.595.471.393.308.622.702.687 1.182h-.948a1.213 1.213 0 00-.416-.683c-.225-.197-.531-.296-.918-.296-.354 0-.638.09-.85.268-.213.173-.32.419-.32.739 0 .252.068.459.203.619.142.154.316.277.522.369.207.086.49.185.851.296.438.135.79.264 1.054.387.27.123.5.311.686.564.187.246.28.575.28.988zm3.367-4.996c.438 0 .816.074 1.131.222.316.148.554.35.716.61.16.258.241.55.241.876 0 .407-.125.748-.377 1.025-.245.277-.605.444-1.082.499v.055c.496.123.883.314 1.16.573.283.258.425.616.425 1.071 0 .536-.187.973-.56 1.311-.374.339-.913.508-1.615.508-.703 0-1.273-.172-1.711-.517-.432-.35-.687-.862-.764-1.533h.87c.058.406.22.73.483.97.271.24.635.36 1.093.36.432 0 .764-.105.996-.314.232-.216.348-.493.348-.831 0-.406-.168-.714-.503-.924-.329-.215-.8-.323-1.412-.323h-.232v-.701h.232c1.186 0 1.78-.38 1.78-1.136 0-.333-.11-.597-.33-.794-.218-.197-.521-.296-.908-.296s-.712.108-.977.323c-.264.21-.418.52-.463.933h-.86c.044-.616.267-1.096.666-1.44.406-.351.957-.527 1.653-.527z" fill="#fff"/><g clip-path="url(#clip1_171_834)" fill-rule="evenodd" clip-rule="evenodd"><path d="M21.597 5.433l-4.952 9.628 4.952 9.628 2.028-1.158V6.591l-2.028-1.158z" fill="#fff"/><path d="M21.597 5.433L11.693 6.59l-5.041 8.47 5.041 8.471 9.904 1.158V5.433z" fill="#DBDBDB"/><path d="M1.61 5.433L0 6.163v17.795l1.61.73 10.083-9.627L1.611 5.433z" fill="#C2C2C2"/><path d="M1.59 5.413l10.117 2.87v13.813l-10.118 2.6V5.413z" fill="#fff"/><path d="M11.712 9.8l-4.296-.704 4.296-4.984 4.285 4.984-4.285.704z" fill="#C2C2C2"/><path d="M15.997 9.096l-4.29.715-4.291-.715V4.112m4.296 16.142l-4.296.812 4.296 4.28 4.285-4.28-4.285-.812z" fill="#C2C2C2"/><path d="M11.693.375L7.398 2.691v6.398l4.309-1.239-.014-7.475zm.014 10.995l-4.291.477v6.389l4.29.501v-7.366zm0 10.78l-4.291-1.099v6.28l4.29 2.294V22.15z" fill="#DBDBDB"/><path d="M15.997 21.051l-4.29 1.1v7.474l4.29-2.293v-6.28zm-4.29-9.681l4.29.477v6.389l-4.29.501v-7.366zM11.693.375l4.296 2.316v6.398L11.693 7.87V.375z" fill="#fff"/></g></g><defs><clipPath id="clip0_171_834"><path fill="#fff" transform="translate(0 .6)" d="M0 0h72v28.8H0z"/></clipPath><clipPath id="clip1_171_834"><path fill="#fff" transform="translate(0 .375)" d="M0 0h23.625v29.25H0z"/></clipPath></defs></svg>