<svg width="160" height="159" fill="none" xmlns="http://www.w3.org/2000/svg"><path opacity=".2" d="M0 147h20c13.255 0 24-10.745 24-24V90c0-13.255 10.745-24 24-24h92" stroke="url(#paint0_linear_505_28)" stroke-width="24"/><path opacity=".2" d="M0 12h20c13.255 0 24 10.745 24 24v6c0 13.255 10.745 24 24 24h92" stroke="url(#paint1_linear_505_28)" stroke-width="24"/><path d="M119 64l2 2-2 2m10-4l2 2-2 2m10-4l2 2-2 2" stroke="#63B866" stroke-width="2" stroke-linecap="round" stroke-linejoin="round"/><path d="M75 64l2 2-2 2m10-4l2 2-2 2m10-4l2 2-2 2" stroke="#59A5FE" stroke-width="2" stroke-linecap="round" stroke-linejoin="round"/><defs><linearGradient id="paint0_linear_505_28" x1="160" y1="66" x2="-.658" y2="145.674" gradientUnits="userSpaceOnUse"><stop stop-color="#59A5FE"/><stop offset="1" stop-color="#59A5FE" stop-opacity="0"/></linearGradient><linearGradient id="paint1_linear_505_28" x1="160" y1="66" x2="-.435" y2="13.325" gradientUnits="userSpaceOnUse"><stop stop-color="#63B866"/><stop offset="1" stop-color="#63B866" stop-opacity="0"/></linearGradient></defs></svg>