<svg width="100" height="26" fill="none" xmlns="http://www.w3.org/2000/svg"><g clip-path="url(#clip0_68_193)" fill="#fff"><path d="M0 12.711h3.965v6.168H0v-6.168zm59.327 4.529v7.935H55.3V5.802h4.011v1.644c.063-.008.104 0 .115-.016 1.976-2.674 6.584-2.428 8.566.58 1.003 1.524 1.286 3.207 1.175 4.99-.11 1.771-.688 3.338-1.97 4.61-2.049 2.042-5.86 2.102-7.715-.249a1.181 1.181 0 00-.154-.12zm-.04-4.884c.045.337.058.684.143 1.012.289 1.113.969 1.887 2.111 2.14 1.22.27 2.215-.136 2.946-1.148.53-.733.62-1.581.557-2.451-.142-1.97-1.888-3.21-3.72-2.657-1.241.376-2.009 1.56-2.037 3.103zM48.302 7.447V5.81h4.053v13.102c-.147.01-.295.029-.443.03-1.047 0-2.094-.011-3.14.008-.356.007-.517-.078-.483-.469.034-.39.007-.767.007-1.148-.524.407-.98.86-1.52 1.163-2.433 1.373-5.6.51-7.186-1.92-1.564-2.393-1.53-6.181.052-8.554 1.883-2.829 5.672-3.031 7.668-1.494.327.257.612.566.992.919zm-.008 4.8c0-.066-.006-.253-.021-.438-.094-1.171-.886-2.207-1.954-2.55a2.778 2.778 0 00-3.037.887c-.715.852-.773 1.869-.641 2.908.266 2.117 2.654 3.243 4.365 2.057.954-.66 1.305-1.621 1.288-2.864zm-11.19 1.107h-9.086c-.02 1.109.627 2.03 1.618 2.345 1.085.348 2.115.005 2.765-.9.077-.109.232-.23.352-.23 1.342-.017 2.682-.01 4.08-.01a5.253 5.253 0 01-1.28 2.475c-1.482 1.636-3.383 2.212-5.534 2.074-1.783-.114-3.34-.75-4.527-2.128-1.371-1.595-1.72-3.48-1.536-5.504.146-1.616.724-3.051 1.932-4.181 1.38-1.29 3.06-1.74 4.905-1.703 1.594.033 3.045.475 4.265 1.53 1.22 1.057 1.876 2.434 2.036 4.023.07.705.01 1.425.01 2.209zm-9.067-2.329h4.933c0-1.25-.926-2.11-2.296-2.17-1.43-.06-2.531.83-2.637 2.17zm62.77 7.917c-1.32 0-2.566.006-3.812-.012-.094 0-.2-.168-.262-.282-.04-.072-.009-.183-.009-.276V5.797h4.083v1.638c.77-.886 1.62-1.423 2.656-1.652 3.168-.699 6.127.975 6.33 4.58.153 2.748.065 5.508.093 8.264 0 .25-.105.32-.337.319-1.126-.007-2.252-.015-3.377 0-.357.005-.359-.188-.358-.444.004-2.195.004-4.39 0-6.586a4.54 4.54 0 00-.059-.883c-.281-1.407-1.298-2.116-2.814-1.979-1.22.111-2.104 1.105-2.121 2.486-.028 2.257-.012 4.516-.015 6.774l.002.628zM71.718 9.153h-1.47V5.792h1.408c.042-.523.045-1.001.124-1.467.368-2.166 1.69-3.447 3.88-3.745.706-.094 1.424-.102 2.177-.15v3.448c-1.753.013-2.099.582-2.027 1.891h2.109v3.356H75.77v9.778h-4.051v-9.75zM17.507 15.8h5.253v3.112h-9.252V2.402h3.995l.004 13.397zm62.283 3.117v-13.1h4.06v.496c0 4.034-.007 8.068.01 12.102 0 .438-.126.553-.551.54-1.014-.028-2.03-.007-3.044-.01-.152-.003-.304-.018-.475-.028zM10.72 6.557v12.307H6.784V6.557h3.934zM81.841.07c.908 0 1.659.32 2.11 1.126.41.733.394 1.493-.064 2.213-.615.968-2.014 1.326-3.168.823-1.032-.449-1.529-1.482-1.24-2.573C79.736.674 80.635.071 81.84.07z"/></g><defs><clipPath id="clip0_68_193"><path fill="#fff" d="M0 0h100v26H0z"/></clipPath></defs></svg>