<svg width="80" height="22" fill="none" xmlns="http://www.w3.org/2000/svg"><path d="M6.547.377a1.858 1.858 0 00-1.541 2.895l.793-.792a.783.783 0 11.5.5l-.792.791A1.857 1.857 0 106.547.377zM5.808 5.79a2.887 2.887 0 00-.578-1.74L4.2 5.078a1.477 1.477 0 01-.282 1.782l.56 1.368a2.902 2.902 0 001.33-2.439z" fill="#fff"/><path d="M2.93 7.266h-.026a1.478 1.478 0 11.811-2.712l1.02-1.02a2.904 2.904 0 10-1.245 5.1l-.56-1.368zm3.656 1.183a6.59 6.59 0 00-1.903.279L5.5 10.72a4.445 4.445 0 11-.998.386L3.694 9.12a6.59 6.59 0 102.898-.671h-.006zm12.971-5.347h1.853v13.984h6.82v1.76h-8.673V3.103zm11.358 14.987a5.307 5.307 0 01-1.977-2.072 5.981 5.981 0 01-.708-2.897 5.981 5.981 0 01.708-2.892 5.307 5.307 0 011.977-2.072 5.728 5.728 0 015.709 0 5.324 5.324 0 011.977 2.072c.477.89.72 1.887.709 2.897a5.993 5.993 0 01-.709 2.896 5.323 5.323 0 01-1.976 2.072 5.727 5.727 0 01-5.709 0l-.001-.004zm4.701-1.363a3.67 3.67 0 001.378-1.428 4.4 4.4 0 00.518-2.178 4.403 4.403 0 00-.518-2.178 3.67 3.67 0 00-1.374-1.427c-.561-.329-1.2-.5-1.85-.497a3.676 3.676 0 00-3.247 1.924 4.416 4.416 0 00-.517 2.178c-.018.759.16 1.509.517 2.178a3.697 3.697 0 005.097 1.428h-.004zm7.341 1.363a5.324 5.324 0 01-1.977-2.072 5.993 5.993 0 01-.708-2.897 5.992 5.992 0 01.708-2.892 5.324 5.324 0 011.977-2.072 5.728 5.728 0 015.708 0 5.316 5.316 0 011.978 2.072c.477.89.72 1.887.709 2.897a5.994 5.994 0 01-.709 2.896 5.316 5.316 0 01-1.977 2.072 5.728 5.728 0 01-5.708 0l-.001-.004zm4.7-1.363a3.677 3.677 0 001.376-1.428 4.41 4.41 0 00.518-2.178 4.416 4.416 0 00-.519-2.178 3.677 3.677 0 00-1.374-1.427c-.561-.329-1.2-.5-1.85-.497a3.685 3.685 0 00-1.862.497 3.648 3.648 0 00-1.384 1.427 4.404 4.404 0 00-.519 2.178 4.4 4.4 0 00.519 2.178c.32.595.8 1.09 1.384 1.428a3.699 3.699 0 001.862.497 3.622 3.622 0 001.854-.497h-.004zm5.026-13.624h1.851v9.953l5.574-5.663h2.35v.088l-4.7 4.747 4.488 6.537v.083h-2.22l-3.575-5.34-1.917 1.922v3.418h-1.851V3.102z" fill="#fff"/><path d="M64.636 18.11a5.135 5.135 0 01-1.914-2.04 6.17 6.17 0 01-.686-2.932 6.434 6.434 0 01.647-2.862 5.18 5.18 0 011.839-2.105 4.896 4.896 0 012.739-.783c1.056 0 1.973.236 2.749.708a4.712 4.712 0 011.79 1.957 6.28 6.28 0 01.621 2.861c0 .184-.015.368-.043.55h-8.546c.043.82.24 1.511.592 2.073.325.536.79.975 1.344 1.268a3.645 3.645 0 001.702.423c1.41 0 2.473-.649 3.192-1.945l1.523.74a5.36 5.36 0 01-1.882 2.061c-.803.508-1.77.762-2.897.762a5.253 5.253 0 01-2.77-.736zm5.882-6.132a3.505 3.505 0 00-.38-1.353 2.92 2.92 0 00-1.058-1.142c-.48-.31-1.085-.465-1.818-.465a3.08 3.08 0 00-2.157.813c-.592.544-.98 1.26-1.163 2.147h6.576zm3.099-4.584h1.763v2.127h.088c.218-.61.639-1.119 1.264-1.526a3.543 3.543 0 011.957-.606c.448-.012.893.07 1.308.24v1.983a3.47 3.47 0 00-1.567-.35 2.582 2.582 0 00-1.482.46 3.306 3.306 0 00-1.08 1.23 3.572 3.572 0 00-.402 1.672v6.222h-1.85V7.394z" fill="#fff"/></svg>