<svg width="56" height="16" fill="none" xmlns="http://www.w3.org/2000/svg"><path d="M48.618.653a7.384 7.384 0 00-7.235 5.912V.653L33.98 8.034 26.6.653v5.912a7.384 7.384 0 00-14.47-.001 7.36 7.36 0 00-1.727-3.443A7.363 7.363 0 004.894.653H0v14.763h4.894c2.19 0 4.156-.953 5.507-2.468a7.36 7.36 0 001.727-3.443 7.384 7.384 0 0014.47-.001v5.912h2.447V6.588l4.935 4.935 4.914-4.935v8.828h2.49V9.504a7.382 7.382 0 107.235-8.85zM5.214 12.948H2.446V3.12h2.77a4.925 4.925 0 01-.002 9.828zm14.15.012a4.926 4.926 0 110-9.851 4.926 4.926 0 010 9.851zm29.254 0a4.926 4.926 0 110-9.851 4.926 4.926 0 010 9.851z" fill="#fff"/></svg>