<svg width="80" height="18" fill="none" xmlns="http://www.w3.org/2000/svg"><path d="M8.382 1.303v.787H6.974v.512h1.408v1.569h.55V2.602h1.444V2.09H8.932V.52h-.55v.784zM3.78 3.3v1.143H1.648v.717H3.78v2.32h.79V5.16h2.164v-.717H4.57V2.158h-.79V3.3zm8.932 0v1.143H10.58v.752h2.13V7.48h.823V5.195h2.132v-.752h-2.132V2.158h-.822V3.3z" fill="#fff"/><path fill-rule="evenodd" clip-rule="evenodd" d="M51.6 3.93h1.097v9.73H51.6V3.93zm-9.09 1.025h1.118v1.35c0 1.268.006 1.345.06 1.329.036-.013.202-.058.372-.106.201-.055.444-.09.704-.106.294-.013.467-.003.685.039.185.035.406.112.601.208.17.083.394.224.5.317a2.502 2.502 0 01.624.921c.054.135.121.388.153.564.039.23.048.428.035.742a3.93 3.93 0 01-.076.647c-.03.121-.106.33-.167.46a2.7 2.7 0 01-.269.445 2.285 2.285 0 01-.374.371 2.84 2.84 0 01-.477.285c-.14.068-.374.15-.515.19-.221.06-.362.07-.995.073-.599.003-.794-.01-1.031-.061-.16-.035-.426-.102-.586-.147a1.81 1.81 0 01-.313-.11c-.013-.012-.03-1.682-.035-3.715l-.013-3.696zm1.393 3.642l-.256.09v2.838c.538.141.653.15 1.011.141.352-.01.467-.026.637-.09.112-.044.269-.128.343-.188a1.57 1.57 0 00.243-.24c.057-.074.14-.228.182-.34.045-.112.096-.326.115-.477a1.752 1.752 0 00-.003-.563 1.749 1.749 0 00-.16-.538 1.606 1.606 0 00-.246-.377c-.07-.07-.199-.17-.285-.218a1.552 1.552 0 00-.362-.144 1.803 1.803 0 00-.445-.051 2.62 2.62 0 00-.377.035 4.04 4.04 0 00-.397.122zm-19.58-3.3h1.098v3.105h2.954v1.024H25.42v3.344h-1.098V9.426h-2.954V8.402h2.954V5.297z" fill="#fff"/><path d="M8.177 7.192v1.28H5.806v.954h2.371v2.56h.96v-2.56h2.372v-.954H9.137v-2.56h-.96v1.28zm6.973.646v.803h-1.443v.65h1.444v1.604h.72V9.29h1.443v-.65h-1.443V7.038h-.72v.8zm-13.742.071v.768H0v.544h1.408v1.536h.55V9.221l1.444-.051v-.493H1.959V7.14h-.55v.768z" fill="#fff"/><path fill-rule="evenodd" clip-rule="evenodd" d="M36.107 7.377h1.098V9.4c0 1.114-.013 2.244-.052 2.999l-.275.083c-.15.045-.467.115-.704.157-.362.06-.525.067-1.047.054-.483-.012-.678-.032-.893-.086a3.95 3.95 0 01-.585-.224c-.18-.09-.394-.23-.515-.336a2.562 2.562 0 01-.35-.403 2.966 2.966 0 01-.23-.426 3.526 3.526 0 01-.144-.493c-.044-.23-.054-.4-.041-.803.016-.388.038-.576.093-.768a3.41 3.41 0 01.21-.512c.074-.141.222-.356.33-.474a2.91 2.91 0 01.407-.359c.112-.073.297-.172.413-.217a2.92 2.92 0 01.454-.131c.138-.026.394-.048.567-.048.176 0 .425.025.56.05.13.03.339.1.464.158.121.054.227.102.23.099.003 0 .01-.077.01-.17v-.173zm-1.87 1.258a1.422 1.422 0 00-.3.237c-.074.08-.173.22-.218.317a2.08 2.08 0 00-.137.384 2.347 2.347 0 00-.052.467c0 .141.016.349.036.461.022.112.08.298.134.41.064.134.166.272.298.393.128.119.278.218.41.27.16.063.287.082.617.098.234.01.528-.003.685-.025a1.92 1.92 0 00.313-.064c.026-.016.045-.461.061-1.415l.023-1.389a3.668 3.668 0 00-.535-.256 1.944 1.944 0 00-.48-.073 1.527 1.527 0 00-.5.041 2.015 2.015 0 00-.354.144zm35.845-1.258h1.098v1.716c0 .944-.01 2.074-.052 3.306l-.275.083c-.15.045-.454.115-.678.15a4.99 4.99 0 01-.925.07 6.84 6.84 0 01-.749-.034 5.273 5.273 0 01-.531-.138 2.631 2.631 0 01-.567-.266 2.7 2.7 0 01-.445-.368c-.099-.108-.24-.3-.307-.422a3.116 3.116 0 01-.205-.493c-.067-.214-.086-.38-.102-.768-.01-.31 0-.586.026-.736a3.82 3.82 0 01.128-.493c.044-.14.15-.365.233-.496.08-.131.253-.34.384-.46a2.37 2.37 0 01.496-.35c.141-.067.346-.15.461-.182.112-.029.39-.064.618-.074.304-.013.48 0 .669.039.144.032.358.102.483.16.122.054.227.102.23.099.007 0 .01-.077.01-.17v-.173zm-1.869 1.258a1.422 1.422 0 00-.3.237c-.075.08-.17.22-.218.317a2.08 2.08 0 00-.138.384 2.558 2.558 0 00-.051.502c0 .16.022.388.05.503.03.118.084.278.126.358.041.08.147.221.233.31.087.093.228.202.31.244.087.045.24.105.346.134.119.036.314.055.541.055.192 0 .464-.016.599-.035.137-.02.269-.049.288-.061.029-.016.045-.43.054-1.418l.01-1.399c-.346-.176-.538-.25-.653-.278a1.874 1.874 0 00-.429-.048c-.121 0-.307.026-.41.051a1.951 1.951 0 00-.358.144zM59.777 7.43c.198.01.451.041.566.07a2.446 2.446 0 01.822.4c.116.087.276.247.36.355.082.11.2.308.265.439.064.131.147.361.185.512.039.15.084.454.119 1.075h-3.796l.023.128c.01.07.05.221.083.333a1.508 1.508 0 00.426.646c.057.042.172.112.259.157.083.042.23.096.326.122.096.026.352.048.583.048.227 0 .553-.022.723-.051.17-.029.41-.087.531-.125.122-.039.282-.1.352-.135a.745.745 0 01.163-.067c.023 0 .036.195.036 1.024l-.19.087a4.387 4.387 0 01-.489.173c-.166.045-.47.102-.678.125a3.482 3.482 0 01-.775 0 5.048 5.048 0 01-.704-.128 3.153 3.153 0 01-.544-.215 2.903 2.903 0 01-.493-.365 2.823 2.823 0 01-.406-.477 2.795 2.795 0 01-.234-.496 3.648 3.648 0 01-.128-.544 3.246 3.246 0 01-.02-.614c.01-.18.052-.448.09-.599.039-.15.132-.397.205-.547a3.22 3.22 0 01.301-.477c.093-.112.275-.285.407-.384.13-.1.352-.224.49-.282.134-.057.367-.124.515-.153.175-.032.387-.045.627-.035zm-.752 1.222a1.74 1.74 0 00-.324.263 1.93 1.93 0 00-.217.316.982.982 0 00-.083.196c0 .022.432.035 1.229.035h1.228a2.2 2.2 0 00-.092-.445 1.265 1.265 0 00-.186-.266.826.826 0 00-.323-.217 2.122 2.122 0 00-.429-.083 1.53 1.53 0 00-.432.038 1.876 1.876 0 00-.371.163zm16.411-1.136h1.14l-.004 1.715c0 1.617.004 1.729.068 1.937.041.128.118.278.182.355.06.07.189.166.285.211.093.045.272.096.394.112a1.573 1.573 0 00.842-.112c.095-.045.223-.14.284-.211a1.17 1.17 0 00.183-.355c.064-.208.067-.32.067-3.652H80l-.006 1.853c-.004 1.754-.007 1.86-.07 2.055a2.021 2.021 0 01-.18.374 1.87 1.87 0 01-.24.298 2.19 2.19 0 01-.336.25c-.112.067-.33.16-.48.207a2.909 2.909 0 01-.618.113c-.192.01-.5.01-.688-.004a2.694 2.694 0 01-.618-.108 2.813 2.813 0 01-.483-.209 2.288 2.288 0 01-.336-.25c-.07-.07-.18-.2-.24-.297a2.239 2.239 0 01-.176-.374c-.067-.192-.07-.31-.08-2.055l-.013-1.853z" fill="#fff"/><path d="M3.78 11.525v1.142H1.648v.752H3.78v2.286h.822v-2.286h2.132v-.752H4.602v-2.285H3.78v1.143zm8.932 0v1.142H10.58v.717h2.13v2.32h.823v-2.32h2.132v-.717h-2.132v-2.285h-.822v1.143zm-4.397 2.903v.8H6.87v.65h1.444v1.603h.72v-1.603h1.443v-.65H9.035v-1.604h-.72v.804z" fill="#fff"/></svg>