<svg width="72" height="20" fill="none" xmlns="http://www.w3.org/2000/svg"><path d="M23.4 11.824v3.624h-1.128V5.86h2.64c1.02 0 1.824.252 2.388.744.564.504.84 1.2.84 2.112 0 .912-.312 1.656-.936 2.232-.624.576-1.476.864-2.532.864H23.4v.012zm0-4.944v3.936h1.176c.78 0 1.368-.18 1.776-.528.408-.348.612-.852.612-1.5 0-1.26-.744-1.896-2.244-1.896H23.4V6.88zm8.748 8.736c-1.008 0-1.824-.324-2.424-.96-.6-.636-.9-1.488-.9-2.544 0-1.152.312-2.052.948-2.7.624-.648 1.476-.972 2.544-.972 1.02 0 1.812.312 2.388.948.576.624.864 1.5.864 2.616 0 1.092-.312 1.968-.924 2.628-.612.66-1.452.984-2.496.984zm.084-6.252c-.708 0-1.26.24-1.668.72-.408.48-.612 1.14-.612 1.98 0 .816.204 1.452.624 1.92.42.468.972.708 1.668.708.708 0 1.248-.228 1.632-.684.384-.456.576-1.116.576-1.956 0-.852-.192-1.512-.576-1.98-.384-.468-.936-.708-1.644-.708zm13.704-.756l-2.052 6.852h-1.14l-1.416-4.896a4.37 4.37 0 01-.108-.636h-.024c-.012.156-.06.372-.144.624l-1.536 4.92h-1.092L36.348 8.62H37.5l1.416 5.148c.048.156.072.36.096.612h.048a2.48 2.48 0 01.12-.624l1.572-5.136h1.008l1.416 5.16c.048.168.084.372.096.612h.048c.012-.168.048-.384.108-.612l1.392-5.16h1.116v-.012zm6.78 3.696H47.88c.012.768.228 1.356.612 1.764.384.408.936.624 1.62.624.768 0 1.476-.252 2.124-.768v1.032c-.6.432-1.392.66-2.388.66-.972 0-1.728-.312-2.28-.936-.552-.624-.828-1.5-.828-2.628 0-1.068.3-1.932.9-2.604.6-.672 1.356-1.008 2.244-1.008.9 0 1.584.288 2.076.864.492.576.732 1.38.732 2.412v.588h.024zm-1.128-.936c0-.636-.156-1.128-.456-1.476-.3-.348-.72-.528-1.248-.528-.516 0-.96.18-1.32.552-.36.372-.588.852-.672 1.452h3.696zm6.348-1.656c-.192-.144-.468-.216-.828-.216-.468 0-.864.216-1.176.66-.312.444-.468 1.044-.468 1.8v3.492h-1.092V8.596h1.092v1.416h.024c.156-.48.396-.852.72-1.128.324-.264.684-.408 1.08-.408.288 0 .504.036.66.096v1.14h-.012zm5.1 5.736V5.86h2.724c.828 0 1.488.204 1.968.612.48.408.732.936.732 1.584 0 .54-.144 1.02-.444 1.416-.3.396-.696.684-1.212.852v.024c.648.072 1.164.324 1.548.732.384.408.576.948.576 1.608 0 .816-.3 1.488-.888 1.992-.588.504-1.332.768-2.232.768h-2.772zm1.116-8.568v3.096h1.152c.612 0 1.104-.144 1.452-.444.348-.3.528-.72.528-1.248 0-.936-.612-1.392-1.836-1.392h-1.296V6.88zm0 4.104v3.456h1.524c.66 0 1.176-.156 1.536-.468.36-.312.54-.744.54-1.284 0-1.128-.768-1.704-2.316-1.704h-1.284zM72 15.448h-1.128V5.86H72v9.588z" fill="#fff"/><path d="M14.628 1.06v17.868c0 .444-.36.816-.816.816H8.736a.817.817 0 01-.816-.816V1.06c0-.444.36-.816.816-.816h5.076c.444.012.816.372.816.816z" fill="url(#paint0_linear_171_873)"/><path d="M10.668 5.944v13.812H3.96V5.944c0-.444.36-.816.816-.816h5.076c.444 0 .816.36.816.816z" fill="url(#paint1_linear_171_873)"/><path d="M0 10.816v8.124c0 .444.36.816.816.816h5.892v-8.94A.817.817 0 005.892 10H.816a.817.817 0 00-.816.816z" fill="url(#paint2_linear_171_873)"/><defs><linearGradient id="paint0_linear_171_873" x1="6.814" y1=".248" x2="15.216" y2="18.614" gradientUnits="userSpaceOnUse"><stop stop-color="#D6D6D6"/><stop offset="1" stop-color="#AAA"/></linearGradient><linearGradient id="paint1_linear_171_873" x1="3.596" y1="5.309" x2="10.674" y2="19.465" gradientUnits="userSpaceOnUse"><stop stop-color="#EEE"/><stop offset="1" stop-color="#D9D9D9"/></linearGradient><linearGradient id="paint2_linear_171_873" x1="1.165" y1="9.524" x2="5.063" y2="19.05" gradientUnits="userSpaceOnUse"><stop stop-color="#fff"/><stop offset="1" stop-color="#EBEBEB"/></linearGradient></defs></svg>