<svg width="80" height="20" fill="none" xmlns="http://www.w3.org/2000/svg"><g clip-path="url(#clip0_242_1806)" fill="#fff"><path d="M26.943 15.122h-1.786V6.794h2.33l2.74 4.786V6.794h1.778v8.328h-1.889l-3.173-5.671v5.671zm12.074-8.326H33.57v8.327h5.447v-1.6H35.5v-2.026h3.25v-1.67h-3.24V8.432h3.506V6.796zm1.128 0h6.592v1.636h-2.326v6.691h-1.927l.001-6.689-2.34-.002V6.796zm2.34 1.638l-2.34-.002 2.34.002zm5.454 4.792c.466.276 1.216.984 2.489 1.117 1.524.16 2.165-.662 2.24-1.366.11-1.041-.798-1.264-2.142-1.53-1.487-.292-2.442-.57-2.58-2.358-.105-1.342 1.03-2.546 3.235-2.454.845.035 1.738.286 2.186.58l-.006 1.301c-.327-.207-1.135-.846-2.592-.92-1.134-.058-1.754.678-1.759 1.299-.011 1.415 1.157 1.256 2.291 1.548 1.574.405 2.43.803 2.396 2.396-.032 1.482-1.332 2.447-3.28 2.447-.915 0-1.892-.314-2.478-.66v-1.4zm8.759-6.43v4.958c0 1.86.788 2.653 1.846 2.653 1.165 0 1.93-.818 1.93-2.653V6.796h1.035v4.884c0 2.565-1.282 3.607-3 3.607-1.623 0-2.847-.967-2.847-3.57v-4.92h1.036zm8.799 0h-.987v8.327h.987V6.796zm1.723 0h6.354v.98h-2.689v7.347h-.99V7.775H67.22v-.979zm12.78 0h-4.885v8.327H80v-.96h-3.937V11.06H80v-.976h-3.937v-2.31H80v-.979z"/><path fill-rule="evenodd" clip-rule="evenodd" d="M0 .03h12.952v11.09L7.908 4.725H-.001V.029zm7.88 8.912c1.681 2.08 3.295 4.229 4.958 6.327h7.952v4.703H7.88V8.942z"/><path fill-rule="evenodd" clip-rule="evenodd" d="M13.764 4.707V.982h6.114v13.466h-4.062v-9.74h-2.052zm-8.741.817v9.661h2.009v3.805H.962V5.524h4.06z"/></g><defs><clipPath id="clip0_242_1806"><path fill="#fff" transform="translate(0 .029)" d="M0 0h80v19.942H0z"/></clipPath></defs></svg>