<svg width="80" height="12" fill="none" xmlns="http://www.w3.org/2000/svg"><g clip-path="url(#clip0_242_1823)"><path d="M34.49 7.565h5.278L36.98 3.063l-5.125 8.132h-2.331l6.234-9.756a1.485 1.485 0 012.424-.017l6.25 9.773h-2.33l-1.098-1.818h-5.34L34.5 7.565m24.22 1.812V.902h-1.981v9.31a.955.955 0 00.294.692 1.001 1.001 0 00.72.301h9.005l1.174-1.818h-9.223m-32.74-1.524a3.48 3.48 0 100-6.96H17.31v10.292h1.978V2.724h6.559a1.666 1.666 0 010 3.331h-5.58l5.909 5.14h2.87l-3.968-3.332h.89zM5.145 11.195h5.981a5.146 5.146 0 000-10.29h-5.98a5.146 5.146 0 100 10.29zm5.846-1.811H5.278a3.332 3.332 0 010-6.66h5.714a3.332 3.332 0 110 6.66zm37.572 1.81h6.106l1.157-1.81H48.7a3.332 3.332 0 110-6.66h5.8L55.671.906h-7.106a5.146 5.146 0 100 10.289zm24.198-1.81a3.332 3.332 0 01-3.207-2.425h8.457l1.164-1.814h-9.621a3.328 3.328 0 013.207-2.425h5.804l1.16-1.818h-7.1a5.146 5.146 0 000 10.29h6.106l1.16-1.812h-7.134" fill="#fff"/></g><defs><clipPath id="clip0_242_1823"><path fill="#fff" transform="translate(0 .805)" d="M0 0h80v10.39H0z"/></clipPath></defs></svg>