<svg width="72" height="30" fill="none" xmlns="http://www.w3.org/2000/svg"><path d="M12.743 22.609l10.69 2.653V4.678L12.744 7.33v15.278z" fill="#CFCFCF"/><path d="M23.43 4.678l2.055 1.054v18.48l-2.055 1.054V4.678zM12.743 22.609L2.056 25.262V4.678L12.743 7.33v15.278z" fill="#fff"/><path d="M2.056 4.678L0 5.732v18.48l2.056 1.054V4.678z" fill="#CFCFCF"/><path d="M15.478 29.4l4.06-2.078V2.682L15.479.6l-1.274 13.696L15.478 29.4z" fill="#fff"/><path d="M10.007 29.4l-4.06-2.078V2.682L10.007.6l1.274 13.649L10.008 29.4z" fill="#CFCFCF"/><path d="M15.482.6h-5.475v28.8h5.475V.6z" fill="#EEE"/><path d="M51.285 10.68v.288c.05.488-.031.98-.234 1.425a1.025 1.025 0 01-.875.61c-.488 0-.777-.405-.777-.985-.005-1.137.964-1.337 1.881-1.337h.005zm-16.676 0v.288c.049.486-.032.977-.234 1.42-.16.354-.496.588-.875.61-.488 0-.777-.405-.777-.984-.017-1.133.968-1.333 1.886-1.333zm28.276-2.49a.815.815 0 01.85.662c.143.594.205 1.205.182 1.817 0 .87-.043 2.34-1.024 2.34-.98 0-.993-1.809-.993-2.645 0-.837.042-2.191.964-2.191l.02.017zM54.86 6.882a.231.231 0 00-.17.075.244.244 0 00-.064.178v.984c-.003.066.02.13.064.178a.23.23 0 00.17.075h2.183l-2.497 3.781c-.12.202-.182.435-.179.671v1.002a.23.23 0 00.091.193.22.22 0 00.207.03 4.598 4.598 0 014.417 0 .229.229 0 00.215-.025.237.237 0 00.1-.198v-1.059a.437.437 0 00-.234-.374 4.448 4.448 0 00-2.383-.545l2.166-3.258c.154-.173.262-.383.315-.61v-.845a.244.244 0 00-.064-.178.232.232 0 00-.17-.075h-4.184.017zm15.291-.118c-.879 0-1.38.436-1.737 1.39v-1.05a.247.247 0 00-.234-.187h-1.176a.244.244 0 00-.246.222v6.866a.259.259 0 00.233.252h1.274a.254.254 0 00.247-.252V10.31a3.25 3.25 0 01.216-1.306.819.819 0 01.684-.536c.88 0 .794 1.097.794 1.847v3.733a.253.253 0 00.234.222h1.274a.253.253 0 00.247-.222V9.714c0-.667 0-1.59-.332-2.14a1.659 1.659 0 00-1.486-.814l.008.004zm-7.263 0c-1.84 0-2.863 1.66-2.863 3.799 0 2.139 1.011 3.834 2.863 3.834 1.78 0 2.91-1.669 2.91-3.769-.009-2.16-1.033-3.864-2.936-3.864h.026zm-21.662 0a1.705 1.705 0 00-1.674 1.268v-.897a.254.254 0 00-.234-.24H38.13a.254.254 0 00-.246.253v6.874c.011.127.11.228.233.24h1.275a.254.254 0 00.246-.253v-3.65c0-.798-.038-1.883.875-1.883s.777 1.12.777 1.882v3.647a.259.259 0 00.234.252h1.274a.254.254 0 00.247-.252v-3.647c-.03-.439.01-.88.114-1.307a.853.853 0 01.748-.583.65.65 0 01.492.137.68.68 0 01.251.455c.042.434.053.871.034 1.307v3.646a.259.259 0 00.234.253h1.274a.254.254 0 00.246-.253V9.657c0-.736.072-1.577-.33-2.156a1.834 1.834 0 00-1.757-.704 1.869 1.869 0 00-1.45 1.235c-.379-.871-.88-1.268-1.674-1.268zm9.378-.07c-1.21 0-2.548.48-2.846 2.052a.227.227 0 00.033.177c.035.051.09.085.15.093l1.24.153a.281.281 0 00.217-.266.977.977 0 011.023-.797.842.842 0 01.71.34c.138.301.19.637.149.967V9.6a8.35 8.35 0 00-2.383.458 2.282 2.282 0 00-1.355 2.178c0 1.394.85 2.087 1.903 2.087a2.467 2.467 0 002.102-.968c.189.334.435.629.727.872a.25.25 0 00.297-.035c.255-.24.718-.671.977-.897a.266.266 0 000-.358 1.871 1.871 0 01-.48-1.237V9.666c0-.872.055-1.7-.56-2.31a2.759 2.759 0 00-1.904-.661zm-16.676 0c-1.21 0-2.548.48-2.846 2.052a.227.227 0 00.034.177.214.214 0 00.15.093l1.24.153a.282.282 0 00.2-.266.977.977 0 011.023-.797.842.842 0 01.71.34c.144.3.201.635.165.967V9.6a8.455 8.455 0 00-2.4.458 2.282 2.282 0 00-1.355 2.178c0 1.394.85 2.087 1.903 2.087a2.463 2.463 0 002.102-.968 3.2 3.2 0 00.727.872.25.25 0 00.297-.035c.255-.24.718-.671.977-.897a.262.262 0 000-.358 1.868 1.868 0 01-.48-1.237V9.666c0-.872.072-1.7-.548-2.31a2.797 2.797 0 00-1.899-.661zm-2.301 13.148h.816c.85 0 1.397-.479 1.397-1.206 0-.82-.578-1.181-1.423-1.181a3.268 3.268 0 00-.79.074v2.313zm-.798-2.884a8.152 8.152 0 011.533-.14c.85 0 1.414.17 1.801.528.324.311.502.751.488 1.207.002.743-.473 1.4-1.168 1.612v.03c.468.17.752.623.91 1.28.11.593.266 1.176.467 1.743h-.825a8.152 8.152 0 01-.424-1.516c-.183-.87-.523-1.206-1.249-1.233h-.73v2.754h-.803v-6.265zm8.856 3.272h-2.4v2.291h2.684v.689h-3.491v-6.348h3.355v.689h-2.548v2.008h2.4v.67zm2.685 2.348c.267.035.536.048.806.04 1.7 0 2.638-.98 2.638-2.697 0-1.499-.82-2.453-2.51-2.453a4.448 4.448 0 00-.939.083v5.023l.004.004zm-.808-5.628c.563-.086 1.13-.13 1.7-.131 1.146 0 1.966.274 2.51.793.61.589.933 1.425.883 2.283a3.447 3.447 0 01-.892 2.47c-.586.592-1.542.914-2.748.914-.488.009-.976-.016-1.461-.074V16.95h.008zm6.584 5.267c.43.263.922.403 1.423.405.82 0 1.295-.436 1.295-1.076 0-.64-.318-.941-1.168-1.26-1.01-.357-1.635-.905-1.635-1.79 0-.989.799-1.742 2.005-1.742.47-.015.936.088 1.359.3l-.22.68a2.25 2.25 0 00-1.169-.3c-.85 0-1.168.518-1.168.953 0 .584.378.872 1.232 1.216 1.05.435 1.572.932 1.572 1.864 0 .933-.697 1.83-2.158 1.83a3.136 3.136 0 01-1.58-.436l.212-.644zm5.989-5.355v2.658h2.994v-2.658h.807v6.352h-.807V20.23h-2.994v2.98h-.807v-6.348h.807zm6.652 0h-.807v6.352h.807v-6.352zm2.026 0h3.334v.689H63.62v2.112h2.336v.68H63.62v2.875h-.807v-6.356zm6.486.698h-1.886v-.698H72v.697h-1.894v5.664h-.807v-5.664z" fill="#fff"/></svg>