<svg width="80" height="20" fill="none" xmlns="http://www.w3.org/2000/svg"><path d="M16.2 15.07l-3.99-2.306a1.174 1.174 0 00-1.752 1.13v4.504a1.168 1.168 0 002.335 0v-2.59l2.235 1.29A1.172 1.172 0 0016.2 15.07zm-9.921-4.94a1.149 1.149 0 00-.573-1.012l-3.99-2.303A1.145 1.145 0 00.573 8.799l2.3 1.326-2.3 1.328c-.265.153-.455.4-.533.695a1.148 1.148 0 001.678 1.29l3.99-2.304c.356-.207.575-.591.572-1.004zM2.622 5.183l3.99 2.303c.465.27 1.039.182 1.406-.176.232-.214.377-.52.377-.86V1.834a1.168 1.168 0 10-2.336 0v2.627L3.794 3.154a1.172 1.172 0 10-1.172 2.03zm8.971 5.135c0 .088-.051.21-.114.275l-1.581 1.581a.449.449 0 01-.275.114H9.22a.449.449 0 01-.275-.114l-1.583-1.581a.452.452 0 01-.114-.275v-.403c0-.09.051-.212.114-.275l1.583-1.583a.449.449 0 01.275-.114h.403c.088 0 .212.051.275.114l1.581 1.583a.445.445 0 01.114.275v.403zm-1.412-.194v-.017a.335.335 0 00-.083-.202l-.467-.465a.32.32 0 00-.202-.085h-.017a.327.327 0 00-.202.085l-.465.465a.327.327 0 00-.084.202v.017c0 .066.038.156.084.202l.465.467a.335.335 0 00.202.083h.017a.327.327 0 00.202-.083l.467-.467a.327.327 0 00.083-.202zm2.03-2.638l3.99-2.303a1.172 1.172 0 10-1.173-2.03l-2.235 1.291v-2.61a1.168 1.168 0 10-2.335 0v4.524a1.172 1.172 0 001.753 1.128zm-4.8 5.144a1.163 1.163 0 00-.8.135l-3.99 2.305a1.171 1.171 0 101.172 2.03l2.267-1.31v2.607a1.168 1.168 0 002.336 0v-4.616c0-.582-.427-1.065-.984-1.153zm11.283-5.409a1.17 1.17 0 00-1.602-.43l-3.99 2.303a1.176 1.176 0 00-.585 1.037c-.003.409.207.808.586 1.025l3.99 2.305a1.173 1.173 0 001.172-2.031l-2.26-1.305 2.26-1.304a1.17 1.17 0 00.429-1.6zm61.304 2.634V9.9c0 .217-.182.378-.406.378h-5.605c.01.133.028.262.055.39.26 1.214 1.299 2.117 2.534 2.127h.326c.025 0 .05 0 .078-.002a.843.843 0 00.071-.003c.002 0 .004 0 .005-.002a2.38 2.38 0 001.19-.462h.003c.018-.013.039-.028.057-.044.004-.001.007-.005.012-.008a3.15 3.15 0 00.05-.04c.006-.004.011-.01.018-.014a.72.72 0 00.04-.035c.01-.006.02-.015.028-.022.01-.01.02-.02.032-.028l.033-.031.025-.024.04-.035c.006-.007.013-.016.02-.022l.04-.041.019-.019.04-.046a.102.102 0 00.018-.018l.042-.046.017-.02a.677.677 0 01.04-.048l.02-.026.034-.042.027-.038.025-.034a1.072 1.072 0 00.051-.073c.034-.049.066-.1.099-.152l.001-.004c.007-.012.016-.022.024-.034.004-.005.007-.01.012-.013.005-.009.012-.014.017-.02l.015-.016.019-.015c.005-.005.01-.01.017-.014a.168.168 0 01.029-.019.155.155 0 01.022-.013.277.277 0 00.022-.01c.007-.004.014-.005.019-.009l.029-.008.013-.005a.378.378 0 01.206.003h.003c.014.005.029.008.043.015l.01.004a.326.326 0 01.042.022l.007.003a.428.428 0 01.13.569l-.001.002-.04.064c-.004.005-.008.01-.01.016a3.885 3.885 0 01-1.541 1.375c-.014.005-.026.012-.04.019l-.006.002a2.935 2.935 0 01-.897.256l-.02.002a1.327 1.327 0 01-.082.008c-.015 0-.03.002-.047.004a.659.659 0 00-.058.003l-.112.002h-.33c-1.885-.014-3.403-1.586-3.403-3.512 0-1.959 1.528-3.54 3.429-3.54.056 0 .112.002.168.004a3.29 3.29 0 011.781.63l.006.003.083.063c.013.012.029.024.044.036l.04.032a3.633 3.633 0 011.278 2.527v.003zm-5.956-.377h5.073c-.252-1.223-1.303-2.107-2.517-2.107-1.237 0-2.28.868-2.556 2.107zm-8.373-2.802a.404.404 0 01.115.246l.002.041v6.238a.412.412 0 01-.408.408.41.41 0 01-.406-.408v-.829a3.48 3.48 0 01-.51.505l-.014.013a3.204 3.204 0 01-2.006.719c-1.147 0-2.155-.61-2.757-1.534l-.017-.022a5.204 5.204 0 00-.052-.088l-.034-.056a.638.638 0 01-.032-.06 2.224 2.224 0 01-.05-.088l-.013-.03a3.62 3.62 0 01-.384-1.828 3.635 3.635 0 01.384-1.47c.005-.008.008-.018.013-.028.016-.029.032-.06.05-.088.01-.02.02-.041.032-.06l.034-.056.052-.088.017-.022c.601-.924 1.61-1.534 2.757-1.534.774 0 1.506.284 2.089.778.16.134.307.282.441.445v-.817c0-.014 0-.027.002-.04a.404.404 0 01.115-.247v-.002l.023-.018a4.35 4.35 0 00.006-.007l.017-.012c.005-.003.01-.009.016-.012a.035.035 0 00.01-.007c.008-.003.015-.008.024-.013l.005-.002.03-.015h.002a.38.38 0 01.075-.022l.007-.002.034-.005.04-.002.043.002.034.005c.001 0 .003.002.007.002.025.005.05.012.074.022h.002l.029.015.007.002a.16.16 0 00.022.013c.003.004.008.005.011.007.006.003.01.009.016.012l.015.012.009.007c.006.006.015.012.02.018l.002.002zm-3.227 6.12c1.394 0 2.53-1.217 2.53-2.713 0-1.503-1.136-2.726-2.53-2.726-1.384 0-2.53 1.221-2.53 2.726 0 .047 0 .093.003.14 0 .02.003.038.003.057.002.027.003.054.007.08l.007.063.008.073.009.052.013.082.009.037.02.095c.002.007.003.014.007.02.288 1.162 1.28 2.013 2.444 2.013zm-6.982-9.18h-.11l-.043.001-.044-.001-.117.001-.022.002a.833.833 0 00-.092.005h-.017c-.032.004-.063.005-.093.009l-.01.001-.097.014h-.004c-.205.032-.39.09-.555.172l-.004.001-.073.041-.013.008-.061.038c-.009.005-.016.012-.022.017-.017.01-.033.022-.05.034a.535.535 0 01-.035.029l-.03.025a.652.652 0 00-.054.05 9.795 9.795 0 01-.01.01l-.06.064a.094.094 0 01-.011.014l-.05.056-.016.025a.942.942 0 00-.089.128l-.005.008a1.94 1.94 0 00-.237.654c0 .003 0 .008-.002.012a1.757 1.757 0 00-.02.13 1.385 1.385 0 00-.017.142.742.742 0 00-.009.07l-.005.08-.004.052-.005.11-.001.026c-.002.047-.002.096-.002.144v.67h-.846a.419.419 0 00-.153.026.395.395 0 00-.261.369.433.433 0 00.41.436h.004v.002h.846v5.924c-.002.008 0 .015 0 .024v.015a.39.39 0 00.107.248l.002.002.027.025.005.004.022.017a.052.052 0 00.012.008.42.42 0 00.279.07.386.386 0 00.212-.09l.002-.002a.136.136 0 00.022-.022l.006-.005.017-.019a.4.4 0 00.095-.275V7.29h.91v-.002h.004a.42.42 0 00.411-.434V6.85c.002-.008 0-.017 0-.025v-.009a.376.376 0 00-.107-.234V6.58h-.002a.28.28 0 00-.023-.022l-.009-.008-.019-.014-.016-.012-.012-.007a.186.186 0 00-.033-.017.194.194 0 00-.03-.013l-.007-.004-.03-.01-.01-.002-.03-.006c-.005 0-.01 0-.015-.002l-.024-.004h-.018l-.016-.001h-.923v-.683c.001-.034.001-.068.003-.1 0-.009 0-.019.002-.027 0-.03.001-.058.003-.085l.002-.017c.001-.032.005-.065.008-.095.032-.332.104-.54.178-.668l.004-.008.017-.026c.003-.007.008-.013.013-.02l.009-.014a.248.248 0 01.027-.032c.107-.12.273-.194.515-.222l.01-.002a.358.358 0 01.042-.004c.007-.001.016-.001.022-.003l.04-.002.03-.001c.012-.002.024-.002.036-.002l.035-.002h.089l.039-.003c.015.002.03.003.046.003h.11a.415.415 0 000-.83zm2.19.011l-.003-.001a.092.092 0 00-.025-.009.117.117 0 00-.014-.005l-.02-.005c-.007-.002-.014-.005-.02-.005-.008-.002-.014-.004-.023-.004l-.019-.003c-.013-.002-.028-.002-.042-.002a.412.412 0 00-.408.406v9.202c0 .222.187.407.408.407l.042-.001.007-.002.036-.005.008-.002.031-.008c.002 0 .003 0 .005-.002a.409.409 0 00.289-.345.277.277 0 00.003-.042V3.999a.406.406 0 00-.255-.372zm-31.183 7.816c-.003-.023-.003-.045-.007-.068l-.005-.047-.008-.054a3.14 3.14 0 01-.02-.096l-.013-.06-.01-.031a.388.388 0 00-.02-.063L26.377 11a1.179 1.179 0 00-.032-.083c-.012-.024-.022-.05-.034-.073l-.004-.005a1.499 1.499 0 00-.402-.496c0-.002 0-.002-.002-.002-.024-.019-.047-.039-.073-.058l-.003-.003c-.002 0-.004-.002-.005-.003-.016-.01-.03-.022-.044-.033A3.383 3.383 0 0025 9.85l-.015-.005-.017-.008c-.19-.072-.387-.14-.59-.206h-.001s-.002 0-.002-.002l-.012-.003a1.508 1.508 0 00-.1-.032l-.207-.07-.165-.054-.091-.029-.004-.002a2.738 2.738 0 01-1.014-.411c-.197-.125-.333-.28-.365-.482l-.002-.002a.357.357 0 01-.003-.042l-.002-.007-.001-.05a.91.91 0 01.003-.069c0-.007 0-.012.002-.017l.005-.053.003-.015.01-.054c.002-.002.002-.005.004-.009a.474.474 0 01.017-.057v-.002c.088-.263.297-.459.543-.596l.05-.026c.017-.008.032-.017.047-.023.025-.012.051-.024.076-.034l.045-.02.081-.03.044-.015c.027-.008.053-.017.08-.024.017-.005.032-.01.05-.013.025-.007.05-.012.074-.02a.46.46 0 00.051-.01c.027-.004.053-.01.077-.013a1.474 1.474 0 01.134-.015l.022-.004.11-.003c.043 0 .085.002.126.003h.018c.301.02.544.092.744.189l.046.022.026.014.058.032.01.005c.02.012.04.026.06.037a.005.005 0 00.004.002l.066.043c0 .001.002.001.002.003a.811.811 0 01.087.06 5.65 5.65 0 01.21.164 3.197 3.197 0 00.165.13c.002 0 .004.003.005.003l.015.01.038.025.015.009.036.02.013.005a.378.378 0 00.04.017l.008.004a.24.24 0 00.046.012l.002.001a.25.25 0 00.1-.001l.01-.002.027-.007.009-.005.01-.003c.013-.007.027-.014.04-.023a.398.398 0 00.05-.036h.001a.305.305 0 00.033-.035.168.168 0 00.018-.029c.002-.001.004-.003.004-.005.071-.119.03-.275-.095-.445l-.007-.01-.014-.019c-.288-.373-.946-.783-1.555-.913-.004 0-.007 0-.01-.002l-.079-.015a.1.1 0 01-.022-.004c-.022-.003-.044-.007-.066-.008a.109.109 0 00-.026-.004l-.062-.005c-.009-.001-.017-.001-.024-.003l-.083-.002c-.044 0-.089 0-.131.002l-.073.003c-.017.002-.037.002-.054.002l-.099.008c-.008 0-.019 0-.027.002a2.207 2.207 0 00-.11.012h-.012a1.83 1.83 0 00-.114.017h-.007a2.15 2.15 0 00-.11.019l-.007.001c-.077.014-.151.03-.223.05l-.001.001a2.456 2.456 0 00-.107.03l-.097.031-.009.002-.091.034-.009.004a1.31 1.31 0 00-.087.037c-.003.002-.008.002-.011.005-.026.01-.053.024-.077.036l-.017.008a.982.982 0 00-.073.038l-.019.01-.066.039a.106.106 0 00-.02.012l-.083.052c-.033.024-.065.046-.094.07a1.835 1.835 0 00-.375.357l-.012.015c-.012.019-.025.036-.037.053l-.026.04a.904.904 0 00-.056.099l-.005.008a1.71 1.71 0 00-.165.644c0 .003 0 .007-.002.01-.001.044-.005.088-.006.136l.001.107v.015c.02.486.24.851.639 1.135l.01.007.051.035c.012.009.026.016.038.024l.011.007c.395.25.877.392 1.28.506.196.058.373.107.426.122a10.447 10.447 0 01.613.217c.012.004.022.01.034.013l.013.006a2.971 2.971 0 01.447.22 1.236 1.236 0 01.375.34.13.13 0 01.02.031.12.12 0 01.012.019c.006.009.01.017.014.026l.014.027.01.02.012.032.007.019.01.036.005.017a.29.29 0 01.012.054l.005.04c.002.006.002.011.002.016l.003.06c0 .03-.002.059-.003.088l-.002.025a.446.446 0 01-.01.066.86.86 0 01-.053.192c-.002.002-.002.004-.002.005-.012.026-.023.053-.037.077l-.003.007a.848.848 0 01-.106.156c-.02.025-.042.05-.064.073-.002 0-.002 0-.002.002a1.342 1.342 0 01-.15.127l-.003.003c-.025.018-.05.036-.076.051l-.01.007a1.858 1.858 0 01-.192.104l-.06.027c-.017.007-.032.014-.05.02l-.135.05a.101.101 0 00-.02.006c-.027.009-.055.016-.082.024l-.022.007c-.09.024-.178.043-.262.056h-.005c-.042.007-.083.012-.122.017a.325.325 0 01-.044.003l-.043.004a1.904 1.904 0 01-.28-.002c-.024 0-.047-.002-.071-.003-.032-.004-.066-.005-.097-.009a1.351 1.351 0 01-.086-.008l-.073-.01c-.053-.009-.102-.016-.152-.026-.022-.005-.045-.008-.068-.014l-.076-.018a1.246 1.246 0 01-.083-.022l-.056-.015a1.82 1.82 0 01-.136-.046l-.03-.01a3.092 3.092 0 01-.291-.126l-.014-.007a6.838 6.838 0 01-.263-.144c-.008-.006-.019-.01-.027-.016a2.793 2.793 0 00-.197-.108l-.009-.004-.04-.019a.4.4 0 00-.112-.032l-.031-.001c-.003-.002-.007-.002-.01-.002a.243.243 0 00-.174.071.28.28 0 00-.04.043l-.017.022-.009.013a.142.142 0 00-.013.02c-.004.006-.005.01-.007.016l-.01.02-.005.014a.158.158 0 00-.007.022c-.002.005-.004.008-.004.014l-.005.025-.001.01c-.002.012-.002.022-.002.033v.005c0 .013.002.025.005.039v.007c.003.01.005.022.009.032l.005.015c.003.008.005.019.01.027l.005.012a.588.588 0 00.104.155c.049.054.112.108.185.164l.001.002.063.044a2.732 2.732 0 00.207.129l.051.03c.017.01.034.018.051.026l.066.036.045.022a5.815 5.815 0 00.236.109l.049.02a3.94 3.94 0 001.306.262h.002c.013 0 .025 0 .039-.002h.091c.004 0 .007 0 .01-.002.644-.02 1.173-.187 1.623-.516v-.002c.499-.377.774-.908.774-1.494 0-.038-.002-.075-.003-.11l-.002-.04zM30.62 6.57h-.005c-.792 0-1.54.323-2.08.894v-.486a.4.4 0 00-.392-.407l-.042.002a.404.404 0 00-.244.115l-.004.002-.017.02a.02.02 0 00-.008.009l-.012.015a.093.093 0 01-.012.015l-.005.01-.015.024c0 .002 0 .003-.002.005l-.015.03a.832.832 0 00-.023.077l-.001.004a2.071 2.071 0 01-.005.037l-.002.042v6.308l-.005.027.02.017c0 .009.002.02.007.033l.002.006a.079.079 0 00.017.027c.052.1.15.177.263.211l.008.002h.096c.015 0 .03 0 .045-.002l.03-.007.014-.001c.014-.004.028-.007.041-.012h.002a.35.35 0 00.173-.13l.005-.004a.271.271 0 00.058-.102l.003-.012.002-.004c.007-.02.012-.04.017-.06l.002-.008V9.45c.027-1.138.958-2.064 2.075-2.066h.004c1.138 0 2.063.926 2.063 2.064V13.2c0 .015.002.03.004.043a.393.393 0 00.115.248c.007.006.014.011.02.018a.03.03 0 00.009.007l.015.012.015.012a.027.027 0 01.012.007l.023.013.006.002.03.015a.38.38 0 00.075.022c.004 0 .006.002.007.002l.034.005a.341.341 0 00.043.002c.013 0 .027 0 .04-.002l.035-.005.006-.002a.394.394 0 00.077-.022l.03-.015.005-.002.024-.013a.035.035 0 01.01-.007l.016-.012.017-.012c.001-.002.005-.003.006-.007.007-.006.016-.011.023-.018v-.002a.387.387 0 00.115-.246c.002-.014.002-.027.002-.043V9.448A2.88 2.88 0 0030.62 6.57zm7.326-.013c1.845 0 3.344 1.581 3.344 3.526 0 1.945-1.5 3.526-3.344 3.526a2.79 2.79 0 01-.17-.005c-.008 0-.015 0-.023-.002a2.029 2.029 0 01-.146-.012h-.005a3.243 3.243 0 01-1.952-.958c-.022-.022-.046-.044-.066-.068l-.004-.001-.034-.04a4.091 4.091 0 01-.076-.084l-.06-.072a1.858 1.858 0 01-.13-.172c-.004-.004-.007-.01-.01-.015a3.56 3.56 0 01-.629-1.566c-.008-.052-.013-.105-.018-.157l-.004-.02a2.104 2.104 0 01-.01-.145c-.002-.01-.002-.02-.002-.032a3.022 3.022 0 010-.354c0-.012 0-.022.002-.032.002-.05.005-.098.01-.146l.004-.019c.005-.052.01-.105.018-.158a3.561 3.561 0 01.725-1.698c.014-.017.03-.034.043-.053l.061-.074c.024-.028.048-.053.073-.08l.037-.043.004-.001c.018-.022.04-.043.06-.063a3.245 3.245 0 011.958-.963h.005c.047-.005.096-.009.146-.012l.023-.002c.056-.003.112-.005.17-.005zm2.517 3.25v-.004a2.817 2.817 0 00-.686-1.59l-.05-.056-.03-.03-.06-.062c-.018-.018-.038-.035-.057-.052-.012-.01-.022-.022-.034-.033a3.738 3.738 0 00-.092-.078l-.001-.001a2.41 2.41 0 00-1.24-.529l-.012-.001a1.095 1.095 0 00-.105-.009c-.009-.002-.016-.002-.022-.002-.043-.003-.085-.003-.128-.003-.042 0-.085 0-.127.003-.007 0-.014 0-.022.002-.036.002-.07.004-.105.009l-.012.001a2.41 2.41 0 00-1.24.529l-.002.001a3.56 3.56 0 00-.092.078l-.034.03c-.018.02-.039.037-.057.055l-.058.06-.032.032c-.016.017-.03.036-.048.054-.375.427-.628.98-.688 1.592v.003c-.003.04-.007.078-.008.119l-.002.02a3.715 3.715 0 00-.003.138c0 1.493 1.148 2.712 2.53 2.712 1.383 0 2.53-1.22 2.53-2.712 0-.046 0-.092-.003-.138l-.001-.02a2.606 2.606 0 00-.009-.119zm10.655-3.075l-.008-.01a.396.396 0 00-.156-.117h-.002c-.007-.005-.015-.007-.022-.01-.004 0-.007-.002-.012-.004a.366.366 0 00-.172-.013h-.001a.422.422 0 00-.292.195h-.002c-.008.017-.019.034-.026.05l-.001.003v.001l-1.947 5.328-1.528-3.638a.415.415 0 00-.06-.093.458.458 0 00-.34-.158c-.021 0-.04 0-.06.005h-.007a.445.445 0 00-.321.246v.002l-1.529 3.638-.74-2.013-1.22-3.317a.46.46 0 00-.022-.05l-.003-.004a.37.37 0 00-.168-.158s-.002 0-.002-.002a.505.505 0 00-.112-.034l-.008-.001a.659.659 0 00-.058-.004h-.014c-.008 0-.017 0-.025.002l-.017.002c-.009.001-.016.001-.022.003-.005.002-.01.002-.016.003l-.025.007-.01.004c-.009.003-.017.005-.026.01h-.001a.393.393 0 00-.167.144l-.005.009a.428.428 0 00-.061.18.388.388 0 00.027.19l1.411 3.792.906 2.432v.002a.33.33 0 00.166.189l.007.005a.022.022 0 00.007.005c0 .002.001.002.003.003a.03.03 0 01.009.007h.003c.014.008.03.015.053.017l.005.002c.007.001.013.005.02.006l.01.002a.311.311 0 00.2.004c.004-.002.008-.002.01-.004a.199.199 0 00.042-.015c.005-.002.01-.003.015-.007l.029-.015.024-.015.015-.012a.498.498 0 00.034-.027l.005-.007a.76.76 0 00.036-.038l.003-.005a.385.385 0 00.053-.098l.001-.005.005-.007.005-.012 1.534-3.662 1.547 3.676c.012.037.03.07.056.103l.01.014a.44.44 0 00.028.03l.015.012c.008.009.019.017.029.026.005.003.008.007.014.008a.271.271 0 00.035.024l.01.005c.014.007.026.014.041.019.004.001.007.003.012.003l.037.014.05.01h.05c.021 0 .04-.002.058-.005.005 0 .009 0 .014-.002a.39.39 0 00.047-.012l.012-.005a.259.259 0 00.05-.022l.005-.002a.466.466 0 00.204-.234v-.002l.956-2.574 1.345-3.623a.398.398 0 00-.055-.396zm21.599.114a.1.1 0 00-.003-.022c0-.006-.002-.01-.003-.016l-.005-.023a.117.117 0 00-.006-.014.075.075 0 00-.01-.027c0-.004-.001-.005-.003-.009a.193.193 0 00-.017-.032v-.002a.404.404 0 00-.075-.093l-.002-.002-.001-.002a.386.386 0 00-.508-.05l-.014.008-.02.015-.03.03h-.002l-3.98 3.88V3.999l-.001-.04a.409.409 0 00-.252-.332l-.003-.001a.15.15 0 00-.026-.009l-.013-.005-.022-.005-.019-.005a.1.1 0 00-.022-.004l-.019-.003c-.015-.002-.029-.002-.042-.002A.41.41 0 0067.21 4v9.202a.41.41 0 00.408.407l.042-.001.007-.002c.012-.002.024-.002.034-.005l.01-.002.03-.008.006-.002a.41.41 0 00.289-.345l.001-.042V11.65l1.34-1.339 2.604 3.142a.271.271 0 00.06.07l.013.012.02.013c.009.007.017.01.026.016l.012.006.034.014.008.003.04.01.008.002a.274.274 0 00.05.009l.053.002a.557.557 0 00.077-.005h.002a.433.433 0 00.132-.043c.002 0 .002-.002.002-.002a.514.514 0 00.056-.035l.005-.005a.42.42 0 00.066-.54.8.8 0 00-.032-.046L69.969 9.72l2.626-2.537a.425.425 0 00.122-.252c0-.001 0-.003.002-.005V6.9l.002-.014V6.88l-.002-.02-.002-.014z" fill="#fff"/></svg>