<svg width="577" height="327" fill="none" xmlns="http://www.w3.org/2000/svg"><path opacity=".08" d="M0 1h576M0 131h576M0 66h576M0 196h576M0 261h576M0 326h576" stroke="#fff" stroke-dasharray="8 8"/><path opacity=".2" d="M398 160v166" stroke="url(#paint0_linear_88_33)" stroke-width="2"/><path d="M552.978 128.807L576 125v201H32l49.546-69.284 21.019-12.943 26.524-9.898h17.016l40.537-12.182 21.019-3.045 23.522-13.705 20.519-3.045 44.54-12.182h19.018l62.557-21.318 23.522-11.421h41.037l22.021-8.375h19.017l14.513-6.091 35.533-5.329 19.518-8.375z" fill="url(#paint1_linear_88_33)"/><path d="M576 125l-17.809 2.827a49.99 49.99 0 00-11.907 3.447l-7.812 3.358a49.997 49.997 0 01-12.317 3.509l-23.134 3.476a48.14 48.14 0 00-11.494 3.226v0a48.098 48.098 0 01-18.641 3.759h-.225a49.216 49.216 0 00-17.522 3.225l-4.916 1.873a49.981 49.981 0 01-17.803 3.277h-20.243a50.008 50.008 0 00-21.871 5.037l-13.123 6.384-54.588 18.636a49.99 49.99 0 01-16.155 2.682h-3.956c-4.464 0-8.908.598-13.213 1.777l-37.973 10.405-10.95 1.628a50.008 50.008 0 00-17.852 6.274l-6.758 3.945a50.015 50.015 0 01-18.023 6.3l-7.682 1.115a49.949 49.949 0 00-7.231 1.604l-29.856 8.988a49.98 49.98 0 01-14.414 2.123h-.581a49.988 49.988 0 00-17.508 3.166l-13.427 5.019a50.066 50.066 0 00-8.743 4.28l-8.234 5.08a50.002 50.002 0 00-14.444 13.505L32 326" stroke="#59A5FE" stroke-width="2"/><path d="M565.5 187H576v139H32l47-42.536 17-11.393 23.5-11.393H141l46.5-17.47h14l40.5-17.47h50l72-13.672 27.5-2.566 9-4.27h37l31.5-8.356h31.5l13.5-4.557h32L565.5 187z" fill="url(#paint2_linear_88_33)"/><path d="M576 187h-3.806c-4.443 0-8.866.592-13.153 1.761l-6.582 1.795a49.994 49.994 0 01-13.153 1.761h-18.182c-4.718 0-9.404.77-13.874 2.279v0a43.375 43.375 0 01-13.874 2.278h-17.858c-4.327 0-8.636.562-12.819 1.671l-18.898 5.013a49.98 49.98 0 01-12.819 1.672h-24.901c-3.675 0-7.303.817-10.623 2.392v0a24.777 24.777 0 01-8.32 2.285L364 212.066l-67.377 12.794a49.993 49.993 0 01-9.328.878h-34.971a49.994 49.994 0 00-19.804 4.089l-24.181 10.431a36.073 36.073 0 01-14.287 2.95v0c-4.332 0-8.63.78-12.686 2.304l-31.864 11.971a49.983 49.983 0 01-17.585 3.195h-.935a49.992 49.992 0 00-21.813 5.009L96 272.071l-13.98 9.37a50.057 50.057 0 00-5.715 4.462L32 326" stroke="#63B866" stroke-width="2"/><circle cx="398" cy="207" r="12" fill="#fff"/><circle cx="398" cy="207" r="6" fill="#63B866"/><circle cx="398" cy="160" r="12" fill="#fff"/><circle cx="398" cy="160" r="6" fill="#59A5FE"/><rect x="339" y="38" width="117" height="94" rx="4" fill="#fff"/><path d="M363.244 67h-2.052l-3.432-5.208V67h-2.052v-8.484h2.052l3.432 5.256v-5.256h2.052V67zm4.549-6.78c.664 0 1.256.14 1.776.42.528.272.94.668 1.236 1.188.304.52.456 1.128.456 1.824 0 .696-.152 1.304-.456 1.824-.296.52-.708.92-1.236 1.2-.52.272-1.112.408-1.776.408-.664 0-1.26-.136-1.788-.408a3.105 3.105 0 01-1.248-1.2c-.296-.52-.444-1.128-.444-1.824 0-.696.148-1.304.444-1.824.304-.52.72-.916 1.248-1.188.528-.28 1.124-.42 1.788-.42zm0 1.776c-.392 0-.724.144-.996.432-.264.28-.396.688-.396 1.224s.132.944.396 1.224c.272.28.604.42.996.42s.72-.14.984-.42c.264-.28.396-.688.396-1.224s-.132-.944-.396-1.224a1.28 1.28 0 00-.984-.432zm7.628 3l1.452-4.692h2.184L376.681 67h-2.544l-2.376-6.696h2.184l1.476 4.692zm6.313-4.56v-1.92h3.432V67h-2.16v-6.564h-1.272zm8.945.42c-.056-.344-.168-.604-.336-.78-.16-.176-.392-.264-.696-.264-.464 0-.796.216-.996.648-.192.424-.28 1.08-.264 1.968.136-.328.368-.584.696-.768a2.305 2.305 0 011.164-.288c.8 0 1.432.244 1.896.732.464.48.696 1.172.696 2.076 0 .568-.116 1.072-.348 1.512-.232.44-.576.784-1.032 1.032-.448.24-.988.36-1.62.36-1.24 0-2.096-.384-2.568-1.152-.472-.768-.708-1.832-.708-3.192 0-1.568.252-2.72.756-3.456.504-.744 1.324-1.116 2.46-1.116.896 0 1.576.256 2.04.768.464.504.724 1.144.78 1.92h-1.92zm-2.136 3.228c0 .368.104.668.312.9.208.224.512.336.912.336.36 0 .64-.1.84-.3.208-.2.312-.492.312-.876s-.104-.676-.312-.876c-.208-.208-.492-.312-.852-.312-.344 0-.632.1-.864.3-.232.192-.348.468-.348.828zm6.899 1.644c.24.464.36.968.36 1.512 0 .552-.148 1.008-.444 1.368-.288.36-.74.54-1.356.54v-.756c.216 0 .372-.048.468-.144.104-.096.156-.28.156-.552v-.12h-.876v-1.848h1.692zm3.63-.36c2.544-1.816 3.816-3.26 3.816-4.332 0-.656-.284-.984-.852-.984-.32 0-.556.112-.708.336-.144.224-.224.572-.24 1.044h-2.004c.048-1.032.36-1.808.936-2.328.576-.52 1.304-.78 2.184-.78.92 0 1.612.232 2.076.696.472.464.708 1.068.708 1.812 0 .824-.316 1.632-.948 2.424a8.894 8.894 0 01-2.268 1.992h3.348v1.656h-6.048v-1.536zm6.893-2.7c0 1.328.268 2.38.804 3.156.536.776 1.392 1.164 2.568 1.164 1.168 0 2.02-.388 2.556-1.164.544-.776.816-1.828.816-3.156 0-1.32-.272-2.364-.816-3.132-.536-.776-1.388-1.164-2.556-1.164-1.176 0-2.032.388-2.568 1.164-.536.768-.804 1.812-.804 3.132zm4.704 0c0 .76-.092 1.348-.276 1.764-.176.408-.528.612-1.056.612-.536 0-.896-.204-1.08-.612-.184-.416-.276-1.004-.276-1.764 0-.752.092-1.332.276-1.74.184-.408.544-.612 1.08-.612.528 0 .88.204 1.056.612.184.4.276.98.276 1.74zm2.647-2.232v-1.92h3.432V67h-2.16v-6.564h-1.272zm10.049-.48L420.329 67h-2.124l3.072-6.804h-3.6v-1.764h5.688v1.524z" fill="#22338A"/><path d="M360.244 84.632a2.07 2.07 0 011.236.732c.32.384.48.832.48 1.344 0 .704-.236 1.264-.708 1.68-.472.408-1.156.612-2.052.612h-3.372v-8.472h3.312c.848 0 1.496.192 1.944.576.456.376.684.896.684 1.56 0 .536-.14.972-.42 1.308a2.05 2.05 0 01-1.104.66zm-3.048-.456h1.692c.48 0 .844-.112 1.092-.336.256-.224.384-.536.384-.936 0-.392-.128-.7-.384-.924-.248-.224-.628-.336-1.14-.336h-1.644v2.532zm1.728 3.696c.52 0 .92-.116 1.2-.348.288-.24.432-.572.432-.996 0-.424-.144-.756-.432-.996-.288-.24-.692-.36-1.212-.36h-1.716v2.7h1.728zm5.102-5.484l1.98 4.86 1.836-4.86h1.524l-3.996 9.756h-1.524l1.428-3.3-2.784-6.456h1.536zm12.832-1.944c1.04 0 1.904.264 2.592.792.688.528 1.152 1.244 1.392 2.148h-1.452c-.2-.512-.52-.916-.96-1.212-.432-.304-.964-.456-1.596-.456a2.52 2.52 0 00-1.356.372c-.392.248-.704.604-.936 1.068-.224.456-.336.992-.336 1.608 0 .608.112 1.144.336 1.608.232.456.544.808.936 1.056.4.248.852.372 1.356.372.632 0 1.164-.148 1.596-.444.44-.304.76-.708.96-1.212h1.452c-.24.904-.704 1.62-1.392 2.148-.688.52-1.552.78-2.592.78-.8 0-1.508-.18-2.124-.54a3.748 3.748 0 01-1.428-1.524c-.336-.656-.504-1.404-.504-2.244 0-.84.168-1.584.504-2.232a3.73 3.73 0 011.428-1.536c.616-.368 1.324-.552 2.124-.552zm8.373 1.86c.64 0 1.216.136 1.728.408.512.272.912.664 1.2 1.176.288.512.432 1.112.432 1.8 0 .696-.144 1.3-.432 1.812a2.929 2.929 0 01-1.2 1.176 3.625 3.625 0 01-1.728.408c-.64 0-1.216-.136-1.728-.408a3.028 3.028 0 01-1.2-1.176c-.288-.52-.432-1.124-.432-1.812s.144-1.288.432-1.8a3.028 3.028 0 011.2-1.176 3.625 3.625 0 011.728-.408zm0 1.188c-.352 0-.676.08-.972.24-.296.16-.536.408-.72.744-.176.328-.264.732-.264 1.212 0 .488.088.896.264 1.224.184.328.424.572.72.732.296.16.62.24.972.24s.676-.08.972-.24a1.74 1.74 0 00.708-.732c.184-.328.276-.736.276-1.224 0-.48-.092-.884-.276-1.212a1.726 1.726 0 00-.708-.744c-.296-.16-.62-.24-.972-.24zm10.771-1.104V89h-1.38v-1.44a2.16 2.16 0 01-.876 1.14c-.416.264-.9.396-1.452.396-.768 0-1.384-.248-1.848-.744-.464-.496-.696-1.204-.696-2.124v-3.84h1.368v3.696c0 .6.152 1.064.456 1.392.304.32.72.48 1.248.48.544 0 .98-.176 1.308-.528.328-.352.492-.864.492-1.536v-3.504h1.38zm5.335-.108c.768 0 1.384.248 1.848.744.464.496.696 1.204.696 2.124V89h-1.368v-3.708c0-.592-.152-1.048-.456-1.368-.304-.328-.72-.492-1.248-.492-.544 0-.98.176-1.308.528-.328.344-.492.852-.492 1.524V89h-1.368v-6.612h1.368v1.452c.176-.496.472-.88.887-1.152a2.577 2.577 0 011.441-.408zm7.467 5.532V89h-.84c-.704 0-1.24-.168-1.608-.504-.36-.344-.54-.912-.54-1.704v-3.24h-.948v-1.164h.948v-1.644h1.38v1.644h1.596v1.164h-1.596v3.264c0 .376.068.636.204.78.144.144.392.216.744.216h.66zm2.554-5.412v1.512h-1.548V82.4h1.548zm0 5.088V89h-1.548v-1.512h1.548zm3.458-5.676v-1.284h2.712V89h-1.44v-7.188h-1.272zm5.432 5.676V89H418.7v-1.512h1.548zm.857.444c1.296-.888 2.332-1.756 3.108-2.604.784-.856 1.176-1.648 1.176-2.376 0-.432-.108-.776-.324-1.032-.208-.256-.548-.384-1.02-.384-.488 0-.856.16-1.104.48-.248.312-.388.76-.42 1.344h-1.332c.056-.968.352-1.708.888-2.22.544-.512 1.236-.768 2.076-.768.824 0 1.468.22 1.932.66.472.432.708 1.032.708 1.8 0 .616-.192 1.24-.576 1.872a7.773 7.773 0 01-1.44 1.752c-.584.528-1.188.984-1.812 1.368h4.02v1.116h-5.88v-1.008zm6.485-6.12v-1.284h2.712V89h-1.44v-7.188h-1.272zm5.719-1.404c.536 0 .972.168 1.308.504.336.328.504.776.504 1.344 0 .568-.168 1.016-.504 1.344-.336.328-.772.492-1.308.492s-.976-.164-1.32-.492c-.336-.328-.504-.776-.504-1.344 0-.568.168-1.016.504-1.344.344-.336.784-.504 1.32-.504zm5.076.108L433.597 89h-1.344l4.8-8.484h1.332zm-5.964 1.74c0 .304.08.548.24.732.16.176.372.264.636.264a.801.801 0 00.636-.276c.168-.184.252-.424.252-.72 0-.304-.084-.548-.252-.732a.801.801 0 00-.636-.276.801.801 0 00-.636.276c-.16.184-.24.428-.24.732zm4.92 3.168c.536 0 .972.164 1.308.492.344.328.516.776.516 1.344 0 .568-.172 1.02-.516 1.356-.336.328-.772.492-1.308.492-.528 0-.964-.164-1.308-.492-.336-.336-.504-.788-.504-1.356 0-.56.168-1.004.504-1.332.344-.336.78-.504 1.308-.504zm-.876 1.836c0 .304.08.548.24.732.16.184.372.276.636.276a.801.801 0 00.636-.276c.168-.184.252-.428.252-.732 0-.296-.084-.536-.252-.72a.801.801 0 00-.636-.276.801.801 0 00-.636.276c-.16.184-.24.424-.24.72zm-76.221 19.372a2.07 2.07 0 011.236.732c.32.384.48.832.48 1.344 0 .704-.236 1.264-.708 1.68-.472.408-1.156.612-2.052.612h-3.372v-8.472h3.312c.848 0 1.496.192 1.944.576.456.376.684.896.684 1.56 0 .536-.14.972-.42 1.308a2.05 2.05 0 01-1.104.66zm-3.048-.456h1.692c.48 0 .844-.112 1.092-.336.256-.224.384-.536.384-.936 0-.392-.128-.7-.384-.924-.248-.224-.628-.336-1.14-.336h-1.644v2.532zm1.728 3.696c.52 0 .92-.116 1.2-.348.288-.24.432-.572.432-.996 0-.424-.144-.756-.432-.996-.288-.24-.692-.36-1.212-.36h-1.716v2.7h1.728zm5.102-5.484l1.98 4.86 1.836-4.86h1.524l-3.996 9.756h-1.524l1.428-3.3-2.784-6.456h1.536zm12.22 1.836c.568.176 1.024.344 1.368.504.352.16.648.404.888.732.248.32.372.748.372 1.284 0 .416-.108.804-.324 1.164-.208.352-.524.636-.948.852-.424.216-.944.324-1.56.324h-.024v.96h-.408v-.984c-.792-.064-1.44-.312-1.944-.744a2.4 2.4 0 01-.84-1.668h1.464c.032.312.16.596.384.852.232.256.544.416.936.48v-2.724c-.656-.2-1.156-.372-1.5-.516a2.43 2.43 0 01-.912-.72c-.264-.328-.396-.768-.396-1.32 0-.448.116-.844.348-1.188.24-.344.572-.612.996-.804.424-.192.912-.288 1.464-.288v-1.02h.408v1.032c.784.056 1.408.288 1.872.696.464.408.732.924.804 1.548h-1.476a1.34 1.34 0 00-.384-.744c-.2-.216-.472-.356-.816-.42v2.64l.228.072zm-1.98-1.572c0 .352.116.632.348.84.232.2.564.376.996.528v-2.544c-.416.008-.744.116-.984.324-.24.2-.36.484-.36.852zm1.752 5.364c.44 0 .78-.116 1.02-.348.248-.232.372-.528.372-.888 0-.368-.12-.652-.36-.852-.24-.208-.584-.388-1.032-.54v2.628zm5.492-5.616v1.512h-1.548V104.4h1.548zm0 5.088V111h-1.548v-1.512h1.548zm3.459-5.676v-1.284h2.712V111h-1.44v-7.188h-1.272zm5.431 5.676V111h-1.548v-1.512h1.548zm.797-.312v-1.152l4.212-5.568h1.464v5.52h1.188v1.2h-1.188V111h-1.38v-1.824h-4.296zm4.392-5.088l-2.976 3.888h2.976v-3.888zm3.286 5.844c1.296-.888 2.332-1.756 3.108-2.604.784-.856 1.176-1.648 1.176-2.376 0-.432-.108-.776-.324-1.032-.208-.256-.548-.384-1.02-.384-.488 0-.856.16-1.104.48-.248.312-.388.76-.42 1.344h-1.332c.056-.968.352-1.708.888-2.22.544-.512 1.236-.768 2.076-.768.824 0 1.468.22 1.932.66.472.432.708 1.032.708 1.8 0 .616-.192 1.24-.576 1.872a7.773 7.773 0 01-1.44 1.752c-.584.528-1.188.984-1.812 1.368h4.02v1.116h-5.88v-1.008zm8.524-7.524c.536 0 .972.168 1.308.504.336.328.504.776.504 1.344 0 .568-.168 1.016-.504 1.344-.336.328-.772.492-1.308.492s-.976-.164-1.32-.492c-.336-.328-.504-.776-.504-1.344 0-.568.168-1.016.504-1.344.344-.336.784-.504 1.32-.504zm5.076.108L407.687 111h-1.344l4.8-8.484h1.332zm-5.964 1.74c0 .304.08.548.24.732.16.176.372.264.636.264a.801.801 0 00.636-.276c.168-.184.252-.424.252-.72 0-.304-.084-.548-.252-.732a.801.801 0 00-.636-.276.801.801 0 00-.636.276c-.16.184-.24.428-.24.732zm4.92 3.168c.536 0 .972.164 1.308.492.344.328.516.776.516 1.344 0 .568-.172 1.02-.516 1.356-.336.328-.772.492-1.308.492-.528 0-.964-.164-1.308-.492-.336-.336-.504-.788-.504-1.356 0-.56.168-1.004.504-1.332.344-.336.78-.504 1.308-.504zm-.876 1.836c0 .304.08.548.24.732.16.184.372.276.636.276a.801.801 0 00.636-.276c.168-.184.252-.428.252-.732 0-.296-.084-.536-.252-.72a.801.801 0 00-.636-.276.801.801 0 00-.636.276c-.16.184-.24.424-.24.72z" fill="#737373"/><defs><linearGradient id="paint0_linear_88_33" x1="398" y1="160" x2="398" y2="326" gradientUnits="userSpaceOnUse"><stop stop-color="#fff"/><stop offset="1" stop-color="#fff" stop-opacity="0"/></linearGradient><linearGradient id="paint1_linear_88_33" x1="304" y1="125" x2="304" y2="253.609" gradientUnits="userSpaceOnUse"><stop stop-color="#59A5FE" stop-opacity=".16"/><stop offset=".349" stop-color="#59A5FE" stop-opacity=".16"/><stop offset="1" stop-color="#59A5FE" stop-opacity="0"/></linearGradient><linearGradient id="paint2_linear_88_33" x1="304" y1="216" x2="304" y2="326" gradientUnits="userSpaceOnUse"><stop stop-color="#63B866" stop-opacity=".24"/><stop offset=".349" stop-color="#63B866" stop-opacity=".24"/><stop offset="1" stop-color="#63B866" stop-opacity="0"/></linearGradient></defs></svg>