<svg width="529" height="283" fill="none" xmlns="http://www.w3.org/2000/svg"><path d="M2.007 11.932c1.296-.888 2.332-1.756 3.108-2.604.784-.856 1.176-1.648 1.176-2.376 0-.432-.108-.776-.324-1.032-.208-.256-.548-.384-1.02-.384-.488 0-.856.16-1.104.48-.248.312-.388.76-.42 1.344H2.091c.056-.968.352-1.708.888-2.22.544-.512 1.236-.768 2.076-.768.824 0 1.468.22 1.932.66.472.432.708 1.032.708 1.8 0 .616-.192 1.24-.576 1.872a7.773 7.773 0 01-1.44 1.752c-.584.528-1.188.984-1.812 1.368h4.02v1.116h-5.88v-1.008zm8.237-.444V13H8.696v-1.512h1.548zm6.87-5.88h-4.189v2.52c.192-.248.464-.444.816-.588.352-.152.74-.228 1.164-.228.592 0 1.084.128 1.476.384.392.248.68.58.864.996.192.416.288.876.288 1.38 0 .888-.248 1.608-.744 2.16-.496.544-1.216.816-2.16.816-.888 0-1.604-.236-2.148-.708s-.84-1.1-.888-1.884h1.344c.072.432.248.772.528 1.02.288.248.652.372 1.092.372.544 0 .952-.164 1.224-.492.272-.328.408-.764.408-1.308 0-.512-.14-.912-.42-1.2-.28-.296-.68-.444-1.2-.444-.368 0-.692.08-.972.24a1.48 1.48 0 00-.6.636h-1.332V4.396h5.448v1.212zm1.62 3.096c0 1.352.24 2.412.72 3.18.48.76 1.28 1.14 2.4 1.14 1.12 0 1.92-.384 2.4-1.152.48-.768.72-1.824.72-3.168 0-1.336-.24-2.384-.72-3.144-.48-.768-1.28-1.152-2.4-1.152-1.12 0-1.92.38-2.4 1.14-.48.76-.72 1.812-.72 3.156zm4.871 0c0 .976-.12 1.724-.36 2.244-.24.52-.704.78-1.392.78-.696 0-1.164-.26-1.404-.78s-.36-1.268-.36-2.244c0-.968.12-1.708.36-2.22.24-.512.708-.768 1.404-.768.688 0 1.152.26 1.392.78.24.512.36 1.248.36 2.208zm4.177-4.296c.536 0 .972.168 1.308.504.336.328.504.776.504 1.344 0 .568-.168 1.016-.504 1.344-.336.328-.772.492-1.308.492s-.976-.164-1.32-.492c-.336-.328-.504-.776-.504-1.344 0-.568.168-1.016.504-1.344.344-.336.784-.504 1.32-.504zm5.076.108L28.07 13h-1.344l4.8-8.484h1.332zm-5.964 1.74c0 .304.08.548.24.732.16.176.372.264.636.264a.801.801 0 00.636-.276c.168-.184.252-.424.252-.72 0-.304-.084-.548-.252-.732a.801.801 0 00-.636-.276.801.801 0 00-.636.276c-.16.184-.24.428-.24.732zm4.92 3.168c.536 0 .972.164 1.308.492.344.328.516.776.516 1.344 0 .568-.172 1.02-.516 1.356-.336.328-.772.492-1.308.492-.528 0-.964-.164-1.308-.492-.336-.336-.504-.788-.504-1.356 0-.56.168-1.004.504-1.332.344-.336.78-.504 1.308-.504zm-.876 1.836c0 .304.08.548.24.732.16.184.372.276.636.276a.801.801 0 00.636-.276c.168-.184.252-.428.252-.732 0-.296-.084-.536-.252-.72a.801.801 0 00-.636-.276.801.801 0 00-.636.276c-.16.184-.24.424-.24.72zM2.215 259.884c-.48-.768-.72-1.828-.72-3.18 0-1.344.24-2.396.72-3.156.48-.76 1.28-1.14 2.4-1.14 1.12 0 1.92.384 2.4 1.152.48.76.72 1.808.72 3.144 0 1.344-.24 2.4-.72 3.168-.48.768-1.28 1.152-2.4 1.152-1.12 0-1.92-.38-2.4-1.14zm3.792-.936c.24-.52.36-1.268.36-2.244 0-.96-.12-1.696-.36-2.208-.24-.52-.704-.78-1.392-.78-.696 0-1.164.256-1.404.768s-.36 1.252-.36 2.22c0 .976.12 1.724.36 2.244.24.52.708.78 1.404.78.688 0 1.152-.26 1.392-.78zm4.249.54V261H8.708v-1.512h1.548zm1.72.396c-.48-.768-.72-1.828-.72-3.18 0-1.344.24-2.396.72-3.156.48-.76 1.28-1.14 2.4-1.14 1.12 0 1.92.384 2.4 1.152.48.76.72 1.808.72 3.144 0 1.344-.24 2.4-.72 3.168-.48.768-1.28 1.152-2.4 1.152-1.12 0-1.92-.38-2.4-1.14zm3.793-.936c.24-.52.36-1.268.36-2.244 0-.96-.12-1.696-.36-2.208-.24-.52-.704-.78-1.392-.78-.696 0-1.164.256-1.404.768s-.36 1.252-.36 2.22c0 .976.12 1.724.36 2.244.24.52.708.78 1.404.78.688 0 1.152-.26 1.392-.78zm3.684.936c-.48-.768-.72-1.828-.72-3.18 0-1.344.24-2.396.72-3.156.48-.76 1.28-1.14 2.4-1.14 1.12 0 1.92.384 2.4 1.152.48.76.72 1.808.72 3.144 0 1.344-.24 2.4-.72 3.168-.48.768-1.28 1.152-2.4 1.152-1.12 0-1.92-.38-2.4-1.14zm3.792-.936c.24-.52.36-1.268.36-2.244 0-.96-.12-1.696-.36-2.208-.24-.52-.704-.78-1.392-.78-.696 0-1.164.256-1.404.768s-.36 1.252-.36 2.22c0 .976.12 1.724.36 2.244.24.52.708.78 1.404.78.688 0 1.152-.26 1.392-.78zm4.537-6.54c.536 0 .972.168 1.308.504.336.328.504.776.504 1.344 0 .568-.168 1.016-.504 1.344-.336.328-.772.492-1.308.492s-.976-.164-1.32-.492c-.336-.328-.504-.776-.504-1.344 0-.568.168-1.016.504-1.344.344-.336.784-.504 1.32-.504zm5.076.108L28.07 261h-1.344l4.8-8.484h1.332zm-5.964 1.74c0 .304.08.548.24.732.16.176.372.264.636.264a.801.801 0 00.636-.276c.168-.184.252-.424.252-.72 0-.304-.084-.548-.252-.732a.801.801 0 00-.636-.276.801.801 0 00-.636.276c-.16.184-.24.428-.24.732zm4.92 3.168c.536 0 .972.164 1.308.492.344.328.516.776.516 1.344 0 .568-.172 1.02-.516 1.356-.336.328-.772.492-1.308.492-.528 0-.964-.164-1.308-.492-.336-.336-.504-.788-.504-1.356 0-.56.168-1.004.504-1.332.344-.336.78-.504 1.308-.504zm-.876 1.836c0 .304.08.548.24.732.16.184.372.276.636.276a.801.801 0 00.636-.276c.168-.184.252-.428.252-.732 0-.296-.084-.536-.252-.72a.801.801 0 00-.636-.276.801.801 0 00-.636.276c-.16.184-.24.424-.24.72z" fill="#C0C0C7"/><path opacity=".08" d="M42 257h487M42 209h487M42 159h487M42 109h487M42 59h487M42 9h487" stroke="#fff" stroke-dasharray="8 8"/><path d="M76.756 269.528v5.976c0 .816-.228 1.452-.684 1.908-.448.448-1.072.672-1.872.672-.864 0-1.548-.248-2.052-.744s-.756-1.204-.756-2.124h1.668c0 .432.088.764.264.996.184.232.452.348.804.348.32 0 .556-.092.708-.276.152-.192.228-.452.228-.78v-5.976h1.692zm4.085 1.74c.56 0 1.04.132 1.44.396.4.264.684.62.852 1.068v-1.38h1.68V278h-1.68v-1.392a2.221 2.221 0 01-.852 1.08c-.4.264-.88.396-1.44.396-.56 0-1.064-.136-1.512-.408a2.802 2.802 0 01-1.056-1.176c-.248-.52-.372-1.128-.372-1.824 0-.696.124-1.3.372-1.812.256-.52.608-.916 1.056-1.188a2.856 2.856 0 011.512-.408zm.528 1.476c-.528 0-.952.172-1.272.516-.32.344-.48.816-.48 1.416s.16 1.072.48 1.416c.32.336.744.504 1.272.504.512 0 .932-.172 1.26-.516.336-.352.504-.82.504-1.404 0-.592-.168-1.06-.504-1.404-.328-.352-.748-.528-1.26-.528zm8.937-1.488c.768 0 1.38.252 1.836.756.456.504.684 1.212.684 2.124V278h-1.68v-3.672c0-.528-.136-.936-.408-1.224-.272-.296-.644-.444-1.116-.444-.48 0-.864.156-1.152.468-.288.312-.432.76-.432 1.344V278h-1.692v-6.648h1.692v1.332c.176-.448.464-.796.864-1.044a2.586 2.586 0 011.404-.384zm10.369.096V278h-1.692v-1.344a2.14 2.14 0 01-.876 1.056c-.4.248-.864.372-1.392.372-.768 0-1.38-.252-1.836-.756-.456-.504-.684-1.208-.684-2.112v-3.864h1.68v3.672c0 .528.136.94.408 1.236.272.288.64.432 1.104.432.488 0 .876-.156 1.164-.468.288-.312.432-.76.432-1.344v-3.528h1.692zm4.142-.084c.56 0 1.04.132 1.44.396.4.264.684.62.852 1.068v-1.38h1.68V278h-1.68v-1.392a2.221 2.221 0 01-.852 1.08c-.4.264-.88.396-1.44.396-.56 0-1.064-.136-1.512-.408a2.802 2.802 0 01-1.056-1.176c-.248-.52-.372-1.128-.372-1.824 0-.696.124-1.3.372-1.812.256-.52.608-.916 1.056-1.188a2.856 2.856 0 011.512-.408zm.528 1.476c-.528 0-.952.172-1.272.516-.32.344-.48.816-.48 1.416s.16 1.072.48 1.416c.32.336.744.504 1.272.504.512 0 .932-.172 1.26-.516.336-.352.504-.82.504-1.404 0-.592-.168-1.06-.504-1.404-.328-.352-.748-.528-1.26-.528zm6.67-.12c.248-.424.576-.756.984-.996a2.582 2.582 0 011.368-.372v1.812h-.492c-1.24 0-1.86.576-1.86 1.728V278h-1.692v-6.648h1.692v1.272zm4.428-1.272l1.812 4.512 1.68-4.512h1.86l-4.068 9.816h-1.872l1.5-3.36-2.796-6.456h1.884zm52.972-1.824v1.344h-3.564v2.268h2.856v1.296h-2.856V278h-1.692v-8.472h5.256zm7.394 4.896c0 .168-.02.36-.06.576h-4.872c.024.592.184 1.028.48 1.308s.664.42 1.104.42c.392 0 .716-.096.972-.288.264-.192.432-.452.504-.78h1.788a2.86 2.86 0 01-.564 1.248c-.288.368-.66.656-1.116.864a3.52 3.52 0 01-1.5.312c-.648 0-1.224-.136-1.728-.408a2.95 2.95 0 01-1.176-1.188c-.28-.512-.42-1.116-.42-1.812s.14-1.3.42-1.812c.28-.52.672-.916 1.176-1.188.504-.272 1.08-.408 1.728-.408.656 0 1.228.136 1.716.408.496.272.876.648 1.14 1.128.272.472.408 1.012.408 1.62zm-1.704-.168c.024-.544-.12-.956-.432-1.236-.304-.28-.68-.42-1.128-.42-.456 0-.84.14-1.152.42-.312.28-.484.692-.516 1.236h3.228zm6.877-2.988c.56 0 1.064.136 1.512.408.448.272.796.668 1.044 1.188.256.512.384 1.116.384 1.812s-.128 1.304-.384 1.824a2.725 2.725 0 01-1.044 1.176 2.856 2.856 0 01-1.512.408c-.56 0-1.04-.132-1.44-.396a2.244 2.244 0 01-.84-1.08V278h-1.692v-8.88h1.692v3.612c.168-.448.448-.804.84-1.068.4-.264.88-.396 1.44-.396zm-.528 1.476c-.512 0-.936.176-1.272.528-.328.344-.492.812-.492 1.404 0 .584.164 1.052.492 1.404.336.344.76.516 1.272.516.528 0 .952-.168 1.272-.504.32-.344.48-.816.48-1.416s-.16-1.072-.48-1.416c-.32-.344-.744-.516-1.272-.516zm6.358-.12c.248-.424.576-.756.984-.996a2.582 2.582 0 011.368-.372v1.812h-.492c-1.24 0-1.86.576-1.86 1.728V278h-1.692v-6.648h1.692v1.272zm9.648-1.272V278h-1.692v-1.344a2.14 2.14 0 01-.876 1.056c-.4.248-.864.372-1.392.372-.768 0-1.38-.252-1.836-.756-.456-.504-.684-1.208-.684-2.112v-3.864h1.68v3.672c0 .528.136.94.408 1.236.272.288.64.432 1.104.432.488 0 .876-.156 1.164-.468.288-.312.432-.76.432-1.344v-3.528h1.692zm4.142-.084c.56 0 1.04.132 1.44.396.4.264.684.62.852 1.068v-1.38h1.68V278h-1.68v-1.392a2.221 2.221 0 01-.852 1.08c-.4.264-.88.396-1.44.396-.56 0-1.064-.136-1.512-.408a2.802 2.802 0 01-1.056-1.176c-.248-.52-.372-1.128-.372-1.824 0-.696.124-1.3.372-1.812.256-.52.608-.916 1.056-1.188a2.856 2.856 0 011.512-.408zm.528 1.476c-.528 0-.952.172-1.272.516-.32.344-.48.816-.48 1.416s.16 1.072.48 1.416c.32.336.744.504 1.272.504.512 0 .932-.172 1.26-.516.336-.352.504-.82.504-1.404 0-.592-.168-1.06-.504-1.404-.328-.352-.748-.528-1.26-.528zm6.67-.12c.248-.424.576-.756.984-.996a2.582 2.582 0 011.368-.372v1.812h-.492c-1.24 0-1.86.576-1.86 1.728V278h-1.692v-6.648h1.692v1.272zm4.428-1.272l1.812 4.512 1.68-4.512h1.86l-4.068 9.816h-1.872l1.5-3.36-2.796-6.456h1.884zm63.108-1.728V278h-1.68v-5.844L272.508 278h-1.464l-2.148-5.82V278h-1.692v-8.376h2.052l2.544 6.3 2.496-6.3h2.04zm4.136 1.644c.56 0 1.04.132 1.44.396.4.264.684.62.852 1.068v-1.38h1.68V278h-1.68v-1.392a2.221 2.221 0 01-.852 1.08c-.4.264-.88.396-1.44.396-.56 0-1.064-.136-1.512-.408a2.802 2.802 0 01-1.056-1.176c-.248-.52-.372-1.128-.372-1.824 0-.696.124-1.3.372-1.812.256-.52.608-.916 1.056-1.188a2.856 2.856 0 011.512-.408zm.528 1.476c-.528 0-.952.172-1.272.516-.32.344-.48.816-.48 1.416s.16 1.072.48 1.416c.32.336.744.504 1.272.504.512 0 .932-.172 1.26-.516.336-.352.504-.82.504-1.404 0-.592-.168-1.06-.504-1.404-.328-.352-.748-.528-1.26-.528zm6.669-.12c.248-.424.576-.756.984-.996a2.582 2.582 0 011.368-.372v1.812h-.492c-1.24 0-1.86.576-1.86 1.728V278h-1.692v-6.648h1.692v1.272zm6.276-1.356c.856 0 1.568.232 2.136.696.576.464.936 1.096 1.08 1.896h-1.788a1.354 1.354 0 00-.492-.828c-.256-.208-.58-.312-.972-.312a1.46 1.46 0 00-1.128.504c-.296.328-.444.812-.444 1.452 0 .64.148 1.128.444 1.464.304.328.68.492 1.128.492.392 0 .716-.1.972-.3.256-.208.42-.488.492-.84h1.788c-.144.8-.504 1.432-1.08 1.896-.568.464-1.28.696-2.136.696-.648 0-1.224-.136-1.728-.408a2.95 2.95 0 01-1.176-1.188c-.28-.512-.42-1.116-.42-1.812s.14-1.3.42-1.812c.28-.52.672-.916 1.176-1.188.504-.272 1.08-.408 1.728-.408zm8.379-.012c.768 0 1.38.252 1.836.756.456.504.684 1.212.684 2.124V278h-1.68v-3.672c0-.528-.136-.936-.408-1.224-.272-.296-.644-.444-1.116-.444-.48 0-.864.156-1.152.468-.288.312-.432.76-.432 1.344V278h-1.692v-8.88h1.692v3.564c.176-.448.464-.796.864-1.044a2.586 2.586 0 011.404-.384zm171.045-1.632V278h-1.68v-5.844L469.541 278h-1.464l-2.148-5.82V278h-1.692v-8.376h2.052l2.544 6.3 2.496-6.3h2.04zm4.136 1.644c.56 0 1.04.132 1.44.396.4.264.684.62.852 1.068v-1.38h1.68V278h-1.68v-1.392a2.221 2.221 0 01-.852 1.08c-.4.264-.88.396-1.44.396-.56 0-1.064-.136-1.512-.408a2.802 2.802 0 01-1.056-1.176c-.248-.52-.372-1.128-.372-1.824 0-.696.124-1.3.372-1.812.256-.52.608-.916 1.056-1.188a2.856 2.856 0 011.512-.408zm.528 1.476c-.528 0-.952.172-1.272.516-.32.344-.48.816-.48 1.416s.16 1.072.48 1.416c.32.336.744.504 1.272.504.512 0 .932-.172 1.26-.516.336-.352.504-.82.504-1.404 0-.592-.168-1.06-.504-1.404-.328-.352-.748-.528-1.26-.528zm6.117-1.392l1.812 4.512 1.68-4.512h1.86l-4.068 9.816h-1.872l1.5-3.36-2.796-6.456h1.884zm-111.214 4.944h-3.396l-.6 1.704h-1.788l3.12-8.376h1.932l3.108 8.376h-1.788l-.588-1.704zm-.456-1.284l-1.248-3.576-1.248 3.576h2.496zm7.717-3.744c.56 0 1.064.136 1.512.408.448.272.796.668 1.044 1.188.256.512.384 1.116.384 1.812s-.128 1.304-.384 1.824a2.725 2.725 0 01-1.044 1.176 2.856 2.856 0 01-1.512.408c-.56 0-1.04-.132-1.44-.396a2.244 2.244 0 01-.84-1.08v4.56h-1.692v-9.816h1.692v1.38c.168-.448.448-.804.84-1.068.4-.264.88-.396 1.44-.396zm-.528 1.476c-.512 0-.936.176-1.272.528-.328.344-.492.812-.492 1.404 0 .584.164 1.052.492 1.404.336.344.76.516 1.272.516.528 0 .952-.168 1.272-.504.32-.344.48-.816.48-1.416s-.16-1.072-.48-1.416c-.32-.344-.744-.516-1.272-.516zm6.357-.12c.248-.424.576-.756.984-.996a2.582 2.582 0 011.368-.372v1.812h-.492c-1.24 0-1.86.576-1.86 1.728V278h-1.692v-6.648h1.692v1.272zm3.097-3.18c0-.272.096-.492.288-.66.192-.176.444-.264.756-.264s.564.088.756.264a.835.835 0 01.288.66.858.858 0 01-.288.66c-.192.168-.444.252-.756.252s-.564-.084-.756-.252a.858.858 0 01-.288-.66zm1.884 1.908V278h-1.692v-6.648h1.692zm3.223-2.232V278h-1.692v-8.88h1.692z" fill="#C0C0C7"/><rect x="58" y="136" width="12" height="121" rx="4" fill="url(#paint0_linear_98_276)"/><rect x="74" y="120" width="12" height="137" rx="4" fill="url(#paint1_linear_98_276)"/><rect x="90" y="159" width="12" height="98" rx="4" fill="url(#paint2_linear_98_276)"/><rect x="106" y="129" width="12" height="128" rx="4" fill="url(#paint3_linear_98_276)"/><rect x="122" y="80" width="12" height="177" rx="4" fill="url(#paint4_linear_98_276)"/><rect x="153" y="161" width="12" height="96" rx="4" fill="url(#paint5_linear_98_276)"/><rect x="169" y="152" width="12" height="105" rx="4" fill="url(#paint6_linear_98_276)"/><rect x="185" y="162" width="12" height="95" rx="4" fill="url(#paint7_linear_98_276)"/><rect x="201" y="139" width="12" height="118" rx="4" fill="url(#paint8_linear_98_276)"/><rect x="217" y="120" width="12" height="137" rx="4" fill="url(#paint9_linear_98_276)"/><rect x="248" y="121" width="12" height="136" rx="4" fill="url(#paint10_linear_98_276)"/><rect x="264" y="159" width="12" height="98" rx="4" fill="url(#paint11_linear_98_276)"/><rect x="280" y="141" width="12" height="116" rx="4" fill="url(#paint12_linear_98_276)"/><rect x="296" y="109" width="12" height="148" rx="4" fill="url(#paint13_linear_98_276)"/><rect x="312" y="121" width="12" height="136" rx="4" fill="url(#paint14_linear_98_276)"/><rect x="343" y="69" width="12" height="188" rx="4" fill="url(#paint15_linear_98_276)"/><rect x="359" y="120" width="12" height="137" rx="4" fill="url(#paint16_linear_98_276)"/><rect x="375" y="147" width="12" height="110" rx="4" fill="url(#paint17_linear_98_276)"/><rect x="391" y="97" width="12" height="160" rx="4" fill="url(#paint18_linear_98_276)"/><rect x="407" y="84" width="12" height="173" rx="4" fill="url(#paint19_linear_98_276)"/><rect x="438" y="57" width="12" height="200" rx="4" fill="url(#paint20_linear_98_276)"/><rect x="454" y="123" width="12" height="134" rx="4" fill="url(#paint21_linear_98_276)"/><rect x="470" y="141" width="12" height="116" rx="4" fill="url(#paint22_linear_98_276)"/><rect x="486" y="83" width="12" height="174" rx="4" fill="url(#paint23_linear_98_276)"/><rect x="502" y="95" width="12" height="162" rx="4" fill="url(#paint24_linear_98_276)"/><path d="M93.5 121.5l83.151 19.055a49.987 49.987 0 0025.479-.828l175.291-52.36a49.989 49.989 0 019.335-1.843L477 76.5" stroke="#63B866" stroke-width="2"/><path d="M1.483 208.704c0 1.352.24 2.412.72 3.18.48.76 1.28 1.14 2.4 1.14 1.12 0 1.92-.384 2.4-1.152.48-.768.72-1.824.72-3.168 0-1.336-.24-2.384-.72-3.144-.48-.768-1.28-1.152-2.4-1.152-1.12 0-1.92.38-2.4 1.14-.48.76-.72 1.812-.72 3.156zm4.872 0c0 .976-.12 1.724-.36 2.244-.24.52-.704.78-1.392.78-.696 0-1.164-.26-1.404-.78s-.36-1.268-.36-2.244c0-.968.12-1.708.36-2.22.24-.512.708-.768 1.404-.768.688 0 1.152.26 1.392.78.24.512.36 1.248.36 2.208zm3.889 2.784V213H8.696v-1.512h1.548zm6.87-5.88h-4.189v2.52c.192-.248.464-.444.816-.588.352-.152.74-.228 1.164-.228.592 0 1.084.128 1.476.384.392.248.68.58.864.996.192.416.288.876.288 1.38 0 .888-.248 1.608-.744 2.16-.496.544-1.216.816-2.16.816-.888 0-1.604-.236-2.148-.708s-.84-1.1-.888-1.884h1.344c.072.432.248.772.528 1.02.288.248.652.372 1.092.372.544 0 .952-.164 1.224-.492.272-.328.408-.764.408-1.308 0-.512-.14-.912-.42-1.2-.28-.296-.68-.444-1.2-.444-.368 0-.692.08-.972.24a1.48 1.48 0 00-.6.636h-1.332v-4.884h5.448v1.212zm1.62 3.096c0 1.352.24 2.412.72 3.18.48.76 1.28 1.14 2.4 1.14 1.12 0 1.92-.384 2.4-1.152.48-.768.72-1.824.72-3.168 0-1.336-.24-2.384-.72-3.144-.48-.768-1.28-1.152-2.4-1.152-1.12 0-1.92.38-2.4 1.14-.48.76-.72 1.812-.72 3.156zm4.871 0c0 .976-.12 1.724-.36 2.244-.24.52-.704.78-1.392.78-.696 0-1.164-.26-1.404-.78s-.36-1.268-.36-2.244c0-.968.12-1.708.36-2.22.24-.512.708-.768 1.404-.768.688 0 1.152.26 1.392.78.24.512.36 1.248.36 2.208zm4.177-4.296c.536 0 .972.168 1.308.504.336.328.504.776.504 1.344 0 .568-.168 1.016-.504 1.344-.336.328-.772.492-1.308.492s-.976-.164-1.32-.492c-.336-.328-.504-.776-.504-1.344 0-.568.168-1.016.504-1.344.344-.336.784-.504 1.32-.504zm5.076.108L28.07 213h-1.344l4.8-8.484h1.332zm-5.964 1.74c0 .304.08.548.24.732.16.176.372.264.636.264a.801.801 0 00.636-.276c.168-.184.252-.424.252-.72 0-.304-.084-.548-.252-.732a.801.801 0 00-.636-.276.801.801 0 00-.636.276c-.16.184-.24.428-.24.732zm4.92 3.168c.536 0 .972.164 1.308.492.344.328.516.776.516 1.344 0 .568-.172 1.02-.516 1.356-.336.328-.772.492-1.308.492-.528 0-.964-.164-1.308-.492-.336-.336-.504-.788-.504-1.356 0-.56.168-1.004.504-1.332.344-.336.78-.504 1.308-.504zm-.876 1.836c0 .304.08.548.24.732.16.184.372.276.636.276a.801.801 0 00.636-.276c.168-.184.252-.428.252-.732 0-.296-.084-.536-.252-.72a.801.801 0 00-.636-.276.801.801 0 00-.636.276c-.16.184-.24.424-.24.72zM4.824 155.812v-1.284h2.712V163h-1.44v-7.188H4.824zm5.432 5.676V163H8.708v-1.512h1.548zm1-2.784c0 1.352.24 2.412.72 3.18.48.76 1.28 1.14 2.4 1.14 1.12 0 1.92-.384 2.4-1.152.48-.768.72-1.824.72-3.168 0-1.336-.24-2.384-.72-3.144-.48-.768-1.28-1.152-2.4-1.152-1.12 0-1.92.38-2.4 1.14-.48.76-.72 1.812-.72 3.156zm4.873 0c0 .976-.12 1.724-.36 2.244-.24.52-.704.78-1.392.78-.696 0-1.164-.26-1.404-.78s-.36-1.268-.36-2.244c0-.968.12-1.708.36-2.22.24-.512.708-.768 1.404-.768.688 0 1.152.26 1.392.78.24.512.36 1.248.36 2.208zm2.604 0c0 1.352.24 2.412.72 3.18.48.76 1.28 1.14 2.4 1.14 1.12 0 1.92-.384 2.4-1.152.48-.768.72-1.824.72-3.168 0-1.336-.24-2.384-.72-3.144-.48-.768-1.28-1.152-2.4-1.152-1.12 0-1.92.38-2.4 1.14-.48.76-.72 1.812-.72 3.156zm4.872 0c0 .976-.12 1.724-.36 2.244-.24.52-.704.78-1.392.78-.696 0-1.164-.26-1.404-.78s-.36-1.268-.36-2.244c0-.968.12-1.708.36-2.22.24-.512.708-.768 1.404-.768.688 0 1.152.26 1.392.78.24.512.36 1.248.36 2.208zm4.177-4.296c.536 0 .972.168 1.308.504.336.328.504.776.504 1.344 0 .568-.168 1.016-.504 1.344-.336.328-.772.492-1.308.492s-.976-.164-1.32-.492c-.336-.328-.504-.776-.504-1.344 0-.568.168-1.016.504-1.344.344-.336.784-.504 1.32-.504zm5.076.108L28.07 163h-1.344l4.8-8.484h1.332zm-5.964 1.74c0 .304.08.548.24.732.16.176.372.264.636.264a.801.801 0 00.636-.276c.168-.184.252-.424.252-.72 0-.304-.084-.548-.252-.732a.801.801 0 00-.636-.276.801.801 0 00-.636.276c-.16.184-.24.428-.24.732zm4.92 3.168c.536 0 .972.164 1.308.492.344.328.516.776.516 1.344 0 .568-.172 1.02-.516 1.356-.336.328-.772.492-1.308.492-.528 0-.964-.164-1.308-.492-.336-.336-.504-.788-.504-1.356 0-.56.168-1.004.504-1.332.344-.336.78-.504 1.308-.504zm-.876 1.836c0 .304.08.548.24.732.16.184.372.276.636.276a.801.801 0 00.636-.276c.168-.184.252-.428.252-.732 0-.296-.084-.536-.252-.72a.801.801 0 00-.636-.276.801.801 0 00-.636.276c-.16.184-.24.424-.24.72zM4.812 105.812v-1.284h2.712V113h-1.44v-7.188H4.812zm5.432 5.676V113H8.696v-1.512h1.548zm6.87-5.88h-4.189v2.52c.192-.248.464-.444.816-.588.352-.152.74-.228 1.164-.228.592 0 1.084.128 1.476.384.392.248.68.58.864.996.192.416.288.876.288 1.38 0 .888-.248 1.608-.744 2.16-.496.544-1.216.816-2.16.816-.888 0-1.604-.236-2.148-.708s-.84-1.1-.888-1.884h1.344c.072.432.248.772.528 1.02.288.248.652.372 1.092.372.544 0 .952-.164 1.224-.492.272-.328.408-.764.408-1.308 0-.512-.14-.912-.42-1.2-.28-.296-.68-.444-1.2-.444-.368 0-.692.08-.972.24a1.48 1.48 0 00-.6.636h-1.332v-4.884h5.448v1.212zm1.62 3.096c0 1.352.24 2.412.72 3.18.48.76 1.28 1.14 2.4 1.14 1.12 0 1.92-.384 2.4-1.152.48-.768.72-1.824.72-3.168 0-1.336-.24-2.384-.72-3.144-.48-.768-1.28-1.152-2.4-1.152-1.12 0-1.92.38-2.4 1.14-.48.76-.72 1.812-.72 3.156zm4.871 0c0 .976-.12 1.724-.36 2.244-.24.52-.704.78-1.392.78-.696 0-1.164-.26-1.404-.78s-.36-1.268-.36-2.244c0-.968.12-1.708.36-2.22.24-.512.708-.768 1.404-.768.688 0 1.152.26 1.392.78.24.512.36 1.248.36 2.208zm4.177-4.296c.536 0 .972.168 1.308.504.336.328.504.776.504 1.344 0 .568-.168 1.016-.504 1.344-.336.328-.772.492-1.308.492s-.976-.164-1.32-.492c-.336-.328-.504-.776-.504-1.344 0-.568.168-1.016.504-1.344.344-.336.784-.504 1.32-.504zm5.076.108L28.07 113h-1.344l4.8-8.484h1.332zm-5.964 1.74c0 .304.08.548.24.732.16.176.372.264.636.264a.801.801 0 00.636-.276c.168-.184.252-.424.252-.72 0-.304-.084-.548-.252-.732a.801.801 0 00-.636-.276.801.801 0 00-.636.276c-.16.184-.24.428-.24.732zm4.92 3.168c.536 0 .972.164 1.308.492.344.328.516.776.516 1.344 0 .568-.172 1.02-.516 1.356-.336.328-.772.492-1.308.492-.528 0-.964-.164-1.308-.492-.336-.336-.504-.788-.504-1.356 0-.56.168-1.004.504-1.332.344-.336.78-.504 1.308-.504zm-.876 1.836c0 .304.08.548.24.732.16.184.372.276.636.276a.801.801 0 00.636-.276c.168-.184.252-.428.252-.732 0-.296-.084-.536-.252-.72a.801.801 0 00-.636-.276.801.801 0 00-.636.276c-.16.184-.24.424-.24.72zM2.02 61.932c1.295-.888 2.331-1.756 3.107-2.604.784-.856 1.176-1.648 1.176-2.376 0-.432-.108-.776-.324-1.032-.208-.256-.548-.384-1.02-.384-.488 0-.856.16-1.104.48-.248.312-.388.76-.42 1.344H2.103c.056-.968.352-1.708.888-2.22.544-.512 1.236-.768 2.076-.768.824 0 1.468.22 1.932.66.472.432.708 1.032.708 1.8 0 .616-.192 1.24-.576 1.872a7.773 7.773 0 01-1.44 1.752c-.584.528-1.188.984-1.812 1.368H7.9v1.116H2.02v-1.008zm8.236-.444V63H8.708v-1.512h1.548zm1-2.784c0 1.352.24 2.412.72 3.18.48.76 1.28 1.14 2.4 1.14 1.12 0 1.92-.384 2.4-1.152.48-.768.72-1.824.72-3.168 0-1.336-.24-2.384-.72-3.144-.48-.768-1.28-1.152-2.4-1.152-1.12 0-1.92.38-2.4 1.14-.48.76-.72 1.812-.72 3.156zm4.873 0c0 .976-.12 1.724-.36 2.244-.24.52-.704.78-1.392.78-.696 0-1.164-.26-1.404-.78s-.36-1.268-.36-2.244c0-.968.12-1.708.36-2.22.24-.512.708-.768 1.404-.768.688 0 1.152.26 1.392.78.24.512.36 1.248.36 2.208zm2.604 0c0 1.352.24 2.412.72 3.18.48.76 1.28 1.14 2.4 1.14 1.12 0 1.92-.384 2.4-1.152.48-.768.72-1.824.72-3.168 0-1.336-.24-2.384-.72-3.144-.48-.768-1.28-1.152-2.4-1.152-1.12 0-1.92.38-2.4 1.14-.48.76-.72 1.812-.72 3.156zm4.872 0c0 .976-.12 1.724-.36 2.244-.24.52-.704.78-1.392.78-.696 0-1.164-.26-1.404-.78s-.36-1.268-.36-2.244c0-.968.12-1.708.36-2.22.24-.512.708-.768 1.404-.768.688 0 1.152.26 1.392.78.24.512.36 1.248.36 2.208zm4.177-4.296c.536 0 .972.168 1.308.504.336.328.504.776.504 1.344 0 .568-.168 1.016-.504 1.344-.336.328-.772.492-1.308.492s-.976-.164-1.32-.492c-.336-.328-.504-.776-.504-1.344 0-.568.168-1.016.504-1.344.344-.336.784-.504 1.32-.504zm5.076.108L28.07 63h-1.344l4.8-8.484h1.332zm-5.964 1.74c0 .304.08.548.24.732.16.176.372.264.636.264a.801.801 0 00.636-.276c.168-.184.252-.424.252-.72 0-.304-.084-.548-.252-.732a.801.801 0 00-.636-.276.801.801 0 00-.636.276c-.16.184-.24.428-.24.732zm4.92 3.168c.536 0 .972.164 1.308.492.344.328.516.776.516 1.344 0 .568-.172 1.02-.516 1.356-.336.328-.772.492-1.308.492-.528 0-.964-.164-1.308-.492-.336-.336-.504-.788-.504-1.356 0-.56.168-1.004.504-1.332.344-.336.78-.504 1.308-.504zm-.876 1.836c0 .304.08.548.24.732.16.184.372.276.636.276a.801.801 0 00.636-.276c.168-.184.252-.428.252-.732 0-.296-.084-.536-.252-.72a.801.801 0 00-.636-.276.801.801 0 00-.636.276c-.16.184-.24.424-.24.72z" fill="#C0C0C7"/><defs><linearGradient id="paint0_linear_98_276" x1="64" y1="136" x2="64" y2="257" gradientUnits="userSpaceOnUse"><stop stop-color="#EDA13D"/><stop offset="1" stop-color="#EDA13D" stop-opacity="0"/></linearGradient><linearGradient id="paint1_linear_98_276" x1="80" y1="120" x2="80" y2="257" gradientUnits="userSpaceOnUse"><stop stop-color="#7963B8"/><stop offset="1" stop-color="#7963B8" stop-opacity="0"/></linearGradient><linearGradient id="paint2_linear_98_276" x1="96" y1="159" x2="96" y2="257" gradientUnits="userSpaceOnUse"><stop stop-color="#EDD13D"/><stop offset="1" stop-color="#EDD13D" stop-opacity="0"/></linearGradient><linearGradient id="paint3_linear_98_276" x1="112" y1="129" x2="112" y2="257" gradientUnits="userSpaceOnUse"><stop stop-color="#59A5FE"/><stop offset="1" stop-color="#59A5FE" stop-opacity="0"/></linearGradient><linearGradient id="paint4_linear_98_276" x1="128" y1="80" x2="128" y2="257" gradientUnits="userSpaceOnUse"><stop stop-color="#B86363"/><stop offset="1" stop-color="#B86363" stop-opacity="0"/></linearGradient><linearGradient id="paint5_linear_98_276" x1="159" y1="161" x2="159" y2="257" gradientUnits="userSpaceOnUse"><stop stop-color="#EDA13D"/><stop offset="1" stop-color="#EDA13D" stop-opacity="0"/></linearGradient><linearGradient id="paint6_linear_98_276" x1="175" y1="152" x2="175" y2="257" gradientUnits="userSpaceOnUse"><stop stop-color="#7963B8"/><stop offset="1" stop-color="#7963B8" stop-opacity="0"/></linearGradient><linearGradient id="paint7_linear_98_276" x1="191" y1="162" x2="191" y2="257" gradientUnits="userSpaceOnUse"><stop stop-color="#EDD13D"/><stop offset="1" stop-color="#EDD13D" stop-opacity="0"/></linearGradient><linearGradient id="paint8_linear_98_276" x1="207" y1="139" x2="207" y2="257" gradientUnits="userSpaceOnUse"><stop stop-color="#59A5FE"/><stop offset="1" stop-color="#59A5FE" stop-opacity="0"/></linearGradient><linearGradient id="paint9_linear_98_276" x1="223" y1="120" x2="223" y2="257" gradientUnits="userSpaceOnUse"><stop stop-color="#B86363"/><stop offset="1" stop-color="#B86363" stop-opacity="0"/></linearGradient><linearGradient id="paint10_linear_98_276" x1="254" y1="121" x2="254" y2="257" gradientUnits="userSpaceOnUse"><stop stop-color="#EDA13D"/><stop offset="1" stop-color="#EDA13D" stop-opacity="0"/></linearGradient><linearGradient id="paint11_linear_98_276" x1="270" y1="159" x2="270" y2="257" gradientUnits="userSpaceOnUse"><stop stop-color="#7963B8"/><stop offset="1" stop-color="#7963B8" stop-opacity="0"/></linearGradient><linearGradient id="paint12_linear_98_276" x1="286" y1="141" x2="286" y2="257" gradientUnits="userSpaceOnUse"><stop stop-color="#EDD13D"/><stop offset="1" stop-color="#EDD13D" stop-opacity="0"/></linearGradient><linearGradient id="paint13_linear_98_276" x1="302" y1="109" x2="302" y2="257" gradientUnits="userSpaceOnUse"><stop stop-color="#59A5FE"/><stop offset="1" stop-color="#59A5FE" stop-opacity="0"/></linearGradient><linearGradient id="paint14_linear_98_276" x1="318" y1="121" x2="318" y2="257" gradientUnits="userSpaceOnUse"><stop stop-color="#B86363"/><stop offset="1" stop-color="#B86363" stop-opacity="0"/></linearGradient><linearGradient id="paint15_linear_98_276" x1="349" y1="69" x2="349" y2="257" gradientUnits="userSpaceOnUse"><stop stop-color="#EDA13D"/><stop offset="1" stop-color="#EDA13D" stop-opacity="0"/></linearGradient><linearGradient id="paint16_linear_98_276" x1="365" y1="120" x2="365" y2="257" gradientUnits="userSpaceOnUse"><stop stop-color="#7963B8"/><stop offset="1" stop-color="#7963B8" stop-opacity="0"/></linearGradient><linearGradient id="paint17_linear_98_276" x1="381" y1="147" x2="381" y2="257" gradientUnits="userSpaceOnUse"><stop stop-color="#EDD13D"/><stop offset="1" stop-color="#EDD13D" stop-opacity="0"/></linearGradient><linearGradient id="paint18_linear_98_276" x1="397" y1="97" x2="397" y2="257" gradientUnits="userSpaceOnUse"><stop stop-color="#59A5FE"/><stop offset="1" stop-color="#59A5FE" stop-opacity="0"/></linearGradient><linearGradient id="paint19_linear_98_276" x1="413" y1="84" x2="413" y2="257" gradientUnits="userSpaceOnUse"><stop stop-color="#B86363"/><stop offset="1" stop-color="#B86363" stop-opacity="0"/></linearGradient><linearGradient id="paint20_linear_98_276" x1="444" y1="57" x2="444" y2="257" gradientUnits="userSpaceOnUse"><stop stop-color="#EDA13D"/><stop offset="1" stop-color="#EDA13D" stop-opacity="0"/></linearGradient><linearGradient id="paint21_linear_98_276" x1="460" y1="123" x2="460" y2="257" gradientUnits="userSpaceOnUse"><stop stop-color="#7963B8"/><stop offset="1" stop-color="#7963B8" stop-opacity="0"/></linearGradient><linearGradient id="paint22_linear_98_276" x1="476" y1="141" x2="476" y2="257" gradientUnits="userSpaceOnUse"><stop stop-color="#EDD13D"/><stop offset="1" stop-color="#EDD13D" stop-opacity="0"/></linearGradient><linearGradient id="paint23_linear_98_276" x1="492" y1="83" x2="492" y2="257" gradientUnits="userSpaceOnUse"><stop stop-color="#59A5FE"/><stop offset="1" stop-color="#59A5FE" stop-opacity="0"/></linearGradient><linearGradient id="paint24_linear_98_276" x1="508" y1="95" x2="508" y2="257" gradientUnits="userSpaceOnUse"><stop stop-color="#B86363"/><stop offset="1" stop-color="#B86363" stop-opacity="0"/></linearGradient></defs></svg>