<svg viewBox="0 0 1080 338" fill="none" xmlns="http://www.w3.org/2000/svg"><path d="M2.007 11.932c1.296-.888 2.332-1.756 3.108-2.604.784-.856 1.176-1.648 1.176-2.376 0-.432-.108-.776-.324-1.032-.208-.256-.548-.384-1.02-.384-.488 0-.856.16-1.104.48-.248.312-.388.76-.42 1.344H2.091c.056-.968.352-1.708.888-2.22.544-.512 1.236-.768 2.076-.768.824 0 1.468.22 1.932.66.472.432.708 1.032.708 1.8 0 .616-.192 1.24-.576 1.872a7.773 7.773 0 01-1.44 1.752c-.584.528-1.188.984-1.812 1.368h4.02v1.116h-5.88v-1.008zm8.237-.444V13H8.696v-1.512h1.548zm6.87-5.88h-4.189v2.52c.192-.248.464-.444.816-.588.352-.152.74-.228 1.164-.228.592 0 1.084.128 1.476.384.392.248.68.58.864.996.192.416.288.876.288 1.38 0 .888-.248 1.608-.744 2.16-.496.544-1.216.816-2.16.816-.888 0-1.604-.236-2.148-.708s-.84-1.1-.888-1.884h1.344c.072.432.248.772.528 1.02.288.248.652.372 1.092.372.544 0 .952-.164 1.224-.492.272-.328.408-.764.408-1.308 0-.512-.14-.912-.42-1.2-.28-.296-.68-.444-1.2-.444-.368 0-.692.08-.972.24a1.48 1.48 0 00-.6.636h-1.332V4.396h5.448v1.212zm2.34 6.276c-.48-.768-.72-1.828-.72-3.18 0-1.344.24-2.396.72-3.156.48-.76 1.28-1.14 2.4-1.14 1.12 0 1.92.384 2.4 1.152.48.76.72 1.808.72 3.144 0 1.344-.24 2.4-.72 3.168-.48.768-1.28 1.152-2.4 1.152-1.12 0-1.92-.38-2.4-1.14zm3.791-.936c.24-.52.36-1.268.36-2.244 0-.96-.12-1.696-.36-2.208-.24-.52-.704-.78-1.392-.78-.696 0-1.164.256-1.404.768s-.36 1.252-.36 2.22c0 .976.12 1.724.36 2.244.24.52.708.78 1.404.78.688 0 1.152-.26 1.392-.78zm4.537-6.54c.536 0 .972.168 1.308.504.336.328.504.776.504 1.344 0 .568-.168 1.016-.504 1.344-.336.328-.772.492-1.308.492s-.976-.164-1.32-.492c-.336-.328-.504-.776-.504-1.344 0-.568.168-1.016.504-1.344.344-.336.784-.504 1.32-.504zm5.076.108L28.07 13h-1.344l4.8-8.484h1.332zm-5.964 1.74c0 .304.08.548.24.732.16.176.372.264.636.264a.801.801 0 00.636-.276c.168-.184.252-.424.252-.72 0-.304-.084-.548-.252-.732a.801.801 0 00-.636-.276.801.801 0 00-.636.276c-.16.184-.24.428-.24.732zm4.92 3.168c.536 0 .972.164 1.308.492.344.328.516.776.516 1.344 0 .568-.172 1.02-.516 1.356-.336.328-.772.492-1.308.492-.528 0-.964-.164-1.308-.492-.336-.336-.504-.788-.504-1.356 0-.56.168-1.004.504-1.332.344-.336.78-.504 1.308-.504zm-.876 1.836c0 .304.08.548.24.732.16.184.372.276.636.276a.801.801 0 00.636-.276c.168-.184.252-.428.252-.732 0-.296-.084-.536-.252-.72a.801.801 0 00-.636-.276.801.801 0 00-.636.276c-.16.184-.24.424-.24.72zM2.215 316.884c-.48-.768-.72-1.828-.72-3.18 0-1.344.24-2.396.72-3.156.48-.76 1.28-1.14 2.4-1.14 1.12 0 1.92.384 2.4 1.152.48.76.72 1.808.72 3.144 0 1.344-.24 2.4-.72 3.168-.48.768-1.28 1.152-2.4 1.152-1.12 0-1.92-.38-2.4-1.14zm3.792-.936c.24-.52.36-1.268.36-2.244 0-.96-.12-1.696-.36-2.208-.24-.52-.704-.78-1.392-.78-.696 0-1.164.256-1.404.768s-.36 1.252-.36 2.22c0 .976.12 1.724.36 2.244.24.52.708.78 1.404.78.688 0 1.152-.26 1.392-.78zm4.249.54V318H8.708v-1.512h1.548zm1.72.396c-.48-.768-.72-1.828-.72-3.18 0-1.344.24-2.396.72-3.156.48-.76 1.28-1.14 2.4-1.14 1.12 0 1.92.384 2.4 1.152.48.76.72 1.808.72 3.144 0 1.344-.24 2.4-.72 3.168-.48.768-1.28 1.152-2.4 1.152-1.12 0-1.92-.38-2.4-1.14zm3.793-.936c.24-.52.36-1.268.36-2.244 0-.96-.12-1.696-.36-2.208-.24-.52-.704-.78-1.392-.78-.696 0-1.164.256-1.404.768s-.36 1.252-.36 2.22c0 .976.12 1.724.36 2.244.24.52.708.78 1.404.78.688 0 1.152-.26 1.392-.78zm3.684.936c-.48-.768-.72-1.828-.72-3.18 0-1.344.24-2.396.72-3.156.48-.76 1.28-1.14 2.4-1.14 1.12 0 1.92.384 2.4 1.152.48.76.72 1.808.72 3.144 0 1.344-.24 2.4-.72 3.168-.48.768-1.28 1.152-2.4 1.152-1.12 0-1.92-.38-2.4-1.14zm3.792-.936c.24-.52.36-1.268.36-2.244 0-.96-.12-1.696-.36-2.208-.24-.52-.704-.78-1.392-.78-.696 0-1.164.256-1.404.768s-.36 1.252-.36 2.22c0 .976.12 1.724.36 2.244.24.52.708.78 1.404.78.688 0 1.152-.26 1.392-.78zm4.537-6.54c.536 0 .972.168 1.308.504.336.328.504.776.504 1.344 0 .568-.168 1.016-.504 1.344-.336.328-.772.492-1.308.492s-.976-.164-1.32-.492c-.336-.328-.504-.776-.504-1.344 0-.568.168-1.016.504-1.344.344-.336.784-.504 1.32-.504zm5.076.108L28.07 318h-1.344l4.8-8.484h1.332zm-5.964 1.74c0 .304.08.548.24.732.16.176.372.264.636.264a.801.801 0 00.636-.276c.168-.184.252-.424.252-.72 0-.304-.084-.548-.252-.732a.801.801 0 00-.636-.276.801.801 0 00-.636.276c-.16.184-.24.428-.24.732zm4.92 3.168c.536 0 .972.164 1.308.492.344.328.516.776.516 1.344 0 .568-.172 1.02-.516 1.356-.336.328-.772.492-1.308.492-.528 0-.964-.164-1.308-.492-.336-.336-.504-.788-.504-1.356 0-.56.168-1.004.504-1.332.344-.336.78-.504 1.308-.504zm-.876 1.836c0 .304.08.548.24.732.16.184.372.276.636.276a.801.801 0 00.636-.276c.168-.184.252-.428.252-.732 0-.296-.084-.536-.252-.72a.801.801 0 00-.636-.276.801.801 0 00-.636.276c-.16.184-.24.424-.24.72z" fill="#C0C0C7"/><path opacity=".08" d="M42 315h1038M42 253h1038M42 192h1038M42 131h1038M42 70h1038M42 9h1038" stroke="#fff" stroke-dasharray="8 8"/><path d="M185.505 324.624v5.88c0 .816-.236 1.452-.708 1.908-.472.448-1.104.672-1.896.672-.8 0-1.448-.232-1.944-.696-.488-.464-.732-1.112-.732-1.944h1.68c.008.36.092.64.252.84.168.2.408.3.72.3.304 0 .536-.096.696-.288.16-.192.24-.456.24-.792v-5.88h1.692zm1.528 5.028c0-.672.132-1.268.396-1.788.272-.52.636-.92 1.092-1.2.464-.28.98-.42 1.548-.42.496 0 .928.1 1.296.3.376.2.676.452.9.756v-.948h1.692V333h-1.692v-.972a2.539 2.539 0 01-.9.78c-.376.2-.812.3-1.308.3-.56 0-1.072-.144-1.536-.432a3.091 3.091 0 01-1.092-1.212c-.264-.528-.396-1.132-.396-1.812zm5.232.024c0-.408-.08-.756-.24-1.044a1.642 1.642 0 00-.648-.672 1.699 1.699 0 00-.876-.24c-.312 0-.6.076-.864.228-.264.152-.48.376-.648.672-.16.288-.24.632-.24 1.032s.08.752.24 1.056c.168.296.384.524.648.684.272.16.56.24.864.24.312 0 .604-.076.876-.228.272-.16.488-.384.648-.672.16-.296.24-.648.24-1.056zm7.017-3.42c.792 0 1.432.252 1.92.756.488.496.732 1.192.732 2.088v3.9h-1.68v-3.672c0-.528-.132-.932-.396-1.212-.264-.288-.624-.432-1.08-.432-.464 0-.832.144-1.104.432-.264.28-.396.684-.396 1.212V333h-1.68v-6.648h1.68v.828c.224-.288.508-.512.852-.672a2.64 2.64 0 011.152-.252zm10.525.096V333h-1.692v-.84a2.26 2.26 0 01-.852.684c-.344.16-.72.24-1.128.24-.52 0-.98-.108-1.38-.324a2.413 2.413 0 01-.948-.972c-.224-.432-.336-.944-.336-1.536v-3.9h1.68v3.66c0 .528.132.936.396 1.224.264.28.624.42 1.08.42.464 0 .828-.14 1.092-.42.264-.288.396-.696.396-1.224v-3.66h1.692zm1.226 3.3c0-.672.132-1.268.396-1.788.272-.52.636-.92 1.092-1.2.464-.28.98-.42 1.548-.42.496 0 .928.1 1.296.3.376.2.676.452.9.756v-.948h1.692V333h-1.692v-.972a2.539 2.539 0 01-.9.78c-.376.2-.812.3-1.308.3-.56 0-1.072-.144-1.536-.432a3.091 3.091 0 01-1.092-1.212c-.264-.528-.396-1.132-.396-1.812zm5.232.024c0-.408-.08-.756-.24-1.044a1.642 1.642 0 00-.648-.672 1.699 1.699 0 00-.876-.24c-.312 0-.6.076-.864.228-.264.152-.48.376-.648.672-.16.288-.24.632-.24 1.032s.08.752.24 1.056c.168.296.384.524.648.684.272.16.56.24.864.24.312 0 .604-.076.876-.228.272-.16.488-.384.648-.672.16-.296.24-.648.24-1.056zm5.013-2.292c.216-.352.496-.628.84-.828.352-.2.752-.3 1.2-.3v1.764h-.444c-.528 0-.928.124-1.2.372-.264.248-.396.68-.396 1.296V333h-1.68v-6.648h1.68v1.032zm9.531-1.032l-4.116 9.792h-1.788l1.44-3.312-2.664-6.48h1.884l1.716 4.644 1.74-4.644h1.788zm140.75-1.728v1.356h-3.492v2.148h2.676v1.332h-2.676V333h-1.68v-8.376h5.172zm7.371 4.908c0 .24-.016.456-.048.648h-4.86c.04.48.208.856.504 1.128.296.272.66.408 1.092.408.624 0 1.068-.268 1.332-.804h1.812a3.059 3.059 0 01-1.104 1.584c-.544.408-1.212.612-2.004.612-.64 0-1.216-.14-1.728-.42a3.091 3.091 0 01-1.188-1.212c-.28-.52-.42-1.12-.42-1.8 0-.688.14-1.292.42-1.812.28-.52.672-.92 1.176-1.2.504-.28 1.084-.42 1.74-.42.632 0 1.196.136 1.692.408.504.272.892.66 1.164 1.164.28.496.42 1.068.42 1.716zm-1.74-.48c-.008-.432-.164-.776-.468-1.032-.304-.264-.676-.396-1.116-.396-.416 0-.768.128-1.056.384-.28.248-.452.596-.516 1.044h3.156zm4.646-1.728c.216-.32.512-.58.888-.78.384-.2.82-.3 1.308-.3a2.876 2.876 0 012.628 1.62c.272.512.408 1.108.408 1.788 0 .68-.136 1.284-.408 1.812-.264.52-.628.924-1.092 1.212a2.816 2.816 0 01-1.536.432c-.496 0-.932-.096-1.308-.288a2.6 2.6 0 01-.888-.768V333h-1.68v-8.88h1.68v3.204zm3.516 2.328c0-.4-.084-.744-.252-1.032a1.701 1.701 0 00-1.512-.9c-.304 0-.592.08-.864.24-.264.152-.48.376-.648.672-.16.296-.24.644-.24 1.044s.08.748.24 1.044c.168.296.384.524.648.684.272.152.56.228.864.228.312 0 .6-.08.864-.24.272-.16.488-.388.648-.684.168-.296.252-.648.252-1.056zm4.617-2.268c.216-.352.496-.628.84-.828.352-.2.752-.3 1.2-.3v1.764h-.444c-.528 0-.928.124-1.2.372-.264.248-.396.68-.396 1.296V333h-1.68v-6.648h1.68v1.032zm9.448-1.032V333h-1.692v-.84a2.26 2.26 0 01-.852.684c-.344.16-.72.24-1.128.24-.52 0-.98-.108-1.38-.324a2.413 2.413 0 01-.948-.972c-.224-.432-.336-.944-.336-1.536v-3.9h1.68v3.66c0 .528.132.936.396 1.224.264.28.624.42 1.08.42.464 0 .828-.14 1.092-.42.264-.288.396-.696.396-1.224v-3.66h1.692zm1.225 3.3c0-.672.132-1.268.396-1.788.272-.52.636-.92 1.092-1.2.464-.28.98-.42 1.548-.42.496 0 .928.1 1.296.3.376.2.676.452.9.756v-.948h1.692V333h-1.692v-.972a2.539 2.539 0 01-.9.78c-.376.2-.812.3-1.308.3-.56 0-1.072-.144-1.536-.432a3.091 3.091 0 01-1.092-1.212c-.264-.528-.396-1.132-.396-1.812zm5.232.024c0-.408-.08-.756-.24-1.044a1.642 1.642 0 00-.648-.672 1.699 1.699 0 00-.876-.24c-.312 0-.6.076-.864.228-.264.152-.48.376-.648.672-.16.288-.24.632-.24 1.032s.08.752.24 1.056c.168.296.384.524.648.684.272.16.56.24.864.24.312 0 .604-.076.876-.228.272-.16.488-.384.648-.672.16-.296.24-.648.24-1.056zm5.013-2.292c.216-.352.496-.628.84-.828.352-.2.752-.3 1.2-.3v1.764h-.444c-.528 0-.928.124-1.2.372-.264.248-.396.68-.396 1.296V333h-1.68v-6.648h1.68v1.032zm9.532-1.032l-4.116 9.792h-1.788l1.44-3.312-2.664-6.48h1.884l1.716 4.644 1.74-4.644h1.788zm151.785-1.728V333h-1.68v-5.448L568.28 333h-1.272l-2.256-5.448V333h-1.68v-8.376h1.908l2.664 6.228 2.664-6.228h1.896zm1.229 5.028c0-.672.132-1.268.396-1.788.272-.52.636-.92 1.092-1.2.464-.28.98-.42 1.548-.42.496 0 .928.1 1.296.3.376.2.676.452.9.756v-.948h1.692V333h-1.692v-.972a2.539 2.539 0 01-.9.78c-.376.2-.812.3-1.308.3-.56 0-1.072-.144-1.536-.432a3.091 3.091 0 01-1.092-1.212c-.264-.528-.396-1.132-.396-1.812zm5.232.024c0-.408-.08-.756-.24-1.044a1.642 1.642 0 00-.648-.672 1.699 1.699 0 00-.876-.24c-.312 0-.6.076-.864.228-.264.152-.48.376-.648.672-.16.288-.24.632-.24 1.032s.08.752.24 1.056c.168.296.384.524.648.684.272.16.56.24.864.24.312 0 .604-.076.876-.228.272-.16.488-.384.648-.672.16-.296.24-.648.24-1.056zm5.012-2.292c.216-.352.496-.628.84-.828.352-.2.752-.3 1.2-.3v1.764h-.444c-.528 0-.928.124-1.2.372-.264.248-.396.68-.396 1.296V333h-1.68v-6.648h1.68v1.032zm2.74 2.292c0-.688.14-1.288.42-1.8.28-.52.668-.92 1.164-1.2.496-.288 1.064-.432 1.704-.432.824 0 1.504.208 2.04.624.544.408.908.984 1.092 1.728h-1.812a1.282 1.282 0 00-.492-.672c-.224-.168-.504-.252-.84-.252-.48 0-.86.176-1.14.528-.28.344-.42.836-.42 1.476 0 .632.14 1.124.42 1.476.28.344.66.516 1.14.516.68 0 1.124-.304 1.332-.912h1.812c-.184.72-.548 1.292-1.092 1.716-.544.424-1.224.636-2.04.636-.64 0-1.208-.14-1.704-.42a3.054 3.054 0 01-1.164-1.2c-.28-.52-.42-1.124-.42-1.812zm11.395-3.42c.504 0 .952.112 1.344.336.392.216.696.54.912.972.224.424.336.936.336 1.536v3.9h-1.68v-3.672c0-.528-.132-.932-.396-1.212-.264-.288-.624-.432-1.08-.432-.464 0-.832.144-1.104.432-.264.28-.396.684-.396 1.212V333h-1.68v-8.88h1.68v3.06c.216-.288.504-.512.864-.672.36-.168.76-.252 1.2-.252zm359.115-1.632V333h-1.68v-5.448L953.003 333h-1.272l-2.256-5.448V333h-1.68v-8.376h1.908l2.664 6.228 2.664-6.228h1.896zm1.229 5.028c0-.672.132-1.268.396-1.788.272-.52.636-.92 1.092-1.2.464-.28.98-.42 1.548-.42.496 0 .928.1 1.296.3.376.2.676.452.9.756v-.948h1.692V333h-1.692v-.972a2.539 2.539 0 01-.9.78c-.376.2-.812.3-1.308.3-.56 0-1.072-.144-1.536-.432a3.091 3.091 0 01-1.092-1.212c-.264-.528-.396-1.132-.396-1.812zm5.232.024c0-.408-.08-.756-.24-1.044a1.642 1.642 0 00-.648-.672 1.699 1.699 0 00-.876-.24c-.312 0-.6.076-.864.228-.264.152-.48.376-.648.672-.16.288-.24.632-.24 1.032s.08.752.24 1.056c.168.296.384.524.648.684.272.16.56.24.864.24.312 0 .604-.076.876-.228.272-.16.488-.384.648-.672.16-.296.24-.648.24-1.056zm9.693-3.324l-4.116 9.792h-1.788l1.44-3.312-2.664-6.48h1.884l1.716 4.644 1.74-4.644h1.788zm-210.855 5.052h-3.336l-.552 1.596h-1.764l3.012-8.388h1.956l3.012 8.388h-1.776l-.552-1.596zm-.456-1.344l-1.212-3.504-1.212 3.504h2.424zm5.59-2.748a2.51 2.51 0 01.888-.756c.384-.208.82-.312 1.308-.312a2.876 2.876 0 012.628 1.62c.272.512.408 1.108.408 1.788 0 .68-.136 1.284-.408 1.812-.264.52-.628.924-1.092 1.212a2.816 2.816 0 01-1.536.432c-.488 0-.92-.1-1.296-.3a2.786 2.786 0 01-.9-.756v4.116h-1.68v-9.816h1.68v.96zm3.516 2.34c0-.4-.084-.744-.252-1.032a1.701 1.701 0 00-1.512-.9c-.304 0-.592.08-.864.24-.264.152-.48.376-.648.672-.16.296-.24.644-.24 1.044s.08.748.24 1.044c.168.296.384.524.648.684.272.152.56.228.864.228.312 0 .6-.08.864-.24.272-.16.488-.388.648-.684.168-.296.252-.648.252-1.056zm4.617-2.268c.216-.352.496-.628.84-.828.352-.2.752-.3 1.2-.3v1.764h-.444c-.528 0-.928.124-1.2.372-.264.248-.396.68-.396 1.296V333h-1.68v-6.648h1.68v1.032zm4.023-1.824c-.296 0-.544-.092-.744-.276a.962.962 0 01-.288-.708c0-.28.096-.512.288-.696.2-.192.448-.288.744-.288s.54.096.732.288c.2.184.3.416.3.696 0 .28-.1.516-.3.708a1.015 1.015 0 01-.732.276zm.828.792V333h-1.68v-6.648h1.68zm3.34-2.232V333h-1.68v-8.88h1.68z" fill="#C0C0C7"/><rect x="108" y="164.066" width="24" height="151.934" rx="4" fill="url(#paint0_linear_564_30)"/><rect x="140" y="144.729" width="24" height="171.271" rx="4" fill="url(#paint1_linear_564_30)"/><rect x="172" y="193.072" width="23" height="122.928" rx="4" fill="url(#paint2_linear_564_30)"/><rect x="203" y="155.779" width="24" height="160.221" rx="4" fill="url(#paint3_linear_564_30)"/><rect x="235" y="95.005" width="24" height="220.994" rx="4" fill="url(#paint4_linear_564_30)"/><rect x="297" y="195.834" width="24" height="120.166" rx="4" fill="url(#paint5_linear_564_30)"/><rect x="328" y="184.785" width="24" height="131.215" rx="4" fill="url(#paint6_linear_564_30)"/><rect x="360" y="197.216" width="24" height="118.785" rx="4" fill="url(#paint7_linear_564_30)"/><rect x="392" y="168.21" width="24" height="147.79" rx="4" fill="url(#paint8_linear_564_30)"/><rect x="424" y="144.729" width="24" height="171.271" rx="4" fill="url(#paint9_linear_564_30)"/><rect x="485" y="146.11" width="24" height="169.89" rx="4" fill="url(#paint10_linear_564_30)"/><rect x="517" y="193.071" width="24" height="122.928" rx="4" fill="url(#paint11_linear_564_30)"/><rect x="549" y="170.973" width="24" height="145.028" rx="4" fill="url(#paint12_linear_564_30)"/><rect x="581" y="130.917" width="24" height="185.083" rx="4" fill="url(#paint13_linear_564_30)"/><rect x="612" y="146.11" width="24" height="169.89" rx="4" fill="url(#paint14_linear_564_30)"/><rect x="674" y="81.193" width="24" height="234.807" rx="4" fill="url(#paint15_linear_564_30)"/><rect x="706" y="144.729" width="24" height="171.271" rx="4" fill="url(#paint16_linear_564_30)"/><rect x="738" y="177.879" width="23" height="138.122" rx="4" fill="url(#paint17_linear_564_30)"/><rect x="769" y="115.724" width="24" height="200.276" rx="4" fill="url(#paint18_linear_564_30)"/><rect x="801" y="99.15" width="24" height="216.851" rx="4" fill="url(#paint19_linear_564_30)"/><rect x="863" y="66" width="24" height="250" rx="4" fill="url(#paint20_linear_564_30)"/><rect x="895" y="148.873" width="23" height="167.127" rx="4" fill="url(#paint21_linear_564_30)"/><rect x="926" y="170.973" width="24" height="145.028" rx="4" fill="url(#paint22_linear_564_30)"/><rect x="958" y="99.15" width="24" height="216.851" rx="4" fill="url(#paint23_linear_564_30)"/><rect x="990" y="112.961" width="24" height="203.039" rx="4" fill="url(#paint24_linear_564_30)"/><path d="M180 139l184.068 21.239c4.38.505 8.807.429 13.167-.227L752.993 103.5 941.674 94" stroke="#63B866" stroke-width="2"/><path d="M2.203 255.884c-.48-.768-.72-1.828-.72-3.18 0-1.344.24-2.396.72-3.156.48-.76 1.28-1.14 2.4-1.14 1.12 0 1.92.384 2.4 1.152.48.76.72 1.808.72 3.144 0 1.344-.24 2.4-.72 3.168-.48.768-1.28 1.152-2.4 1.152-1.12 0-1.92-.38-2.4-1.14zm3.792-.936c.24-.52.36-1.268.36-2.244 0-.96-.12-1.696-.36-2.208-.24-.52-.704-.78-1.392-.78-.696 0-1.164.256-1.404.768s-.36 1.252-.36 2.22c0 .976.12 1.724.36 2.244.24.52.708.78 1.404.78.688 0 1.152-.26 1.392-.78zm4.249.54V257H8.696v-1.512h1.548zm6.87-5.88h-4.189v2.52c.192-.248.464-.444.816-.588.352-.152.74-.228 1.164-.228.592 0 1.084.128 1.476.384.392.248.68.58.864.996.192.416.288.876.288 1.38 0 .888-.248 1.608-.744 2.16-.496.544-1.216.816-2.16.816-.888 0-1.604-.236-2.148-.708s-.84-1.1-.888-1.884h1.344c.072.432.248.772.528 1.02.288.248.652.372 1.092.372.544 0 .952-.164 1.224-.492.272-.328.408-.764.408-1.308 0-.512-.14-.912-.42-1.2-.28-.296-.68-.444-1.2-.444-.368 0-.692.08-.972.24a1.48 1.48 0 00-.6.636h-1.332v-4.884h5.448v1.212zm2.34 6.276c-.48-.768-.72-1.828-.72-3.18 0-1.344.24-2.396.72-3.156.48-.76 1.28-1.14 2.4-1.14 1.12 0 1.92.384 2.4 1.152.48.76.72 1.808.72 3.144 0 1.344-.24 2.4-.72 3.168-.48.768-1.28 1.152-2.4 1.152-1.12 0-1.92-.38-2.4-1.14zm3.791-.936c.24-.52.36-1.268.36-2.244 0-.96-.12-1.696-.36-2.208-.24-.52-.704-.78-1.392-.78-.696 0-1.164.256-1.404.768s-.36 1.252-.36 2.22c0 .976.12 1.724.36 2.244.24.52.708.78 1.404.78.688 0 1.152-.26 1.392-.78zm4.537-6.54c.536 0 .972.168 1.308.504.336.328.504.776.504 1.344 0 .568-.168 1.016-.504 1.344-.336.328-.772.492-1.308.492s-.976-.164-1.32-.492c-.336-.328-.504-.776-.504-1.344 0-.568.168-1.016.504-1.344.344-.336.784-.504 1.32-.504zm5.076.108L28.07 257h-1.344l4.8-8.484h1.332zm-5.964 1.74c0 .304.08.548.24.732.16.176.372.264.636.264a.801.801 0 00.636-.276c.168-.184.252-.424.252-.72 0-.304-.084-.548-.252-.732a.801.801 0 00-.636-.276.801.801 0 00-.636.276c-.16.184-.24.428-.24.732zm4.92 3.168c.536 0 .972.164 1.308.492.344.328.516.776.516 1.344 0 .568-.172 1.02-.516 1.356-.336.328-.772.492-1.308.492-.528 0-.964-.164-1.308-.492-.336-.336-.504-.788-.504-1.356 0-.56.168-1.004.504-1.332.344-.336.78-.504 1.308-.504zm-.876 1.836c0 .304.08.548.24.732.16.184.372.276.636.276a.801.801 0 00.636-.276c.168-.184.252-.428.252-.732 0-.296-.084-.536-.252-.72a.801.801 0 00-.636-.276.801.801 0 00-.636.276c-.16.184-.24.424-.24.72zM4.824 188.812v-1.284h2.712V196h-1.44v-7.188H4.824zm5.432 5.676V196H8.708v-1.512h1.548zm1.72.396c-.48-.768-.72-1.828-.72-3.18 0-1.344.24-2.396.72-3.156.48-.76 1.28-1.14 2.4-1.14 1.12 0 1.92.384 2.4 1.152.48.76.72 1.808.72 3.144 0 1.344-.24 2.4-.72 3.168-.48.768-1.28 1.152-2.4 1.152-1.12 0-1.92-.38-2.4-1.14zm3.793-.936c.24-.52.36-1.268.36-2.244 0-.96-.12-1.696-.36-2.208-.24-.52-.704-.78-1.392-.78-.696 0-1.164.256-1.404.768s-.36 1.252-.36 2.22c0 .976.12 1.724.36 2.244.24.52.708.78 1.404.78.688 0 1.152-.26 1.392-.78zm3.684.936c-.48-.768-.72-1.828-.72-3.18 0-1.344.24-2.396.72-3.156.48-.76 1.28-1.14 2.4-1.14 1.12 0 1.92.384 2.4 1.152.48.76.72 1.808.72 3.144 0 1.344-.24 2.4-.72 3.168-.48.768-1.28 1.152-2.4 1.152-1.12 0-1.92-.38-2.4-1.14zm3.792-.936c.24-.52.36-1.268.36-2.244 0-.96-.12-1.696-.36-2.208-.24-.52-.704-.78-1.392-.78-.696 0-1.164.256-1.404.768s-.36 1.252-.36 2.22c0 .976.12 1.724.36 2.244.24.52.708.78 1.404.78.688 0 1.152-.26 1.392-.78zm4.537-6.54c.536 0 .972.168 1.308.504.336.328.504.776.504 1.344 0 .568-.168 1.016-.504 1.344-.336.328-.772.492-1.308.492s-.976-.164-1.32-.492c-.336-.328-.504-.776-.504-1.344 0-.568.168-1.016.504-1.344.344-.336.784-.504 1.32-.504zm5.076.108L28.07 196h-1.344l4.8-8.484h1.332zm-5.964 1.74c0 .304.08.548.24.732.16.176.372.264.636.264a.801.801 0 00.636-.276c.168-.184.252-.424.252-.72 0-.304-.084-.548-.252-.732a.801.801 0 00-.636-.276.801.801 0 00-.636.276c-.16.184-.24.428-.24.732zm4.92 3.168c.536 0 .972.164 1.308.492.344.328.516.776.516 1.344 0 .568-.172 1.02-.516 1.356-.336.328-.772.492-1.308.492-.528 0-.964-.164-1.308-.492-.336-.336-.504-.788-.504-1.356 0-.56.168-1.004.504-1.332.344-.336.78-.504 1.308-.504zm-.876 1.836c0 .304.08.548.24.732.16.184.372.276.636.276a.801.801 0 00.636-.276c.168-.184.252-.428.252-.732 0-.296-.084-.536-.252-.72a.801.801 0 00-.636-.276.801.801 0 00-.636.276c-.16.184-.24.424-.24.72zM4.812 127.812v-1.284h2.712V135h-1.44v-7.188H4.812zm5.432 5.676V135H8.696v-1.512h1.548zm6.87-5.88h-4.189v2.52c.192-.248.464-.444.816-.588.352-.152.74-.228 1.164-.228.592 0 1.084.128 1.476.384.392.248.68.58.864.996.192.416.288.876.288 1.38 0 .888-.248 1.608-.744 2.16-.496.544-1.216.816-2.16.816-.888 0-1.604-.236-2.148-.708s-.84-1.1-.888-1.884h1.344c.072.432.248.772.528 1.02.288.248.652.372 1.092.372.544 0 .952-.164 1.224-.492.272-.328.408-.764.408-1.308 0-.512-.14-.912-.42-1.2-.28-.296-.68-.444-1.2-.444-.368 0-.692.08-.972.24a1.48 1.48 0 00-.6.636h-1.332v-4.884h5.448v1.212zm2.34 6.276c-.48-.768-.72-1.828-.72-3.18 0-1.344.24-2.396.72-3.156.48-.76 1.28-1.14 2.4-1.14 1.12 0 1.92.384 2.4 1.152.48.76.72 1.808.72 3.144 0 1.344-.24 2.4-.72 3.168-.48.768-1.28 1.152-2.4 1.152-1.12 0-1.92-.38-2.4-1.14zm3.791-.936c.24-.52.36-1.268.36-2.244 0-.96-.12-1.696-.36-2.208-.24-.52-.704-.78-1.392-.78-.696 0-1.164.256-1.404.768s-.36 1.252-.36 2.22c0 .976.12 1.724.36 2.244.24.52.708.78 1.404.78.688 0 1.152-.26 1.392-.78zm4.537-6.54c.536 0 .972.168 1.308.504.336.328.504.776.504 1.344 0 .568-.168 1.016-.504 1.344-.336.328-.772.492-1.308.492s-.976-.164-1.32-.492c-.336-.328-.504-.776-.504-1.344 0-.568.168-1.016.504-1.344.344-.336.784-.504 1.32-.504zm5.076.108L28.07 135h-1.344l4.8-8.484h1.332zm-5.964 1.74c0 .304.08.548.24.732.16.176.372.264.636.264a.801.801 0 00.636-.276c.168-.184.252-.424.252-.72 0-.304-.084-.548-.252-.732a.801.801 0 00-.636-.276.801.801 0 00-.636.276c-.16.184-.24.428-.24.732zm4.92 3.168c.536 0 .972.164 1.308.492.344.328.516.776.516 1.344 0 .568-.172 1.02-.516 1.356-.336.328-.772.492-1.308.492-.528 0-.964-.164-1.308-.492-.336-.336-.504-.788-.504-1.356 0-.56.168-1.004.504-1.332.344-.336.78-.504 1.308-.504zm-.876 1.836c0 .304.08.548.24.732.16.184.372.276.636.276a.801.801 0 00.636-.276c.168-.184.252-.428.252-.732 0-.296-.084-.536-.252-.72a.801.801 0 00-.636-.276.801.801 0 00-.636.276c-.16.184-.24.424-.24.72zM2.02 72.932c1.295-.888 2.331-1.756 3.107-2.604.784-.856 1.176-1.648 1.176-2.376 0-.432-.108-.776-.324-1.032-.208-.256-.548-.384-1.02-.384-.488 0-.856.16-1.104.48-.248.312-.388.76-.42 1.344H2.103c.056-.968.352-1.708.888-2.22.544-.512 1.236-.768 2.076-.768.824 0 1.468.22 1.932.66.472.432.708 1.032.708 1.8 0 .616-.192 1.24-.576 1.872a7.773 7.773 0 01-1.44 1.752c-.584.528-1.188.984-1.812 1.368H7.9v1.116H2.02v-1.008zm8.236-.444V74H8.708v-1.512h1.548zm1.72.396c-.48-.768-.72-1.828-.72-3.18 0-1.344.24-2.396.72-3.156.48-.76 1.28-1.14 2.4-1.14 1.12 0 1.92.384 2.4 1.152.48.76.72 1.808.72 3.144 0 1.344-.24 2.4-.72 3.168-.48.768-1.28 1.152-2.4 1.152-1.12 0-1.92-.38-2.4-1.14zm3.793-.936c.24-.52.36-1.268.36-2.244 0-.96-.12-1.696-.36-2.208-.24-.52-.704-.78-1.392-.78-.696 0-1.164.256-1.404.768s-.36 1.252-.36 2.22c0 .976.12 1.724.36 2.244.24.52.708.78 1.404.78.688 0 1.152-.26 1.392-.78zm3.684.936c-.48-.768-.72-1.828-.72-3.18 0-1.344.24-2.396.72-3.156.48-.76 1.28-1.14 2.4-1.14 1.12 0 1.92.384 2.4 1.152.48.76.72 1.808.72 3.144 0 1.344-.24 2.4-.72 3.168-.48.768-1.28 1.152-2.4 1.152-1.12 0-1.92-.38-2.4-1.14zm3.792-.936c.24-.52.36-1.268.36-2.244 0-.96-.12-1.696-.36-2.208-.24-.52-.704-.78-1.392-.78-.696 0-1.164.256-1.404.768s-.36 1.252-.36 2.22c0 .976.12 1.724.36 2.244.24.52.708.78 1.404.78.688 0 1.152-.26 1.392-.78zm4.537-6.54c.536 0 .972.168 1.308.504.336.328.504.776.504 1.344 0 .568-.168 1.016-.504 1.344-.336.328-.772.492-1.308.492s-.976-.164-1.32-.492c-.336-.328-.504-.776-.504-1.344 0-.568.168-1.016.504-1.344.344-.336.784-.504 1.32-.504zm5.076.108L28.07 74h-1.344l4.8-8.484h1.332zm-5.964 1.74c0 .304.08.548.24.732.16.176.372.264.636.264a.801.801 0 00.636-.276c.168-.184.252-.424.252-.72 0-.304-.084-.548-.252-.732a.801.801 0 00-.636-.276.801.801 0 00-.636.276c-.16.184-.24.428-.24.732zm4.92 3.168c.536 0 .972.164 1.308.492.344.328.516.776.516 1.344 0 .568-.172 1.02-.516 1.356-.336.328-.772.492-1.308.492-.528 0-.964-.164-1.308-.492-.336-.336-.504-.788-.504-1.356 0-.56.168-1.004.504-1.332.344-.336.78-.504 1.308-.504zm-.876 1.836c0 .304.08.548.24.732.16.184.372.276.636.276a.801.801 0 00.636-.276c.168-.184.252-.428.252-.732 0-.296-.084-.536-.252-.72a.801.801 0 00-.636-.276.801.801 0 00-.636.276c-.16.184-.24.424-.24.72z" fill="#C0C0C7"/><defs><linearGradient id="paint0_linear_564_30" x1="120" y1="164.066" x2="120" y2="316" gradientUnits="userSpaceOnUse"><stop stop-color="#EDA13D"/><stop offset="1" stop-color="#EDA13D" stop-opacity="0"/></linearGradient><linearGradient id="paint1_linear_564_30" x1="152" y1="144.729" x2="152" y2="316" gradientUnits="userSpaceOnUse"><stop stop-color="#7963B8"/><stop offset="1" stop-color="#7963B8" stop-opacity="0"/></linearGradient><linearGradient id="paint2_linear_564_30" x1="183.5" y1="193.072" x2="183.5" y2="316" gradientUnits="userSpaceOnUse"><stop stop-color="#EDD13D"/><stop offset="1" stop-color="#EDD13D" stop-opacity="0"/></linearGradient><linearGradient id="paint3_linear_564_30" x1="215" y1="155.779" x2="215" y2="316" gradientUnits="userSpaceOnUse"><stop stop-color="#59A5FE"/><stop offset="1" stop-color="#59A5FE" stop-opacity="0"/></linearGradient><linearGradient id="paint4_linear_564_30" x1="247" y1="95.005" x2="247" y2="316" gradientUnits="userSpaceOnUse"><stop stop-color="#B86363"/><stop offset="1" stop-color="#B86363" stop-opacity="0"/></linearGradient><linearGradient id="paint5_linear_564_30" x1="309" y1="195.834" x2="309" y2="316" gradientUnits="userSpaceOnUse"><stop stop-color="#EDA13D"/><stop offset="1" stop-color="#EDA13D" stop-opacity="0"/></linearGradient><linearGradient id="paint6_linear_564_30" x1="340" y1="184.785" x2="340" y2="316" gradientUnits="userSpaceOnUse"><stop stop-color="#7963B8"/><stop offset="1" stop-color="#7963B8" stop-opacity="0"/></linearGradient><linearGradient id="paint7_linear_564_30" x1="372" y1="197.216" x2="372" y2="316" gradientUnits="userSpaceOnUse"><stop stop-color="#EDD13D"/><stop offset="1" stop-color="#EDD13D" stop-opacity="0"/></linearGradient><linearGradient id="paint8_linear_564_30" x1="404" y1="168.21" x2="404" y2="316.001" gradientUnits="userSpaceOnUse"><stop stop-color="#59A5FE"/><stop offset="1" stop-color="#59A5FE" stop-opacity="0"/></linearGradient><linearGradient id="paint9_linear_564_30" x1="436" y1="144.729" x2="436" y2="316" gradientUnits="userSpaceOnUse"><stop stop-color="#B86363"/><stop offset="1" stop-color="#B86363" stop-opacity="0"/></linearGradient><linearGradient id="paint10_linear_564_30" x1="497" y1="146.11" x2="497" y2="316" gradientUnits="userSpaceOnUse"><stop stop-color="#EDA13D"/><stop offset="1" stop-color="#EDA13D" stop-opacity="0"/></linearGradient><linearGradient id="paint11_linear_564_30" x1="529" y1="193.071" x2="529" y2="315.999" gradientUnits="userSpaceOnUse"><stop stop-color="#7963B8"/><stop offset="1" stop-color="#7963B8" stop-opacity="0"/></linearGradient><linearGradient id="paint12_linear_564_30" x1="561" y1="170.973" x2="561" y2="316.001" gradientUnits="userSpaceOnUse"><stop stop-color="#EDD13D"/><stop offset="1" stop-color="#EDD13D" stop-opacity="0"/></linearGradient><linearGradient id="paint13_linear_564_30" x1="593" y1="130.917" x2="593" y2="316" gradientUnits="userSpaceOnUse"><stop stop-color="#59A5FE"/><stop offset="1" stop-color="#59A5FE" stop-opacity="0"/></linearGradient><linearGradient id="paint14_linear_564_30" x1="624" y1="146.11" x2="624" y2="316" gradientUnits="userSpaceOnUse"><stop stop-color="#B86363"/><stop offset="1" stop-color="#B86363" stop-opacity="0"/></linearGradient><linearGradient id="paint15_linear_564_30" x1="686" y1="81.193" x2="686" y2="316" gradientUnits="userSpaceOnUse"><stop stop-color="#EDA13D"/><stop offset="1" stop-color="#EDA13D" stop-opacity="0"/></linearGradient><linearGradient id="paint16_linear_564_30" x1="718" y1="144.729" x2="718" y2="316" gradientUnits="userSpaceOnUse"><stop stop-color="#7963B8"/><stop offset="1" stop-color="#7963B8" stop-opacity="0"/></linearGradient><linearGradient id="paint17_linear_564_30" x1="749.5" y1="177.879" x2="749.5" y2="316" gradientUnits="userSpaceOnUse"><stop stop-color="#EDD13D"/><stop offset="1" stop-color="#EDD13D" stop-opacity="0"/></linearGradient><linearGradient id="paint18_linear_564_30" x1="781" y1="115.724" x2="781" y2="316" gradientUnits="userSpaceOnUse"><stop stop-color="#59A5FE"/><stop offset="1" stop-color="#59A5FE" stop-opacity="0"/></linearGradient><linearGradient id="paint19_linear_564_30" x1="813" y1="99.15" x2="813" y2="316.001" gradientUnits="userSpaceOnUse"><stop stop-color="#B86363"/><stop offset="1" stop-color="#B86363" stop-opacity="0"/></linearGradient><linearGradient id="paint20_linear_564_30" x1="875" y1="66" x2="875" y2="316" gradientUnits="userSpaceOnUse"><stop stop-color="#EDA13D"/><stop offset="1" stop-color="#EDA13D" stop-opacity="0"/></linearGradient><linearGradient id="paint21_linear_564_30" x1="906.5" y1="148.873" x2="906.5" y2="316" gradientUnits="userSpaceOnUse"><stop stop-color="#7963B8"/><stop offset="1" stop-color="#7963B8" stop-opacity="0"/></linearGradient><linearGradient id="paint22_linear_564_30" x1="938" y1="170.973" x2="938" y2="316.001" gradientUnits="userSpaceOnUse"><stop stop-color="#EDD13D"/><stop offset="1" stop-color="#EDD13D" stop-opacity="0"/></linearGradient><linearGradient id="paint23_linear_564_30" x1="970" y1="99.15" x2="970" y2="316.001" gradientUnits="userSpaceOnUse"><stop stop-color="#59A5FE"/><stop offset="1" stop-color="#59A5FE" stop-opacity="0"/></linearGradient><linearGradient id="paint24_linear_564_30" x1="1002" y1="112.961" x2="1002" y2="316" gradientUnits="userSpaceOnUse"><stop stop-color="#B86363"/><stop offset="1" stop-color="#B86363" stop-opacity="0"/></linearGradient></defs></svg>