<svg width="529" height="283" fill="none" xmlns="http://www.w3.org/2000/svg"><path d="M2.007 11.932c1.296-.888 2.332-1.756 3.108-2.604.784-.856 1.176-1.648 1.176-2.376 0-.432-.108-.776-.324-1.032-.208-.256-.548-.384-1.02-.384-.488 0-.856.16-1.104.48-.248.312-.388.76-.42 1.344H2.091c.056-.968.352-1.708.888-2.22.544-.512 1.236-.768 2.076-.768.824 0 1.468.22 1.932.66.472.432.708 1.032.708 1.8 0 .616-.192 1.24-.576 1.872a7.773 7.773 0 01-1.44 1.752c-.584.528-1.188.984-1.812 1.368h4.02v1.116h-5.88v-1.008zm8.237-.444V13H8.696v-1.512h1.548zm6.87-5.88h-4.189v2.52c.192-.248.464-.444.816-.588.352-.152.74-.228 1.164-.228.592 0 1.084.128 1.476.384.392.248.68.58.864.996.192.416.288.876.288 1.38 0 .888-.248 1.608-.744 2.16-.496.544-1.216.816-2.16.816-.888 0-1.604-.236-2.148-.708s-.84-1.1-.888-1.884h1.344c.072.432.248.772.528 1.02.288.248.652.372 1.092.372.544 0 .952-.164 1.224-.492.272-.328.408-.764.408-1.308 0-.512-.14-.912-.42-1.2-.28-.296-.68-.444-1.2-.444-.368 0-.692.08-.972.24a1.48 1.48 0 00-.6.636h-1.332V4.396h5.448v1.212zm1.62 3.096c0 1.352.24 2.412.72 3.18.48.76 1.28 1.14 2.4 1.14 1.12 0 1.92-.384 2.4-1.152.48-.768.72-1.824.72-3.168 0-1.336-.24-2.384-.72-3.144-.48-.768-1.28-1.152-2.4-1.152-1.12 0-1.92.38-2.4 1.14-.48.76-.72 1.812-.72 3.156zm4.871 0c0 .976-.12 1.724-.36 2.244-.24.52-.704.78-1.392.78-.696 0-1.164-.26-1.404-.78s-.36-1.268-.36-2.244c0-.968.12-1.708.36-2.22.24-.512.708-.768 1.404-.768.688 0 1.152.26 1.392.78.24.512.36 1.248.36 2.208zm4.177-4.296c.536 0 .972.168 1.308.504.336.328.504.776.504 1.344 0 .568-.168 1.016-.504 1.344-.336.328-.772.492-1.308.492s-.976-.164-1.32-.492c-.336-.328-.504-.776-.504-1.344 0-.568.168-1.016.504-1.344.344-.336.784-.504 1.32-.504zm5.076.108L28.07 13h-1.344l4.8-8.484h1.332zm-5.964 1.74c0 .304.08.548.24.732.16.176.372.264.636.264a.801.801 0 00.636-.276c.168-.184.252-.424.252-.72 0-.304-.084-.548-.252-.732a.801.801 0 00-.636-.276.801.801 0 00-.636.276c-.16.184-.24.428-.24.732zm4.92 3.168c.536 0 .972.164 1.308.492.344.328.516.776.516 1.344 0 .568-.172 1.02-.516 1.356-.336.328-.772.492-1.308.492-.528 0-.964-.164-1.308-.492-.336-.336-.504-.788-.504-1.356 0-.56.168-1.004.504-1.332.344-.336.78-.504 1.308-.504zm-.876 1.836c0 .304.08.548.24.732.16.184.372.276.636.276a.801.801 0 00.636-.276c.168-.184.252-.428.252-.732 0-.296-.084-.536-.252-.72a.801.801 0 00-.636-.276.801.801 0 00-.636.276c-.16.184-.24.424-.24.72zM1.495 256.704c0 1.352.24 2.412.72 3.18.48.76 1.28 1.14 2.4 1.14 1.12 0 1.92-.384 2.4-1.152.48-.768.72-1.824.72-3.168 0-1.336-.24-2.384-.72-3.144-.48-.768-1.28-1.152-2.4-1.152-1.12 0-1.92.38-2.4 1.14-.48.76-.72 1.812-.72 3.156zm4.872 0c0 .976-.12 1.724-.36 2.244-.24.52-.704.78-1.392.78-.696 0-1.164-.26-1.404-.78s-.36-1.268-.36-2.244c0-.968.12-1.708.36-2.22.24-.512.708-.768 1.404-.768.688 0 1.152.26 1.392.78.24.512.36 1.248.36 2.208zm3.889 2.784V261H8.708v-1.512h1.548zm1-2.784c0 1.352.24 2.412.72 3.18.48.76 1.28 1.14 2.4 1.14 1.12 0 1.92-.384 2.4-1.152.48-.768.72-1.824.72-3.168 0-1.336-.24-2.384-.72-3.144-.48-.768-1.28-1.152-2.4-1.152-1.12 0-1.92.38-2.4 1.14-.48.76-.72 1.812-.72 3.156zm4.873 0c0 .976-.12 1.724-.36 2.244-.24.52-.704.78-1.392.78-.696 0-1.164-.26-1.404-.78s-.36-1.268-.36-2.244c0-.968.12-1.708.36-2.22.24-.512.708-.768 1.404-.768.688 0 1.152.26 1.392.78.24.512.36 1.248.36 2.208zm2.604 0c0 1.352.24 2.412.72 3.18.48.76 1.28 1.14 2.4 1.14 1.12 0 1.92-.384 2.4-1.152.48-.768.72-1.824.72-3.168 0-1.336-.24-2.384-.72-3.144-.48-.768-1.28-1.152-2.4-1.152-1.12 0-1.92.38-2.4 1.14-.48.76-.72 1.812-.72 3.156zm4.872 0c0 .976-.12 1.724-.36 2.244-.24.52-.704.78-1.392.78-.696 0-1.164-.26-1.404-.78s-.36-1.268-.36-2.244c0-.968.12-1.708.36-2.22.24-.512.708-.768 1.404-.768.688 0 1.152.26 1.392.78.24.512.36 1.248.36 2.208zm4.177-4.296c.536 0 .972.168 1.308.504.336.328.504.776.504 1.344 0 .568-.168 1.016-.504 1.344-.336.328-.772.492-1.308.492s-.976-.164-1.32-.492c-.336-.328-.504-.776-.504-1.344 0-.568.168-1.016.504-1.344.344-.336.784-.504 1.32-.504zm5.076.108L28.07 261h-1.344l4.8-8.484h1.332zm-5.964 1.74c0 .304.08.548.24.732.16.176.372.264.636.264a.801.801 0 00.636-.276c.168-.184.252-.424.252-.72 0-.304-.084-.548-.252-.732a.801.801 0 00-.636-.276.801.801 0 00-.636.276c-.16.184-.24.428-.24.732zm4.92 3.168c.536 0 .972.164 1.308.492.344.328.516.776.516 1.344 0 .568-.172 1.02-.516 1.356-.336.328-.772.492-1.308.492-.528 0-.964-.164-1.308-.492-.336-.336-.504-.788-.504-1.356 0-.56.168-1.004.504-1.332.344-.336.78-.504 1.308-.504zm-.876 1.836c0 .304.08.548.24.732.16.184.372.276.636.276a.801.801 0 00.636-.276c.168-.184.252-.428.252-.732 0-.296-.084-.536-.252-.72a.801.801 0 00-.636-.276.801.801 0 00-.636.276c-.16.184-.24.424-.24.72z" fill="#C0C0C7"/><path opacity=".08" d="M42 257h487M42 209h487M42 159h487M42 109h487M42 59h487M42 9h487" stroke="#fff" stroke-dasharray="8 8"/><path d="M83.483 276.668c2.712-1.88 4.068-3.44 4.068-4.68 0-.376-.092-.672-.276-.888-.176-.216-.456-.324-.84-.324-.792 0-1.212.54-1.26 1.62h-1.644c.048-1 .352-1.756.912-2.268.56-.52 1.268-.78 2.124-.78.872 0 1.54.228 2.004.684.472.448.708 1.048.708 1.8 0 .592-.176 1.188-.528 1.788a7.27 7.27 0 01-1.32 1.644c-.536.496-1.1.924-1.692 1.284h3.708v1.38h-5.964v-1.26zm6.917-2.976c0 2.872 1.08 4.308 3.24 4.308 1.144 0 1.968-.384 2.472-1.152.504-.768.756-1.82.756-3.156 0-1.328-.252-2.376-.756-3.144-.504-.768-1.328-1.152-2.472-1.152-2.16 0-3.24 1.432-3.24 4.296zm4.8 0c0 .872-.108 1.544-.324 2.016-.208.464-.62.696-1.236.696-.624 0-1.044-.232-1.26-.696-.208-.472-.312-1.144-.312-2.016 0-.864.104-1.528.312-1.992.216-.472.636-.708 1.26-.708.616 0 1.028.236 1.236.708.216.464.324 1.128.324 1.992zm2.362-2.58v-1.584h3.048V278h-1.776v-6.888h-1.272zm4.381 2.58c0 2.872 1.08 4.308 3.24 4.308 1.144 0 1.968-.384 2.472-1.152.504-.768.756-1.82.756-3.156 0-1.328-.252-2.376-.756-3.144-.504-.768-1.328-1.152-2.472-1.152-2.16 0-3.24 1.432-3.24 4.296zm4.8 0c0 .872-.108 1.544-.324 2.016-.208.464-.62.696-1.236.696-.624 0-1.044-.232-1.26-.696-.208-.472-.312-1.144-.312-2.016 0-.864.104-1.528.312-1.992.216-.472.636-.708 1.26-.708.616 0 1.028.236 1.236.708.216.464.324 1.128.324 1.992zm74.051 2.976c2.712-1.88 4.068-3.44 4.068-4.68 0-.376-.092-.672-.276-.888-.176-.216-.456-.324-.84-.324-.792 0-1.212.54-1.26 1.62h-1.644c.048-1 .352-1.756.912-2.268.56-.52 1.268-.78 2.124-.78.872 0 1.54.228 2.004.684.472.448.708 1.048.708 1.8 0 .592-.176 1.188-.528 1.788a7.27 7.27 0 01-1.32 1.644c-.536.496-1.1.924-1.692 1.284h3.708v1.38h-5.964v-1.26zm6.916-2.976c0 2.872 1.08 4.308 3.24 4.308 1.144 0 1.968-.384 2.472-1.152.504-.768.756-1.82.756-3.156 0-1.328-.252-2.376-.756-3.144-.504-.768-1.328-1.152-2.472-1.152-2.16 0-3.24 1.432-3.24 4.296zm4.8 0c0 .872-.108 1.544-.324 2.016-.208.464-.62.696-1.236.696-.624 0-1.044-.232-1.26-.696-.208-.472-.312-1.144-.312-2.016 0-.864.104-1.528.312-1.992.216-.472.636-.708 1.26-.708.616 0 1.028.236 1.236.708.216.464.324 1.128.324 1.992zm2.363-2.58v-1.584h3.048V278h-1.776v-6.888h-1.272zm3.96 0v-1.584h3.048V278h-1.776v-6.888h-1.272zm75.043 5.556c2.712-1.88 4.068-3.44 4.068-4.68 0-.376-.092-.672-.276-.888-.176-.216-.456-.324-.84-.324-.792 0-1.212.54-1.26 1.62h-1.644c.048-1 .352-1.756.912-2.268.56-.52 1.268-.78 2.124-.78.872 0 1.54.228 2.004.684.472.448.708 1.048.708 1.8 0 .592-.176 1.188-.528 1.788a7.27 7.27 0 01-1.32 1.644c-.536.496-1.1.924-1.692 1.284h3.708v1.38h-5.964v-1.26zm6.917-2.976c0 2.872 1.08 4.308 3.24 4.308 1.144 0 1.968-.384 2.472-1.152.504-.768.756-1.82.756-3.156 0-1.328-.252-2.376-.756-3.144-.504-.768-1.328-1.152-2.472-1.152-2.16 0-3.24 1.432-3.24 4.296zm4.8 0c0 .872-.108 1.544-.324 2.016-.208.464-.62.696-1.236.696-.624 0-1.044-.232-1.26-.696-.208-.472-.312-1.144-.312-2.016 0-.864.104-1.528.312-1.992.216-.472.636-.708 1.26-.708.616 0 1.028.236 1.236.708.216.464.324 1.128.324 1.992zm2.362-2.58v-1.584h3.048V278h-1.776v-6.888h-1.272zm4.26 5.556c2.712-1.88 4.068-3.44 4.068-4.68 0-.376-.092-.672-.276-.888-.176-.216-.456-.324-.84-.324-.792 0-1.212.54-1.26 1.62h-1.644c.048-1 .352-1.756.912-2.268.56-.52 1.268-.78 2.124-.78.872 0 1.54.228 2.004.684.472.448.708 1.048.708 1.8 0 .592-.176 1.188-.528 1.788a7.27 7.27 0 01-1.32 1.644c-.536.496-1.1.924-1.692 1.284h3.708v1.38h-5.964v-1.26zm171.645 0c2.712-1.88 4.068-3.44 4.068-4.68 0-.376-.092-.672-.276-.888-.176-.216-.456-.324-.84-.324-.792 0-1.212.54-1.26 1.62h-1.644c.048-1 .352-1.756.912-2.268.56-.52 1.268-.78 2.124-.78.872 0 1.54.228 2.004.684.472.448.708 1.048.708 1.8 0 .592-.176 1.188-.528 1.788a7.27 7.27 0 01-1.32 1.644c-.536.496-1.1.924-1.692 1.284h3.708v1.38h-5.964v-1.26zm6.917-2.976c0 2.872 1.08 4.308 3.24 4.308 1.144 0 1.968-.384 2.472-1.152.504-.768.756-1.82.756-3.156 0-1.328-.252-2.376-.756-3.144-.504-.768-1.328-1.152-2.472-1.152-2.16 0-3.24 1.432-3.24 4.296zm4.8 0c0 .872-.108 1.544-.324 2.016-.208.464-.62.696-1.236.696-.624 0-1.044-.232-1.26-.696-.208-.472-.312-1.144-.312-2.016 0-.864.104-1.528.312-1.992.216-.472.636-.708 1.26-.708.616 0 1.028.236 1.236.708.216.464.324 1.128.324 1.992zm2.362-2.58v-1.584h3.048V278h-1.776v-6.888h-1.272zm4.285 5.184v-1.404l4.056-5.46h1.812v5.4h1.104v1.464h-1.104V278h-1.704v-1.704h-4.164zm4.296-4.884l-2.568 3.42h2.568v-3.42zm-117.838 5.256c2.712-1.88 4.068-3.44 4.068-4.68 0-.376-.092-.672-.276-.888-.176-.216-.456-.324-.84-.324-.792 0-1.212.54-1.26 1.62h-1.644c.048-1 .352-1.756.912-2.268.56-.52 1.268-.78 2.124-.78.872 0 1.54.228 2.004.684.472.448.708 1.048.708 1.8 0 .592-.176 1.188-.528 1.788a7.27 7.27 0 01-1.32 1.644c-.536.496-1.1.924-1.692 1.284h3.708v1.38h-5.964v-1.26zm6.917-2.976c0 2.872 1.08 4.308 3.24 4.308 1.144 0 1.968-.384 2.472-1.152.504-.768.756-1.82.756-3.156 0-1.328-.252-2.376-.756-3.144-.504-.768-1.328-1.152-2.472-1.152-2.16 0-3.24 1.432-3.24 4.296zm4.8 0c0 .872-.108 1.544-.324 2.016-.208.464-.62.696-1.236.696-.624 0-1.044-.232-1.26-.696-.208-.472-.312-1.144-.312-2.016 0-.864.104-1.528.312-1.992.216-.472.636-.708 1.26-.708.616 0 1.028.236 1.236.708.216.464.324 1.128.324 1.992zm2.362-2.58v-1.584h3.048V278h-1.776v-6.888h-1.272zm7.429-1.908c.576 0 1.068.1 1.476.3.416.2.728.476.936.828.216.352.324.744.324 1.176 0 .544-.148.992-.444 1.344-.296.344-.688.556-1.176.636v.06c1.184.352 1.776 1.048 1.776 2.088 0 .728-.244 1.32-.732 1.776-.488.448-1.176.672-2.064.672-.944 0-1.696-.232-2.256-.696-.56-.472-.872-1.18-.936-2.124h1.656c.04.432.18.776.42 1.032.248.248.596.372 1.044.372.384 0 .684-.104.9-.312.216-.216.324-.496.324-.84 0-.408-.156-.72-.468-.936-.312-.216-.772-.324-1.38-.324h-.348v-1.38h.348c1.12.016 1.68-.372 1.68-1.164 0-.344-.1-.612-.3-.804-.2-.2-.472-.3-.816-.3-.36 0-.656.116-.888.348-.232.224-.364.54-.396.948h-1.656c.048-.864.328-1.528.84-1.992.512-.472 1.224-.708 2.136-.708z" fill="#C0C0C7"/><rect x="58" y="136" width="12" height="121" rx="4" fill="url(#paint0_linear_98_276)"/><rect x="74" y="120" width="12" height="137" rx="4" fill="url(#paint1_linear_98_276)"/><rect x="90" y="159" width="12" height="98" rx="4" fill="url(#paint2_linear_98_276)"/><rect x="106" y="129" width="12" height="128" rx="4" fill="url(#paint3_linear_98_276)"/><rect x="122" y="80" width="12" height="177" rx="4" fill="url(#paint4_linear_98_276)"/><rect x="153" y="161" width="12" height="96" rx="4" fill="url(#paint5_linear_98_276)"/><rect x="169" y="152" width="12" height="105" rx="4" fill="url(#paint6_linear_98_276)"/><rect x="185" y="162" width="12" height="95" rx="4" fill="url(#paint7_linear_98_276)"/><rect x="201" y="139" width="12" height="118" rx="4" fill="url(#paint8_linear_98_276)"/><rect x="217" y="120" width="12" height="137" rx="4" fill="url(#paint9_linear_98_276)"/><rect x="248" y="121" width="12" height="136" rx="4" fill="url(#paint10_linear_98_276)"/><rect x="264" y="159" width="12" height="98" rx="4" fill="url(#paint11_linear_98_276)"/><rect x="280" y="141" width="12" height="116" rx="4" fill="url(#paint12_linear_98_276)"/><rect x="296" y="109" width="12" height="148" rx="4" fill="url(#paint13_linear_98_276)"/><rect x="312" y="121" width="12" height="136" rx="4" fill="url(#paint14_linear_98_276)"/><rect x="343" y="69" width="12" height="188" rx="4" fill="url(#paint15_linear_98_276)"/><rect x="359" y="120" width="12" height="137" rx="4" fill="url(#paint16_linear_98_276)"/><rect x="375" y="147" width="12" height="110" rx="4" fill="url(#paint17_linear_98_276)"/><rect x="391" y="97" width="12" height="160" rx="4" fill="url(#paint18_linear_98_276)"/><rect x="407" y="84" width="12" height="173" rx="4" fill="url(#paint19_linear_98_276)"/><rect x="438" y="57" width="12" height="200" rx="4" fill="url(#paint20_linear_98_276)"/><rect x="454" y="123" width="12" height="134" rx="4" fill="url(#paint21_linear_98_276)"/><rect x="470" y="141" width="12" height="116" rx="4" fill="url(#paint22_linear_98_276)"/><rect x="486" y="83" width="12" height="174" rx="4" fill="url(#paint23_linear_98_276)"/><rect x="502" y="95" width="12" height="162" rx="4" fill="url(#paint24_linear_98_276)"/><path d="M93.5 121.5l83.151 19.055a49.987 49.987 0 0025.479-.828l175.291-52.36a49.989 49.989 0 019.335-1.843L477 76.5" stroke="#63B866" stroke-width="2"/><path d="M1.483 208.704c0 1.352.24 2.412.72 3.18.48.76 1.28 1.14 2.4 1.14 1.12 0 1.92-.384 2.4-1.152.48-.768.72-1.824.72-3.168 0-1.336-.24-2.384-.72-3.144-.48-.768-1.28-1.152-2.4-1.152-1.12 0-1.92.38-2.4 1.14-.48.76-.72 1.812-.72 3.156zm4.872 0c0 .976-.12 1.724-.36 2.244-.24.52-.704.78-1.392.78-.696 0-1.164-.26-1.404-.78s-.36-1.268-.36-2.244c0-.968.12-1.708.36-2.22.24-.512.708-.768 1.404-.768.688 0 1.152.26 1.392.78.24.512.36 1.248.36 2.208zm3.889 2.784V213H8.696v-1.512h1.548zm6.87-5.88h-4.189v2.52c.192-.248.464-.444.816-.588.352-.152.74-.228 1.164-.228.592 0 1.084.128 1.476.384.392.248.68.58.864.996.192.416.288.876.288 1.38 0 .888-.248 1.608-.744 2.16-.496.544-1.216.816-2.16.816-.888 0-1.604-.236-2.148-.708s-.84-1.1-.888-1.884h1.344c.072.432.248.772.528 1.02.288.248.652.372 1.092.372.544 0 .952-.164 1.224-.492.272-.328.408-.764.408-1.308 0-.512-.14-.912-.42-1.2-.28-.296-.68-.444-1.2-.444-.368 0-.692.08-.972.24a1.48 1.48 0 00-.6.636h-1.332v-4.884h5.448v1.212zm1.62 3.096c0 1.352.24 2.412.72 3.18.48.76 1.28 1.14 2.4 1.14 1.12 0 1.92-.384 2.4-1.152.48-.768.72-1.824.72-3.168 0-1.336-.24-2.384-.72-3.144-.48-.768-1.28-1.152-2.4-1.152-1.12 0-1.92.38-2.4 1.14-.48.76-.72 1.812-.72 3.156zm4.871 0c0 .976-.12 1.724-.36 2.244-.24.52-.704.78-1.392.78-.696 0-1.164-.26-1.404-.78s-.36-1.268-.36-2.244c0-.968.12-1.708.36-2.22.24-.512.708-.768 1.404-.768.688 0 1.152.26 1.392.78.24.512.36 1.248.36 2.208zm4.177-4.296c.536 0 .972.168 1.308.504.336.328.504.776.504 1.344 0 .568-.168 1.016-.504 1.344-.336.328-.772.492-1.308.492s-.976-.164-1.32-.492c-.336-.328-.504-.776-.504-1.344 0-.568.168-1.016.504-1.344.344-.336.784-.504 1.32-.504zm5.076.108L28.07 213h-1.344l4.8-8.484h1.332zm-5.964 1.74c0 .304.08.548.24.732.16.176.372.264.636.264a.801.801 0 00.636-.276c.168-.184.252-.424.252-.72 0-.304-.084-.548-.252-.732a.801.801 0 00-.636-.276.801.801 0 00-.636.276c-.16.184-.24.428-.24.732zm4.92 3.168c.536 0 .972.164 1.308.492.344.328.516.776.516 1.344 0 .568-.172 1.02-.516 1.356-.336.328-.772.492-1.308.492-.528 0-.964-.164-1.308-.492-.336-.336-.504-.788-.504-1.356 0-.56.168-1.004.504-1.332.344-.336.78-.504 1.308-.504zm-.876 1.836c0 .304.08.548.24.732.16.184.372.276.636.276a.801.801 0 00.636-.276c.168-.184.252-.428.252-.732 0-.296-.084-.536-.252-.72a.801.801 0 00-.636-.276.801.801 0 00-.636.276c-.16.184-.24.424-.24.72zM4.824 155.812v-1.284h2.712V163h-1.44v-7.188H4.824zm5.432 5.676V163H8.708v-1.512h1.548zm1-2.784c0 1.352.24 2.412.72 3.18.48.76 1.28 1.14 2.4 1.14 1.12 0 1.92-.384 2.4-1.152.48-.768.72-1.824.72-3.168 0-1.336-.24-2.384-.72-3.144-.48-.768-1.28-1.152-2.4-1.152-1.12 0-1.92.38-2.4 1.14-.48.76-.72 1.812-.72 3.156zm4.873 0c0 .976-.12 1.724-.36 2.244-.24.52-.704.78-1.392.78-.696 0-1.164-.26-1.404-.78s-.36-1.268-.36-2.244c0-.968.12-1.708.36-2.22.24-.512.708-.768 1.404-.768.688 0 1.152.26 1.392.78.24.512.36 1.248.36 2.208zm2.604 0c0 1.352.24 2.412.72 3.18.48.76 1.28 1.14 2.4 1.14 1.12 0 1.92-.384 2.4-1.152.48-.768.72-1.824.72-3.168 0-1.336-.24-2.384-.72-3.144-.48-.768-1.28-1.152-2.4-1.152-1.12 0-1.92.38-2.4 1.14-.48.76-.72 1.812-.72 3.156zm4.872 0c0 .976-.12 1.724-.36 2.244-.24.52-.704.78-1.392.78-.696 0-1.164-.26-1.404-.78s-.36-1.268-.36-2.244c0-.968.12-1.708.36-2.22.24-.512.708-.768 1.404-.768.688 0 1.152.26 1.392.78.24.512.36 1.248.36 2.208zm4.177-4.296c.536 0 .972.168 1.308.504.336.328.504.776.504 1.344 0 .568-.168 1.016-.504 1.344-.336.328-.772.492-1.308.492s-.976-.164-1.32-.492c-.336-.328-.504-.776-.504-1.344 0-.568.168-1.016.504-1.344.344-.336.784-.504 1.32-.504zm5.076.108L28.07 163h-1.344l4.8-8.484h1.332zm-5.964 1.74c0 .304.08.548.24.732.16.176.372.264.636.264a.801.801 0 00.636-.276c.168-.184.252-.424.252-.72 0-.304-.084-.548-.252-.732a.801.801 0 00-.636-.276.801.801 0 00-.636.276c-.16.184-.24.428-.24.732zm4.92 3.168c.536 0 .972.164 1.308.492.344.328.516.776.516 1.344 0 .568-.172 1.02-.516 1.356-.336.328-.772.492-1.308.492-.528 0-.964-.164-1.308-.492-.336-.336-.504-.788-.504-1.356 0-.56.168-1.004.504-1.332.344-.336.78-.504 1.308-.504zm-.876 1.836c0 .304.08.548.24.732.16.184.372.276.636.276a.801.801 0 00.636-.276c.168-.184.252-.428.252-.732 0-.296-.084-.536-.252-.72a.801.801 0 00-.636-.276.801.801 0 00-.636.276c-.16.184-.24.424-.24.72zM4.812 105.812v-1.284h2.712V113h-1.44v-7.188H4.812zm5.432 5.676V113H8.696v-1.512h1.548zm6.87-5.88h-4.189v2.52c.192-.248.464-.444.816-.588.352-.152.74-.228 1.164-.228.592 0 1.084.128 1.476.384.392.248.68.58.864.996.192.416.288.876.288 1.38 0 .888-.248 1.608-.744 2.16-.496.544-1.216.816-2.16.816-.888 0-1.604-.236-2.148-.708s-.84-1.1-.888-1.884h1.344c.072.432.248.772.528 1.02.288.248.652.372 1.092.372.544 0 .952-.164 1.224-.492.272-.328.408-.764.408-1.308 0-.512-.14-.912-.42-1.2-.28-.296-.68-.444-1.2-.444-.368 0-.692.08-.972.24a1.48 1.48 0 00-.6.636h-1.332v-4.884h5.448v1.212zm1.62 3.096c0 1.352.24 2.412.72 3.18.48.76 1.28 1.14 2.4 1.14 1.12 0 1.92-.384 2.4-1.152.48-.768.72-1.824.72-3.168 0-1.336-.24-2.384-.72-3.144-.48-.768-1.28-1.152-2.4-1.152-1.12 0-1.92.38-2.4 1.14-.48.76-.72 1.812-.72 3.156zm4.871 0c0 .976-.12 1.724-.36 2.244-.24.52-.704.78-1.392.78-.696 0-1.164-.26-1.404-.78s-.36-1.268-.36-2.244c0-.968.12-1.708.36-2.22.24-.512.708-.768 1.404-.768.688 0 1.152.26 1.392.78.24.512.36 1.248.36 2.208zm4.177-4.296c.536 0 .972.168 1.308.504.336.328.504.776.504 1.344 0 .568-.168 1.016-.504 1.344-.336.328-.772.492-1.308.492s-.976-.164-1.32-.492c-.336-.328-.504-.776-.504-1.344 0-.568.168-1.016.504-1.344.344-.336.784-.504 1.32-.504zm5.076.108L28.07 113h-1.344l4.8-8.484h1.332zm-5.964 1.74c0 .304.08.548.24.732.16.176.372.264.636.264a.801.801 0 00.636-.276c.168-.184.252-.424.252-.72 0-.304-.084-.548-.252-.732a.801.801 0 00-.636-.276.801.801 0 00-.636.276c-.16.184-.24.428-.24.732zm4.92 3.168c.536 0 .972.164 1.308.492.344.328.516.776.516 1.344 0 .568-.172 1.02-.516 1.356-.336.328-.772.492-1.308.492-.528 0-.964-.164-1.308-.492-.336-.336-.504-.788-.504-1.356 0-.56.168-1.004.504-1.332.344-.336.78-.504 1.308-.504zm-.876 1.836c0 .304.08.548.24.732.16.184.372.276.636.276a.801.801 0 00.636-.276c.168-.184.252-.428.252-.732 0-.296-.084-.536-.252-.72a.801.801 0 00-.636-.276.801.801 0 00-.636.276c-.16.184-.24.424-.24.72zM2.02 61.932c1.295-.888 2.331-1.756 3.107-2.604.784-.856 1.176-1.648 1.176-2.376 0-.432-.108-.776-.324-1.032-.208-.256-.548-.384-1.02-.384-.488 0-.856.16-1.104.48-.248.312-.388.76-.42 1.344H2.103c.056-.968.352-1.708.888-2.22.544-.512 1.236-.768 2.076-.768.824 0 1.468.22 1.932.66.472.432.708 1.032.708 1.8 0 .616-.192 1.24-.576 1.872a7.773 7.773 0 01-1.44 1.752c-.584.528-1.188.984-1.812 1.368H7.9v1.116H2.02v-1.008zm8.236-.444V63H8.708v-1.512h1.548zm1-2.784c0 1.352.24 2.412.72 3.18.48.76 1.28 1.14 2.4 1.14 1.12 0 1.92-.384 2.4-1.152.48-.768.72-1.824.72-3.168 0-1.336-.24-2.384-.72-3.144-.48-.768-1.28-1.152-2.4-1.152-1.12 0-1.92.38-2.4 1.14-.48.76-.72 1.812-.72 3.156zm4.873 0c0 .976-.12 1.724-.36 2.244-.24.52-.704.78-1.392.78-.696 0-1.164-.26-1.404-.78s-.36-1.268-.36-2.244c0-.968.12-1.708.36-2.22.24-.512.708-.768 1.404-.768.688 0 1.152.26 1.392.78.24.512.36 1.248.36 2.208zm2.604 0c0 1.352.24 2.412.72 3.18.48.76 1.28 1.14 2.4 1.14 1.12 0 1.92-.384 2.4-1.152.48-.768.72-1.824.72-3.168 0-1.336-.24-2.384-.72-3.144-.48-.768-1.28-1.152-2.4-1.152-1.12 0-1.92.38-2.4 1.14-.48.76-.72 1.812-.72 3.156zm4.872 0c0 .976-.12 1.724-.36 2.244-.24.52-.704.78-1.392.78-.696 0-1.164-.26-1.404-.78s-.36-1.268-.36-2.244c0-.968.12-1.708.36-2.22.24-.512.708-.768 1.404-.768.688 0 1.152.26 1.392.78.24.512.36 1.248.36 2.208zm4.177-4.296c.536 0 .972.168 1.308.504.336.328.504.776.504 1.344 0 .568-.168 1.016-.504 1.344-.336.328-.772.492-1.308.492s-.976-.164-1.32-.492c-.336-.328-.504-.776-.504-1.344 0-.568.168-1.016.504-1.344.344-.336.784-.504 1.32-.504zm5.076.108L28.07 63h-1.344l4.8-8.484h1.332zm-5.964 1.74c0 .304.08.548.24.732.16.176.372.264.636.264a.801.801 0 00.636-.276c.168-.184.252-.424.252-.72 0-.304-.084-.548-.252-.732a.801.801 0 00-.636-.276.801.801 0 00-.636.276c-.16.184-.24.428-.24.732zm4.92 3.168c.536 0 .972.164 1.308.492.344.328.516.776.516 1.344 0 .568-.172 1.02-.516 1.356-.336.328-.772.492-1.308.492-.528 0-.964-.164-1.308-.492-.336-.336-.504-.788-.504-1.356 0-.56.168-1.004.504-1.332.344-.336.78-.504 1.308-.504zm-.876 1.836c0 .304.08.548.24.732.16.184.372.276.636.276a.801.801 0 00.636-.276c.168-.184.252-.428.252-.732 0-.296-.084-.536-.252-.72a.801.801 0 00-.636-.276.801.801 0 00-.636.276c-.16.184-.24.424-.24.72z" fill="#C0C0C7"/><defs><linearGradient id="paint0_linear_98_276" x1="64" y1="136" x2="64" y2="257" gradientUnits="userSpaceOnUse"><stop stop-color="#EDA13D"/><stop offset="1" stop-color="#EDA13D" stop-opacity="0"/></linearGradient><linearGradient id="paint1_linear_98_276" x1="80" y1="120" x2="80" y2="257" gradientUnits="userSpaceOnUse"><stop stop-color="#7963B8"/><stop offset="1" stop-color="#7963B8" stop-opacity="0"/></linearGradient><linearGradient id="paint2_linear_98_276" x1="96" y1="159" x2="96" y2="257" gradientUnits="userSpaceOnUse"><stop stop-color="#EDD13D"/><stop offset="1" stop-color="#EDD13D" stop-opacity="0"/></linearGradient><linearGradient id="paint3_linear_98_276" x1="112" y1="129" x2="112" y2="257" gradientUnits="userSpaceOnUse"><stop stop-color="#59A5FE"/><stop offset="1" stop-color="#59A5FE" stop-opacity="0"/></linearGradient><linearGradient id="paint4_linear_98_276" x1="128" y1="80" x2="128" y2="257" gradientUnits="userSpaceOnUse"><stop stop-color="#B86363"/><stop offset="1" stop-color="#B86363" stop-opacity="0"/></linearGradient><linearGradient id="paint5_linear_98_276" x1="159" y1="161" x2="159" y2="257" gradientUnits="userSpaceOnUse"><stop stop-color="#EDA13D"/><stop offset="1" stop-color="#EDA13D" stop-opacity="0"/></linearGradient><linearGradient id="paint6_linear_98_276" x1="175" y1="152" x2="175" y2="257" gradientUnits="userSpaceOnUse"><stop stop-color="#7963B8"/><stop offset="1" stop-color="#7963B8" stop-opacity="0"/></linearGradient><linearGradient id="paint7_linear_98_276" x1="191" y1="162" x2="191" y2="257" gradientUnits="userSpaceOnUse"><stop stop-color="#EDD13D"/><stop offset="1" stop-color="#EDD13D" stop-opacity="0"/></linearGradient><linearGradient id="paint8_linear_98_276" x1="207" y1="139" x2="207" y2="257" gradientUnits="userSpaceOnUse"><stop stop-color="#59A5FE"/><stop offset="1" stop-color="#59A5FE" stop-opacity="0"/></linearGradient><linearGradient id="paint9_linear_98_276" x1="223" y1="120" x2="223" y2="257" gradientUnits="userSpaceOnUse"><stop stop-color="#B86363"/><stop offset="1" stop-color="#B86363" stop-opacity="0"/></linearGradient><linearGradient id="paint10_linear_98_276" x1="254" y1="121" x2="254" y2="257" gradientUnits="userSpaceOnUse"><stop stop-color="#EDA13D"/><stop offset="1" stop-color="#EDA13D" stop-opacity="0"/></linearGradient><linearGradient id="paint11_linear_98_276" x1="270" y1="159" x2="270" y2="257" gradientUnits="userSpaceOnUse"><stop stop-color="#7963B8"/><stop offset="1" stop-color="#7963B8" stop-opacity="0"/></linearGradient><linearGradient id="paint12_linear_98_276" x1="286" y1="141" x2="286" y2="257" gradientUnits="userSpaceOnUse"><stop stop-color="#EDD13D"/><stop offset="1" stop-color="#EDD13D" stop-opacity="0"/></linearGradient><linearGradient id="paint13_linear_98_276" x1="302" y1="109" x2="302" y2="257" gradientUnits="userSpaceOnUse"><stop stop-color="#59A5FE"/><stop offset="1" stop-color="#59A5FE" stop-opacity="0"/></linearGradient><linearGradient id="paint14_linear_98_276" x1="318" y1="121" x2="318" y2="257" gradientUnits="userSpaceOnUse"><stop stop-color="#B86363"/><stop offset="1" stop-color="#B86363" stop-opacity="0"/></linearGradient><linearGradient id="paint15_linear_98_276" x1="349" y1="69" x2="349" y2="257" gradientUnits="userSpaceOnUse"><stop stop-color="#EDA13D"/><stop offset="1" stop-color="#EDA13D" stop-opacity="0"/></linearGradient><linearGradient id="paint16_linear_98_276" x1="365" y1="120" x2="365" y2="257" gradientUnits="userSpaceOnUse"><stop stop-color="#7963B8"/><stop offset="1" stop-color="#7963B8" stop-opacity="0"/></linearGradient><linearGradient id="paint17_linear_98_276" x1="381" y1="147" x2="381" y2="257" gradientUnits="userSpaceOnUse"><stop stop-color="#EDD13D"/><stop offset="1" stop-color="#EDD13D" stop-opacity="0"/></linearGradient><linearGradient id="paint18_linear_98_276" x1="397" y1="97" x2="397" y2="257" gradientUnits="userSpaceOnUse"><stop stop-color="#59A5FE"/><stop offset="1" stop-color="#59A5FE" stop-opacity="0"/></linearGradient><linearGradient id="paint19_linear_98_276" x1="413" y1="84" x2="413" y2="257" gradientUnits="userSpaceOnUse"><stop stop-color="#B86363"/><stop offset="1" stop-color="#B86363" stop-opacity="0"/></linearGradient><linearGradient id="paint20_linear_98_276" x1="444" y1="57" x2="444" y2="257" gradientUnits="userSpaceOnUse"><stop stop-color="#EDA13D"/><stop offset="1" stop-color="#EDA13D" stop-opacity="0"/></linearGradient><linearGradient id="paint21_linear_98_276" x1="460" y1="123" x2="460" y2="257" gradientUnits="userSpaceOnUse"><stop stop-color="#7963B8"/><stop offset="1" stop-color="#7963B8" stop-opacity="0"/></linearGradient><linearGradient id="paint22_linear_98_276" x1="476" y1="141" x2="476" y2="257" gradientUnits="userSpaceOnUse"><stop stop-color="#EDD13D"/><stop offset="1" stop-color="#EDD13D" stop-opacity="0"/></linearGradient><linearGradient id="paint23_linear_98_276" x1="492" y1="83" x2="492" y2="257" gradientUnits="userSpaceOnUse"><stop stop-color="#59A5FE"/><stop offset="1" stop-color="#59A5FE" stop-opacity="0"/></linearGradient><linearGradient id="paint24_linear_98_276" x1="508" y1="95" x2="508" y2="257" gradientUnits="userSpaceOnUse"><stop stop-color="#B86363"/><stop offset="1" stop-color="#B86363" stop-opacity="0"/></linearGradient></defs></svg>