<svg width="528" height="330" fill="none" xmlns="http://www.w3.org/2000/svg"><path opacity=".08" d="M0 47h528M0 303h528M0 239h528M0 175h528M0 111h528M0 47h528" stroke="#fff" stroke-dasharray="8 8"/><path d="M42.908 316.528v5.976c0 .816-.228 1.452-.684 1.908-.448.448-1.072.672-1.872.672-.864 0-1.548-.248-2.052-.744s-.756-1.204-.756-2.124h1.668c0 .432.088.764.264.996.184.232.452.348.804.348.32 0 .556-.092.708-.276.152-.192.228-.452.228-.78v-5.976h1.692zm4.085 1.74c.56 0 1.04.132 1.44.396.4.264.684.62.852 1.068v-1.38h1.68V325h-1.68v-1.392a2.221 2.221 0 01-.852 1.08c-.4.264-.88.396-1.44.396-.56 0-1.064-.136-1.512-.408a2.802 2.802 0 01-1.056-1.176c-.248-.52-.372-1.128-.372-1.824 0-.696.124-1.3.372-1.812.256-.52.608-.916 1.056-1.188a2.856 2.856 0 011.512-.408zm.528 1.476c-.528 0-.952.172-1.272.516-.32.344-.48.816-.48 1.416s.16 1.072.48 1.416c.32.336.744.504 1.272.504.512 0 .932-.172 1.26-.516.336-.352.504-.82.504-1.404 0-.592-.168-1.06-.504-1.404-.328-.352-.748-.528-1.26-.528zm8.938-1.488c.767 0 1.38.252 1.835.756.457.504.684 1.212.684 2.124V325h-1.68v-3.672c0-.528-.136-.936-.407-1.224-.273-.296-.645-.444-1.116-.444-.48 0-.864.156-1.152.468-.288.312-.432.76-.432 1.344V325h-1.693v-6.648h1.693v1.332a2.09 2.09 0 01.863-1.044 2.586 2.586 0 011.404-.384zm6.297 5.412c2.713-1.88 4.069-3.44 4.069-4.68 0-.376-.093-.672-.276-.888-.177-.216-.457-.324-.84-.324-.793 0-1.213.54-1.26 1.62h-1.645c.048-1 .352-1.756.913-2.268.56-.52 1.267-.78 2.124-.78.872 0 1.54.228 2.004.684.472.448.707 1.048.707 1.8 0 .592-.176 1.188-.528 1.788a7.27 7.27 0 01-1.32 1.644c-.535.496-1.1.924-1.691 1.284h3.707v1.38h-5.963v-1.26zm6.917-2.976c0 2.872 1.08 4.308 3.24 4.308 1.144 0 1.968-.384 2.472-1.152.504-.768.756-1.82.756-3.156 0-1.328-.252-2.376-.756-3.144-.504-.768-1.328-1.152-2.472-1.152-2.16 0-3.24 1.432-3.24 4.296zm4.8 0c0 .872-.108 1.544-.324 2.016-.208.464-.62.696-1.236.696-.624 0-1.044-.232-1.26-.696-.208-.472-.312-1.144-.312-2.016 0-.864.104-1.528.312-1.992.216-.472.636-.708 1.26-.708.616 0 1.028.236 1.236.708.216.464.324 1.128.324 1.992zm2.662 2.976c2.712-1.88 4.068-3.44 4.068-4.68 0-.376-.092-.672-.276-.888-.176-.216-.456-.324-.84-.324-.792 0-1.212.54-1.26 1.62h-1.644c.048-1 .352-1.756.912-2.268.56-.52 1.268-.78 2.124-.78.872 0 1.54.228 2.004.684.472.448.708 1.048.708 1.8 0 .592-.176 1.188-.528 1.788a7.27 7.27 0 01-1.32 1.644c-.536.496-1.1.924-1.692 1.284H83.1v1.38h-5.964v-1.26zm9.965-7.464c.576 0 1.068.1 1.476.3.416.2.728.476.936.828.216.352.324.744.324 1.176 0 .544-.148.992-.444 1.344-.296.344-.688.556-1.176.636v.06c1.184.352 1.776 1.048 1.776 2.088 0 .728-.244 1.32-.732 1.776-.488.448-1.176.672-2.064.672-.944 0-1.696-.232-2.256-.696-.56-.472-.872-1.18-.936-2.124h1.656c.04.432.18.776.42 1.032.248.248.596.372 1.044.372.384 0 .684-.104.9-.312.216-.216.324-.496.324-.84 0-.408-.156-.72-.468-.936-.312-.216-.772-.324-1.38-.324h-.348v-1.38h.348c1.12.016 1.68-.372 1.68-1.164 0-.344-.1-.612-.3-.804-.2-.2-.472-.3-.816-.3-.36 0-.656.116-.888.348-.232.224-.364.54-.396.948h-1.656c.048-.864.328-1.528.84-1.992.512-.472 1.224-.708 2.136-.708zm89.957.324v1.344h-3.564v2.268h2.856v1.296h-2.856V325h-1.692v-8.472h5.256zm7.395 4.896c0 .168-.02.36-.06.576h-4.872c.024.592.184 1.028.48 1.308s.664.42 1.104.42c.392 0 .716-.096.972-.288.264-.192.432-.452.504-.78h1.788a2.86 2.86 0 01-.564 1.248c-.288.368-.66.656-1.116.864a3.52 3.52 0 01-1.5.312c-.648 0-1.224-.136-1.728-.408a2.95 2.95 0 01-1.176-1.188c-.28-.512-.42-1.116-.42-1.812s.14-1.3.42-1.812c.28-.52.672-.916 1.176-1.188.504-.272 1.08-.408 1.728-.408.656 0 1.228.136 1.716.408.496.272.876.648 1.14 1.128.272.472.408 1.012.408 1.62zm-1.704-.168c.024-.544-.12-.956-.432-1.236-.304-.28-.68-.42-1.128-.42-.456 0-.84.14-1.152.42-.312.28-.484.692-.516 1.236h3.228zm6.877-2.988c.56 0 1.064.136 1.512.408.448.272.796.668 1.044 1.188.256.512.384 1.116.384 1.812s-.128 1.304-.384 1.824a2.725 2.725 0 01-1.044 1.176 2.856 2.856 0 01-1.512.408c-.56 0-1.04-.132-1.44-.396a2.244 2.244 0 01-.84-1.08V325h-1.692v-8.88h1.692v3.612c.168-.448.448-.804.84-1.068.4-.264.88-.396 1.44-.396zm-.528 1.476c-.512 0-.936.176-1.272.528-.328.344-.492.812-.492 1.404 0 .584.164 1.052.492 1.404.336.344.76.516 1.272.516.528 0 .952-.168 1.272-.504.32-.344.48-.816.48-1.416s-.16-1.072-.48-1.416c-.32-.344-.744-.516-1.272-.516zm6.954 3.924c2.712-1.88 4.068-3.44 4.068-4.68 0-.376-.092-.672-.276-.888-.176-.216-.456-.324-.84-.324-.792 0-1.212.54-1.26 1.62h-1.644c.048-1 .352-1.756.912-2.268.56-.52 1.268-.78 2.124-.78.872 0 1.54.228 2.004.684.472.448.708 1.048.708 1.8 0 .592-.176 1.188-.528 1.788a7.27 7.27 0 01-1.32 1.644c-.536.496-1.1.924-1.692 1.284h3.708v1.38h-5.964v-1.26zm6.917-2.976c0 2.872 1.08 4.308 3.24 4.308 1.144 0 1.968-.384 2.472-1.152.504-.768.756-1.82.756-3.156 0-1.328-.252-2.376-.756-3.144-.504-.768-1.328-1.152-2.472-1.152-2.16 0-3.24 1.432-3.24 4.296zm4.8 0c0 .872-.108 1.544-.324 2.016-.208.464-.62.696-1.236.696-.624 0-1.044-.232-1.26-.696-.208-.472-.312-1.144-.312-2.016 0-.864.104-1.528.312-1.992.216-.472.636-.708 1.26-.708.616 0 1.028.236 1.236.708.216.464.324 1.128.324 1.992zm2.662 2.976c2.712-1.88 4.068-3.44 4.068-4.68 0-.376-.092-.672-.276-.888-.176-.216-.456-.324-.84-.324-.792 0-1.212.54-1.26 1.62h-1.644c.048-1 .352-1.756.912-2.268.56-.52 1.268-.78 2.124-.78.872 0 1.54.228 2.004.684.472.448.708 1.048.708 1.8 0 .592-.176 1.188-.528 1.788a7.27 7.27 0 01-1.32 1.644c-.536.496-1.1.924-1.692 1.284h3.708v1.38h-5.964v-1.26zm9.965-7.464c.576 0 1.068.1 1.476.3.416.2.728.476.936.828.216.352.324.744.324 1.176 0 .544-.148.992-.444 1.344-.296.344-.688.556-1.176.636v.06c1.184.352 1.776 1.048 1.776 2.088 0 .728-.244 1.32-.732 1.776-.488.448-1.176.672-2.064.672-.944 0-1.696-.232-2.256-.696-.56-.472-.872-1.18-.936-2.124h1.656c.04.432.18.776.42 1.032.248.248.596.372 1.044.372.384 0 .684-.104.9-.312.216-.216.324-.496.324-.84 0-.408-.156-.72-.468-.936-.312-.216-.772-.324-1.38-.324h-.348v-1.38h.348c1.12.016 1.68-.372 1.68-1.164 0-.344-.1-.612-.3-.804-.2-.2-.472-.3-.816-.3-.36 0-.656.116-.888.348-.232.224-.364.54-.396.948h-1.656c.048-.864.328-1.528.84-1.992.512-.472 1.224-.708 2.136-.708zm93.642.42V325h-1.68v-5.844L310.209 325h-1.464l-2.148-5.82V325h-1.692v-8.376h2.052l2.544 6.3 2.496-6.3h2.04zm4.136 1.644c.56 0 1.04.132 1.44.396.4.264.684.62.852 1.068v-1.38h1.68V325h-1.68v-1.392a2.221 2.221 0 01-.852 1.08c-.4.264-.88.396-1.44.396-.56 0-1.064-.136-1.512-.408a2.802 2.802 0 01-1.056-1.176c-.248-.52-.372-1.128-.372-1.824 0-.696.124-1.3.372-1.812.256-.52.608-.916 1.056-1.188a2.856 2.856 0 011.512-.408zm.528 1.476c-.528 0-.952.172-1.272.516-.32.344-.48.816-.48 1.416s.16 1.072.48 1.416c.32.336.744.504 1.272.504.512 0 .932-.172 1.26-.516.336-.352.504-.82.504-1.404 0-.592-.168-1.06-.504-1.404-.328-.352-.748-.528-1.26-.528zm6.669-.12c.248-.424.576-.756.984-.996a2.582 2.582 0 011.368-.372v1.812h-.492c-1.24 0-1.86.576-1.86 1.728V325h-1.692v-6.648h1.692v1.272zm5.578 4.044c2.712-1.88 4.068-3.44 4.068-4.68 0-.376-.092-.672-.276-.888-.176-.216-.456-.324-.84-.324-.792 0-1.212.54-1.26 1.62h-1.644c.048-1 .352-1.756.912-2.268.56-.52 1.268-.78 2.124-.78.872 0 1.54.228 2.004.684.472.448.708 1.048.708 1.8 0 .592-.176 1.188-.528 1.788a7.27 7.27 0 01-1.32 1.644c-.536.496-1.1.924-1.692 1.284h3.708v1.38h-5.964v-1.26zm6.917-2.976c0 2.872 1.08 4.308 3.24 4.308 1.144 0 1.968-.384 2.472-1.152.504-.768.756-1.82.756-3.156 0-1.328-.252-2.376-.756-3.144-.504-.768-1.328-1.152-2.472-1.152-2.16 0-3.24 1.432-3.24 4.296zm4.8 0c0 .872-.108 1.544-.324 2.016-.208.464-.62.696-1.236.696-.624 0-1.044-.232-1.26-.696-.208-.472-.312-1.144-.312-2.016 0-.864.104-1.528.312-1.992.216-.472.636-.708 1.26-.708.616 0 1.028.236 1.236.708.216.464.324 1.128.324 1.992zm2.662 2.976c2.712-1.88 4.068-3.44 4.068-4.68 0-.376-.092-.672-.276-.888-.176-.216-.456-.324-.84-.324-.792 0-1.212.54-1.26 1.62h-1.644c.048-1 .352-1.756.912-2.268.56-.52 1.268-.78 2.124-.78.872 0 1.54.228 2.004.684.472.448.708 1.048.708 1.8 0 .592-.176 1.188-.528 1.788a7.27 7.27 0 01-1.32 1.644c-.536.496-1.1.924-1.692 1.284h3.708v1.38h-5.964v-1.26zm9.965-7.464c.576 0 1.068.1 1.476.3.416.2.728.476.936.828.216.352.324.744.324 1.176 0 .544-.148.992-.444 1.344-.296.344-.688.556-1.176.636v.06c1.184.352 1.776 1.048 1.776 2.088 0 .728-.244 1.32-.732 1.776-.488.448-1.176.672-2.064.672-.944 0-1.696-.232-2.256-.696-.56-.472-.872-1.18-.936-2.124h1.656c.04.432.18.776.42 1.032.248.248.596.372 1.044.372.384 0 .684-.104.9-.312.216-.216.324-.496.324-.84 0-.408-.156-.72-.468-.936-.312-.216-.772-.324-1.38-.324h-.348v-1.38h.348c1.12.016 1.68-.372 1.68-1.164 0-.344-.1-.612-.3-.804-.2-.2-.472-.3-.816-.3-.36 0-.656.116-.888.348-.232.224-.364.54-.396.948h-1.656c.048-.864.328-1.528.84-1.992.512-.472 1.224-.708 2.136-.708zm89.88 7.092h-3.396l-.6 1.704h-1.788l3.12-8.376h1.932l3.108 8.376h-1.788l-.588-1.704zm-.456-1.284l-1.248-3.576-1.248 3.576h2.496zm7.717-3.744c.56 0 1.064.136 1.512.408.448.272.796.668 1.044 1.188.256.512.384 1.116.384 1.812s-.128 1.304-.384 1.824a2.725 2.725 0 01-1.044 1.176 2.856 2.856 0 01-1.512.408c-.56 0-1.04-.132-1.44-.396a2.244 2.244 0 01-.84-1.08v4.56h-1.692v-9.816h1.692v1.38c.168-.448.448-.804.84-1.068.4-.264.88-.396 1.44-.396zm-.528 1.476c-.512 0-.936.176-1.272.528-.328.344-.492.812-.492 1.404 0 .584.164 1.052.492 1.404.336.344.76.516 1.272.516.528 0 .952-.168 1.272-.504.32-.344.48-.816.48-1.416s-.16-1.072-.48-1.416c-.32-.344-.744-.516-1.272-.516zm6.358-.12c.248-.424.576-.756.984-.996a2.582 2.582 0 011.368-.372v1.812h-.492c-1.24 0-1.86.576-1.86 1.728V325h-1.692v-6.648h1.692v1.272zm5.577 4.044c2.712-1.88 4.068-3.44 4.068-4.68 0-.376-.092-.672-.276-.888-.176-.216-.456-.324-.84-.324-.792 0-1.212.54-1.26 1.62h-1.644c.048-1 .352-1.756.912-2.268.56-.52 1.268-.78 2.124-.78.872 0 1.54.228 2.004.684.472.448.708 1.048.708 1.8 0 .592-.176 1.188-.528 1.788a7.27 7.27 0 01-1.32 1.644c-.536.496-1.1.924-1.692 1.284h3.708v1.38h-5.964v-1.26zm6.917-2.976c0 2.872 1.08 4.308 3.24 4.308 1.144 0 1.968-.384 2.472-1.152.504-.768.756-1.82.756-3.156 0-1.328-.252-2.376-.756-3.144-.504-.768-1.328-1.152-2.472-1.152-2.16 0-3.24 1.432-3.24 4.296zm4.8 0c0 .872-.108 1.544-.324 2.016-.208.464-.62.696-1.236.696-.624 0-1.044-.232-1.26-.696-.208-.472-.312-1.144-.312-2.016 0-.864.104-1.528.312-1.992.216-.472.636-.708 1.26-.708.616 0 1.028.236 1.236.708.216.464.324 1.128.324 1.992zm2.662 2.976c2.712-1.88 4.068-3.44 4.068-4.68 0-.376-.092-.672-.276-.888-.176-.216-.456-.324-.84-.324-.792 0-1.212.54-1.26 1.62h-1.644c.048-1 .352-1.756.912-2.268.56-.52 1.268-.78 2.124-.78.872 0 1.54.228 2.004.684.472.448.708 1.048.708 1.8 0 .592-.176 1.188-.528 1.788a7.27 7.27 0 01-1.32 1.644c-.536.496-1.1.924-1.692 1.284h3.708v1.38h-5.964v-1.26zm9.965-7.464c.576 0 1.068.1 1.476.3.416.2.728.476.936.828.216.352.324.744.324 1.176 0 .544-.148.992-.444 1.344-.296.344-.688.556-1.176.636v.06c1.184.352 1.776 1.048 1.776 2.088 0 .728-.244 1.32-.732 1.776-.488.448-1.176.672-2.064.672-.944 0-1.696-.232-2.256-.696-.56-.472-.872-1.18-.936-2.124h1.656c.04.432.18.776.42 1.032.248.248.596.372 1.044.372.384 0 .684-.104.9-.312.216-.216.324-.496.324-.84 0-.408-.156-.72-.468-.936-.312-.216-.772-.324-1.38-.324h-.348v-1.38h.348c1.12.016 1.68-.372 1.68-1.164 0-.344-.1-.612-.3-.804-.2-.2-.472-.3-.816-.3-.36 0-.656.116-.888.348-.232.224-.364.54-.396.948h-1.656c.048-.864.328-1.528.84-1.992.512-.472 1.224-.708 2.136-.708z" fill="#C0C0C7"/><rect x="436" y="26" width="60" height="278" rx="4" fill="url(#paint0_linear_98_277)"/><rect x="302" y="66" width="60" height="238" rx="4" fill="url(#paint1_linear_98_277)"/><rect x="168" y="40" width="60" height="264" rx="4" fill="url(#paint2_linear_98_277)"/><rect x="34" y="47" width="60" height="257" rx="4" fill="url(#paint3_linear_98_277)"/><path d="M451.371 5.812V4.528h2.712V13h-1.44V5.812h-1.272zm9.936-1.548c.56 0 1.04.1 1.44.3.4.192.7.46.9.804.208.344.312.728.312 1.152 0 .536-.152.984-.456 1.344-.296.352-.716.564-1.26.636v.06c.584.168 1.04.42 1.368.756.336.328.504.784.504 1.368 0 .712-.236 1.292-.708 1.74-.472.44-1.148.66-2.028.66-.904 0-1.632-.228-2.184-.684-.552-.464-.868-1.148-.948-2.052h1.356c.048.48.22.864.516 1.152.296.28.696.42 1.2.42.472 0 .832-.124 1.08-.372.256-.248.384-.568.384-.96 0-.472-.184-.832-.552-1.08-.36-.248-.884-.372-1.572-.372h-.324V8.008h.324c1.304.016 1.956-.428 1.956-1.332 0-.392-.12-.7-.36-.924-.24-.224-.568-.336-.984-.336-.416 0-.764.128-1.044.384-.28.248-.448.612-.504 1.092h-1.344c.056-.832.336-1.476.84-1.932.504-.464 1.2-.696 2.088-.696zm4.149 4.44c0 1.352.24 2.412.72 3.18.48.76 1.28 1.14 2.4 1.14 1.12 0 1.92-.384 2.4-1.152.48-.768.72-1.824.72-3.168 0-1.336-.24-2.384-.72-3.144-.48-.768-1.28-1.152-2.4-1.152-1.12 0-1.92.38-2.4 1.14-.48.76-.72 1.812-.72 3.156zm4.872 0c0 .976-.12 1.724-.36 2.244-.24.52-.704.78-1.392.78-.696 0-1.164-.26-1.404-.78s-.36-1.268-.36-2.244c0-.968.12-1.708.36-2.22.24-.512.708-.768 1.404-.768.688 0 1.152.26 1.392.78.24.512.36 1.248.36 2.208zm2.605 0c0 1.352.24 2.412.72 3.18.48.76 1.28 1.14 2.4 1.14 1.12 0 1.92-.384 2.4-1.152.48-.768.72-1.824.72-3.168 0-1.336-.24-2.384-.72-3.144-.48-.768-1.28-1.152-2.4-1.152-1.12 0-1.92.38-2.4 1.14-.48.76-.72 1.812-.72 3.156zm4.872 0c0 .976-.12 1.724-.36 2.244-.24.52-.704.78-1.392.78-.696 0-1.164-.26-1.404-.78s-.36-1.268-.36-2.244c0-.968.12-1.708.36-2.22.24-.512.708-.768 1.404-.768.688 0 1.152.26 1.392.78.24.512.36 1.248.36 2.208zM322.509 50.552c.064.456.22.808.468 1.056.256.248.6.372 1.032.372.608 0 1.06-.24 1.356-.72.304-.488.456-1.252.456-2.292l-.012-.408c-.128.432-.396.78-.804 1.044-.4.256-.868.384-1.404.384-.832 0-1.484-.248-1.956-.744-.472-.504-.708-1.204-.708-2.1 0-.544.108-1.032.324-1.464.216-.432.54-.772.972-1.02.432-.256.964-.384 1.596-.384 1.224 0 2.064.376 2.52 1.128.464.744.696 1.776.696 3.096 0 1.496-.236 2.636-.708 3.42-.464.784-1.24 1.176-2.328 1.176-.84 0-1.5-.236-1.98-.708-.472-.48-.744-1.092-.816-1.836h1.296zm3.168-3.264c0-.52-.152-.952-.456-1.296-.296-.352-.744-.528-1.344-.528-.496 0-.896.148-1.2.444-.296.296-.444.712-.444 1.248 0 .568.148 1.004.444 1.308.304.304.716.456 1.236.456.304 0 .588-.06.852-.18.272-.128.492-.312.66-.552.168-.248.252-.548.252-.9zm2.609 1.416c0 1.352.24 2.412.72 3.18.48.76 1.28 1.14 2.4 1.14 1.12 0 1.92-.384 2.4-1.152.48-.768.72-1.824.72-3.168 0-1.336-.24-2.384-.72-3.144-.48-.768-1.28-1.152-2.4-1.152-1.12 0-1.92.38-2.4 1.14-.48.76-.72 1.812-.72 3.156zm4.872 0c0 .976-.12 1.724-.36 2.244-.24.52-.704.78-1.392.78-.696 0-1.164-.26-1.404-.78s-.36-1.268-.36-2.244c0-.968.12-1.708.36-2.22.24-.512.708-.768 1.404-.768.688 0 1.152.26 1.392.78.24.512.36 1.248.36 2.208zm2.605 0c0 1.352.24 2.412.72 3.18.48.76 1.28 1.14 2.4 1.14 1.12 0 1.92-.384 2.4-1.152.48-.768.72-1.824.72-3.168 0-1.336-.24-2.384-.72-3.144-.48-.768-1.28-1.152-2.4-1.152-1.12 0-1.92.38-2.4 1.14-.48.76-.72 1.812-.72 3.156zm4.872 0c0 .976-.12 1.724-.36 2.244-.24.52-.704.78-1.392.78-.696 0-1.164-.26-1.404-.78s-.36-1.268-.36-2.244c0-.968.12-1.708.36-2.22.24-.512.708-.768 1.404-.768.688 0 1.152.26 1.392.78.24.512.36 1.248.36 2.208zM184.594 19.812v-1.284h2.712V27h-1.44v-7.188h-1.272zm6.492 0v-1.284h2.712V27h-1.44v-7.188h-1.272zm4.147 2.892c0 1.352.24 2.412.72 3.18.48.76 1.28 1.14 2.4 1.14 1.12 0 1.92-.384 2.4-1.152.48-.768.72-1.824.72-3.168 0-1.336-.24-2.384-.72-3.144-.48-.768-1.28-1.152-2.4-1.152-1.12 0-1.92.38-2.4 1.14-.48.76-.72 1.812-.72 3.156zm4.872 0c0 .976-.12 1.724-.36 2.244-.24.52-.704.78-1.392.78-.696 0-1.164-.26-1.404-.78s-.36-1.268-.36-2.244c0-.968.12-1.708.36-2.22.24-.512.708-.768 1.404-.768.688 0 1.152.26 1.392.78.24.512.36 1.248.36 2.208zm2.605 0c0 1.352.24 2.412.72 3.18.48.76 1.28 1.14 2.4 1.14 1.12 0 1.92-.384 2.4-1.152.48-.768.72-1.824.72-3.168 0-1.336-.24-2.384-.72-3.144-.48-.768-1.28-1.152-2.4-1.152-1.12 0-1.92.38-2.4 1.14-.48.76-.72 1.812-.72 3.156zm4.872 0c0 .976-.12 1.724-.36 2.244-.24.52-.704.78-1.392.78-.696 0-1.164-.26-1.404-.78s-.36-1.268-.36-2.244c0-.968.12-1.708.36-2.22.24-.512.708-.768 1.404-.768.688 0 1.152.26 1.392.78.24.512.36 1.248.36 2.208zM50.195 26.812v-1.284h2.712V34h-1.44v-7.188h-1.272zm6.96 2.892c0 1.352.24 2.412.72 3.18.48.76 1.28 1.14 2.4 1.14 1.12 0 1.92-.384 2.4-1.152.48-.768.72-1.824.72-3.168 0-1.336-.24-2.384-.72-3.144-.48-.768-1.28-1.152-2.4-1.152-1.12 0-1.92.38-2.4 1.14-.48.76-.72 1.812-.72 3.156zm4.872 0c0 .976-.12 1.724-.36 2.244-.24.52-.704.78-1.392.78-.696 0-1.164-.26-1.404-.78s-.36-1.268-.36-2.244c0-.968.12-1.708.36-2.22.24-.512.708-.768 1.404-.768.688 0 1.152.26 1.392.78.24.512.36 1.248.36 2.208zm2.605 0c0 1.352.24 2.412.72 3.18.48.76 1.28 1.14 2.4 1.14 1.12 0 1.92-.384 2.4-1.152.48-.768.72-1.824.72-3.168 0-1.336-.24-2.384-.72-3.144-.48-.768-1.28-1.152-2.4-1.152-1.12 0-1.92.38-2.4 1.14-.48.76-.72 1.812-.72 3.156zm4.872 0c0 .976-.12 1.724-.36 2.244-.24.52-.704.78-1.392.78-.696 0-1.164-.26-1.404-.78s-.36-1.268-.36-2.244c0-.968.12-1.708.36-2.22.24-.512.708-.768 1.404-.768.688 0 1.152.26 1.392.78.24.512.36 1.248.36 2.208zm2.604 0c0 1.352.24 2.412.72 3.18.48.76 1.28 1.14 2.4 1.14 1.12 0 1.92-.384 2.4-1.152.48-.768.72-1.824.72-3.168 0-1.336-.24-2.384-.72-3.144-.48-.768-1.28-1.152-2.4-1.152-1.12 0-1.92.38-2.4 1.14-.48.76-.72 1.812-.72 3.156zm4.872 0c0 .976-.12 1.724-.36 2.244-.24.52-.704.78-1.392.78-.696 0-1.164-.26-1.404-.78s-.36-1.268-.36-2.244c0-.968.12-1.708.36-2.22.24-.512.708-.768 1.404-.768.688 0 1.152.26 1.392.78.24.512.36 1.248.36 2.208zm110.65 126.228c1.296-.888 2.332-1.756 3.108-2.604.784-.856 1.176-1.648 1.176-2.376 0-.432-.108-.776-.324-1.032-.208-.256-.548-.384-1.02-.384-.488 0-.856.16-1.104.48-.248.312-.388.76-.42 1.344h-1.332c.056-.968.352-1.708.888-2.22.544-.512 1.236-.768 2.076-.768.824 0 1.468.22 1.932.66.472.432.708 1.032.708 1.8 0 .616-.192 1.24-.576 1.872a7.773 7.773 0 01-1.44 1.752c-.584.528-1.188.984-1.812 1.368h4.02v1.116h-5.88v-1.008zm6.953-3.228c0 1.352.24 2.412.72 3.18.48.76 1.28 1.14 2.4 1.14 1.12 0 1.92-.384 2.4-1.152.48-.768.72-1.824.72-3.168 0-1.336-.24-2.384-.72-3.144-.48-.768-1.28-1.152-2.4-1.152-1.12 0-1.92.38-2.4 1.14-.48.76-.72 1.812-.72 3.156zm4.872 0c0 .976-.12 1.724-.36 2.244-.24.52-.704.78-1.392.78-.696 0-1.164-.26-1.404-.78s-.36-1.268-.36-2.244c0-.968.12-1.708.36-2.22.24-.512.708-.768 1.404-.768.688 0 1.152.26 1.392.78.24.512.36 1.248.36 2.208zm4.177-4.296c.536 0 .972.168 1.308.504.336.328.504.776.504 1.344 0 .568-.168 1.016-.504 1.344-.336.328-.772.492-1.308.492s-.976-.164-1.32-.492c-.336-.328-.504-.776-.504-1.344 0-.568.168-1.016.504-1.344.344-.336.784-.504 1.32-.504zm5.076.108L203.92 157h-1.344l4.8-8.484h1.332zm-5.964 1.74c0 .304.08.548.24.732.16.176.372.264.636.264a.801.801 0 00.636-.276c.168-.184.252-.424.252-.72 0-.304-.084-.548-.252-.732a.801.801 0 00-.636-.276.801.801 0 00-.636.276c-.16.184-.24.428-.24.732zm4.92 3.168c.536 0 .972.164 1.308.492.344.328.516.776.516 1.344 0 .568-.172 1.02-.516 1.356-.336.328-.772.492-1.308.492-.528 0-.964-.164-1.308-.492-.336-.336-.504-.788-.504-1.356 0-.56.168-1.004.504-1.332.344-.336.78-.504 1.308-.504zm-.876 1.836c0 .304.08.548.24.732.16.184.372.276.636.276a.801.801 0 00.636-.276c.168-.184.252-.428.252-.732 0-.296-.084-.536-.252-.72a.801.801 0 00-.636-.276.801.801 0 00-.636.276c-.16.184-.24.424-.24.72zm113.842 34.672c1.296-.888 2.332-1.756 3.108-2.604.784-.856 1.176-1.648 1.176-2.376 0-.432-.108-.776-.324-1.032-.208-.256-.548-.384-1.02-.384-.488 0-.856.16-1.104.48-.248.312-.388.76-.42 1.344h-1.332c.056-.968.352-1.708.888-2.22.544-.512 1.236-.768 2.076-.768.824 0 1.468.22 1.932.66.472.432.708 1.032.708 1.8 0 .616-.192 1.24-.576 1.872a7.773 7.773 0 01-1.44 1.752c-.584.528-1.188.984-1.812 1.368h4.02v1.116h-5.88v-1.008zm6.953-3.228c0 1.352.24 2.412.72 3.18.48.76 1.28 1.14 2.4 1.14 1.12 0 1.92-.384 2.4-1.152.48-.768.72-1.824.72-3.168 0-1.336-.24-2.384-.72-3.144-.48-.768-1.28-1.152-2.4-1.152-1.12 0-1.92.38-2.4 1.14-.48.76-.72 1.812-.72 3.156zm4.872 0c0 .976-.12 1.724-.36 2.244-.24.52-.704.78-1.392.78-.696 0-1.164-.26-1.404-.78s-.36-1.268-.36-2.244c0-.968.12-1.708.36-2.22.24-.512.708-.768 1.404-.768.688 0 1.152.26 1.392.78.24.512.36 1.248.36 2.208zm4.177-4.296c.536 0 .972.168 1.308.504.336.328.504.776.504 1.344 0 .568-.168 1.016-.504 1.344-.336.328-.772.492-1.308.492s-.976-.164-1.32-.492c-.336-.328-.504-.776-.504-1.344 0-.568.168-1.016.504-1.344.344-.336.784-.504 1.32-.504zm5.076.108L336.92 191h-1.344l4.8-8.484h1.332zm-5.964 1.74c0 .304.08.548.24.732.16.176.372.264.636.264a.801.801 0 00.636-.276c.168-.184.252-.424.252-.72 0-.304-.084-.548-.252-.732a.801.801 0 00-.636-.276.801.801 0 00-.636.276c-.16.184-.24.428-.24.732zm4.92 3.168c.536 0 .972.164 1.308.492.344.328.516.776.516 1.344 0 .568-.172 1.02-.516 1.356-.336.328-.772.492-1.308.492-.528 0-.964-.164-1.308-.492-.336-.336-.504-.788-.504-1.356 0-.56.168-1.004.504-1.332.344-.336.78-.504 1.308-.504zm-.876 1.836c0 .304.08.548.24.732.16.184.372.276.636.276a.801.801 0 00.636-.276c.168-.184.252-.428.252-.732 0-.296-.084-.536-.252-.72a.801.801 0 00-.636-.276.801.801 0 00-.636.276c-.16.184-.24.424-.24.72zm124.753 16.348h-4.188v2.52c.192-.248.464-.444.816-.588.352-.152.74-.228 1.164-.228.592 0 1.084.128 1.476.384.392.248.68.58.864.996.192.416.288.876.288 1.38 0 .888-.248 1.608-.744 2.16-.496.544-1.216.816-2.16.816-.888 0-1.604-.236-2.148-.708s-.84-1.1-.888-1.884h1.344c.072.432.248.772.528 1.02.288.248.652.372 1.092.372.544 0 .952-.164 1.224-.492.272-.328.408-.764.408-1.308 0-.512-.14-.912-.42-1.2-.28-.296-.68-.444-1.2-.444-.368 0-.692.08-.972.24a1.48 1.48 0 00-.6.636h-1.332v-4.884h5.448v1.212zm3.192-1.2c.536 0 .972.168 1.308.504.336.328.504.776.504 1.344 0 .568-.168 1.016-.504 1.344-.336.328-.772.492-1.308.492s-.976-.164-1.32-.492c-.336-.328-.504-.776-.504-1.344 0-.568.168-1.016.504-1.344.344-.336.784-.504 1.32-.504zm5.076.108L468.021 213h-1.344l4.8-8.484h1.332zm-5.964 1.74c0 .304.08.548.24.732.16.176.372.264.636.264a.801.801 0 00.636-.276c.168-.184.252-.424.252-.72 0-.304-.084-.548-.252-.732a.801.801 0 00-.636-.276.801.801 0 00-.636.276c-.16.184-.24.428-.24.732zm4.92 3.168c.536 0 .972.164 1.308.492.344.328.516.776.516 1.344 0 .568-.172 1.02-.516 1.356-.336.328-.772.492-1.308.492-.528 0-.964-.164-1.308-.492-.336-.336-.504-.788-.504-1.356 0-.56.168-1.004.504-1.332.344-.336.78-.504 1.308-.504zm-.876 1.836c0 .304.08.548.24.732.16.184.372.276.636.276a.801.801 0 00.636-.276c.168-.184.252-.428.252-.732 0-.296-.084-.536-.252-.72a.801.801 0 00-.636-.276.801.801 0 00-.636.276c-.16.184-.24.424-.24.72zM54.37 193.812v-1.284h2.713V201h-1.44v-7.188H54.37zm4.149 2.892c0 1.352.24 2.412.72 3.18.48.76 1.28 1.14 2.4 1.14 1.12 0 1.92-.384 2.4-1.152.48-.768.72-1.824.72-3.168 0-1.336-.24-2.384-.72-3.144-.48-.768-1.28-1.152-2.4-1.152-1.12 0-1.92.38-2.4 1.14-.48.76-.72 1.812-.72 3.156zm4.872 0c0 .976-.12 1.724-.36 2.244-.24.52-.704.78-1.392.78-.697 0-1.165-.26-1.405-.78s-.36-1.268-.36-2.244c0-.968.12-1.708.36-2.22.24-.512.709-.768 1.404-.768.689 0 1.153.26 1.393.78.24.512.36 1.248.36 2.208zm4.176-4.296c.536 0 .972.168 1.308.504.336.328.504.776.504 1.344 0 .568-.168 1.016-.504 1.344-.336.328-.772.492-1.308.492s-.976-.164-1.32-.492c-.336-.328-.504-.776-.504-1.344 0-.568.168-1.016.504-1.344.344-.336.784-.504 1.32-.504zm5.076.108L67.855 201h-1.344l4.8-8.484h1.332zm-5.964 1.74c0 .304.08.548.24.732.16.176.372.264.636.264a.801.801 0 00.636-.276c.168-.184.252-.424.252-.72 0-.304-.084-.548-.252-.732a.801.801 0 00-.636-.276.801.801 0 00-.636.276c-.16.184-.24.428-.24.732zm4.92 3.168c.536 0 .972.164 1.308.492.344.328.516.776.516 1.344 0 .568-.172 1.02-.516 1.356-.336.328-.772.492-1.308.492-.528 0-.964-.164-1.308-.492-.336-.336-.504-.788-.504-1.356 0-.56.168-1.004.504-1.332.344-.336.78-.504 1.308-.504zm-.876 1.836c0 .304.08.548.24.732.16.184.372.276.636.276a.801.801 0 00.636-.276c.168-.184.252-.428.252-.732 0-.296-.084-.536-.252-.72a.801.801 0 00-.636-.276.801.801 0 00-.636.276c-.16.184-.24.424-.24.72z" fill="#fff"/><path d="M468 225.5l-135.5-21-119.043-30.432a50.004 50.004 0 00-27.673.837L62.5 214.5" stroke="#63B866" stroke-width="2"/><path d="M465.5 254.5l-125.552-20.373a50.021 50.021 0 00-13.937-.293l-122.774 14.66c-2.82.337-5.663.433-8.498.287L63 242" stroke="#EDA13D" stroke-width="2"/><defs><linearGradient id="paint0_linear_98_277" x1="466" y1="26" x2="466" y2="304" gradientUnits="userSpaceOnUse"><stop stop-color="#59A5FE"/><stop offset="1" stop-color="#59A5FE" stop-opacity="0"/></linearGradient><linearGradient id="paint1_linear_98_277" x1="332" y1="66" x2="332" y2="304" gradientUnits="userSpaceOnUse"><stop stop-color="#59A5FE"/><stop offset="1" stop-color="#59A5FE" stop-opacity="0"/></linearGradient><linearGradient id="paint2_linear_98_277" x1="198" y1="40" x2="198" y2="304" gradientUnits="userSpaceOnUse"><stop stop-color="#59A5FE"/><stop offset="1" stop-color="#59A5FE" stop-opacity="0"/></linearGradient><linearGradient id="paint3_linear_98_277" x1="64" y1="47" x2="64" y2="304" gradientUnits="userSpaceOnUse"><stop stop-color="#59A5FE"/><stop offset="1" stop-color="#59A5FE" stop-opacity="0"/></linearGradient></defs></svg>