<svg width="63" height="25" fill="none" xmlns="http://www.w3.org/2000/svg"><g clip-path="url(#clip0_105_929)" fill="#fff"><path fill-rule="evenodd" clip-rule="evenodd" d="M62.667 12.443c0-4.102-2.159-7.338-6.284-7.338-4.143 0-6.65 3.236-6.65 7.306 0 4.822 2.96 7.257 7.207 7.257 2.071 0 3.638-.432 4.822-1.041v-3.204c-1.184.544-2.542.88-4.265.88-1.689 0-3.186-.544-3.377-2.434h8.512c0-.209.035-1.042.035-1.426zm-8.6-1.522c0-1.81 1.202-2.564 2.298-2.564 1.062 0 2.194.753 2.194 2.564h-4.492zM43.014 5.105a5.137 5.137 0 00-3.412 1.25l-.226-.994h-3.83v18.681l4.352-.849.017-4.534c.627.417 1.55 1.01 3.081 1.01 3.116 0 5.954-2.308 5.954-7.386-.018-4.647-2.89-7.178-5.936-7.178zm-1.045 11.039c-1.027 0-1.636-.337-2.054-.753l-.017-5.944c.452-.465 1.079-.785 2.071-.785 1.584 0 2.681 1.634 2.681 3.733 0 2.147-1.08 3.749-2.68 3.749zM29.558 4.16l4.369-.865V.042l-4.37.85V4.16z"/><path d="M33.927 5.377h-4.37v14.019h4.37V5.377z"/><path fill-rule="evenodd" clip-rule="evenodd" d="M24.875 6.563l-.278-1.186h-3.76v14.02h4.352V9.894c1.027-1.233 2.767-1.009 3.307-.833V5.377c-.557-.192-2.594-.544-3.62 1.186zM16.172 1.9l-4.248.834-.017 12.833c0 2.371 1.932 4.117 4.508 4.117 1.428 0 2.472-.24 3.047-.528v-3.253c-.558.209-3.308.946-3.308-1.426V8.79h3.308V5.377h-3.308l.018-3.476zM4.404 9.447c0-.625.557-.865 1.48-.865 1.323 0 2.994.368 4.317 1.025V5.842c-1.445-.529-2.872-.737-4.317-.737C2.35 5.105 0 6.803 0 9.639c0 4.422 6.615 3.717 6.615 5.623 0 .737-.696.978-1.671.978-1.445 0-3.29-.545-4.753-1.282v3.813c1.62.641 3.256.913 4.753.913 3.62 0 6.11-1.65 6.11-4.518-.018-4.774-6.65-3.925-6.65-5.72z"/></g><defs><clipPath id="clip0_105_929"><path fill="#fff" transform="translate(0 .042)" d="M0 0h62.667v24H0z"/></clipPath></defs></svg>