<?xml version="1.0" encoding="utf-8"?><svg viewBox="0 0 135 135" xmlns="http://www.w3.org/2000/svg" xmlns:xlink="http://www.w3.org/1999/xlink"><svg viewBox="0 0 135 135" id="favicon" xmlns="http://www.w3.org/2000/svg"><path fill-rule="evenodd" clip-rule="evenodd" d="M43.457 8.151H15.438v1.232l4.901 1.477c2.832 1.15 4.466 2.791 4.901 4.925V62.01L43.457 8.15zm-.265 118.204h8.515v-1.231l-1.634-.246c-1.089-.165-2.287-.493-3.594-.985-1.09-.493-2.178-1.232-3.267-2.217l-.02-.017v4.696zm0-42.131v-2.222l52.953-65.478c.871-1.313 1.307-2.38 1.307-3.201 0-1.642-.545-2.791-1.634-3.448l-2.287-.492V8.15h19.931v1.232l-2.94.246c-5.011.657-9.258 2.955-12.744 6.895l-.326.493-35.616 44.326 51.953 56.639a19.406 19.406 0 006.208 4.679c2.396.985 4.466 1.724 6.209 2.217l2.614.738v1.232H92.877v-1.232l1.634-.492c.871-.493 1.416-1.314 1.634-2.463 0-.492-.218-1.067-.654-1.724-.218-.82-.762-1.805-1.633-2.955L52.36 72.917l-9.168 11.307z"/></svg></svg>