<svg width="135" height="135" viewBox="0 0 135 135" fill="none" xmlns="http://www.w3.org/2000/svg">
<path fill-rule="evenodd" clip-rule="evenodd" d="M43.4572 8.15137H15.438V9.38266L20.3392 10.8602C23.171 12.0094 24.8048 13.6511 25.2404 15.7854V62.0097L43.4572 8.15137ZM43.1923 126.355H51.707V125.124L50.0733 124.878C48.9841 124.713 47.786 124.385 46.479 123.893C45.3899 123.4 44.3007 122.661 43.2116 121.676C43.2051 121.67 43.1987 121.665 43.1923 121.659V126.355ZM43.1923 84.224V82.0024L96.1447 16.5241C97.0161 15.2108 97.4517 14.1436 97.4517 13.3228C97.4517 11.6811 96.9071 10.5319 95.818 9.87517L93.5307 9.38266V8.15137H113.462V9.38266L110.522 9.62892C105.511 10.2856 101.264 12.584 97.7785 16.5241L97.4517 17.0167L61.8362 61.3431L113.789 117.982C115.532 119.952 117.601 121.512 119.997 122.661C122.393 123.646 124.463 124.385 126.206 124.878L128.82 125.616V126.848H92.8772V125.616L94.511 125.124C95.3823 124.631 95.9269 123.81 96.1447 122.661C96.1447 122.169 95.9269 121.594 95.4912 120.937C95.2734 120.117 94.7288 119.132 93.8575 117.982L52.3605 72.9172L43.1923 84.224Z" fill="#26201A"/>
</svg>
