<svg width="22" height="25" viewBox="0 0 22 25" fill="none" xmlns="http://www.w3.org/2000/svg">
<path d="M5.67951 21.6415C5.67951 22.2781 5.42665 22.8885 4.97657 23.3386C4.52648 23.7887 3.91603 24.0415 3.27951 24.0415H19.1195C19.6287 24.0415 20.1171 23.8393 20.4772 23.4792C20.8372 23.1191 21.0395 22.6308 21.0395 22.1215V20.2015H5.67951V21.6415Z" fill="white"/>
<path d="M18.8664 0.0988347C18.7897 0.0577738 18.7034 0.0383087 18.6165 0.0425189C18.5297 0.0467291 18.4456 0.0744564 18.3732 0.122739L15.7595 1.86514L13.1458 0.122739C13.067 0.0700154 12.9743 0.0418701 12.8795 0.0418701C12.7847 0.0418701 12.692 0.0700154 12.6132 0.122739L9.99946 1.86514L7.38576 0.122739C7.30697 0.0700154 7.2143 0.0418701 7.1195 0.0418701C7.0247 0.0418701 6.93204 0.0700154 6.85325 0.122739L4.23946 1.86514L1.62576 0.122739C1.55349 0.0745437 1.46949 0.0468656 1.38272 0.042655C1.29595 0.0384445 1.20967 0.0578595 1.13307 0.09883C1.05647 0.139801 0.992423 0.200791 0.94776 0.275298C0.903096 0.349806 0.879489 0.435038 0.879456 0.521907V21.1619C0.879456 21.6711 1.08174 22.1595 1.44181 22.5195C1.80188 22.8796 2.29024 23.0819 2.79946 23.0819C3.30867 23.0819 3.79703 22.8796 4.1571 22.5195C4.51717 22.1595 4.71946 21.6711 4.71946 21.1619V19.2419H19.1195V0.521907C19.1195 0.435095 19.096 0.349903 19.0514 0.275402C19.0068 0.200901 18.9429 0.139879 18.8664 0.0988347ZM8.07946 10.6019H11.9195C12.3012 10.6024 12.6672 10.7542 12.9372 11.0242C13.2071 11.2941 13.359 11.6601 13.3595 12.0419V13.0019C13.3591 13.3837 13.2073 13.7498 12.9373 14.0197C12.6673 14.2897 12.3013 14.4415 11.9195 14.4419H10.4795V14.9219C10.4795 15.0492 10.4289 15.1713 10.3389 15.2613C10.2488 15.3513 10.1268 15.4019 9.99946 15.4019C9.87215 15.4019 9.75006 15.3513 9.66004 15.2613C9.57003 15.1713 9.51945 15.0492 9.51945 14.9219V14.4419H7.11946C6.99215 14.4419 6.87006 14.3913 6.78004 14.3013C6.69003 14.2113 6.63946 14.0892 6.63946 13.9619C6.63946 13.8346 6.69003 13.7125 6.78004 13.6225C6.87006 13.5325 6.99215 13.4819 7.11946 13.4819H11.9195C12.0468 13.4819 12.1688 13.4313 12.2589 13.3413C12.3489 13.2513 12.3995 13.1292 12.3995 13.0019V12.0419C12.3992 11.9147 12.3486 11.7927 12.2586 11.7027C12.1686 11.6128 12.0467 11.5621 11.9195 11.5619H8.07946C7.69765 11.5615 7.33159 11.4097 7.06161 11.1397C6.79164 10.8698 6.63981 10.5037 6.63946 10.1219V9.16191C6.63991 8.78013 6.79177 8.41413 7.06173 8.14418C7.33168 7.87422 7.69768 7.72236 8.07946 7.72191H9.51945V7.24191C9.51945 7.1146 9.57003 6.99251 9.66004 6.90249C9.75006 6.81248 9.87215 6.76191 9.99946 6.76191C10.1268 6.76191 10.2488 6.81248 10.3389 6.90249C10.4289 6.99251 10.4795 7.1146 10.4795 7.24191V7.72191H12.8795C13.0068 7.72191 13.1288 7.77248 13.2189 7.86249C13.3089 7.95251 13.3595 8.0746 13.3595 8.20191C13.3595 8.32921 13.3089 8.4513 13.2189 8.54132C13.1288 8.63133 13.0068 8.68191 12.8795 8.68191H8.07946C7.95222 8.68213 7.83026 8.73278 7.7403 8.82275C7.65033 8.91271 7.59968 9.03467 7.59946 9.16191V10.1219C7.59946 10.2492 7.65003 10.3713 7.74004 10.4613C7.83006 10.5513 7.95215 10.6019 8.07946 10.6019Z" fill="white"/>
</svg>
