<svg width="72" height="30" viewBox="0 0 72 30" fill="none" xmlns="http://www.w3.org/2000/svg">
<path d="M12.7426 22.6086L23.4337 25.2616V4.67773L12.7426 7.33074V22.6086Z" fill="#CFCFCF"/>
<path d="M23.4295 4.67773L25.4852 5.73195V24.2117L23.4295 25.266V4.67773Z" fill="white"/>
<path d="M12.7426 22.6086L2.05582 25.2616V4.67773L12.7426 7.33074V22.6086Z" fill="white"/>
<path d="M2.05582 4.67773L0 5.73195V24.2117L2.05582 25.266V4.67773Z" fill="#CFCFCF"/>
<path d="M15.478 29.4001L19.5387 27.322V2.68244L15.478 0.600098L14.2037 14.2965L15.478 29.4001Z" fill="white"/>
<path d="M10.0072 29.4001L5.94656 27.322V2.68244L10.0072 0.600098L11.2815 14.2486L10.0072 29.4001Z" fill="#CFCFCF"/>
<path d="M15.4823 0.600098H10.0072V29.4001H15.4823V0.600098Z" fill="#EEEEEE"/>
<path d="M51.2847 10.6807V10.9682C51.3344 11.456 51.2538 11.9485 51.0511 12.3927C50.8923 12.7468 50.5553 12.9816 50.176 13.0027C49.6876 13.0027 49.3988 12.5975 49.3988 12.0181C49.3944 10.881 50.363 10.6807 51.2804 10.6807H51.2847ZM34.6089 10.6807V10.9682C34.6578 11.4545 34.5771 11.9453 34.3753 12.3884C34.2158 12.7418 33.8793 12.9764 33.5003 12.9983C33.0119 12.9983 32.723 12.5931 32.723 12.0138C32.706 10.8811 33.6914 10.6807 34.6089 10.6807ZM62.8848 8.18892C63.2896 8.16066 63.6524 8.44352 63.7342 8.85108C63.8783 9.44478 63.9398 10.0564 63.917 10.6677C63.917 11.5389 63.8745 13.0071 62.8934 13.0071C61.9121 13.0071 61.8995 11.1993 61.8995 10.3628C61.8995 9.52643 61.942 8.17153 62.8635 8.17153L62.8848 8.18892ZM54.8612 6.88191C54.797 6.88184 54.7355 6.90894 54.6913 6.95668C54.6471 7.0045 54.6242 7.06884 54.6275 7.13463V8.11915C54.6242 8.18493 54.6471 8.24927 54.6913 8.29709C54.7355 8.34491 54.797 8.37194 54.8612 8.37179H57.0444L54.5468 12.1532C54.4266 12.355 54.3651 12.5876 54.3684 12.8241V13.826C54.3655 13.9018 54.3994 13.9742 54.459 14.0188C54.5188 14.0635 54.5965 14.0746 54.6659 14.0483C56.0467 13.2947 57.7023 13.2947 59.0832 14.0483C59.1546 14.0774 59.2352 14.068 59.2982 14.0235C59.3615 13.9788 59.3989 13.9048 59.3976 13.8261V12.7674C59.3924 12.6081 59.3028 12.4644 59.164 12.3928C58.4328 11.9916 57.6088 11.8032 56.7811 11.8482L58.9473 8.58967C59.1006 8.41701 59.2089 8.20711 59.2616 7.97982V7.13463C59.265 7.06884 59.2422 7.0045 59.198 6.95668C59.1537 6.90894 59.0922 6.88184 59.0281 6.88191H54.8441H54.8612ZM70.1523 6.76432C69.2732 6.76432 68.7718 7.19991 68.4151 8.154V7.10406C68.3867 6.99516 68.2915 6.91879 68.1815 6.91683H67.0049C66.8788 6.91386 66.7717 7.01044 66.7586 7.13898V14.0046C66.7624 14.1375 66.8631 14.2463 66.9922 14.2573H68.2665C68.4016 14.255 68.5106 14.1432 68.5128 14.0046V10.3105C68.4946 9.86407 68.5684 9.41862 68.7294 9.00353C68.8394 8.7061 69.1045 8.49837 69.4133 8.46765C70.2924 8.46765 70.2075 9.56548 70.2075 10.3147V14.0482C70.2237 14.17 70.3213 14.2631 70.4413 14.2703H71.7154C71.84 14.2693 71.9448 14.1747 71.9618 14.0482V9.71358C71.9618 9.04707 71.9618 8.12356 71.6305 7.57457C71.3149 7.04761 70.7466 6.73613 70.1438 6.75997L70.1523 6.76432ZM62.889 6.76432C61.0498 6.76432 60.0262 8.42403 60.0262 10.563C60.0262 12.702 61.0372 14.3967 62.889 14.3967C64.6687 14.3967 65.7986 12.7282 65.7986 10.6284C65.7901 8.46765 64.7665 6.76432 62.8635 6.76432H62.889ZM41.2266 6.76432C40.4523 6.7462 39.7639 7.26759 39.553 8.03206V7.13463C39.5448 7.00595 39.445 6.9035 39.3193 6.89502H38.1302C37.995 6.89734 37.886 7.00914 37.8837 7.14767V14.022C37.8954 14.149 37.9936 14.2496 38.1173 14.2616H39.3917C39.5268 14.2593 39.6358 14.1475 39.638 14.009V10.3583C39.638 9.56106 39.5998 8.47635 40.513 8.47635C41.4263 8.47635 41.2904 9.59599 41.2904 10.3583V14.0046C41.2943 14.1375 41.3949 14.2463 41.524 14.2573H42.7982C42.9333 14.255 43.0424 14.1432 43.0446 14.0046V10.3583C43.0152 9.91921 43.0545 9.4781 43.1593 9.05135C43.2713 8.7203 43.5658 8.49033 43.9068 8.46758C44.0822 8.44418 44.2594 8.49366 44.399 8.60495C44.5385 8.71617 44.6289 8.88006 44.6502 9.06011C44.6922 9.49433 44.7033 9.93109 44.6841 10.367V14.0133C44.688 14.1461 44.7886 14.2549 44.9177 14.266H46.192C46.3271 14.2637 46.4363 14.1519 46.4383 14.0133V9.65692C46.4383 8.92071 46.5104 8.07995 46.1071 7.50053C45.69 6.95567 45.0175 6.68607 44.3507 6.79656C43.6842 6.90705 43.1287 7.38018 42.9002 8.03206C42.5221 7.16079 42.0209 6.76432 41.2266 6.76432ZM50.6051 6.69461C49.3945 6.69461 48.0566 7.17376 47.7594 8.74646C47.7457 8.80739 47.7577 8.87144 47.7924 8.92288C47.8273 8.97433 47.8816 9.00824 47.942 9.01649L49.1822 9.16901C49.305 9.14134 49.3941 9.032 49.3989 8.90332C49.4957 8.41121 49.9344 8.0698 50.4225 8.10603C50.6986 8.09415 50.9632 8.22094 51.1319 8.44584C51.2702 8.74697 51.3221 9.08265 51.2805 9.41297V9.60026C50.4692 9.63577 49.6668 9.78973 48.8977 10.0577C48.0495 10.4255 47.5105 11.2919 47.5427 12.2359C47.5427 13.63 48.3921 14.3226 49.4456 14.3226C50.2587 14.3717 51.0431 14.0107 51.5481 13.3555C51.7369 13.6886 51.9831 13.9838 52.2745 14.2268C52.3705 14.2824 52.4908 14.2683 52.5718 14.1919C52.8265 13.9523 53.2896 13.521 53.5487 13.2946C53.6405 13.194 53.6405 13.0378 53.5487 12.9373C53.2442 12.6008 53.0731 12.1594 53.0687 11.7001V9.66562C53.0687 8.79442 53.124 7.9667 52.5081 7.35678C51.9754 6.90241 51.2976 6.66665 50.6051 6.69461ZM33.9294 6.69461C32.7188 6.69461 31.3808 7.17376 31.0835 8.74646C31.0699 8.80739 31.0819 8.87144 31.1166 8.92288C31.1514 8.97433 31.2057 9.00824 31.2662 9.01649L32.5065 9.16901C32.6225 9.13467 32.7034 9.02707 32.7061 8.90332C32.8032 8.41121 33.2416 8.0698 33.7298 8.10603C34.006 8.09415 34.2706 8.22094 34.4391 8.44584C34.5836 8.7453 34.6411 9.08098 34.6048 9.41297V9.60026C33.7878 9.63562 32.9798 9.78959 32.205 10.0577C31.3567 10.4255 30.8177 11.2919 30.8499 12.2359C30.8499 13.63 31.6994 14.3226 32.7529 14.3226C33.5658 14.3725 34.351 14.0113 34.8554 13.3555C35.0444 13.6884 35.2904 13.9836 35.5817 14.2268C35.6778 14.2824 35.7977 14.2683 35.879 14.1919C36.1339 13.9523 36.5968 13.521 36.856 13.2946C36.9498 13.195 36.9498 13.037 36.856 12.9373C36.5511 12.6008 36.38 12.1594 36.3759 11.7001V9.66562C36.3759 8.79442 36.4481 7.9667 35.828 7.35678C35.2945 6.90676 34.6196 6.67136 33.9294 6.69461Z" fill="white"/>
<path d="M31.6272 19.8422H32.4427C33.2922 19.8422 33.8402 19.3631 33.8402 18.6355C33.8402 17.8165 33.2625 17.4549 32.4172 17.4549C32.1519 17.4474 31.8867 17.4722 31.6272 17.5289V19.838V19.8422H31.6272ZM30.8286 16.9583C31.3345 16.8635 31.8478 16.8169 32.362 16.8189C33.2115 16.8189 33.7765 16.9887 34.163 17.3459C34.4873 17.6575 34.6652 18.0972 34.6514 18.5527C34.6533 19.2961 34.178 19.9521 33.4834 20.1646V20.1949C33.9506 20.3649 34.2352 20.818 34.3923 21.4759C34.503 22.0684 34.6593 22.6511 34.8596 23.2185H34.0355C33.8455 22.7287 33.7032 22.2208 33.6107 21.7024C33.4282 20.8311 33.0882 20.4956 32.362 20.4695H31.6314V23.2227H30.8286V16.9583Z" fill="white"/>
<path d="M39.6847 20.2298H37.285V22.5212H39.9694V23.2096H36.4779V16.8623H39.8334V17.5505H37.285V19.5589H39.6847V20.2298Z" fill="white"/>
<path d="M42.3692 22.5781C42.6368 22.6126 42.9064 22.6257 43.1761 22.6172C44.8752 22.6172 45.8139 21.6372 45.8139 19.9206C45.8139 18.4221 44.9942 17.468 43.3038 17.468C42.9889 17.4622 42.6742 17.4899 42.365 17.5506V22.5736L42.3692 22.5781ZM41.5622 16.9496C42.1245 16.8636 42.6925 16.8199 43.2613 16.8188C44.408 16.8188 45.2279 17.0932 45.7715 17.6117C46.3813 18.2006 46.7051 19.0368 46.6549 19.8945C46.6936 20.8073 46.3721 21.6977 45.7629 22.3645C45.1768 22.9569 44.221 23.2793 43.0149 23.2793C42.5268 23.2875 42.0388 23.2627 41.5536 23.2052V16.9496H41.5622Z" fill="white"/>
<path d="M48.1458 22.2166C48.5762 22.4801 49.0675 22.6201 49.5688 22.6219C50.3886 22.6219 50.8644 22.1861 50.8644 21.5458C50.8644 20.9054 50.5457 20.6047 49.6963 20.2867C48.6853 19.9295 48.061 19.3806 48.061 18.4963C48.061 17.5074 48.8596 16.7538 50.0659 16.7538C50.5361 16.7393 51.0025 16.8424 51.425 17.0543L51.2042 17.7338C50.8478 17.5288 50.4447 17.425 50.036 17.4333C49.1867 17.4333 48.8681 17.9517 48.8681 18.3873C48.8681 18.9711 49.246 19.2586 50.0998 19.6028C51.1491 20.0384 51.6715 20.535 51.6715 21.4673C51.6715 22.3995 50.9749 23.2969 49.5137 23.2969C48.959 23.2948 48.4144 23.1445 47.9336 22.8613L48.1458 22.2166Z" fill="white"/>
<path d="M54.1348 16.8623V19.5197H57.1294V16.8623H57.9364V23.2138H57.1294V20.2298H54.1348V23.2096H53.3279V16.8623H54.1348Z" fill="white"/>
<path d="M60.7866 16.8623H59.9796V23.2138H60.7866V16.8623Z" fill="white"/>
<path d="M62.8126 16.8623H66.1469V17.5505H63.6197V19.6633H65.9558V20.343H63.6197V23.2183H62.8126V16.8623Z" fill="white"/>
<path d="M69.2986 17.5592H67.4127V16.8623H72V17.5592H70.1056V23.2226H69.2986V17.5592Z" fill="white"/>
</svg>
