<svg width="24" height="24" viewBox="0 0 24 24" fill="none" xmlns="http://www.w3.org/2000/svg">
<path d="M11.9843 14.8749C12.7515 15.642 16.8535 11.9125 18.441 10.3934L16.4654 8.41772C14.9429 10.0042 11.2086 14.0948 11.9843 14.8749Z" fill="white"/>
<path d="M21.4662 3.98692C20.2906 4.82617 18.8847 6.04032 17.4614 7.42539L19.434 9.39793C20.819 7.97462 22.0332 6.56879 22.8724 5.39317C23.8118 4.07823 24.1826 3.20828 23.9155 2.94114C23.5135 2.53918 21.9294 3.65575 21.4662 3.98692Z" fill="white"/>
<path d="M4.26563 4.26563V0.411987L0.411987 4.26563H4.26563Z" fill="white"/>
<path d="M11.6082 16.2453L10.287 17.5665L9.2927 16.5723L10.5691 15.2959C10.1576 14.3711 10.5106 12.3716 15.9621 6.92013C16.7745 6.10741 17.5906 5.34453 18.375 4.66062V0H5.67185V5.67185H0V23.9999H18.3749V12.4013C16.7112 13.9386 13.5236 16.9059 11.6082 16.2453ZM2.85936 7.0781H9.93746V8.48434H2.85936V7.0781ZM2.85936 9.89059H7.0781V11.2968H2.85936V9.89059ZM2.85936 12.7031H7.0781V14.1093H2.85936V12.7031ZM8.593 20.7258C8.398 20.2952 8.08422 19.8922 7.90019 19.77C7.85692 19.851 7.80681 19.9657 7.77316 20.0446C7.47447 20.7373 7.03399 21.2578 6.26238 21.1315C5.41371 20.9935 5.28668 20.0734 5.18435 19.3339C5.14039 19.0173 5.05939 18.4296 4.93512 18.3074C4.75109 18.328 4.34047 19.314 4.26425 20.4827L2.86077 20.3927C2.89785 19.8132 3.17183 16.9217 4.96878 16.9217C6.27063 16.9217 6.46286 18.3108 6.57757 19.141C6.57893 19.1513 6.58033 19.1609 6.58169 19.1712C6.78424 18.7798 7.17377 18.328 7.82814 18.328C9.00095 18.328 9.73974 19.8455 9.87638 20.1504L8.593 20.7258Z" fill="white"/>
</svg>
