<svg width="56" height="16" viewBox="0 0 56 16" fill="none" xmlns="http://www.w3.org/2000/svg">
<path d="M48.6184 0.652832C45.0447 0.652832 42.0644 3.19236 41.3832 6.56517V0.652832L33.9804 8.03433L26.5986 0.652832V6.56517C25.9174 3.19229 22.937 0.652832 19.3633 0.652832C15.7901 0.652832 12.81 3.1918 12.1284 6.56405C11.8643 5.25834 11.2559 4.07744 10.4016 3.12054C9.04967 1.60637 7.08316 0.652832 4.8937 0.652832H0V15.4162H4.8937C7.08309 15.4162 9.0496 14.4626 10.4014 12.9485C11.2558 11.9917 11.8642 10.8107 12.1284 9.50496C12.8101 12.8772 15.7901 15.4162 19.3633 15.4162C22.937 15.4162 25.9174 12.8767 26.5986 9.50377V15.4162H29.045V6.58792L33.9804 11.5231L38.8943 6.58792V15.4161H41.3832V9.5037C42.0644 12.8766 45.0448 15.4161 48.6184 15.4161C52.6951 15.4161 56 12.1112 56 8.03447C56 3.95767 52.6951 0.652832 48.6184 0.652832ZM5.2143 12.9485H2.44636V3.12047H5.21612C7.78596 3.28672 9.81932 5.42249 9.81932 8.0344C9.81932 10.6469 7.78505 12.7832 5.2143 12.9485ZM19.3633 12.96C16.643 12.96 14.4377 10.7547 14.4377 8.0344C14.4377 5.31406 16.643 3.10878 19.3633 3.10878C22.0837 3.10878 24.2889 5.31406 24.2889 8.0344C24.2889 10.7547 22.0837 12.96 19.3633 12.96ZM48.6184 12.96C45.898 12.96 43.6928 10.7547 43.6928 8.0344C43.6928 5.31406 45.898 3.10878 48.6184 3.10878C51.3386 3.10878 53.544 5.31406 53.544 8.0344C53.544 10.7547 51.3386 12.96 48.6184 12.96Z" fill="white"/>
</svg>
