<svg width="72" height="20" viewBox="0 0 72 20" fill="none" xmlns="http://www.w3.org/2000/svg">
<path d="M23.4 11.8244V15.4484H22.272V5.86035H24.912C25.932 5.86035 26.736 6.11235 27.3 6.60435C27.864 7.10835 28.14 7.80435 28.14 8.71635C28.14 9.62835 27.828 10.3724 27.204 10.9484C26.58 11.5244 25.728 11.8124 24.672 11.8124H23.4V11.8244ZM23.4 6.88035V10.8163H24.576C25.356 10.8163 25.944 10.6364 26.352 10.2884C26.76 9.94035 26.964 9.43635 26.964 8.78835C26.964 7.52835 26.22 6.89235 24.72 6.89235H23.4V6.88035ZM32.148 15.6163C31.14 15.6163 30.324 15.2923 29.724 14.6563C29.124 14.0203 28.824 13.1684 28.824 12.1124C28.824 10.9604 29.136 10.0604 29.772 9.41235C30.396 8.76435 31.248 8.44035 32.316 8.44035C33.336 8.44035 34.128 8.75235 34.704 9.38835C35.28 10.0124 35.568 10.8884 35.568 12.0044C35.568 13.0964 35.256 13.9724 34.644 14.6324C34.032 15.2924 33.192 15.6163 32.148 15.6163ZM32.232 9.36435C31.524 9.36435 30.972 9.60435 30.564 10.0844C30.156 10.5644 29.952 11.2244 29.952 12.0644C29.952 12.8804 30.156 13.5164 30.576 13.9844C30.996 14.4524 31.548 14.6924 32.244 14.6924C32.952 14.6924 33.492 14.4644 33.876 14.0084C34.26 13.5524 34.452 12.8924 34.452 12.0524C34.452 11.2004 34.26 10.5404 33.876 10.0724C33.492 9.60435 32.94 9.36435 32.232 9.36435ZM45.936 8.60835L43.884 15.4604H42.744L41.328 10.5644C41.28 10.3724 41.244 10.1684 41.22 9.92835H41.196C41.184 10.0844 41.136 10.3004 41.052 10.5524L39.516 15.4724H38.424L36.348 8.62035H37.5L38.916 13.7684C38.964 13.9244 38.988 14.1284 39.012 14.3804H39.06C39.072 14.1884 39.108 13.9723 39.18 13.7563L40.752 8.62035H41.76L43.176 13.7804C43.224 13.9484 43.26 14.1524 43.272 14.3924H43.32C43.332 14.2244 43.368 14.0084 43.428 13.7804L44.82 8.62035H45.936V8.60835ZM52.716 12.3044H47.88C47.892 13.0724 48.108 13.6604 48.492 14.0684C48.876 14.4764 49.428 14.6924 50.112 14.6924C50.88 14.6924 51.588 14.4404 52.236 13.9244V14.9563C51.636 15.3883 50.844 15.6163 49.848 15.6163C48.876 15.6163 48.12 15.3044 47.568 14.6804C47.016 14.0564 46.74 13.1804 46.74 12.0524C46.74 10.9844 47.04 10.1204 47.64 9.44835C48.24 8.77635 48.996 8.44035 49.884 8.44035C50.784 8.44035 51.468 8.72835 51.96 9.30435C52.452 9.88035 52.692 10.6843 52.692 11.7163V12.3044H52.716ZM51.588 11.3684C51.588 10.7324 51.432 10.2404 51.132 9.89235C50.832 9.54435 50.412 9.36435 49.884 9.36435C49.368 9.36435 48.924 9.54435 48.564 9.91635C48.204 10.2883 47.976 10.7684 47.892 11.3684H51.588ZM57.936 9.71235C57.744 9.56835 57.468 9.49635 57.108 9.49635C56.64 9.49635 56.244 9.71235 55.932 10.1564C55.62 10.6003 55.464 11.2003 55.464 11.9563V15.4484H54.372V8.59635H55.464V10.0124H55.488C55.644 9.53235 55.884 9.16035 56.208 8.88435C56.532 8.62035 56.892 8.47635 57.288 8.47635C57.576 8.47635 57.792 8.51235 57.948 8.57235V9.71235H57.936ZM63.036 15.4484V5.86035H65.76C66.588 5.86035 67.248 6.06435 67.728 6.47235C68.208 6.88035 68.46 7.40835 68.46 8.05635C68.46 8.59635 68.316 9.07635 68.016 9.47235C67.716 9.86835 67.32 10.1564 66.804 10.3244V10.3484C67.452 10.4204 67.968 10.6724 68.352 11.0804C68.736 11.4884 68.928 12.0284 68.928 12.6884C68.928 13.5044 68.628 14.1764 68.04 14.6804C67.452 15.1844 66.708 15.4484 65.808 15.4484H63.036ZM64.152 6.88035V9.97635H65.304C65.916 9.97635 66.408 9.83235 66.756 9.53235C67.104 9.23235 67.284 8.81235 67.284 8.28435C67.284 7.34835 66.672 6.89235 65.448 6.89235H64.152V6.88035ZM64.152 10.9844V14.4404H65.676C66.336 14.4404 66.852 14.2844 67.212 13.9724C67.572 13.6604 67.752 13.2284 67.752 12.6884C67.752 11.5604 66.984 10.9844 65.436 10.9844H64.152ZM72 15.4484H70.872V5.86035H72V15.4484Z" fill="white"/>
<path d="M14.628 1.06014V18.9281C14.628 19.3721 14.268 19.7441 13.812 19.7441H8.73601C8.29201 19.7441 7.92001 19.3841 7.92001 18.9281V1.06014C7.92001 0.616141 8.28001 0.244141 8.73601 0.244141H13.812C14.256 0.256141 14.628 0.616141 14.628 1.06014Z" fill="url(#paint0_linear_171_873)"/>
<path d="M10.668 5.94393V19.7559H3.95999V5.94393C3.95999 5.49993 4.31999 5.12793 4.77599 5.12793H9.85199C10.296 5.12793 10.668 5.48793 10.668 5.94393Z" fill="url(#paint1_linear_171_873)"/>
<path d="M0 10.816V18.94C0 19.384 0.36 19.756 0.816 19.756H6.708V10.816C6.708 10.372 6.348 10 5.892 10H0.816C0.372 10 0 10.36 0 10.816Z" fill="url(#paint2_linear_171_873)"/>
<defs>
<linearGradient id="paint0_linear_171_873" x1="6.81375" y1="0.248328" x2="15.2157" y2="18.6142" gradientUnits="userSpaceOnUse">
<stop stop-color="#D6D6D6"/>
<stop offset="1" stop-color="#AAAAAA"/>
</linearGradient>
<linearGradient id="paint1_linear_171_873" x1="3.59559" y1="5.30927" x2="10.6735" y2="19.4652" gradientUnits="userSpaceOnUse">
<stop stop-color="#EEEEEE"/>
<stop offset="1" stop-color="#D9D9D9"/>
</linearGradient>
<linearGradient id="paint2_linear_171_873" x1="1.16519" y1="9.5243" x2="5.06256" y2="19.0497" gradientUnits="userSpaceOnUse">
<stop stop-color="white"/>
<stop offset="1" stop-color="#EBEBEB"/>
</linearGradient>
</defs>
</svg>
