<svg width="80" height="18" viewBox="0 0 80 18" fill="none" xmlns="http://www.w3.org/2000/svg">
<path d="M8.3818 1.30314V2.09043H6.97363V2.60249H8.3818V4.17068H8.93227V2.60249H10.3756V2.09043H8.93227V0.519043H8.3818V1.30314Z" fill="white"/>
<path d="M3.77965 3.30025V4.44279H1.64819V5.15968H3.77965V7.47995H4.57014V5.15968H6.7336V4.44279H4.57014V2.15771H3.77965V3.30025Z" fill="white"/>
<path d="M12.7119 3.30025V4.44279H10.5805V5.19488H12.7119V7.47995H13.5344V5.19488H15.6659V4.44279H13.5344V2.15771H12.7119V3.30025Z" fill="white"/>
<path fill-rule="evenodd" clip-rule="evenodd" d="M51.5998 3.93066H52.6975V13.6598H51.5998V3.93066ZM42.5107 4.95479H43.6276V6.30535C43.6276 7.5727 43.634 7.64951 43.6884 7.63351C43.7236 7.62071 43.8901 7.5759 44.0597 7.5279C44.2613 7.47349 44.5045 7.43828 44.7638 7.42228C45.0582 7.40948 45.231 7.41908 45.4486 7.46069C45.6343 7.49589 45.8551 7.5727 46.0503 7.66871C46.2199 7.75192 46.444 7.89274 46.5496 7.98555C46.652 8.07516 46.8152 8.26398 46.908 8.4048C47.004 8.54562 47.1224 8.76964 47.1737 8.90726C47.2281 9.04168 47.2953 9.29451 47.3273 9.47053C47.3657 9.70096 47.3753 9.89938 47.3625 10.213C47.3529 10.4466 47.3177 10.7379 47.2857 10.8595C47.2569 10.9811 47.1801 11.1891 47.1192 11.3204C47.0584 11.4516 46.9368 11.6532 46.8504 11.7652C46.7672 11.8772 46.5976 12.0436 46.476 12.1364C46.3576 12.2293 46.1399 12.3573 45.9991 12.4213C45.8583 12.4885 45.6247 12.5717 45.4839 12.6101C45.263 12.6709 45.1222 12.6805 44.4885 12.6837C43.8901 12.6869 43.6948 12.6741 43.458 12.6229C43.298 12.5877 43.0324 12.5205 42.8723 12.4757C42.7123 12.4309 42.5715 12.3797 42.5587 12.3669C42.5459 12.3541 42.5299 10.6835 42.5235 8.65123L42.5107 4.95479ZM43.9029 8.59682L43.6468 8.68644V11.5252C44.1845 11.666 44.2997 11.6756 44.6582 11.666C45.0102 11.6564 45.1254 11.6404 45.295 11.5764C45.407 11.5316 45.5639 11.4484 45.6375 11.3876C45.7143 11.33 45.8231 11.2211 45.8807 11.1475C45.9383 11.0739 46.0215 10.9203 46.0631 10.8083C46.1079 10.6963 46.1591 10.4819 46.1783 10.3314C46.2071 10.1266 46.2071 9.98579 46.1751 9.76816C46.1495 9.57294 46.0951 9.39692 46.0151 9.2305C45.9511 9.09288 45.8391 8.92326 45.7687 8.85286C45.6983 8.78245 45.5703 8.68323 45.4839 8.63523C45.4006 8.58402 45.2374 8.52001 45.1222 8.49121C45.0102 8.45921 44.8086 8.4368 44.6774 8.44001C44.5461 8.44321 44.3733 8.45921 44.2997 8.47521C44.2229 8.49121 44.0469 8.54562 43.9029 8.59682ZM24.3229 5.29723H25.4206V8.4016H28.3746V9.42572H25.4206V12.7701H24.3229V9.42572H21.369V8.4016H24.3229V5.29723Z" fill="white"/>
<path d="M8.177 7.19177V8.47193H5.80551V9.42564H8.177V11.986H9.13711V9.42564H11.5086V8.47193H9.13711V5.91162H8.177V7.19177Z" fill="white"/>
<path d="M15.1506 7.83818V8.64148H13.7072V9.29116H15.1506V10.8945H15.8707V9.29116H17.3141V8.64148H15.8707V7.03809H15.1506V7.83818Z" fill="white"/>
<path d="M1.40817 7.90872V8.67681H0V9.22087H1.40817V10.7571H1.95864V9.22087L3.40201 9.16967V8.67681H1.95864V7.14062H1.40817V7.90872Z" fill="white"/>
<path fill-rule="evenodd" clip-rule="evenodd" d="M36.1067 7.37744H37.2045V9.40008C37.2045 10.5138 37.1917 11.6436 37.1533 12.3988L36.878 12.4821C36.7276 12.5269 36.4108 12.5973 36.1739 12.6389C35.8123 12.6997 35.6491 12.7061 35.1274 12.6933C34.6442 12.6805 34.4489 12.6613 34.2345 12.6069C34.0809 12.5653 33.8185 12.4661 33.6488 12.3828C33.4696 12.2932 33.2552 12.1524 33.1336 12.0468C33.0216 11.9444 32.8615 11.762 32.7847 11.6436C32.7047 11.5219 32.5991 11.3299 32.5543 11.2179C32.5095 11.1059 32.4423 10.8819 32.4103 10.725C32.3655 10.4946 32.3559 10.325 32.3687 9.92175C32.3847 9.5345 32.4071 9.34568 32.4615 9.15365C32.5031 9.01284 32.5991 8.78241 32.6727 8.64159C32.7463 8.50078 32.8935 8.28635 33.0024 8.16794C33.1144 8.04632 33.2968 7.8863 33.4088 7.80949C33.5208 7.73588 33.7064 7.63667 33.8217 7.59187C33.9337 7.54706 34.1385 7.48625 34.2761 7.46065C34.4137 7.43505 34.6698 7.41265 34.8426 7.41265C35.0186 7.41265 35.2682 7.43825 35.4026 7.46385C35.5339 7.49266 35.7419 7.56306 35.8667 7.62067C35.9883 7.67508 36.0939 7.72308 36.0971 7.71988C36.1003 7.71988 36.1067 7.64307 36.1067 7.55026V7.37744ZM34.2377 8.63519C34.1449 8.6864 34.0105 8.79201 33.9369 8.87202C33.8633 8.95203 33.7641 9.09285 33.7192 9.18886C33.6712 9.28167 33.6104 9.45449 33.5816 9.57291C33.5528 9.68812 33.5304 9.89934 33.5304 10.0402C33.5304 10.181 33.5464 10.389 33.5656 10.501C33.588 10.613 33.6456 10.7987 33.7 10.9107C33.7641 11.0451 33.8665 11.1827 33.9977 11.3043C34.1257 11.4227 34.2761 11.5219 34.4073 11.5731C34.5673 11.6372 34.6954 11.6564 35.025 11.6724C35.2586 11.682 35.5531 11.6692 35.7099 11.6468C35.8603 11.6244 36.0011 11.5955 36.0235 11.5827C36.0491 11.5667 36.0683 11.1219 36.0843 10.1682L36.1067 8.77921C35.8251 8.62559 35.6683 8.55518 35.5723 8.52318C35.4795 8.48797 35.2618 8.45597 35.0922 8.44957C34.881 8.43997 34.7242 8.45277 34.5929 8.49117C34.4905 8.51998 34.3305 8.58399 34.2377 8.63519ZM70.082 7.37744H71.1797V9.09285C71.1797 10.037 71.1701 11.1667 71.1285 12.3988L70.8533 12.4821C70.7029 12.5269 70.3989 12.5973 70.1748 12.6325C69.89 12.6837 69.618 12.7029 69.2499 12.7029C68.9587 12.7029 68.6226 12.6869 68.501 12.6677C68.3794 12.6453 68.1394 12.5845 67.9698 12.5301C67.7873 12.4725 67.5505 12.3604 67.4033 12.2644C67.2593 12.1716 67.0609 12.0084 66.9584 11.8964C66.8592 11.7876 66.7184 11.5955 66.6512 11.4739C66.584 11.3523 66.4912 11.1283 66.4464 10.9811C66.3792 10.7666 66.36 10.6002 66.344 10.213C66.3344 9.90254 66.344 9.62731 66.3696 9.47689C66.392 9.34568 66.4496 9.12485 66.4976 8.98403C66.5424 8.84322 66.648 8.61919 66.7312 8.48797C66.8112 8.35676 66.984 8.14873 67.1153 8.02712C67.2625 7.8927 67.4545 7.75509 67.6113 7.67828C67.7521 7.61107 67.957 7.52786 68.0722 7.49586C68.1842 7.46705 68.4626 7.43185 68.6898 7.42225C68.9939 7.40945 69.1699 7.42225 69.3587 7.46065C69.5027 7.49266 69.7172 7.56306 69.842 7.62067C69.9636 7.67508 70.0692 7.72308 70.0724 7.71988C70.0788 7.71988 70.082 7.64307 70.082 7.55026V7.37744ZM68.213 8.63519C68.1202 8.6864 67.9858 8.79201 67.9122 8.87202C67.8385 8.95203 67.7425 9.09285 67.6945 9.18886C67.6465 9.28167 67.5857 9.45449 67.5569 9.57291C67.5281 9.68812 67.5057 9.91535 67.5057 10.0754C67.5057 10.2354 67.5281 10.4626 67.5569 10.5778C67.5857 10.6962 67.6401 10.8563 67.6817 10.9363C67.7233 11.0163 67.8289 11.1571 67.9154 11.2467C68.0018 11.3395 68.1426 11.4483 68.2258 11.4899C68.3122 11.5347 68.4658 11.5955 68.5714 11.6244C68.6898 11.6596 68.8851 11.6788 69.1123 11.6788C69.3043 11.6788 69.5764 11.6628 69.7108 11.6436C69.8484 11.6244 69.9796 11.5955 69.9988 11.5827C70.0276 11.5667 70.0436 11.1539 70.0532 10.165L70.0628 8.76641C69.7172 8.59039 69.5252 8.51678 69.4099 8.48797C69.2979 8.45917 69.1059 8.43677 68.9811 8.43997C68.8595 8.43997 68.6738 8.46557 68.5714 8.49117C68.4658 8.51998 68.3058 8.58399 68.213 8.63519ZM59.7768 7.42865C59.9752 7.43825 60.228 7.47025 60.3432 7.49906C60.4553 7.52786 60.6409 7.59507 60.7529 7.64947C60.8681 7.70068 61.0537 7.81269 61.1657 7.8991C61.281 7.98551 61.441 8.14553 61.5242 8.25435C61.6074 8.36316 61.7258 8.56158 61.7898 8.6928C61.8538 8.82402 61.937 9.05444 61.9754 9.20486C62.0138 9.35528 62.0587 9.65932 62.0939 10.2802H58.2982L58.3206 10.4082C58.3302 10.4786 58.3718 10.629 58.4038 10.741C58.439 10.8531 58.5286 11.0291 58.599 11.1283C58.6694 11.2275 58.7751 11.3459 58.8295 11.3875C58.8871 11.4291 59.0023 11.4995 59.0887 11.5443C59.1719 11.5859 59.3191 11.6404 59.4151 11.666C59.5111 11.6916 59.7672 11.714 59.9976 11.714C60.2248 11.714 60.5513 11.6916 60.7209 11.6628C60.8905 11.634 61.1305 11.5763 61.2522 11.5379C61.3738 11.4995 61.5338 11.4387 61.6042 11.4035C61.6746 11.3683 61.7482 11.3363 61.7674 11.3363C61.7898 11.3363 61.8026 11.5315 61.8026 12.3604L61.6138 12.4468C61.5082 12.4949 61.2906 12.5717 61.1241 12.6197C60.9577 12.6645 60.6537 12.7221 60.4457 12.7445C60.1608 12.7733 59.9688 12.7733 59.6712 12.7445C59.4535 12.7221 59.1367 12.6645 58.9671 12.6165C58.7975 12.5685 58.551 12.4725 58.423 12.402C58.2918 12.3316 58.071 12.1684 57.9302 12.0372C57.7861 11.906 57.6069 11.6916 57.5237 11.5603C57.4405 11.4291 57.3381 11.2051 57.2901 11.0643C57.2421 10.9235 57.1845 10.677 57.1621 10.5202C57.1365 10.3442 57.1301 10.0978 57.1429 9.90574C57.1525 9.72652 57.1941 9.45769 57.2325 9.30727C57.2709 9.15685 57.3637 8.91043 57.4373 8.76001C57.5109 8.60959 57.6485 8.39516 57.7381 8.28315C57.8309 8.17114 58.0134 7.99832 58.1446 7.8991C58.2758 7.79989 58.4966 7.67508 58.6342 7.61747C58.7687 7.55986 59.0023 7.49266 59.1495 7.46385C59.3255 7.43185 59.5367 7.41905 59.7768 7.42865ZM59.0247 8.65119C58.9223 8.712 58.7783 8.83042 58.7014 8.91363C58.6278 9.00004 58.5286 9.14085 58.4838 9.23046C58.439 9.32007 58.4006 9.40648 58.4006 9.42569C58.4006 9.44809 58.8327 9.46089 59.6296 9.46089H60.8585C60.8233 9.20806 60.7913 9.08325 60.7657 9.01604C60.7369 8.95203 60.6537 8.83042 60.5801 8.75041C60.4905 8.65119 60.3816 8.58079 60.2568 8.53278C60.1512 8.49758 59.9592 8.45917 59.828 8.44957C59.6744 8.44317 59.5175 8.45597 59.3959 8.48797C59.2935 8.51678 59.1271 8.59039 59.0247 8.65119ZM75.4363 7.51506H76.5756L76.5724 9.23046C76.5724 10.8467 76.5756 10.9587 76.6396 11.1667C76.6812 11.2947 76.758 11.4451 76.822 11.5219C76.8828 11.5923 77.0108 11.6884 77.1069 11.7332C77.1997 11.778 77.3789 11.8292 77.5005 11.8452C77.6317 11.8644 77.8173 11.8644 77.9486 11.8452C78.0702 11.8292 78.2494 11.778 78.3422 11.7332C78.4382 11.6884 78.5662 11.5923 78.627 11.5219C78.691 11.4451 78.7711 11.2947 78.8095 11.1667C78.8735 10.9587 78.8767 10.8467 78.8767 7.51506H80L79.9936 9.36808C79.9904 11.1219 79.9872 11.2275 79.9232 11.4227C79.8848 11.5347 79.8048 11.7044 79.744 11.7972C79.6832 11.8932 79.5776 12.0244 79.5039 12.0948C79.4335 12.1652 79.2799 12.2772 79.1679 12.3444C79.0559 12.4116 78.8383 12.5045 78.6878 12.5525C78.515 12.6069 78.2846 12.6485 78.0702 12.6645C77.8782 12.6741 77.5709 12.6741 77.3821 12.6613C77.1677 12.6485 76.934 12.6069 76.7644 12.5525C76.6108 12.5045 76.3964 12.4116 76.2812 12.3444C76.1691 12.2772 76.0187 12.1652 75.9451 12.0948C75.8747 12.0244 75.7659 11.8932 75.7051 11.7972C75.6475 11.7044 75.5675 11.5347 75.5291 11.4227C75.4619 11.2307 75.4587 11.1123 75.4491 9.36808L75.4363 7.51506Z" fill="white"/>
<path d="M3.77965 11.5249V12.6674H1.64819V13.4195H3.77965V15.7046H4.60215V13.4195H6.7336V12.6674H4.60215V10.3823H3.77965V11.5249Z" fill="white"/>
<path d="M12.7119 11.5249V12.6674H10.5805V13.3843H12.7119V15.7046H13.5344V13.3843H15.6659V12.6674H13.5344V10.3823H12.7119V11.5249Z" fill="white"/>
<path d="M8.31459 14.4278V15.2279H6.87122V15.8776H8.31459V17.481H9.03468V15.8776H10.478V15.2279H9.03468V13.6245H8.31459V14.4278Z" fill="white"/>
</svg>
