<svg width="80" height="22" viewBox="0 0 80 22" fill="none" xmlns="http://www.w3.org/2000/svg">
<path d="M6.54698 0.377443C6.21014 0.37759 5.87968 0.469299 5.59094 0.64276C5.30219 0.816222 5.06603 1.06491 4.90772 1.36223C4.7494 1.65954 4.67488 1.9943 4.69214 2.3307C4.70939 2.6671 4.81776 2.99248 5.00566 3.27204L5.79927 2.47955C5.77304 2.4005 5.75981 2.31771 5.76009 2.23442C5.76009 2.07945 5.80604 1.92796 5.89214 1.79911C5.97824 1.67026 6.10061 1.56983 6.24378 1.51053C6.38695 1.45122 6.54449 1.43571 6.69649 1.46594C6.84848 1.49617 6.98809 1.5708 7.09767 1.68038C7.20725 1.78996 7.28187 1.92957 7.31211 2.08156C7.34234 2.23355 7.32682 2.39109 7.26752 2.53427C7.20821 2.67744 7.10779 2.79981 6.97893 2.88591C6.85008 2.972 6.69859 3.01795 6.54363 3.01795C6.46071 3.01814 6.3783 3.00491 6.29961 2.97878L5.50712 3.77127C5.74764 3.93439 6.02308 4.03879 6.3113 4.07606C6.59952 4.11333 6.89246 4.08244 7.16656 3.98586C7.44066 3.88928 7.68827 3.72972 7.88946 3.52001C8.09066 3.3103 8.23982 3.0563 8.32496 2.77843C8.4101 2.50056 8.42883 2.20659 8.37965 1.92017C8.33047 1.63374 8.21475 1.36286 8.0418 1.12931C7.86885 0.895757 7.6435 0.706058 7.38387 0.575471C7.12425 0.444884 6.8376 0.377056 6.54698 0.377443Z" fill="white"/>
<path d="M5.80822 5.78925C5.80944 5.16196 5.60629 4.55134 5.22952 4.0498L4.19974 5.07847C4.35633 5.3649 4.41359 5.69514 4.36256 6.01756C4.31152 6.33998 4.15507 6.6364 3.91766 6.86045L4.47733 8.22828C4.88543 7.96545 5.22109 7.60447 5.4536 7.17837C5.6861 6.75227 5.80803 6.27466 5.80822 5.78925Z" fill="white"/>
<path d="M2.9304 7.2657H2.90354C2.67329 7.26572 2.44621 7.21192 2.24044 7.10861C2.03466 7.00529 1.85588 6.85531 1.71836 6.67063C1.58084 6.48596 1.48839 6.27169 1.44837 6.04494C1.40836 5.81819 1.42189 5.58522 1.4879 5.36463C1.5539 5.14404 1.67055 4.94193 1.82853 4.77442C1.98651 4.60691 2.18146 4.47864 2.39782 4.39985C2.61417 4.32106 2.84595 4.29393 3.07465 4.32061C3.30335 4.3473 3.52266 4.42706 3.71506 4.55355L4.73477 3.53384C4.37388 3.24126 3.94805 3.03955 3.49305 2.94566C3.03805 2.85176 2.56715 2.86842 2.11992 2.99424C1.67269 3.12006 1.26219 3.35136 0.922876 3.66871C0.583566 3.98606 0.325363 4.3802 0.169953 4.81803C0.014543 5.25586 -0.0335358 5.72458 0.0297545 6.18484C0.0930448 6.6451 0.265856 7.08345 0.533674 7.46308C0.801492 7.84271 1.1565 8.15253 1.56887 8.36652C1.98125 8.58051 2.43895 8.69242 2.90354 8.69285C3.1005 8.69295 3.29698 8.67345 3.49007 8.63464L2.9304 7.2657Z" fill="white"/>
<path d="M6.58617 8.44887C5.94167 8.44822 5.30055 8.54213 4.6833 8.72759L5.4993 10.7211C5.8545 10.6331 6.21911 10.5887 6.58505 10.589C7.61335 10.5893 8.60973 10.9462 9.40445 11.5987C10.1992 12.2513 10.743 13.1592 10.9434 14.1678C11.1438 15.1763 10.9883 16.2232 10.5034 17.13C10.0185 18.0368 9.23417 18.7474 8.28408 19.1407C7.334 19.5341 6.27692 19.5859 5.29294 19.2872C4.30896 18.9886 3.45895 18.3581 2.88774 17.503C2.31653 16.648 2.05946 15.6213 2.16031 14.598C2.26116 13.5746 2.71371 12.6179 3.44084 11.8908C3.75372 11.5789 4.1109 11.3149 4.50085 11.1073L3.69381 9.11935C2.24068 9.83102 1.10019 11.0524 0.48966 12.5509C-0.120868 14.0493 -0.158747 15.72 0.383241 17.2446C0.92523 18.7691 2.0092 20.041 3.42858 20.8178C4.84796 21.5946 6.50352 21.822 8.07978 21.4567C9.65604 21.0914 11.0428 20.1589 11.9758 18.8369C12.9088 17.515 13.3228 15.896 13.1389 14.2884C12.955 12.6809 12.1861 11.1972 10.9787 10.12C9.77131 9.04291 8.20981 8.44768 6.59177 8.44775L6.58617 8.44887Z" fill="white"/>
<path d="M19.557 3.10205H21.4095V17.0859H28.2296V18.8466H19.557V3.10205Z" fill="white"/>
<path d="M30.9149 18.0889C30.0786 17.5924 29.3948 16.8757 28.9382 16.017C28.4612 15.1267 28.2174 14.1301 28.2296 13.1202C28.2182 12.1117 28.4619 11.1168 28.9382 10.2278C29.3948 9.36912 30.0786 8.65241 30.9149 8.15592C31.7834 7.65674 32.7675 7.39404 33.7692 7.39404C34.7709 7.39404 35.7551 7.65674 36.6235 8.15592C37.4597 8.65288 38.1438 9.36945 38.6014 10.2278C39.0779 11.1183 39.3216 12.1148 39.3099 13.1246C39.3216 14.1345 39.0779 15.131 38.6014 16.0215C38.1441 16.8797 37.4604 17.5963 36.6246 18.0934C35.7562 18.5926 34.772 18.8553 33.7703 18.8553C32.7686 18.8553 31.7845 18.5926 30.916 18.0934L30.9149 18.0889ZM35.6161 16.7255C36.1977 16.3853 36.6744 15.8916 36.994 15.2984C37.3517 14.6292 37.5302 13.8788 37.5123 13.1202C37.5301 12.3616 37.3516 11.6112 36.994 10.9419C36.6753 10.3492 36.1998 9.8555 35.6195 9.51479C35.0585 9.18612 34.4194 9.01446 33.7692 9.01781C33.1048 9.0152 32.452 9.19275 31.8804 9.53156C31.3088 9.87038 30.8398 10.3578 30.5231 10.9419C30.1665 11.6115 29.9884 12.3617 30.006 13.1202C29.9883 13.8786 30.1664 14.6289 30.5231 15.2984C30.7593 15.7315 31.0798 16.1129 31.4657 16.4202C31.8516 16.7274 32.2952 16.9542 32.7702 17.0872C33.2452 17.2203 33.7421 17.2568 34.2314 17.1947C34.7208 17.1325 35.1928 16.973 35.6195 16.7255H35.6161Z" fill="white"/>
<path d="M42.9567 18.0889C42.121 17.5918 41.4373 16.8752 40.98 16.017C40.5035 15.1265 40.2598 14.1301 40.2715 13.1202C40.2605 12.1118 40.5042 11.117 40.98 10.2278C41.4373 9.3696 42.121 8.65304 42.9567 8.15592C43.8252 7.65674 44.8094 7.39404 45.811 7.39404C46.8127 7.39404 47.7969 7.65674 48.6654 8.15592C49.5018 8.65256 50.1859 9.36921 50.6432 10.2278C51.1197 11.1183 51.3634 12.1148 51.3518 13.1246C51.3634 14.1345 51.1197 15.131 50.6432 16.0215C50.1862 16.8799 49.5025 17.5966 48.6665 18.0934C47.798 18.5926 46.8139 18.8553 45.8122 18.8553C44.8105 18.8553 43.8263 18.5926 42.9579 18.0934L42.9567 18.0889ZM47.6579 16.7255C48.2381 16.3845 48.7135 15.8909 49.0325 15.2984C49.3897 14.629 49.5682 13.8787 49.5507 13.1202C49.568 12.3616 49.3895 11.6114 49.0325 10.9419C48.7135 10.3494 48.2381 9.85582 47.6579 9.51479C47.097 9.18612 46.4579 9.01446 45.8077 9.01781C45.1541 9.01545 44.5117 9.18698 43.9462 9.51479C43.3614 9.85311 42.8821 10.3472 42.5616 10.9419C42.2041 11.6112 42.0256 12.3616 42.0434 13.1202C42.0254 13.8788 42.2039 14.6292 42.5616 15.2984C42.8821 15.8932 43.3614 16.3872 43.9462 16.7255C44.5117 17.0534 45.1541 17.2249 45.8077 17.2225C46.4594 17.2267 47.1001 17.055 47.6624 16.7255H47.6579Z" fill="white"/>
<path d="M52.6826 3.10205H54.534V13.0552L60.1083 7.39246H62.4589V7.47977L57.7577 12.2269L62.2462 18.7638V18.8466H60.0255L56.4514 13.5074L54.534 15.4293V18.8466H52.6826V3.10205Z" fill="white"/>
<path d="M64.636 18.11C63.8215 17.6201 63.1588 16.9137 62.722 16.0694C62.2547 15.1639 62.0189 14.1568 62.0358 13.1379C62.0281 12.1468 62.2496 11.1672 62.6828 10.2758C63.0915 9.41908 63.7276 8.69114 64.5219 8.17141C65.337 7.64451 66.2904 7.37178 67.2609 7.38788C68.3175 7.38788 69.2339 7.62406 70.01 8.09642C70.782 8.56369 71.4036 9.24279 71.8009 10.053C72.2292 10.9448 72.4416 11.9249 72.421 12.914C72.4203 13.098 72.406 13.2817 72.3785 13.4636H63.8324C63.8749 14.2845 64.0723 14.9755 64.4245 15.5366C64.7489 16.0734 65.2132 16.5118 65.7677 16.8048C66.2923 17.0824 66.8767 17.2276 67.4702 17.228C68.8791 17.228 69.9432 16.5795 70.6625 15.2826L72.1848 16.0224C71.7507 16.8638 71.1015 17.5752 70.3032 18.0842C69.4996 18.5924 68.5339 18.8465 67.4064 18.8465C66.4325 18.8626 65.4733 18.6076 64.636 18.11ZM70.5181 11.9783C70.484 11.5061 70.3545 11.0458 70.1376 10.625C69.8948 10.1557 69.5292 9.76111 69.0798 9.48328C68.6007 9.17285 67.9948 9.01763 67.262 9.01763C66.4648 8.99948 65.6916 9.29118 65.105 9.83139C64.5133 10.3746 64.1256 11.0903 63.9421 11.9783H70.5181Z" fill="white"/>
<path d="M73.6165 7.39433H75.3805V9.52107H75.4678C75.6857 8.91066 76.107 8.40211 76.7316 7.99542C77.3101 7.60478 77.9912 7.39372 78.6893 7.38874C79.1371 7.37735 79.5823 7.45931 79.9967 7.62939V9.61174C79.5088 9.37442 78.9721 9.25481 78.4296 9.2625C77.9002 9.25996 77.3829 9.42017 76.9476 9.72143C76.4904 10.0349 76.1193 10.4583 75.8686 10.9527C75.6002 11.4687 75.4619 12.0423 75.4656 12.6239V18.8463H73.6165V7.39433Z" fill="white"/>
</svg>
