<svg width="100" height="26" viewBox="0 0 100 26" fill="none" xmlns="http://www.w3.org/2000/svg">
<g clip-path="url(#clip0_68_193)">
<path d="M0 12.7111H3.96529V18.879H0V12.7111Z" fill="white"/>
<path d="M59.3274 17.2402V25.1754H55.2993V5.80206H59.3105V7.44559C59.3734 7.43809 59.4137 7.44559 59.425 7.42964C61.4006 4.7561 66.0094 5.00188 67.9906 8.01032C68.9944 9.53377 69.2767 11.2167 69.166 13.0009C69.0563 14.7711 68.4775 16.3377 67.1961 17.6107C65.1473 19.652 61.3368 19.712 59.4812 17.3612C59.4334 17.3167 59.3819 17.2762 59.3274 17.2402ZM59.2871 12.3555C59.3321 12.6932 59.3452 13.0403 59.4297 13.3677C59.7186 14.4812 60.3987 15.2552 61.5413 15.5084C62.7608 15.7777 63.7561 15.3715 64.4869 14.3602C65.0178 13.6266 65.1069 12.7786 65.0441 11.909C64.9024 9.93902 63.1557 8.69887 61.3246 9.25234C60.0826 9.62758 59.3152 10.8124 59.2871 12.3555Z" fill="white"/>
<path d="M48.3021 7.44655V5.80958H52.3546V18.9118C52.2082 18.9222 52.06 18.9409 51.9118 18.9419C50.8649 18.9419 49.818 18.9306 48.772 18.9503C48.4156 18.9569 48.2551 18.8724 48.2889 18.4813C48.3227 18.0901 48.2964 17.7139 48.2964 17.333C47.772 17.7402 47.3161 18.1923 46.7767 18.4963C44.3433 19.8687 41.1763 19.0066 39.59 16.5769C38.0263 14.1829 38.06 10.395 39.6416 8.02159C41.5253 5.19326 45.3142 4.99064 47.3096 6.52816C47.6369 6.78519 47.9221 7.09382 48.3021 7.44655ZM48.2945 12.2467C48.2945 12.1811 48.288 11.9944 48.273 11.8086C48.1792 10.6379 47.3874 9.60227 46.3189 9.25893C45.7826 9.08042 45.2046 9.06973 44.662 9.2283C44.1195 9.38686 43.6382 9.70713 43.2824 10.1464C42.5666 10.9981 42.5094 12.015 42.6407 13.0544C42.9071 15.1707 45.2945 16.2965 47.0056 15.1107C47.9596 14.4512 48.3114 13.4897 48.2945 12.2467Z" fill="white"/>
<path d="M37.1041 13.3537H28.0178C27.9981 14.4625 28.6454 15.3837 29.636 15.6989C30.7214 16.0469 31.7514 15.7045 32.4006 14.7992C32.4784 14.6904 32.6332 14.5694 32.7533 14.5685C34.0948 14.5516 35.4353 14.5582 36.833 14.5582C36.6372 15.4835 36.1951 16.3388 35.5535 17.0338C34.0713 18.6698 32.1698 19.2458 30.0188 19.1079C28.2364 18.9944 26.6792 18.3574 25.4916 16.9803C24.121 15.3855 23.7721 13.4991 23.9559 11.4765C24.1023 9.86022 24.6801 8.42495 25.8884 7.29455C27.2674 6.00469 28.9475 5.5544 30.7927 5.59193C32.3874 5.62476 33.8377 6.0666 35.0582 7.12288C36.2786 8.17917 36.9343 9.55628 37.0938 11.1454C37.1632 11.8499 37.1041 12.5704 37.1041 13.3537ZM28.0366 11.0253H32.97C32.97 9.77485 32.0441 8.91463 30.6745 8.85553C29.2448 8.79455 28.1426 9.68574 28.0366 11.0253Z" fill="white"/>
<path d="M90.8068 18.9419C89.4878 18.9419 88.2411 18.9475 86.9953 18.9297C86.9015 18.9297 86.7946 18.7617 86.7327 18.6482C86.6933 18.576 86.7242 18.4653 86.7242 18.3715V5.79739H90.8068V7.43529C91.5769 6.5488 92.4278 6.01221 93.4625 5.78332C96.6313 5.08444 99.5901 6.75799 99.7927 10.3631C99.9465 13.1107 99.8584 15.8715 99.8865 18.6267C99.8865 18.8771 99.7805 18.9465 99.5488 18.9456C98.4231 18.939 97.2974 18.9315 96.1717 18.9456C95.8152 18.9512 95.8133 18.758 95.8143 18.5019C95.818 16.3068 95.818 14.1113 95.8143 11.9156C95.8234 11.6201 95.8036 11.3245 95.7552 11.0328C95.4737 9.62572 94.4569 8.91653 92.9409 9.05442C91.7214 9.16512 90.8368 10.1586 90.8199 11.5404C90.7918 13.7974 90.8077 16.0563 90.8049 18.3143L90.8068 18.9419Z" fill="white"/>
<path d="M71.7176 9.15292H70.2486V5.79176H71.6557C71.6979 5.26924 71.7008 4.79082 71.7805 4.32459C72.1482 2.15949 73.4691 0.878062 75.6585 0.579751C76.3649 0.485942 77.0826 0.478437 77.8358 0.429657V3.87806C76.0826 3.8912 75.7373 4.45968 75.8086 5.76924H77.9175V9.12478H75.7692V18.9034H71.7176V9.15292Z" fill="white"/>
<path d="M17.5066 15.7992H22.7599V18.9118H13.5085V2.40149H17.5028L17.5066 15.7992Z" fill="white"/>
<path d="M79.7899 18.9174V5.81613H83.8499V6.31332C83.8499 10.3471 83.8433 14.3809 83.8602 18.4146C83.8602 18.8527 83.7336 18.9681 83.3086 18.9559C82.2945 18.9268 81.2786 18.9475 80.2645 18.9456C80.1126 18.9418 79.9606 18.9268 79.7899 18.9174Z" fill="white"/>
<path d="M10.7195 6.55722V18.864H6.78519V6.55722H10.7195Z" fill="white"/>
<path d="M81.8415 0.070343C82.7486 0.070343 83.5 0.389292 83.9512 1.19605C84.3602 1.92869 84.3452 2.68948 83.8874 3.40899C83.272 4.3771 81.8734 4.73451 80.7186 4.23169C79.6867 3.78329 79.1904 2.75046 79.4784 1.65946C79.7373 0.674471 80.636 0.0712811 81.8415 0.070343Z" fill="white"/>
</g>
<defs>
<clipPath id="clip0_68_193">
<rect width="100" height="26" fill="white"/>
</clipPath>
</defs>
</svg>
