<svg width="80" height="20" viewBox="0 0 80 20" fill="none" xmlns="http://www.w3.org/2000/svg">
<path d="M16.2003 15.0692L12.2108 12.7645C11.6504 12.4418 10.9337 12.6337 10.6093 13.1942C10.4836 13.415 10.4343 13.6578 10.4581 13.8939V18.398C10.4581 19.0417 10.9812 19.5648 11.6266 19.5648C12.2703 19.5648 12.7934 19.0417 12.7934 18.398V15.808L15.0284 17.0987C15.5889 17.4231 16.3073 17.2295 16.63 16.6691C16.9544 16.1086 16.7625 15.3919 16.2003 15.0692Z" fill="white"/>
<path d="M6.27856 10.1302C6.28536 9.71408 6.06627 9.32685 5.70621 9.11795L1.71674 6.81496C1.54351 6.71476 1.3448 6.66211 1.14609 6.66211C0.736784 6.66211 0.356349 6.8812 0.152544 7.23446C-0.163352 7.78134 0.025167 8.48276 0.572042 8.79866L2.87163 10.1251L0.572042 11.4532C0.307096 11.6061 0.116879 11.8523 0.0387539 12.1478C-0.0410695 12.4434 -0.000308659 12.7525 0.152544 13.0174C0.356349 13.3707 0.736784 13.5898 1.14439 13.5898C1.3448 13.5898 1.54351 13.5371 1.71674 13.4369L5.70621 11.1339C6.06287 10.9267 6.28196 10.5429 6.27856 10.1302Z" fill="white"/>
<path d="M2.62189 5.18319L6.61136 7.48618C7.07671 7.75622 7.65076 7.6679 8.01761 7.30955C8.25028 7.09555 8.39464 6.78985 8.39464 6.45017V1.83401C8.39464 1.18863 7.87155 0.665527 7.22786 0.665527C6.58248 0.665527 6.05939 1.18863 6.05939 1.83401V4.46138L3.79376 3.15364C3.2333 2.82925 2.51659 3.02117 2.1922 3.58163C1.86781 4.14209 2.06142 4.8588 2.62189 5.18319Z" fill="white"/>
<path d="M11.5928 10.3177C11.5928 10.406 11.5418 10.5283 11.479 10.5928L9.89778 12.174C9.83494 12.2368 9.71096 12.2878 9.62264 12.2878H9.22013C9.13181 12.2878 9.00783 12.2368 8.94499 12.174L7.36211 10.5928C7.29927 10.5283 7.24832 10.406 7.24832 10.3177V9.91517C7.24832 9.82515 7.29927 9.70287 7.36211 9.64003L8.94499 8.05715C9.00783 7.99431 9.13181 7.94336 9.22013 7.94336H9.62264C9.71096 7.94336 9.83494 7.99431 9.89778 8.05715L11.479 9.64003C11.5418 9.70287 11.5928 9.82515 11.5928 9.91517V10.3177ZM10.1814 10.1241V10.1071C10.1814 10.0425 10.144 9.95253 10.0982 9.90498L9.63113 9.43962C9.58528 9.39207 9.49526 9.3547 9.42903 9.3547H9.41204C9.34751 9.3547 9.25749 9.39207 9.20994 9.43962L8.74458 9.90498C8.69873 9.95083 8.66136 10.0408 8.66136 10.1071V10.1241C8.66136 10.1903 8.69873 10.2803 8.74458 10.3262L9.20994 10.7932C9.25749 10.8391 9.34751 10.8764 9.41204 10.8764H9.42903C9.49526 10.8764 9.58528 10.8391 9.63113 10.7932L10.0982 10.3262C10.144 10.2803 10.1814 10.1903 10.1814 10.1241Z" fill="white"/>
<path d="M12.211 7.48618L16.2004 5.18319C16.7609 4.8605 16.9545 4.14209 16.6301 3.58163C16.3057 3.02117 15.589 2.82925 15.0285 3.15364L12.7935 4.4444V1.83401C12.7935 1.18863 12.2704 0.665527 11.6267 0.665527C10.9813 0.665527 10.4582 1.18863 10.4582 1.83401V6.35846C10.4362 6.59284 10.482 6.8374 10.6094 7.05819C10.9338 7.61865 11.6505 7.81057 12.211 7.48618Z" fill="white"/>
<path d="M7.41129 12.6291C7.14634 12.5781 6.86271 12.6206 6.61136 12.7649L2.62189 15.0696C2.06142 15.3923 1.86781 16.109 2.1922 16.6695C2.51659 17.2317 3.2333 17.4236 3.79376 17.0992L6.05939 15.7914V18.3984C6.05939 19.0421 6.58248 19.5652 7.22786 19.5652C7.87155 19.5652 8.39464 19.0421 8.39464 18.3984V13.7823C8.39464 13.1997 7.96835 12.7174 7.41129 12.6291Z" fill="white"/>
<path d="M18.6939 7.22119C18.3712 6.65903 17.6528 6.46712 17.0923 6.79151L13.1028 9.0945C12.7207 9.31528 12.5101 9.7195 12.5169 10.1305C12.5135 10.5398 12.7241 10.9389 13.1028 11.1563L17.0923 13.461C17.6528 13.7837 18.3695 13.5918 18.6939 13.0313C19.0182 12.4709 18.8246 11.7541 18.2642 11.4298L16.0053 10.1254L18.2642 8.82106C18.8263 8.49837 19.0182 7.78166 18.6939 7.22119Z" fill="white"/>
<path d="M79.9979 9.85536V9.85706V9.89952C79.9979 10.1169 79.8162 10.2783 79.592 10.2783H73.9873C73.9975 10.4107 74.0145 10.5398 74.0417 10.6672C74.3015 11.8815 75.3409 12.785 76.5757 12.7952C76.5791 12.7952 76.6419 12.7952 76.7387 12.7952C76.754 12.7952 76.7693 12.7952 76.7846 12.7952H76.9017C76.9272 12.7952 76.9527 12.7952 76.9799 12.7935C77.0037 12.7935 77.0274 12.7918 77.0512 12.7901C77.0529 12.7901 77.0546 12.7901 77.0563 12.7884C77.4656 12.7562 77.8783 12.5914 78.2469 12.3265C78.2469 12.3265 78.2469 12.3265 78.2486 12.3265C78.2672 12.3129 78.2876 12.2976 78.3063 12.2823C78.3097 12.2806 78.3131 12.2772 78.3182 12.2738C78.3335 12.262 78.3505 12.2484 78.3674 12.2348C78.3742 12.2297 78.3793 12.2246 78.3861 12.2195C78.3997 12.2093 78.4133 12.1974 78.4269 12.1855C78.4354 12.1787 78.4456 12.1702 78.4541 12.1634C78.4642 12.1533 78.4744 12.1431 78.4863 12.1346C78.4965 12.1244 78.5084 12.1142 78.5186 12.104C78.5271 12.0972 78.5356 12.0887 78.5441 12.0802C78.5577 12.0683 78.5695 12.0564 78.5831 12.0446C78.5899 12.0378 78.5967 12.0293 78.6035 12.0225C78.6171 12.0089 78.6307 11.9953 78.6443 11.9817C78.6511 11.9749 78.6562 11.9698 78.663 11.963C78.6765 11.9478 78.6901 11.9325 78.7037 11.9172C78.7105 11.9121 78.7156 11.9053 78.7207 11.8985C78.736 11.8832 78.7496 11.8679 78.7632 11.8526C78.7683 11.8459 78.7751 11.8391 78.7801 11.8323C78.7937 11.8153 78.8056 11.8 78.8192 11.7847C78.826 11.7762 78.8328 11.7677 78.8396 11.7592C78.8515 11.7439 78.8634 11.7304 78.8736 11.7168C78.8837 11.7032 78.8922 11.6913 78.9007 11.6794C78.9092 11.6675 78.9177 11.6573 78.9262 11.6454C78.9398 11.6268 78.9534 11.6081 78.9653 11.5894C78.9704 11.5826 78.9738 11.5775 78.9772 11.5724C79.0111 11.5232 79.0434 11.4722 79.0757 11.4196C79.0757 11.4196 79.0757 11.4179 79.0774 11.4162C79.0842 11.4043 79.0926 11.3941 79.1011 11.3822C79.1045 11.3771 79.1079 11.372 79.113 11.3686C79.1181 11.3601 79.1249 11.355 79.13 11.3482C79.1351 11.3431 79.1402 11.338 79.1453 11.3329C79.1521 11.3278 79.1572 11.3228 79.164 11.3177C79.1691 11.3126 79.1742 11.3075 79.181 11.3041C79.1895 11.2973 79.1996 11.2905 79.2098 11.2854C79.2166 11.2803 79.2251 11.2752 79.2319 11.2718C79.2404 11.2684 79.2472 11.265 79.254 11.2616C79.2608 11.2582 79.2676 11.2565 79.2727 11.2531C79.2829 11.2497 79.2914 11.248 79.3015 11.2446C79.3066 11.2429 79.31 11.2412 79.3151 11.2395C79.3474 11.2327 79.3814 11.2276 79.4136 11.2276C79.4493 11.2276 79.4867 11.2327 79.5206 11.2429C79.5223 11.2429 79.5223 11.2429 79.524 11.2429C79.5376 11.248 79.5529 11.2514 79.5665 11.2582C79.5699 11.2599 79.5733 11.2599 79.5767 11.2616C79.592 11.2684 79.6056 11.2752 79.6191 11.2837L79.6259 11.2871C79.8128 11.423 79.8705 11.6607 79.7567 11.856L79.755 11.8577C79.7414 11.8798 79.7278 11.9019 79.7142 11.9223C79.7109 11.9274 79.7075 11.9325 79.7041 11.9376C79.3066 12.5422 78.7666 13.0245 78.1636 13.3132C78.1501 13.3183 78.1382 13.3251 78.1246 13.3319C78.1229 13.3319 78.1195 13.3336 78.1178 13.3336C77.8392 13.4627 77.5403 13.5527 77.221 13.5901C77.2142 13.5901 77.2075 13.5918 77.2007 13.5918C77.1735 13.5952 77.1463 13.5986 77.1191 13.6003C77.1039 13.6003 77.0886 13.602 77.0716 13.6037C77.0529 13.6037 77.0325 13.6054 77.0138 13.6071C76.9765 13.6071 76.9391 13.6088 76.9017 13.6088C76.8967 13.6088 76.7557 13.6088 76.6606 13.6088C76.6062 13.6088 76.5757 13.6088 76.5723 13.6088C74.6871 13.5952 73.1687 12.0225 73.1687 10.0965C73.1687 8.13831 74.6973 6.55713 76.5977 6.55713C76.6538 6.55713 76.7098 6.55883 76.7659 6.56053C77.4282 6.59449 78.0397 6.82038 78.5475 7.19062C78.5492 7.19232 78.5509 7.19402 78.5526 7.19402C78.5814 7.2144 78.6086 7.23648 78.6358 7.25686C78.6494 7.26875 78.6647 7.28063 78.6799 7.29252C78.6935 7.30271 78.7071 7.3146 78.7207 7.32479C79.4357 7.92092 79.9181 8.81596 79.9979 9.85197V9.85536ZM74.0417 9.47832H79.1147C78.8634 8.2555 77.8121 7.37065 76.5977 7.37065C75.3613 7.37065 74.3185 8.23851 74.0417 9.47832Z" fill="white"/>
<path d="M65.6687 6.67601C65.7315 6.73885 65.774 6.82377 65.7842 6.92228C65.7842 6.93587 65.7859 6.94945 65.7859 6.96304V13.2011C65.7859 13.4236 65.599 13.6088 65.3783 13.6088C65.1575 13.6088 64.9723 13.4236 64.9723 13.2011V12.3723C64.8178 12.5592 64.648 12.729 64.4628 12.8768C64.4577 12.8819 64.4526 12.8853 64.4476 12.8903C64.4306 12.9039 64.4119 12.9175 64.3949 12.9294C63.8344 13.3608 63.1534 13.6088 62.4418 13.6088C61.2954 13.6088 60.2865 12.999 59.6853 12.0751C59.6802 12.0683 59.6734 12.0598 59.6683 12.0531C59.6514 12.0242 59.6344 11.9953 59.6157 11.9647C59.6038 11.9461 59.5936 11.9274 59.5817 11.9087C59.5698 11.89 59.5596 11.8696 59.5495 11.8492C59.5325 11.8204 59.5155 11.7898 59.5002 11.7609C59.4951 11.7507 59.4917 11.7406 59.4866 11.7304C59.2641 11.2888 59.1266 10.7912 59.1028 10.263C59.0994 10.2035 59.0977 10.1441 59.0977 10.0829C59.0977 10.0218 59.0994 9.96236 59.1028 9.90292C59.1266 9.37472 59.2641 8.8771 59.4866 8.43383C59.4917 8.42533 59.4951 8.41515 59.5002 8.40495C59.5155 8.37608 59.5325 8.34551 59.5495 8.31664C59.5596 8.29626 59.5698 8.27588 59.5817 8.2572C59.5919 8.23851 59.6038 8.21983 59.6157 8.20115C59.6327 8.17228 59.6514 8.14171 59.6683 8.11284C59.6734 8.10604 59.6802 8.09755 59.6853 8.09076C60.2865 7.16684 61.2954 6.55713 62.4418 6.55713C63.2162 6.55713 63.9482 6.84076 64.5308 7.33498C64.6904 7.46915 64.8382 7.61691 64.9723 7.77995V6.96304C64.9723 6.94945 64.9723 6.93587 64.974 6.92228C64.9842 6.82377 65.0267 6.73885 65.0895 6.67601C65.0895 6.67601 65.0895 6.67601 65.0895 6.67432C65.0963 6.66752 65.1048 6.66243 65.1116 6.65563C65.1133 6.65394 65.1167 6.65054 65.1184 6.64884C65.1235 6.64375 65.1303 6.64035 65.1354 6.63695C65.1405 6.63356 65.1456 6.62846 65.1507 6.62506C65.1541 6.62337 65.1575 6.62167 65.1609 6.61827C65.1694 6.61487 65.1762 6.60978 65.1846 6.60468C65.1863 6.60468 65.188 6.60298 65.1897 6.60298C65.1999 6.59789 65.2101 6.59279 65.2203 6.5877C65.2203 6.5877 65.2203 6.5877 65.222 6.5877C65.2458 6.57751 65.2713 6.57072 65.2967 6.56562C65.2984 6.56562 65.3018 6.56392 65.3035 6.56392C65.3137 6.56222 65.3256 6.56053 65.3375 6.55883C65.3511 6.55883 65.3647 6.55713 65.3783 6.55713C65.3935 6.55713 65.4071 6.55883 65.4207 6.55883C65.4326 6.56053 65.4428 6.56222 65.4547 6.56392C65.4564 6.56392 65.4581 6.56562 65.4615 6.56562C65.487 6.57072 65.5124 6.57751 65.5362 6.5877H65.5379C65.5481 6.59279 65.5583 6.59789 65.5668 6.60298C65.5702 6.60298 65.5719 6.60468 65.5736 6.60468C65.5804 6.60978 65.5889 6.61487 65.5956 6.61827C65.599 6.62167 65.6041 6.62337 65.6075 6.62506C65.6126 6.62846 65.6177 6.63356 65.6228 6.63695C65.6279 6.64035 65.633 6.64375 65.6381 6.64884C65.6415 6.65054 65.6432 6.65394 65.6466 6.65563C65.6534 6.66243 65.6619 6.66752 65.667 6.67432C65.6687 6.67601 65.6687 6.67601 65.6687 6.67601ZM62.4418 12.7952C63.8361 12.7952 64.9723 11.5792 64.9723 10.0829C64.9723 8.57989 63.8361 7.35706 62.4418 7.35706C61.0576 7.35706 59.9112 8.57819 59.9112 10.0829C59.9112 10.1305 59.9129 10.1764 59.9146 10.2222C59.9146 10.2426 59.918 10.2613 59.918 10.28C59.9197 10.3071 59.9214 10.3343 59.9248 10.3598C59.9265 10.3819 59.9299 10.4022 59.9316 10.4226C59.935 10.4464 59.9367 10.4719 59.9401 10.4956C59.9435 10.5143 59.9469 10.5313 59.9486 10.5483C59.9537 10.5755 59.9571 10.6026 59.9622 10.6298C59.9656 10.6434 59.969 10.6553 59.9706 10.6672C59.9774 10.6995 59.9842 10.73 59.991 10.7623C59.9927 10.7691 59.9944 10.7759 59.9978 10.7827C60.2865 11.9444 61.2784 12.7952 62.4418 12.7952Z" fill="white"/>
<path d="M55.46 3.61572H55.3496C55.336 3.61572 55.3208 3.61572 55.3072 3.61742C55.2919 3.61572 55.2783 3.61572 55.263 3.61572C55.224 3.61572 55.1849 3.61572 55.1458 3.61742C55.139 3.61742 55.1305 3.61912 55.1238 3.61912C55.0932 3.61912 55.0626 3.62082 55.032 3.62421C55.0269 3.62421 55.0201 3.62421 55.0151 3.62421C54.9828 3.62761 54.9522 3.62931 54.9216 3.63271C54.9182 3.63441 54.9149 3.6344 54.9115 3.6344C54.8775 3.6395 54.8452 3.6429 54.8146 3.64799C54.8129 3.64799 54.8113 3.64799 54.8113 3.64799C54.6057 3.68026 54.4206 3.73801 54.2559 3.81953C54.2559 3.82123 54.2542 3.82123 54.2525 3.82123C54.2287 3.83481 54.2032 3.8484 54.1795 3.86199C54.1744 3.86368 54.171 3.86708 54.1659 3.87048C54.1455 3.88237 54.1251 3.89426 54.1047 3.90784C54.0962 3.91294 54.0894 3.91973 54.0826 3.92483C54.0657 3.93502 54.0504 3.9469 54.0334 3.95879C54.0215 3.96898 54.0096 3.97917 53.9977 3.98767C53.9875 3.99616 53.9774 4.00465 53.9672 4.01314C53.9485 4.03012 53.9315 4.04541 53.9145 4.06239C53.9111 4.06579 53.9077 4.06919 53.9043 4.07258C53.8839 4.09466 53.8636 4.11504 53.8432 4.13712C53.8398 4.14222 53.8364 4.14731 53.833 4.15071C53.816 4.16939 53.799 4.18807 53.7837 4.20676C53.7786 4.21525 53.7718 4.22374 53.7668 4.23223C53.7532 4.24921 53.7413 4.2645 53.7294 4.28148C53.726 4.28828 53.7226 4.29337 53.7175 4.29847C53.7039 4.31885 53.6903 4.33923 53.6784 4.35961C53.6767 4.36301 53.675 4.3647 53.6733 4.3681C53.5629 4.54983 53.4848 4.76382 53.4356 5.02197C53.4356 5.02537 53.4356 5.03046 53.4339 5.03386C53.4271 5.06613 53.422 5.1001 53.4169 5.13407C53.4152 5.14426 53.4135 5.15445 53.4135 5.16464C53.4084 5.19351 53.405 5.22238 53.4016 5.25295C53.3999 5.26993 53.3982 5.28692 53.3965 5.3056C53.3931 5.32938 53.3897 5.35146 53.388 5.37693C53.3863 5.40241 53.3846 5.42788 53.3829 5.45506C53.3812 5.47204 53.3812 5.48902 53.3795 5.50771C53.3778 5.54337 53.3761 5.58074 53.3744 5.6181C53.3744 5.62829 53.3727 5.63508 53.3727 5.64358C53.371 5.69113 53.371 5.74038 53.371 5.78794V6.45879H52.5252C52.4726 6.45709 52.4199 6.46728 52.3724 6.48427C52.2195 6.54031 52.1108 6.68468 52.1108 6.85281C52.1108 7.01076 52.189 7.14493 52.3112 7.22306C52.3724 7.26212 52.4437 7.2859 52.5218 7.2893H52.5252V7.29099H53.371V13.2149C53.3693 13.2234 53.371 13.2302 53.371 13.2387C53.371 13.2438 53.371 13.2489 53.371 13.254C53.3761 13.3491 53.4152 13.4357 53.478 13.5019L53.4797 13.5036C53.4882 13.5121 53.4984 13.5206 53.5069 13.5291C53.5086 13.5308 53.5103 13.5308 53.512 13.5325C53.5188 13.5393 53.5273 13.5444 53.5341 13.5495C53.5375 13.5529 53.5426 13.5563 53.546 13.558C53.5494 13.5614 53.5528 13.5631 53.5579 13.5648C53.6241 13.6072 53.7022 13.631 53.7854 13.631C53.799 13.631 53.8126 13.6293 53.8245 13.6276C53.9043 13.6208 53.9774 13.5868 54.0368 13.5376L54.0385 13.5359C54.047 13.5291 54.0538 13.5223 54.0606 13.5138C54.0623 13.5121 54.0657 13.5104 54.0674 13.5087C54.0742 13.5019 54.0793 13.4951 54.0843 13.49C54.1489 13.4119 54.1846 13.3151 54.1795 13.2149V7.29099H55.0898V7.2893H55.0932C55.3343 7.27741 55.511 7.08889 55.5042 6.85451C55.5042 6.85282 55.5042 6.85281 55.5042 6.85112C55.5059 6.84262 55.5042 6.83413 55.5042 6.82564C55.5042 6.82224 55.5042 6.81885 55.5042 6.81715C55.4974 6.72714 55.4583 6.64561 55.3972 6.58277C55.3972 6.58277 55.3972 6.58277 55.3972 6.58108C55.3955 6.58108 55.3955 6.58108 55.3955 6.58108C55.387 6.57258 55.3802 6.56579 55.3717 6.559C55.3683 6.5556 55.3649 6.5539 55.3632 6.55051C55.3564 6.54541 55.3513 6.54201 55.3445 6.53692C55.3394 6.53352 55.3327 6.52843 55.3276 6.52503C55.3242 6.52333 55.3191 6.51993 55.3157 6.51824C55.3072 6.51314 55.2987 6.50805 55.2902 6.50465C55.2885 6.50295 55.2851 6.50125 55.2834 6.50125C55.2732 6.49616 55.263 6.49106 55.2528 6.48767C55.2511 6.48597 55.2494 6.48597 55.246 6.48427C55.2358 6.48087 55.2257 6.47748 55.2155 6.47408C55.2121 6.47408 55.2087 6.47238 55.2053 6.47238C55.1951 6.47068 55.1866 6.46728 55.1764 6.46559C55.1713 6.46559 55.1662 6.46559 55.1611 6.46389C55.1543 6.46219 55.1458 6.46219 55.1373 6.46049C55.1305 6.46049 55.1238 6.46049 55.1187 6.46049C55.1136 6.46049 55.1085 6.45879 55.1034 6.45879C55.0983 6.45879 55.0915 6.45879 55.0898 6.45879H54.1795V5.78964C54.1795 5.78454 54.1795 5.77945 54.1795 5.77605C54.1812 5.74208 54.1812 5.70811 54.1829 5.67585C54.1829 5.66735 54.1829 5.65716 54.1846 5.64867C54.1846 5.6198 54.1862 5.59093 54.1879 5.56375C54.1879 5.55866 54.1896 5.55186 54.1896 5.54677C54.1913 5.5145 54.1947 5.48223 54.1981 5.45166C54.2304 5.12048 54.3017 4.91158 54.3765 4.7842C54.3782 4.7808 54.3782 4.77911 54.3799 4.77571C54.385 4.76722 54.3918 4.75873 54.3968 4.75023C54.4002 4.74344 54.4053 4.73665 54.4104 4.72985C54.4121 4.72646 54.4155 4.71966 54.4189 4.71627C54.4274 4.70438 54.4359 4.69419 54.4461 4.684C54.5531 4.56341 54.7195 4.49038 54.9607 4.46151C54.9641 4.46151 54.9658 4.45981 54.9709 4.45981C54.9845 4.45811 54.9998 4.45642 55.0134 4.45642C55.0201 4.45472 55.0286 4.45472 55.0354 4.45302C55.049 4.45302 55.0609 4.45132 55.0745 4.45132C55.0847 4.45132 55.0932 4.44962 55.1051 4.44962C55.117 4.44792 55.1288 4.44792 55.1407 4.44792C55.1526 4.44792 55.1645 4.44623 55.1764 4.44623C55.1883 4.44623 55.2002 4.44623 55.2121 4.44623C55.229 4.44623 55.246 4.44623 55.263 4.44623H55.2647C55.2783 4.44623 55.2902 4.44453 55.3038 4.44283C55.3191 4.44453 55.3343 4.44623 55.3496 4.44623H55.46C55.6876 4.44623 55.8744 4.2594 55.8744 4.03012C55.8744 3.80085 55.6876 3.61572 55.46 3.61572Z" fill="white"/>
<path d="M57.6504 3.62723C57.6504 3.62723 57.6487 3.62553 57.647 3.62553C57.6385 3.62213 57.6318 3.61874 57.6216 3.61704C57.6182 3.61534 57.6131 3.61364 57.608 3.61194C57.6012 3.61025 57.5944 3.60855 57.5876 3.60685C57.5808 3.60515 57.574 3.60175 57.5689 3.60175C57.5604 3.60006 57.5536 3.59836 57.5451 3.59836C57.5383 3.59666 57.5332 3.59666 57.5265 3.59496C57.5129 3.59326 57.4976 3.59326 57.484 3.59326C57.2632 3.59326 57.0764 3.77838 57.0764 3.99917V13.2009C57.0764 13.4234 57.2632 13.6085 57.484 13.6085C57.4976 13.6085 57.5129 13.6085 57.5265 13.6068C57.5282 13.6068 57.5315 13.6051 57.5332 13.6051C57.5451 13.6035 57.557 13.6018 57.5689 13.6001C57.5706 13.6001 57.574 13.5984 57.5774 13.5984C57.5876 13.595 57.5978 13.5933 57.608 13.5899C57.6097 13.5899 57.6114 13.5899 57.6131 13.5882C57.7693 13.5389 57.8848 13.4064 57.9018 13.2434C57.9035 13.2298 57.9052 13.2162 57.9052 13.2009V3.99917C57.9052 3.98559 57.9035 3.972 57.9018 3.95841C57.8865 3.80895 57.788 3.68497 57.6504 3.62723Z" fill="white"/>
<path d="M26.467 11.4433C26.4636 11.4196 26.4636 11.3975 26.4602 11.3754C26.4585 11.3584 26.4568 11.3431 26.4551 11.3278C26.4517 11.3092 26.45 11.2922 26.4466 11.2735C26.4432 11.2565 26.4398 11.2395 26.4364 11.2209C26.4347 11.2073 26.4313 11.192 26.4279 11.1784C26.4229 11.158 26.4195 11.1393 26.4144 11.1189C26.411 11.1088 26.4076 11.0969 26.4042 11.0867C26.3991 11.0646 26.3923 11.0442 26.3838 11.0238C26.3821 11.0153 26.3787 11.0069 26.377 11.0001C26.3685 10.9763 26.36 10.9542 26.3498 10.9304C26.3481 10.927 26.3464 10.9219 26.3447 10.9168C26.3328 10.8931 26.3226 10.8676 26.3108 10.8438C26.3091 10.8421 26.3091 10.8404 26.3074 10.8387C26.2106 10.6434 26.073 10.4804 25.9048 10.3428C25.9048 10.3411 25.9048 10.3411 25.9031 10.3411C25.8794 10.3224 25.8556 10.302 25.8301 10.2834C25.8301 10.2834 25.8284 10.2817 25.8267 10.28C25.825 10.28 25.8233 10.2783 25.8216 10.2766C25.8063 10.2664 25.7911 10.2545 25.7775 10.2443C25.5686 10.0965 25.3376 9.97934 25.0013 9.85027C24.9962 9.84857 24.9911 9.84687 24.986 9.84517C24.9809 9.84178 24.9741 9.84008 24.969 9.83668C24.7788 9.76535 24.5818 9.69741 24.3797 9.63118C24.3797 9.63118 24.3797 9.63118 24.378 9.63118C24.378 9.63118 24.3763 9.63118 24.3763 9.62948C24.3729 9.62948 24.3695 9.62778 24.3644 9.62608C24.3457 9.61929 24.3254 9.6125 24.2982 9.604C24.2846 9.60061 24.2744 9.59721 24.2642 9.59381C24.1963 9.57004 24.1267 9.54796 24.057 9.52418C24.0078 9.5072 23.9551 9.49021 23.8923 9.46983C23.8753 9.46474 23.8345 9.45115 23.8006 9.44096C23.7989 9.44096 23.7989 9.43926 23.7972 9.43926C23.7768 9.43247 23.7564 9.42568 23.7343 9.41888C23.5645 9.36453 23.4252 9.31698 23.3063 9.27282C23.1127 9.20149 22.9361 9.12506 22.7917 9.03335C22.7883 9.03165 22.7849 9.02995 22.7832 9.02826C22.5862 8.90258 22.4504 8.74803 22.4181 8.54592L22.4164 8.54422C22.4147 8.53063 22.413 8.51535 22.413 8.50176C22.4113 8.49836 22.4113 8.49667 22.4113 8.49497C22.4096 8.47798 22.4096 8.4627 22.4096 8.44572C22.4096 8.42194 22.4113 8.39816 22.413 8.37608C22.413 8.36929 22.413 8.36419 22.4147 8.3591C22.4164 8.34042 22.4181 8.32343 22.4198 8.30645C22.4215 8.30135 22.4215 8.29626 22.4232 8.29116C22.4266 8.27248 22.43 8.2555 22.4334 8.23682C22.4351 8.23512 22.4351 8.23172 22.4368 8.22832C22.4419 8.20794 22.447 8.18926 22.4538 8.17058C22.4538 8.16888 22.4538 8.16888 22.4538 8.16888C22.5421 7.90563 22.751 7.71032 22.9972 7.57275C23.0142 7.56426 23.0312 7.55577 23.0465 7.54728C23.0635 7.53879 23.0788 7.53029 23.094 7.5235C23.1195 7.51161 23.145 7.49972 23.1705 7.48953C23.1858 7.48274 23.1993 7.47595 23.2146 7.47085C23.2418 7.46066 23.269 7.45047 23.2962 7.44028C23.3097 7.43519 23.325 7.43009 23.3403 7.425C23.3675 7.4165 23.393 7.40801 23.4201 7.40122C23.4371 7.39612 23.4524 7.39103 23.4694 7.38763C23.4949 7.38084 23.5203 7.37574 23.5441 7.36895C23.5611 7.36555 23.5781 7.36216 23.5951 7.35876C23.6222 7.35366 23.6477 7.34857 23.6715 7.34517C23.6868 7.34347 23.7004 7.34178 23.7156 7.33838C23.7445 7.33498 23.7751 7.33159 23.8057 7.32989C23.8125 7.32819 23.8192 7.32819 23.8277 7.32649C23.8651 7.32479 23.9025 7.32309 23.9381 7.32309C23.9806 7.32309 24.0231 7.32479 24.0638 7.32649C24.0706 7.32649 24.0774 7.32649 24.0825 7.32649C24.3831 7.34517 24.626 7.4182 24.8264 7.51501C24.8417 7.5218 24.857 7.53029 24.8722 7.53709C24.8807 7.54218 24.8892 7.54728 24.8977 7.55068C24.9164 7.56087 24.9351 7.57106 24.9555 7.58294C24.9589 7.58464 24.9623 7.58634 24.9656 7.58804C24.986 7.59993 25.0064 7.61351 25.0268 7.6254C25.0285 7.6271 25.0302 7.6271 25.0302 7.6271C25.0523 7.64069 25.0743 7.65597 25.0964 7.66956C25.0964 7.67126 25.0981 7.67126 25.0981 7.67296C25.1202 7.68654 25.1406 7.70013 25.161 7.71542C25.1695 7.72221 25.1762 7.72731 25.1847 7.7324C25.2323 7.76807 25.307 7.82581 25.375 7.88186C25.3834 7.88695 25.3902 7.89205 25.3953 7.89714C25.4463 7.9396 25.4938 7.97697 25.5397 8.01093C25.5482 8.01773 25.555 8.02282 25.5601 8.02622C25.5618 8.02792 25.5635 8.02962 25.5652 8.02962C25.5703 8.03301 25.5754 8.03641 25.5805 8.03981C25.5923 8.0483 25.6059 8.05679 25.6178 8.06528C25.6229 8.06868 25.628 8.07038 25.6331 8.07377C25.645 8.08057 25.6569 8.08736 25.6688 8.09415C25.6739 8.09585 25.6773 8.09755 25.6824 8.09925C25.6959 8.10604 25.7078 8.11114 25.7214 8.11623C25.7248 8.11793 25.7265 8.11793 25.7299 8.11963C25.7452 8.12472 25.7605 8.12982 25.7758 8.13152C25.7758 8.13152 25.7758 8.13152 25.7775 8.13322C25.8114 8.13831 25.8437 8.14001 25.8777 8.13152C25.8811 8.13152 25.8845 8.12982 25.8879 8.12982C25.8964 8.12812 25.9065 8.12472 25.915 8.12303C25.9184 8.12133 25.9201 8.11963 25.9235 8.11793C25.9269 8.11793 25.9303 8.11623 25.9337 8.11453C25.9473 8.10774 25.9609 8.10095 25.9745 8.09245C25.9779 8.09245 25.9796 8.09076 25.9813 8.08906C25.9966 8.07887 26.0101 8.06868 26.0237 8.05679C26.0254 8.05509 26.0254 8.05509 26.0254 8.05509C26.0373 8.0449 26.0475 8.03301 26.0577 8.02112C26.0645 8.01263 26.0713 8.00244 26.0764 7.99225C26.0781 7.99055 26.0798 7.98885 26.0798 7.98716C26.1511 7.86827 26.1104 7.71202 25.9847 7.54218C25.983 7.53879 25.9813 7.53539 25.9779 7.53199C25.9728 7.5252 25.9694 7.5201 25.9643 7.51331C25.6756 7.13967 25.0183 6.73036 24.4086 6.59959C24.4052 6.59959 24.4018 6.59959 24.3984 6.59789C24.3729 6.59279 24.3457 6.5877 24.3203 6.5826C24.3135 6.5826 24.305 6.58091 24.2982 6.57921C24.2761 6.57581 24.254 6.57241 24.232 6.57072C24.2235 6.56902 24.215 6.56732 24.2065 6.56732C24.1861 6.56562 24.164 6.56392 24.1436 6.56222C24.1351 6.56053 24.1267 6.56053 24.1199 6.55883C24.091 6.55883 24.0638 6.55713 24.0366 6.55713C23.9925 6.55713 23.9483 6.55713 23.9059 6.55883C23.8821 6.55883 23.8583 6.56053 23.8328 6.56222C23.8159 6.56392 23.7955 6.56392 23.7785 6.56392C23.7445 6.56732 23.7123 6.56902 23.68 6.57241C23.6715 6.57241 23.6613 6.57241 23.6528 6.57411C23.6154 6.57751 23.5781 6.58091 23.5424 6.586C23.5373 6.586 23.5339 6.586 23.5305 6.586C23.4915 6.5911 23.4541 6.59619 23.4167 6.60298C23.415 6.60298 23.4116 6.60298 23.4099 6.60298C23.3726 6.60808 23.3352 6.61487 23.2995 6.62167C23.2979 6.62167 23.2962 6.62337 23.2928 6.62337C23.2163 6.63695 23.1416 6.65394 23.0703 6.67262C23.0686 6.67262 23.0686 6.67432 23.0686 6.67432C23.0329 6.68281 22.9972 6.693 22.9616 6.70319C22.9276 6.71338 22.8953 6.72527 22.8648 6.73546C22.8614 6.73546 22.8597 6.73716 22.8563 6.73716C22.8257 6.74904 22.7951 6.75923 22.7646 6.77112C22.7612 6.77282 22.7578 6.77452 22.7561 6.77452C22.7255 6.78641 22.6983 6.7983 22.6695 6.81188C22.6661 6.81358 22.661 6.81358 22.6576 6.81698C22.6321 6.82717 22.6049 6.84076 22.5811 6.85265C22.5743 6.85604 22.5692 6.85774 22.5642 6.86114C22.5387 6.87303 22.5149 6.88491 22.4911 6.8985C22.4843 6.9019 22.4792 6.90529 22.4724 6.90869C22.4504 6.92058 22.4283 6.93417 22.4062 6.94775C22.3994 6.95115 22.3926 6.95455 22.3858 6.95964C22.357 6.97663 22.3298 6.99531 22.3026 7.01229C22.2703 7.03607 22.2381 7.05815 22.2092 7.08192C22.2058 7.08192 22.2041 7.08362 22.2041 7.08532C22.0597 7.19232 21.9358 7.30611 21.8339 7.43858C21.8305 7.44368 21.8254 7.44877 21.822 7.45387C21.8101 7.47255 21.7965 7.48953 21.7846 7.50652C21.7761 7.5201 21.7676 7.53369 21.7591 7.54728C21.7523 7.55747 21.7455 7.56766 21.7404 7.57785C21.7269 7.59993 21.715 7.62201 21.7031 7.64578C21.7014 7.64918 21.6997 7.65088 21.698 7.65428C21.6063 7.836 21.5536 8.0449 21.5332 8.29796C21.5332 8.30135 21.5332 8.30475 21.5315 8.30815C21.5298 8.35231 21.5264 8.39646 21.5247 8.44402C21.5247 8.47968 21.5248 8.51535 21.5264 8.55101C21.5264 8.55611 21.5264 8.5612 21.5264 8.5663C21.5451 9.05203 21.7659 9.41718 22.165 9.70081C22.1684 9.70251 22.1718 9.70591 22.1752 9.7076C22.1922 9.71949 22.2092 9.73138 22.2262 9.74327C22.2381 9.75176 22.2517 9.75855 22.2635 9.76705C22.2669 9.77044 22.272 9.77214 22.2754 9.77384C22.6695 10.0235 23.1518 10.1662 23.5543 10.28C23.7513 10.3377 23.9279 10.387 23.9806 10.4022C23.9925 10.4056 24.0044 10.409 24.0146 10.4141C24.2557 10.4939 24.4409 10.5585 24.5937 10.6196C24.6056 10.623 24.6158 10.6281 24.6277 10.6315C24.6311 10.6332 24.6362 10.6349 24.6413 10.6383C24.7279 10.674 24.8128 10.7113 24.8943 10.7521C24.9623 10.7861 25.0251 10.8217 25.0879 10.8591C25.2493 10.9593 25.3733 11.068 25.4565 11.1869C25.4599 11.1903 25.4616 11.1937 25.4633 11.1971C25.4718 11.2073 25.4786 11.2175 25.4837 11.2293C25.4887 11.2361 25.4921 11.2412 25.4955 11.248C25.5006 11.2565 25.5057 11.265 25.5091 11.2735C25.5142 11.282 25.5176 11.2922 25.5227 11.3007C25.5261 11.3075 25.5295 11.3143 25.5329 11.3211C25.5363 11.3312 25.5414 11.3414 25.5448 11.3533C25.5465 11.3584 25.5499 11.3652 25.5516 11.372C25.555 11.3839 25.5584 11.3958 25.5618 11.4077C25.5635 11.4128 25.5652 11.4179 25.5669 11.4247C25.5703 11.4365 25.5737 11.4501 25.5754 11.462C25.5771 11.4671 25.5788 11.4739 25.5788 11.479C25.5805 11.4926 25.5822 11.5062 25.5839 11.5198C25.5856 11.5249 25.5856 11.53 25.5856 11.535C25.5873 11.5554 25.589 11.5741 25.589 11.5945C25.589 11.6251 25.5873 11.6539 25.5856 11.6828C25.5856 11.6913 25.5839 11.6998 25.5839 11.7083C25.5822 11.7304 25.5788 11.7524 25.5737 11.7745C25.5737 11.7813 25.572 11.7881 25.5703 11.7949C25.5601 11.8543 25.5431 11.9104 25.521 11.9664C25.5193 11.9681 25.5193 11.9698 25.5193 11.9715C25.5074 11.997 25.4955 12.0242 25.482 12.048C25.4803 12.0514 25.4803 12.0531 25.4786 12.0548C25.4497 12.1091 25.4157 12.1617 25.3733 12.211C25.3529 12.2365 25.3308 12.2603 25.3087 12.284C25.307 12.284 25.307 12.284 25.307 12.2857C25.2612 12.3316 25.2102 12.374 25.1576 12.4131C25.1559 12.4148 25.1542 12.4148 25.1542 12.4165C25.1287 12.4335 25.1032 12.4522 25.0777 12.4675C25.0743 12.4709 25.0709 12.4725 25.0676 12.4742C25.0234 12.5014 24.9758 12.5286 24.9283 12.5524C24.9113 12.5609 24.8943 12.5694 24.8756 12.5778C24.857 12.5863 24.8366 12.5965 24.8162 12.605C24.7992 12.6118 24.7839 12.6186 24.7669 12.6254C24.7211 12.6424 24.6769 12.6594 24.6311 12.6747C24.6243 12.6764 24.6175 12.6781 24.6107 12.6814C24.5835 12.6899 24.5563 12.6967 24.5292 12.7052C24.5224 12.7069 24.5139 12.7103 24.5071 12.712C24.4171 12.7358 24.3288 12.7545 24.2455 12.7681C24.2438 12.7681 24.2421 12.7681 24.2404 12.7681C24.198 12.7749 24.1572 12.78 24.1182 12.785C24.1029 12.7867 24.0893 12.7884 24.074 12.7884C24.0604 12.7901 24.0468 12.7901 24.0315 12.7918C23.9993 12.7935 23.9653 12.7952 23.9347 12.7952C23.8719 12.7952 23.8108 12.7935 23.7513 12.7901C23.7275 12.7901 23.7038 12.7884 23.68 12.7867C23.6477 12.7834 23.6137 12.7817 23.5832 12.7783C23.5543 12.7766 23.5237 12.7732 23.4966 12.7698C23.4711 12.7664 23.4473 12.763 23.4235 12.7596C23.3709 12.7511 23.3216 12.7443 23.2724 12.7341C23.2503 12.729 23.2265 12.7256 23.2044 12.7205C23.179 12.7137 23.1535 12.7086 23.128 12.7018C23.0991 12.695 23.072 12.6882 23.0448 12.6798C23.0261 12.6747 23.0057 12.6696 22.9887 12.6645C22.9429 12.6509 22.897 12.6356 22.8529 12.6186C22.8427 12.6152 22.8325 12.6118 22.8223 12.6084C22.7238 12.5711 22.627 12.5303 22.5319 12.4827C22.5285 12.481 22.5234 12.4776 22.5183 12.4759C22.4572 12.4454 22.3536 12.3876 22.255 12.3316C22.2466 12.3265 22.2364 12.3214 22.2279 12.3163C22.1582 12.2755 22.0988 12.2416 22.0428 12.2144C22.0377 12.211 22.0343 12.2093 22.0309 12.2076C22.0275 12.2059 22.0241 12.2042 22.0224 12.2042C22.0071 12.1974 21.9952 12.1906 21.9816 12.1855C21.9765 12.1838 21.9731 12.1821 21.9697 12.1804C21.9341 12.1668 21.9018 12.1567 21.8695 12.1533C21.8593 12.1516 21.8491 12.1516 21.8389 12.1516C21.8356 12.1499 21.8322 12.1499 21.8288 12.1499C21.7642 12.1499 21.7082 12.1719 21.6555 12.2212C21.6436 12.2314 21.6334 12.2416 21.6233 12.2535C21.6216 12.2569 21.6182 12.2603 21.6148 12.2637C21.608 12.2721 21.6029 12.2789 21.5978 12.2857C21.5944 12.2908 21.591 12.2959 21.5893 12.2993C21.5842 12.3061 21.5791 12.3129 21.5757 12.3197C21.5723 12.3248 21.5706 12.3299 21.5689 12.335C21.5655 12.3418 21.5621 12.3486 21.5587 12.3554C21.557 12.3605 21.5553 12.3639 21.5536 12.3689C21.5502 12.3774 21.5485 12.3842 21.5468 12.391C21.5451 12.3961 21.5434 12.3995 21.5434 12.4046C21.5417 12.4131 21.54 12.4216 21.5383 12.4301C21.5383 12.4335 21.5366 12.4369 21.5366 12.4403C21.5349 12.4522 21.5349 12.4624 21.5349 12.4725C21.5349 12.4742 21.5349 12.4759 21.5349 12.4776C21.5349 12.4912 21.5366 12.5031 21.54 12.5167C21.54 12.5184 21.54 12.5218 21.54 12.5235C21.5434 12.5337 21.5451 12.5456 21.5485 12.5558C21.5502 12.5609 21.5519 12.566 21.5536 12.5711C21.557 12.5795 21.5587 12.5897 21.5638 12.5982C21.5655 12.6033 21.5672 12.6067 21.5689 12.6101C21.591 12.6611 21.6267 12.7137 21.6725 12.7647C21.7218 12.819 21.7846 12.8734 21.8576 12.9294C21.8593 12.9294 21.8593 12.9294 21.8593 12.9311C21.8797 12.9447 21.9001 12.96 21.9222 12.9753C21.9273 12.9787 21.9307 12.9821 21.9358 12.9838C21.9952 13.0245 22.058 13.0636 22.1294 13.1043C22.1464 13.1145 22.1633 13.1247 22.1803 13.1332C22.1973 13.1434 22.2143 13.1519 22.2313 13.1604C22.2517 13.1723 22.2754 13.1842 22.2975 13.1961C22.3128 13.2028 22.3264 13.2113 22.3417 13.2181C22.3756 13.2351 22.4113 13.2521 22.447 13.2691C22.4521 13.2725 22.4555 13.2742 22.4606 13.2759C22.4996 13.2946 22.5387 13.3115 22.5777 13.3268C22.5947 13.3336 22.61 13.3404 22.627 13.3472C22.6304 13.3489 22.6338 13.3506 22.6372 13.3506C23.0006 13.4933 23.449 13.5884 23.8447 13.6054C23.8736 13.6071 23.9042 13.6088 23.933 13.6088H23.9347C23.9483 13.6088 23.9602 13.6088 23.9738 13.6071C24.0044 13.6071 24.0349 13.6071 24.0655 13.6071C24.0689 13.6071 24.0723 13.6071 24.0757 13.6054C24.7194 13.585 25.2476 13.4185 25.6976 13.0891C25.6976 13.0874 25.6976 13.0874 25.6976 13.0874C26.197 12.7103 26.4721 12.1787 26.4721 11.5928C26.4721 11.5554 26.4704 11.5181 26.4687 11.4824C26.4687 11.4688 26.467 11.4552 26.467 11.4433Z" fill="white"/>
<path d="M30.6197 6.5708C30.618 6.5708 30.6163 6.5708 30.6146 6.5708C29.8232 6.5708 29.0759 6.89349 28.5358 7.46414V6.97841C28.5358 6.75422 28.3626 6.5708 28.1435 6.5708C28.1282 6.5708 28.1146 6.5725 28.1011 6.5725C28.0042 6.58269 27.9193 6.62515 27.8565 6.68799C27.8548 6.68799 27.8548 6.68799 27.8531 6.68969C27.848 6.69648 27.8412 6.70327 27.8361 6.71007C27.8327 6.71177 27.8293 6.71516 27.8276 6.71856C27.8225 6.72365 27.8191 6.72875 27.8157 6.73384C27.8123 6.73894 27.8089 6.74403 27.8038 6.74913C27.8021 6.75253 27.8004 6.75592 27.7987 6.75932C27.7936 6.76781 27.7886 6.7763 27.7835 6.7831C27.7835 6.7848 27.7835 6.78649 27.7818 6.78819C27.7767 6.79838 27.7716 6.80857 27.7665 6.81876C27.758 6.84424 27.7495 6.86971 27.7444 6.89519C27.7444 6.89689 27.7444 6.89859 27.7427 6.89859C27.741 6.91217 27.7393 6.92406 27.7376 6.93595C27.7376 6.94954 27.7359 6.96312 27.7359 6.97841V13.2862L27.7308 13.3133L27.7512 13.3303C27.7512 13.3388 27.7529 13.3507 27.758 13.3626C27.758 13.3643 27.7597 13.3677 27.7597 13.3694C27.7631 13.3779 27.7682 13.3881 27.7767 13.3965C27.8293 13.4968 27.9261 13.5732 28.0399 13.6071L28.0484 13.6088H28.1435C28.1588 13.6088 28.1741 13.6088 28.1894 13.6071C28.1996 13.6054 28.2097 13.6021 28.2199 13.6004C28.225 13.6004 28.2284 13.6004 28.2335 13.5987C28.2471 13.5953 28.2607 13.5919 28.2743 13.5868C28.2743 13.5868 28.2743 13.5868 28.276 13.5868C28.3473 13.5613 28.4085 13.5171 28.4492 13.4577C28.4509 13.456 28.4526 13.4543 28.4543 13.4526C28.4815 13.4237 28.4968 13.3932 28.5121 13.3507C28.5138 13.3456 28.5155 13.3422 28.5155 13.3388C28.5172 13.3371 28.5172 13.3371 28.5172 13.3354C28.5239 13.315 28.529 13.2946 28.5341 13.2743L28.5358 13.2675V9.44954C28.563 8.31163 29.4937 7.38602 30.6112 7.38432C30.6129 7.38432 30.6129 7.38432 30.6146 7.38432C31.7525 7.38432 32.6782 8.30993 32.6782 9.44784V13.2012C32.6782 13.2165 32.6799 13.2301 32.6816 13.2437C32.69 13.3422 32.7325 13.4271 32.7953 13.49C32.7953 13.49 32.797 13.49 32.797 13.4917C32.8038 13.4985 32.8106 13.5035 32.8174 13.5103C32.8208 13.5137 32.8225 13.5154 32.8259 13.5171C32.831 13.5222 32.8361 13.5256 32.8412 13.529C32.8463 13.5341 32.8514 13.5375 32.8565 13.5409C32.8616 13.5426 32.865 13.5443 32.8684 13.5477C32.8752 13.5528 32.8837 13.5562 32.8905 13.5613C32.8921 13.5613 32.8938 13.563 32.8972 13.563C32.9057 13.5681 32.9159 13.5732 32.9261 13.5783H32.9278C32.9516 13.5885 32.9771 13.5953 33.0025 13.6004C33.0059 13.6004 33.0076 13.6021 33.0093 13.6021C33.0212 13.6037 33.0314 13.6054 33.0433 13.6071C33.0569 13.6088 33.0705 13.6088 33.0858 13.6088C33.0993 13.6088 33.1129 13.6088 33.1265 13.6071C33.1384 13.6054 33.1503 13.6037 33.1605 13.6021C33.1622 13.6021 33.1656 13.6004 33.1673 13.6004C33.1945 13.5953 33.2182 13.5885 33.2437 13.5783C33.2539 13.5732 33.2641 13.5681 33.2743 13.563C33.276 13.563 33.2777 13.5613 33.2794 13.5613C33.2879 13.5562 33.2947 13.5528 33.3032 13.5477C33.3066 13.5443 33.3099 13.5426 33.3133 13.5409C33.3184 13.5375 33.3235 13.5341 33.3286 13.529C33.3337 13.5256 33.3405 13.5222 33.3456 13.5171C33.3473 13.5154 33.3507 13.5137 33.3524 13.5103C33.3592 13.5035 33.3677 13.4985 33.3745 13.4917C33.3745 13.49 33.3745 13.49 33.3745 13.49C33.439 13.4271 33.4815 13.3422 33.49 13.2437C33.4917 13.2301 33.4917 13.2165 33.4917 13.2012V9.44784C33.4917 7.86326 32.2043 6.5742 30.6197 6.5708Z" fill="white"/>
<path d="M37.9462 6.55713C39.7907 6.55713 41.2903 8.13831 41.2903 10.0829C41.2903 12.0276 39.7907 13.6088 37.9462 13.6088C37.8885 13.6088 37.8324 13.6071 37.7764 13.6037C37.7679 13.6037 37.7611 13.6037 37.7526 13.602C37.7034 13.6003 37.6541 13.5952 37.6066 13.5901C37.6049 13.5901 37.6032 13.5901 37.6015 13.5901C36.8729 13.5103 36.1918 13.1774 35.65 12.6322C35.628 12.6101 35.6042 12.588 35.5838 12.5643C35.5821 12.5643 35.5821 12.5626 35.5804 12.5626C35.5685 12.5507 35.5583 12.5371 35.5464 12.5235C35.521 12.4963 35.4955 12.4675 35.47 12.4386C35.4496 12.4165 35.4309 12.391 35.4106 12.3673C35.397 12.3486 35.3817 12.3299 35.3664 12.3112C35.3358 12.2738 35.307 12.2348 35.2798 12.1957C35.2764 12.1906 35.273 12.1855 35.2696 12.1804C34.9384 11.7168 34.7227 11.1818 34.6412 10.6145C34.6327 10.5619 34.6276 10.5092 34.6225 10.4566C34.6208 10.4515 34.6208 10.4447 34.6191 10.4379C34.614 10.3887 34.6106 10.3411 34.6089 10.2918C34.6072 10.2817 34.6072 10.2715 34.6072 10.2596C34.6038 10.2018 34.6021 10.1424 34.6021 10.0829C34.6021 10.0235 34.6038 9.96406 34.6072 9.90631C34.6072 9.89442 34.6072 9.88423 34.6089 9.87404C34.6106 9.82479 34.614 9.77554 34.6191 9.72798C34.6208 9.72119 34.6208 9.7144 34.6225 9.7093C34.6276 9.65665 34.6327 9.604 34.6412 9.55135C34.7227 8.9841 34.9384 8.44911 35.2696 7.98546C35.2713 7.98036 35.2747 7.97527 35.2781 7.97187C35.307 7.93111 35.3358 7.89205 35.3664 7.85298C35.38 7.836 35.3953 7.81902 35.4089 7.80034C35.4292 7.77486 35.4496 7.75108 35.47 7.72561C35.4938 7.69843 35.5176 7.67296 35.543 7.64578C35.5549 7.6322 35.5685 7.61691 35.5804 7.60332C35.5821 7.60332 35.5821 7.60163 35.5838 7.60163C35.6025 7.57955 35.6246 7.55917 35.6449 7.53879C36.1867 6.99191 36.8695 6.65563 37.6015 6.57581C37.6032 6.57581 37.6049 6.57581 37.6066 6.57581C37.6541 6.57072 37.7034 6.56732 37.7526 6.56392C37.7611 6.56392 37.7679 6.56222 37.7764 6.56222C37.8324 6.55883 37.8885 6.55713 37.9462 6.55713ZM40.4632 9.80611C40.4632 9.80441 40.4632 9.80441 40.4632 9.80271C40.4038 9.1913 40.1524 8.63933 39.7771 8.21304C39.7601 8.19436 39.7448 8.17568 39.7278 8.15699C39.7176 8.1468 39.7074 8.13661 39.6972 8.12642C39.6769 8.10604 39.6582 8.08566 39.6378 8.06528C39.6191 8.0466 39.5987 8.02961 39.5801 8.01263C39.5682 8.00244 39.558 7.99055 39.5461 7.98036C39.5155 7.95319 39.485 7.92771 39.4544 7.90224C39.4544 7.90224 39.4527 7.90224 39.4527 7.90054C39.0977 7.61351 38.6714 7.425 38.2129 7.37235C38.2078 7.37235 38.2044 7.37065 38.201 7.37065C38.1653 7.36555 38.1314 7.36385 38.0957 7.36216C38.0872 7.36046 38.0804 7.36046 38.0736 7.36046C38.0311 7.35706 37.9887 7.35706 37.9462 7.35706C37.9038 7.35706 37.8613 7.35706 37.8189 7.36046C37.8121 7.36046 37.8053 7.36046 37.7968 7.36216C37.7611 7.36385 37.7271 7.36555 37.6915 7.37065C37.6881 7.37065 37.6847 7.37235 37.6796 7.37235C37.221 7.425 36.7947 7.61351 36.4398 7.90054C36.4398 7.90224 36.4381 7.90224 36.4381 7.90224C36.4075 7.92771 36.3769 7.95319 36.3464 7.98036C36.3345 7.99055 36.3243 8.00074 36.3124 8.01093C36.2937 8.02962 36.2733 8.0466 36.2547 8.06528C36.236 8.08396 36.2173 8.10434 36.1969 8.12472C36.1867 8.13491 36.1765 8.1451 36.1646 8.15699C36.1494 8.17398 36.1341 8.19266 36.1171 8.21134C35.7417 8.63763 35.4887 9.1913 35.4292 9.80271C35.4292 9.80441 35.4292 9.80441 35.4292 9.80611C35.4259 9.84517 35.4225 9.88423 35.4208 9.925C35.4208 9.93179 35.4191 9.93858 35.4191 9.94538C35.4174 9.99123 35.4157 10.0371 35.4157 10.0829C35.4157 11.5758 36.5638 12.7952 37.9462 12.7952C39.3287 12.7952 40.4768 11.5758 40.4768 10.0829C40.4768 10.0371 40.4751 9.99123 40.4734 9.94538C40.4734 9.93858 40.4717 9.93179 40.4717 9.925C40.47 9.88423 40.4666 9.84517 40.4632 9.80611Z" fill="white"/>
<path d="M51.1185 6.7322C51.1151 6.7288 51.1134 6.72541 51.11 6.72201C51.0692 6.67106 51.0149 6.6303 50.9537 6.60482C50.9537 6.60482 50.9537 6.60482 50.952 6.60482C50.9452 6.59973 50.9367 6.59803 50.9299 6.59463C50.9265 6.59463 50.9231 6.59293 50.9181 6.59123C50.8637 6.57255 50.8043 6.56916 50.7465 6.57765H50.7448C50.6276 6.59633 50.5155 6.66766 50.4527 6.77296C50.4527 6.77296 50.4527 6.77296 50.451 6.77296C50.4425 6.78994 50.4323 6.80693 50.4255 6.82391L50.4238 6.82561V6.82731L48.4775 12.1551L46.949 8.51718C46.9337 8.48322 46.9133 8.45265 46.8895 8.42377C46.8063 8.32697 46.6789 8.26583 46.5481 8.26583C46.5278 8.26583 46.5091 8.26583 46.4887 8.27092C46.487 8.27092 46.4853 8.27092 46.4819 8.27092C46.346 8.2947 46.2187 8.38981 46.1609 8.51718C46.1609 8.51888 46.1609 8.51888 46.1609 8.51888L44.6324 12.1568L43.8919 10.1442L42.6725 6.82731C42.6657 6.80863 42.6589 6.79334 42.6504 6.77636C42.6487 6.77466 42.6487 6.77466 42.647 6.77296C42.6096 6.70333 42.5502 6.64898 42.4789 6.61501C42.4789 6.61501 42.4772 6.61501 42.4772 6.61331C42.4415 6.59803 42.4041 6.58614 42.3651 6.57935C42.3617 6.57935 42.36 6.57935 42.3566 6.57765C42.3379 6.57595 42.3175 6.57425 42.2988 6.57425H42.2971C42.292 6.57425 42.2886 6.57425 42.2852 6.57425C42.2767 6.57425 42.2683 6.57425 42.2598 6.57595C42.2547 6.57595 42.2479 6.57765 42.2428 6.57765C42.2343 6.57935 42.2275 6.57935 42.2207 6.58104C42.2156 6.58274 42.2105 6.58274 42.2054 6.58444C42.1969 6.58614 42.1884 6.58784 42.1799 6.59123C42.1765 6.59293 42.1731 6.59293 42.1698 6.59463C42.1613 6.59803 42.1528 6.59973 42.1443 6.60482C42.1443 6.60482 42.1443 6.60482 42.1426 6.60482C42.0729 6.63539 42.0169 6.68804 41.9761 6.74918C41.9744 6.75258 41.9727 6.75428 41.971 6.75767C41.9693 6.76107 41.9676 6.76447 41.9659 6.76786C41.9354 6.81882 41.9167 6.87826 41.9099 6.9377C41.9031 7.00054 41.9116 7.06678 41.9371 7.12792L43.3484 10.9204L44.2536 13.3524C44.2536 13.3524 44.2536 13.3524 44.2536 13.3541C44.291 13.4459 44.3454 13.5087 44.4201 13.5427C44.4218 13.5444 44.4252 13.5461 44.4269 13.5478C44.4286 13.5495 44.4303 13.5512 44.4337 13.5528C44.4337 13.5545 44.4354 13.5545 44.4371 13.5562C44.4405 13.5579 44.4422 13.5596 44.4456 13.563C44.4473 13.563 44.4473 13.563 44.449 13.563C44.4625 13.5715 44.4795 13.5783 44.5016 13.58C44.5033 13.58 44.505 13.5817 44.5067 13.5817C44.5135 13.5834 44.5203 13.5868 44.5271 13.5885C44.5305 13.5885 44.5339 13.5902 44.5373 13.5902C44.5797 13.6038 44.6069 13.6089 44.6409 13.6089C44.6596 13.6089 44.6765 13.6072 44.6952 13.6038C44.7088 13.6021 44.7241 13.5987 44.7377 13.5936C44.7411 13.5919 44.7445 13.5919 44.7479 13.5902C44.7615 13.5868 44.775 13.5817 44.7886 13.5749C44.7937 13.5732 44.7988 13.5715 44.8039 13.5681C44.8124 13.563 44.8226 13.5579 44.8328 13.5528C44.8396 13.5478 44.8481 13.5427 44.8566 13.5376C44.8617 13.5342 44.8668 13.5291 44.8719 13.5257C44.8837 13.5172 44.8939 13.5087 44.9058 13.4985C44.9075 13.4968 44.9092 13.4951 44.9109 13.4917C44.9228 13.4798 44.9347 13.4679 44.9466 13.4543C44.9466 13.4526 44.9483 13.4509 44.95 13.4492C44.9602 13.4357 44.9704 13.4204 44.9789 13.4051C44.9873 13.3881 44.9958 13.3694 45.0026 13.3507L45.0043 13.3456L45.0094 13.3389L45.0145 13.327L46.5481 9.66528L48.0954 13.3406C48.1072 13.3779 48.1259 13.4119 48.1514 13.4442C48.1548 13.4492 48.1582 13.4526 48.1616 13.4577C48.1701 13.4679 48.1786 13.4781 48.1888 13.4883C48.1939 13.4917 48.199 13.4968 48.2041 13.5002C48.2125 13.5087 48.2227 13.5172 48.2329 13.5257C48.238 13.5291 48.2414 13.5325 48.2465 13.5342C48.2584 13.5427 48.2703 13.5512 48.2822 13.5579C48.2856 13.5596 48.289 13.5613 48.2924 13.563C48.306 13.5698 48.3178 13.5766 48.3331 13.5817C48.3365 13.5834 48.3399 13.5851 48.345 13.5851C48.3569 13.5902 48.3688 13.5953 48.3824 13.5987C48.3994 13.6021 48.4164 13.6055 48.4316 13.6089H48.4826C48.503 13.6089 48.5217 13.6072 48.5403 13.6038C48.5454 13.6038 48.5488 13.6038 48.5539 13.6021C48.5709 13.5987 48.5862 13.5953 48.6015 13.5902C48.6066 13.5885 48.61 13.5868 48.6134 13.5851C48.6303 13.58 48.6473 13.5715 48.6626 13.563C48.6643 13.563 48.666 13.5613 48.6677 13.5613C48.6864 13.5495 48.7051 13.5376 48.7204 13.5257C48.7883 13.4747 48.8375 13.4085 48.8715 13.327V13.3253L49.8277 10.7505L51.1728 7.12792C51.2255 7.00054 51.2051 6.86127 51.132 6.75258C51.1286 6.74579 51.1236 6.73899 51.1185 6.7322Z" fill="white"/>
<path d="M72.7174 6.84564C72.7174 6.83885 72.7157 6.83035 72.714 6.82356C72.714 6.81847 72.7123 6.81337 72.7106 6.80827C72.7089 6.79978 72.7072 6.79129 72.7055 6.7845C72.7038 6.7794 72.7021 6.77431 72.7004 6.77091C72.6987 6.76072 72.6953 6.75223 72.6902 6.74374C72.6902 6.74034 72.6885 6.73864 72.6868 6.73525C72.6817 6.72336 72.6766 6.71317 72.6698 6.70298C72.6698 6.70128 72.6698 6.70128 72.6698 6.70128C72.6494 6.66561 72.6239 6.63504 72.5951 6.60787C72.5934 6.60617 72.5934 6.60617 72.5934 6.60617C72.5917 6.60447 72.5917 6.60447 72.5917 6.60447C72.4473 6.46011 72.2435 6.44143 72.0839 6.55352C72.0788 6.55692 72.0754 6.56031 72.0703 6.56201C72.0635 6.56711 72.0567 6.5722 72.0499 6.5773C72.0397 6.58749 72.0295 6.59598 72.0193 6.60617C72.0193 6.60617 72.0176 6.60617 72.0176 6.60787L68.0383 10.4869V3.99917C68.0383 3.98559 68.0383 3.972 68.0367 3.95841C68.0214 3.80895 67.9212 3.68497 67.7853 3.62723C67.7836 3.62723 67.7836 3.62553 67.7819 3.62553C67.7734 3.62213 67.7649 3.61874 67.7564 3.61704C67.753 3.61534 67.7479 3.61364 67.7428 3.61194C67.736 3.61025 67.7292 3.60855 67.7208 3.60685C67.7157 3.60515 67.7089 3.60345 67.7021 3.60175C67.6953 3.60006 67.6868 3.59836 67.68 3.59836C67.6732 3.59666 67.6681 3.59666 67.6613 3.59496C67.646 3.59326 67.6324 3.59326 67.6189 3.59326C67.3964 3.59326 67.2112 3.77838 67.2112 3.99917V13.2009C67.2112 13.4234 67.3964 13.6085 67.6189 13.6085C67.6324 13.6085 67.6477 13.6085 67.6613 13.6068C67.663 13.6068 67.6647 13.6051 67.6681 13.6051C67.68 13.6035 67.6919 13.6035 67.7021 13.6001C67.7055 13.6001 67.7089 13.5984 67.7123 13.5984C67.7225 13.595 67.7326 13.5933 67.7428 13.5899C67.7445 13.5899 67.7462 13.5882 67.7479 13.5882C67.9042 13.5389 68.0197 13.4047 68.0367 13.2434C68.0383 13.2298 68.0383 13.2162 68.0383 13.2009V11.6486L69.3784 10.3103L71.982 13.4523C71.9989 13.4795 72.0176 13.5032 72.0414 13.5219C72.0465 13.527 72.0499 13.5304 72.055 13.5338C72.0618 13.5389 72.0686 13.544 72.0754 13.5474C72.0839 13.5542 72.0924 13.5576 72.1008 13.5627C72.1042 13.5644 72.1093 13.5678 72.1127 13.5695C72.1246 13.5746 72.1348 13.578 72.1467 13.5831C72.1501 13.5848 72.1535 13.5848 72.1552 13.5865C72.1688 13.5899 72.1807 13.5933 72.1943 13.5967C72.196 13.5967 72.1994 13.5984 72.2028 13.5984C72.2163 13.6018 72.2282 13.6035 72.2435 13.6051C72.2469 13.6051 72.2503 13.6051 72.2537 13.6068C72.2707 13.6068 72.2877 13.6085 72.3064 13.6085C72.3335 13.6085 72.359 13.6068 72.3828 13.6035C72.3845 13.6035 72.3845 13.6035 72.3845 13.6035C72.432 13.5967 72.4762 13.5814 72.517 13.561C72.5186 13.561 72.5186 13.5593 72.5186 13.5593C72.5373 13.5491 72.556 13.5372 72.5747 13.5236L72.5798 13.5185C72.7343 13.364 72.7581 13.1534 72.646 12.9785C72.6358 12.9632 72.6256 12.9479 72.6138 12.9326L69.9694 9.72098L72.5951 7.18362C72.6647 7.11228 72.7072 7.02567 72.7174 6.93226C72.7174 6.93056 72.7174 6.92886 72.7191 6.92716C72.7191 6.91867 72.7191 6.90848 72.7191 6.89999C72.7191 6.89489 72.7208 6.8898 72.7208 6.8864C72.7208 6.883 72.7208 6.8813 72.7208 6.87961C72.7208 6.87281 72.7191 6.86772 72.7191 6.86092C72.7191 6.85583 72.7174 6.85073 72.7174 6.84564Z" fill="white"/>
</svg>
