<svg width="80" height="12" viewBox="0 0 80 12" fill="none" xmlns="http://www.w3.org/2000/svg">
<g clip-path="url(#clip0_242_1823)">
<path d="M34.49 7.56542H39.768L36.9801 3.06326L31.8546 11.1949H29.5238L35.7576 1.43902C35.8935 1.24434 36.074 1.08507 36.2842 0.974539C36.4943 0.86401 36.7278 0.805445 36.9652 0.803749C37.2026 0.802053 37.437 0.857276 37.6487 0.964793C37.8603 1.07231 38.0432 1.22899 38.1818 1.4217L44.4329 11.1949H42.1022L41.0043 9.37668H35.6641L34.5004 7.56542M58.7186 9.37668V0.902219H56.7377V10.2113C56.7373 10.3407 56.7632 10.4688 56.8138 10.5878C56.8644 10.7069 56.9387 10.8144 57.032 10.904C57.1258 10.9999 57.2379 11.076 57.3616 11.1277C57.4854 11.1795 57.6182 11.2059 57.7524 11.2053H66.7567L67.9307 9.38707H58.7082M25.9671 7.86326C26.8902 7.86326 27.7755 7.49656 28.4282 6.84384C29.0809 6.19111 29.4476 5.30583 29.4476 4.38274C29.4476 3.45965 29.0809 2.57436 28.4282 1.92164C27.7755 1.26892 26.8902 0.902219 25.9671 0.902219H17.3091V11.1949H19.2866V2.72386H25.8459C26.2877 2.72386 26.7114 2.89937 27.0238 3.21177C27.3362 3.52416 27.5117 3.94787 27.5117 4.38967C27.5117 4.83146 27.3362 5.25517 27.0238 5.56756C26.7114 5.87996 26.2877 6.05547 25.8459 6.05547H20.2667L26.1749 11.1949H29.0459L25.0771 7.86326H25.9671ZM5.14633 11.1949H11.1273C12.4686 11.1601 13.7433 10.6028 14.6797 9.64176C15.6161 8.68076 16.1401 7.39204 16.1401 6.05027C16.1401 4.7085 15.6161 3.41978 14.6797 2.45878C13.7433 1.49778 12.4686 0.940487 11.1273 0.905683H5.14633C4.4595 0.887861 3.77605 1.00775 3.1363 1.25828C2.49654 1.5088 1.91343 1.8849 1.42134 2.36438C0.929259 2.84386 0.538166 3.41702 0.271129 4.05007C0.00409141 4.68311 -0.133484 5.36321 -0.133484 6.05027C-0.133484 6.73733 0.00409141 7.41744 0.271129 8.05048C0.538166 8.68352 0.929259 9.25668 1.42134 9.73616C1.91343 10.2156 2.49654 10.5917 3.1363 10.8423C3.77605 11.0928 4.4595 11.2127 5.14633 11.1949ZM10.9922 9.38361H5.27793C4.41338 9.35572 3.59357 8.99268 2.99186 8.37125C2.39015 7.74982 2.05373 6.91873 2.05373 6.05373C2.05373 5.18874 2.39015 4.35765 2.99186 3.73622C3.59357 3.11479 4.41338 2.75175 5.27793 2.72386H10.9922C11.4385 2.70947 11.8832 2.78495 12.2998 2.94581C12.7163 3.10667 13.0963 3.34964 13.4171 3.66027C13.7379 3.97089 13.993 4.34285 14.1672 4.75402C14.3414 5.16519 14.4312 5.60718 14.4312 6.05373C14.4312 6.50029 14.3414 6.94228 14.1672 7.35345C13.993 7.76462 13.7379 8.13657 13.4171 8.4472C13.0963 8.75783 12.7163 9.0008 12.2998 9.16166C11.8832 9.32252 11.4385 9.398 10.9922 9.38361ZM48.5645 11.1949H54.6701L55.8268 9.38361H48.6996C48.2532 9.398 47.8086 9.32252 47.392 9.16166C46.9754 9.0008 46.5955 8.75783 46.2747 8.4472C45.9538 8.13657 45.6988 7.76462 45.5245 7.35345C45.3503 6.94228 45.2606 6.50029 45.2606 6.05373C45.2606 5.60718 45.3503 5.16519 45.5245 4.75402C45.6988 4.34285 45.9538 3.97089 46.2747 3.66027C46.5955 3.34964 46.9754 3.10667 47.392 2.94581C47.8086 2.78495 48.2532 2.70947 48.6996 2.72386H54.5004L55.671 0.905683H48.5645C47.8777 0.887861 47.1942 1.00775 46.5545 1.25828C45.9147 1.5088 45.3316 1.8849 44.8395 2.36438C44.3474 2.84386 43.9563 3.41702 43.6893 4.05007C43.4223 4.68311 43.2847 5.36321 43.2847 6.05027C43.2847 6.73733 43.4223 7.41744 43.6893 8.05048C43.9563 8.68352 44.3474 9.25668 44.8395 9.73616C45.3316 10.2156 45.9147 10.5917 46.5545 10.8423C47.1942 11.0928 47.8777 11.2127 48.5645 11.1949ZM72.7619 9.38361C72.0363 9.38388 71.3304 9.14725 70.7516 8.70969C70.1728 8.27212 69.7526 7.65755 69.555 6.95936H78.0121L79.1758 5.14464H69.555C69.7521 4.44617 70.1721 3.83127 70.7511 3.39362C71.33 2.95596 72.0361 2.71955 72.7619 2.7204H78.5662L79.7264 0.902219H72.6268C71.2855 0.937024 70.0108 1.49431 69.0744 2.45532C68.1381 3.41632 67.614 4.70504 67.614 6.04681C67.614 7.38858 68.1381 8.6773 69.0744 9.6383C70.0108 10.5993 71.2855 11.1566 72.6268 11.1914H78.7325L79.8926 9.38014H72.7584" fill="white"/>
</g>
<defs>
<clipPath id="clip0_242_1823">
<rect width="80" height="10.3896" fill="white" transform="translate(0 0.805176)"/>
</clipPath>
</defs>
</svg>
