<svg width="80" height="20" viewBox="0 0 80 20" fill="none" xmlns="http://www.w3.org/2000/svg">
<g clip-path="url(#clip0_242_1806)">
<path d="M26.9429 15.1222H25.1571V6.79395H27.4871L30.2265 11.5799V6.79395H32.0055V15.1222H30.1163L26.9429 9.45067V15.1222Z" fill="white"/>
<path d="M39.0168 6.79639H33.5696V15.1231H39.0168V13.5226H35.5007V11.4969L38.7518 11.4962V9.82805H35.5113V8.43219H39.0168V6.79639Z" fill="white"/>
<path d="M40.1445 6.79639H46.7371V8.43206H44.411V15.123H42.4844L42.4851 8.4342C42.4851 8.4342 40.4437 8.43206 40.1445 8.43206C40.1445 8.35939 40.1445 6.79639 40.1445 6.79639Z" fill="white"/>
<path d="M42.4851 8.43378C42.4851 8.43378 40.237 8.43164 40.1445 8.43164L42.4851 8.43378Z" fill="white"/>
<path d="M47.939 13.2261C48.4047 13.502 49.1549 14.2098 50.428 14.3429C51.9521 14.5022 52.593 13.6805 52.6672 12.9773C52.7772 11.9357 51.8697 11.7126 50.5259 11.4476C49.0393 11.1546 48.0845 10.8768 47.9457 9.08877C47.8414 7.74731 48.9757 6.54289 51.1813 6.63483C52.0259 6.66997 52.9187 6.92073 53.3672 7.21406L53.3614 8.51597C53.0337 8.30904 52.2256 7.67049 50.7692 7.59605C49.635 7.53812 49.0151 8.27365 49.0102 8.89456C48.9986 10.3097 50.1669 10.1508 51.3014 10.4428C52.8753 10.848 53.7317 11.2456 53.6969 12.8385C53.6646 14.3215 52.3654 15.2861 50.4162 15.2861C49.5018 15.2861 48.5252 14.9715 47.9388 14.6265V13.2261H47.939Z" fill="white"/>
<path d="M56.6976 6.79639V11.7542C56.6976 13.6133 57.4857 14.4066 58.5445 14.4066C59.7091 14.4066 60.4736 13.5886 60.4736 11.7542V6.79639H61.5087V11.6799C61.5087 14.2454 60.2266 15.2866 58.5092 15.2866C56.8859 15.2866 55.6624 14.3198 55.6624 11.7169V6.79639H56.6976Z" fill="white"/>
<path d="M65.4967 6.79639H64.5102V15.123H65.4967V6.79639Z" fill="white"/>
<path d="M67.2196 6.79639H73.574V7.77512H70.8855V15.1231H69.8951V7.77512H67.2196V6.79639Z" fill="white"/>
<path d="M79.9999 6.79639H75.1152V15.1231H79.9999V14.1628H76.0632V11.0613H79.9999V10.0852H76.0632V7.77512H79.9999V6.79639Z" fill="white"/>
<path fill-rule="evenodd" clip-rule="evenodd" d="M-0.000732422 0.0292969C4.30262 0.0292969 8.64868 0.0292969 12.9522 0.0292969C12.9522 3.69133 12.9522 7.45815 12.9522 11.1203C7.90773 4.72485 12.9522 11.1203 7.90773 4.72485C5.27153 4.72485 2.63546 4.72485 -0.000732422 4.72485C-0.000732422 3.20014 -0.000732422 0.105747 -0.000732422 0.0292969Z" fill="white"/>
<path fill-rule="evenodd" clip-rule="evenodd" d="M7.87958 8.94238C9.56122 11.0227 11.1751 13.1706 12.8384 15.2692C15.4888 15.2692 18.1392 15.2692 20.7897 15.2692C20.7897 16.8366 20.7897 18.4042 20.7897 19.9716C16.4863 19.9716 12.1829 19.9716 7.87958 19.9716C7.87958 16.295 7.87958 12.6188 7.87958 8.94238Z" fill="white"/>
<path fill-rule="evenodd" clip-rule="evenodd" d="M13.7644 4.70707C13.7644 3.45314 13.7644 2.23599 13.7644 0.981934C15.8022 0.981934 17.8398 0.981934 19.8775 0.981934C19.8775 5.47056 19.8775 9.95918 19.8775 14.4478C18.5238 14.4478 17.1701 14.4478 15.8165 14.4478C15.8165 11.2131 15.8165 7.94176 15.8165 4.70707C15.1472 4.70707 13.7786 4.70707 13.7644 4.70707Z" fill="white"/>
<path fill-rule="evenodd" clip-rule="evenodd" d="M5.02252 5.52393C5.02252 8.73003 5.02252 11.9793 5.02252 15.1854C5.66472 15.1854 6.367 15.1854 7.03175 15.1851C7.03175 16.4533 7.03175 17.7216 7.03175 18.9898C5.00829 18.9898 2.98495 18.9898 0.961487 18.9898C0.961487 14.501 0.961487 10.0125 0.961487 5.52393C2.31516 5.52393 3.66884 5.52393 5.02252 5.52393Z" fill="white"/>
</g>
<defs>
<clipPath id="clip0_242_1806">
<rect width="80" height="19.9424" fill="white" transform="translate(0 0.0288086)"/>
</clipPath>
</defs>
</svg>
