<svg width="528" height="330" viewBox="0 0 528 330" fill="none" xmlns="http://www.w3.org/2000/svg">
<path opacity="0.08" d="M0 47L528 47" stroke="white" stroke-dasharray="8 8"/>
<path opacity="0.08" d="M0 303L528 303" stroke="white" stroke-dasharray="8 8"/>
<path opacity="0.08" d="M0 239L528 239" stroke="white" stroke-dasharray="8 8"/>
<path opacity="0.08" d="M0 175L528 175" stroke="white" stroke-dasharray="8 8"/>
<path opacity="0.08" d="M0 111L528 111" stroke="white" stroke-dasharray="8 8"/>
<path opacity="0.08" d="M0 47L528 47" stroke="white" stroke-dasharray="8 8"/>
<path d="M42.9081 316.528V322.504C42.9081 323.32 42.6801 323.956 42.2241 324.412C41.7761 324.86 41.1521 325.084 40.3521 325.084C39.4881 325.084 38.8041 324.836 38.3001 324.34C37.7961 323.844 37.5441 323.136 37.5441 322.216H39.2121C39.2121 322.648 39.3001 322.98 39.4761 323.212C39.6601 323.444 39.9281 323.56 40.2801 323.56C40.6001 323.56 40.8361 323.468 40.9881 323.284C41.1401 323.092 41.2161 322.832 41.2161 322.504V316.528H42.9081ZM46.9931 318.268C47.5531 318.268 48.0331 318.4 48.4331 318.664C48.8331 318.928 49.1171 319.284 49.2851 319.732V318.352H50.9651V325H49.2851V323.608C49.1171 324.056 48.8331 324.416 48.4331 324.688C48.0331 324.952 47.5531 325.084 46.9931 325.084C46.4331 325.084 45.9291 324.948 45.4811 324.676C45.0331 324.404 44.6811 324.012 44.4251 323.5C44.1771 322.98 44.0531 322.372 44.0531 321.676C44.0531 320.98 44.1771 320.376 44.4251 319.864C44.6811 319.344 45.0331 318.948 45.4811 318.676C45.9291 318.404 46.4331 318.268 46.9931 318.268ZM47.5211 319.744C46.9931 319.744 46.5691 319.916 46.2491 320.26C45.9291 320.604 45.7691 321.076 45.7691 321.676C45.7691 322.276 45.9291 322.748 46.2491 323.092C46.5691 323.428 46.9931 323.596 47.5211 323.596C48.0331 323.596 48.4531 323.424 48.7811 323.08C49.1171 322.728 49.2851 322.26 49.2851 321.676C49.2851 321.084 49.1171 320.616 48.7811 320.272C48.4531 319.92 48.0331 319.744 47.5211 319.744ZM56.4585 318.256C57.2265 318.256 57.8385 318.508 58.2945 319.012C58.7505 319.516 58.9785 320.224 58.9785 321.136V325H57.2985V321.328C57.2985 320.8 57.1625 320.392 56.8905 320.104C56.6185 319.808 56.2465 319.66 55.7745 319.66C55.2945 319.66 54.9105 319.816 54.6225 320.128C54.3345 320.44 54.1905 320.888 54.1905 321.472V325H52.4985V318.352H54.1905V319.684C54.3665 319.236 54.6545 318.888 55.0545 318.64C55.4625 318.384 55.9305 318.256 56.4585 318.256ZM62.7565 323.668C65.4685 321.788 66.8245 320.228 66.8245 318.988C66.8245 318.612 66.7325 318.316 66.5485 318.1C66.3725 317.884 66.0925 317.776 65.7085 317.776C64.9165 317.776 64.4965 318.316 64.4485 319.396H62.8045C62.8525 318.396 63.1565 317.64 63.7165 317.128C64.2765 316.608 64.9845 316.348 65.8405 316.348C66.7125 316.348 67.3805 316.576 67.8445 317.032C68.3165 317.48 68.5525 318.08 68.5525 318.832C68.5525 319.424 68.3765 320.02 68.0245 320.62C67.6805 321.212 67.2405 321.76 66.7045 322.264C66.1685 322.76 65.6045 323.188 65.0125 323.548H68.7205V324.928H62.7565V323.668ZM69.6734 320.692C69.6734 323.564 70.7534 325 72.9134 325C74.0574 325 74.8814 324.616 75.3854 323.848C75.8894 323.08 76.1414 322.028 76.1414 320.692C76.1414 319.364 75.8894 318.316 75.3854 317.548C74.8814 316.78 74.0574 316.396 72.9134 316.396C70.7534 316.396 69.6734 317.828 69.6734 320.692ZM74.4734 320.692C74.4734 321.564 74.3654 322.236 74.1494 322.708C73.9414 323.172 73.5294 323.404 72.9134 323.404C72.2894 323.404 71.8694 323.172 71.6534 322.708C71.4454 322.236 71.3414 321.564 71.3414 320.692C71.3414 319.828 71.4454 319.164 71.6534 318.7C71.8694 318.228 72.2894 317.992 72.9134 317.992C73.5294 317.992 73.9414 318.228 74.1494 318.7C74.3654 319.164 74.4734 319.828 74.4734 320.692ZM77.1354 323.668C79.8474 321.788 81.2034 320.228 81.2034 318.988C81.2034 318.612 81.1114 318.316 80.9274 318.1C80.7514 317.884 80.4714 317.776 80.0874 317.776C79.2954 317.776 78.8754 318.316 78.8274 319.396H77.1834C77.2314 318.396 77.5354 317.64 78.0954 317.128C78.6554 316.608 79.3634 316.348 80.2194 316.348C81.0914 316.348 81.7594 316.576 82.2234 317.032C82.6954 317.48 82.9314 318.08 82.9314 318.832C82.9314 319.424 82.7554 320.02 82.4034 320.62C82.0594 321.212 81.6194 321.76 81.0834 322.264C80.5474 322.76 79.9834 323.188 79.3914 323.548H83.0994V324.928H77.1354V323.668ZM87.1003 316.204C87.6763 316.204 88.1683 316.304 88.5763 316.504C88.9923 316.704 89.3043 316.98 89.5123 317.332C89.7283 317.684 89.8363 318.076 89.8363 318.508C89.8363 319.052 89.6883 319.5 89.3923 319.852C89.0963 320.196 88.7043 320.408 88.2163 320.488V320.548C89.4003 320.9 89.9923 321.596 89.9923 322.636C89.9923 323.364 89.7483 323.956 89.2603 324.412C88.7723 324.86 88.0843 325.084 87.1963 325.084C86.2523 325.084 85.5003 324.852 84.9403 324.388C84.3803 323.916 84.0683 323.208 84.0043 322.264H85.6603C85.7003 322.696 85.8403 323.04 86.0803 323.296C86.3283 323.544 86.6763 323.668 87.1243 323.668C87.5083 323.668 87.8083 323.564 88.0243 323.356C88.2403 323.14 88.3483 322.86 88.3483 322.516C88.3483 322.108 88.1923 321.796 87.8803 321.58C87.5683 321.364 87.1083 321.256 86.5003 321.256H86.1523V319.876H86.5003C87.6203 319.892 88.1803 319.504 88.1803 318.712C88.1803 318.368 88.0803 318.1 87.8803 317.908C87.6803 317.708 87.4083 317.608 87.0643 317.608C86.7043 317.608 86.4083 317.724 86.1763 317.956C85.9443 318.18 85.8123 318.496 85.7803 318.904H84.1243C84.1723 318.04 84.4523 317.376 84.9643 316.912C85.4763 316.44 86.1883 316.204 87.1003 316.204Z" fill="#C0C0C7"/>
<path d="M177.057 316.528V317.872H173.493V320.14H176.349V321.436H173.493V325H171.801V316.528H177.057ZM184.452 321.424C184.452 321.592 184.432 321.784 184.392 322H179.52C179.544 322.592 179.704 323.028 180 323.308C180.296 323.588 180.664 323.728 181.104 323.728C181.496 323.728 181.82 323.632 182.076 323.44C182.34 323.248 182.508 322.988 182.58 322.66H184.368C184.28 323.124 184.092 323.54 183.804 323.908C183.516 324.276 183.144 324.564 182.688 324.772C182.24 324.98 181.74 325.084 181.188 325.084C180.54 325.084 179.964 324.948 179.46 324.676C178.956 324.396 178.564 324 178.284 323.488C178.004 322.976 177.864 322.372 177.864 321.676C177.864 320.98 178.004 320.376 178.284 319.864C178.564 319.344 178.956 318.948 179.46 318.676C179.964 318.404 180.54 318.268 181.188 318.268C181.844 318.268 182.416 318.404 182.904 318.676C183.4 318.948 183.78 319.324 184.044 319.804C184.316 320.276 184.452 320.816 184.452 321.424ZM182.748 321.256C182.772 320.712 182.628 320.3 182.316 320.02C182.012 319.74 181.636 319.6 181.188 319.6C180.732 319.6 180.348 319.74 180.036 320.02C179.724 320.3 179.552 320.712 179.52 321.256H182.748ZM189.625 318.268C190.185 318.268 190.689 318.404 191.137 318.676C191.585 318.948 191.933 319.344 192.181 319.864C192.437 320.376 192.565 320.98 192.565 321.676C192.565 322.372 192.437 322.98 192.181 323.5C191.933 324.012 191.585 324.404 191.137 324.676C190.689 324.948 190.185 325.084 189.625 325.084C189.065 325.084 188.585 324.952 188.185 324.688C187.793 324.416 187.513 324.056 187.345 323.608V325H185.653V316.12H187.345V319.732C187.513 319.284 187.793 318.928 188.185 318.664C188.585 318.4 189.065 318.268 189.625 318.268ZM189.097 319.744C188.585 319.744 188.161 319.92 187.825 320.272C187.497 320.616 187.333 321.084 187.333 321.676C187.333 322.26 187.497 322.728 187.825 323.08C188.161 323.424 188.585 323.596 189.097 323.596C189.625 323.596 190.049 323.428 190.369 323.092C190.689 322.748 190.849 322.276 190.849 321.676C190.849 321.076 190.689 320.604 190.369 320.26C190.049 319.916 189.625 319.744 189.097 319.744ZM196.051 323.668C198.763 321.788 200.119 320.228 200.119 318.988C200.119 318.612 200.027 318.316 199.843 318.1C199.667 317.884 199.387 317.776 199.003 317.776C198.211 317.776 197.791 318.316 197.743 319.396H196.099C196.147 318.396 196.451 317.64 197.011 317.128C197.571 316.608 198.279 316.348 199.135 316.348C200.007 316.348 200.675 316.576 201.139 317.032C201.611 317.48 201.847 318.08 201.847 318.832C201.847 319.424 201.671 320.02 201.319 320.62C200.975 321.212 200.535 321.76 199.999 322.264C199.463 322.76 198.899 323.188 198.307 323.548H202.015V324.928H196.051V323.668ZM202.968 320.692C202.968 323.564 204.048 325 206.208 325C207.352 325 208.176 324.616 208.68 323.848C209.184 323.08 209.436 322.028 209.436 320.692C209.436 319.364 209.184 318.316 208.68 317.548C208.176 316.78 207.352 316.396 206.208 316.396C204.048 316.396 202.968 317.828 202.968 320.692ZM207.768 320.692C207.768 321.564 207.66 322.236 207.444 322.708C207.236 323.172 206.824 323.404 206.208 323.404C205.584 323.404 205.164 323.172 204.948 322.708C204.74 322.236 204.636 321.564 204.636 320.692C204.636 319.828 204.74 319.164 204.948 318.7C205.164 318.228 205.584 317.992 206.208 317.992C206.824 317.992 207.236 318.228 207.444 318.7C207.66 319.164 207.768 319.828 207.768 320.692ZM210.43 323.668C213.142 321.788 214.498 320.228 214.498 318.988C214.498 318.612 214.406 318.316 214.222 318.1C214.046 317.884 213.766 317.776 213.382 317.776C212.59 317.776 212.17 318.316 212.122 319.396H210.478C210.526 318.396 210.83 317.64 211.39 317.128C211.95 316.608 212.658 316.348 213.514 316.348C214.386 316.348 215.054 316.576 215.518 317.032C215.99 317.48 216.226 318.08 216.226 318.832C216.226 319.424 216.05 320.02 215.698 320.62C215.354 321.212 214.914 321.76 214.378 322.264C213.842 322.76 213.278 323.188 212.686 323.548H216.394V324.928H210.43V323.668ZM220.395 316.204C220.971 316.204 221.463 316.304 221.871 316.504C222.287 316.704 222.599 316.98 222.807 317.332C223.023 317.684 223.131 318.076 223.131 318.508C223.131 319.052 222.983 319.5 222.687 319.852C222.391 320.196 221.999 320.408 221.511 320.488V320.548C222.695 320.9 223.287 321.596 223.287 322.636C223.287 323.364 223.043 323.956 222.555 324.412C222.067 324.86 221.379 325.084 220.491 325.084C219.547 325.084 218.795 324.852 218.235 324.388C217.675 323.916 217.363 323.208 217.299 322.264H218.955C218.995 322.696 219.135 323.04 219.375 323.296C219.623 323.544 219.971 323.668 220.419 323.668C220.803 323.668 221.103 323.564 221.319 323.356C221.535 323.14 221.643 322.86 221.643 322.516C221.643 322.108 221.487 321.796 221.175 321.58C220.863 321.364 220.403 321.256 219.795 321.256H219.447V319.876H219.795C220.915 319.892 221.475 319.504 221.475 318.712C221.475 318.368 221.375 318.1 221.175 317.908C220.975 317.708 220.703 317.608 220.359 317.608C219.999 317.608 219.703 317.724 219.471 317.956C219.239 318.18 219.107 318.496 219.075 318.904H217.419C217.467 318.04 217.747 317.376 218.259 316.912C218.771 316.44 219.483 316.204 220.395 316.204Z" fill="#C0C0C7"/>
<path d="M314.037 316.624V325H312.357V319.156L310.209 325H308.745L306.597 319.18V325H304.905V316.624H306.957L309.501 322.924L311.997 316.624H314.037ZM318.173 318.268C318.733 318.268 319.213 318.4 319.613 318.664C320.013 318.928 320.297 319.284 320.465 319.732V318.352H322.145V325H320.465V323.608C320.297 324.056 320.013 324.416 319.613 324.688C319.213 324.952 318.733 325.084 318.173 325.084C317.613 325.084 317.109 324.948 316.661 324.676C316.213 324.404 315.861 324.012 315.605 323.5C315.357 322.98 315.233 322.372 315.233 321.676C315.233 320.98 315.357 320.376 315.605 319.864C315.861 319.344 316.213 318.948 316.661 318.676C317.109 318.404 317.613 318.268 318.173 318.268ZM318.701 319.744C318.173 319.744 317.749 319.916 317.429 320.26C317.109 320.604 316.949 321.076 316.949 321.676C316.949 322.276 317.109 322.748 317.429 323.092C317.749 323.428 318.173 323.596 318.701 323.596C319.213 323.596 319.633 323.424 319.961 323.08C320.297 322.728 320.465 322.26 320.465 321.676C320.465 321.084 320.297 320.616 319.961 320.272C319.633 319.92 319.213 319.744 318.701 319.744ZM325.37 319.624C325.618 319.2 325.946 318.868 326.354 318.628C326.762 318.38 327.218 318.256 327.722 318.256V320.068H327.23C325.99 320.068 325.37 320.644 325.37 321.796V325H323.678V318.352H325.37V319.624ZM330.948 323.668C333.66 321.788 335.016 320.228 335.016 318.988C335.016 318.612 334.924 318.316 334.74 318.1C334.564 317.884 334.284 317.776 333.9 317.776C333.108 317.776 332.688 318.316 332.64 319.396H330.996C331.044 318.396 331.348 317.64 331.908 317.128C332.468 316.608 333.176 316.348 334.032 316.348C334.904 316.348 335.572 316.576 336.036 317.032C336.508 317.48 336.744 318.08 336.744 318.832C336.744 319.424 336.568 320.02 336.216 320.62C335.872 321.212 335.432 321.76 334.896 322.264C334.36 322.76 333.796 323.188 333.204 323.548H336.912V324.928H330.948V323.668ZM337.865 320.692C337.865 323.564 338.945 325 341.105 325C342.249 325 343.073 324.616 343.577 323.848C344.081 323.08 344.333 322.028 344.333 320.692C344.333 319.364 344.081 318.316 343.577 317.548C343.073 316.78 342.249 316.396 341.105 316.396C338.945 316.396 337.865 317.828 337.865 320.692ZM342.665 320.692C342.665 321.564 342.557 322.236 342.341 322.708C342.133 323.172 341.721 323.404 341.105 323.404C340.481 323.404 340.061 323.172 339.845 322.708C339.637 322.236 339.533 321.564 339.533 320.692C339.533 319.828 339.637 319.164 339.845 318.7C340.061 318.228 340.481 317.992 341.105 317.992C341.721 317.992 342.133 318.228 342.341 318.7C342.557 319.164 342.665 319.828 342.665 320.692ZM345.327 323.668C348.039 321.788 349.395 320.228 349.395 318.988C349.395 318.612 349.303 318.316 349.119 318.1C348.943 317.884 348.663 317.776 348.279 317.776C347.487 317.776 347.067 318.316 347.019 319.396H345.375C345.423 318.396 345.727 317.64 346.287 317.128C346.847 316.608 347.555 316.348 348.411 316.348C349.283 316.348 349.951 316.576 350.415 317.032C350.887 317.48 351.123 318.08 351.123 318.832C351.123 319.424 350.947 320.02 350.595 320.62C350.251 321.212 349.811 321.76 349.275 322.264C348.739 322.76 348.175 323.188 347.583 323.548H351.291V324.928H345.327V323.668ZM355.292 316.204C355.868 316.204 356.36 316.304 356.768 316.504C357.184 316.704 357.496 316.98 357.704 317.332C357.92 317.684 358.028 318.076 358.028 318.508C358.028 319.052 357.88 319.5 357.584 319.852C357.288 320.196 356.896 320.408 356.408 320.488V320.548C357.592 320.9 358.184 321.596 358.184 322.636C358.184 323.364 357.94 323.956 357.452 324.412C356.964 324.86 356.276 325.084 355.388 325.084C354.444 325.084 353.692 324.852 353.132 324.388C352.572 323.916 352.26 323.208 352.196 322.264H353.852C353.892 322.696 354.032 323.04 354.272 323.296C354.52 323.544 354.868 323.668 355.316 323.668C355.7 323.668 356 323.564 356.216 323.356C356.432 323.14 356.54 322.86 356.54 322.516C356.54 322.108 356.384 321.796 356.072 321.58C355.76 321.364 355.3 321.256 354.692 321.256H354.344V319.876H354.692C355.812 319.892 356.372 319.504 356.372 318.712C356.372 318.368 356.272 318.1 356.072 317.908C355.872 317.708 355.6 317.608 355.256 317.608C354.896 317.608 354.6 317.724 354.368 317.956C354.136 318.18 354.004 318.496 353.972 318.904H352.316C352.364 318.04 352.644 317.376 353.156 316.912C353.668 316.44 354.38 316.204 355.292 316.204Z" fill="#C0C0C7"/>
<path d="M445.172 323.296H441.776L441.176 325H439.388L442.508 316.624H444.44L447.548 325H445.76L445.172 323.296ZM444.716 322.012L443.468 318.436L442.22 322.012H444.716ZM452.433 318.268C452.993 318.268 453.497 318.404 453.945 318.676C454.393 318.948 454.741 319.344 454.989 319.864C455.245 320.376 455.373 320.98 455.373 321.676C455.373 322.372 455.245 322.98 454.989 323.5C454.741 324.012 454.393 324.404 453.945 324.676C453.497 324.948 452.993 325.084 452.433 325.084C451.873 325.084 451.393 324.952 450.993 324.688C450.601 324.416 450.321 324.056 450.153 323.608V328.168H448.461V318.352H450.153V319.732C450.321 319.284 450.601 318.928 450.993 318.664C451.393 318.4 451.873 318.268 452.433 318.268ZM451.905 319.744C451.393 319.744 450.969 319.92 450.633 320.272C450.305 320.616 450.141 321.084 450.141 321.676C450.141 322.26 450.305 322.728 450.633 323.08C450.969 323.424 451.393 323.596 451.905 323.596C452.433 323.596 452.857 323.428 453.177 323.092C453.497 322.748 453.657 322.276 453.657 321.676C453.657 321.076 453.497 320.604 453.177 320.26C452.857 319.916 452.433 319.744 451.905 319.744ZM458.263 319.624C458.511 319.2 458.839 318.868 459.247 318.628C459.655 318.38 460.111 318.256 460.615 318.256V320.068H460.123C458.883 320.068 458.263 320.644 458.263 321.796V325H456.571V318.352H458.263V319.624ZM463.84 323.668C466.552 321.788 467.908 320.228 467.908 318.988C467.908 318.612 467.816 318.316 467.632 318.1C467.456 317.884 467.176 317.776 466.792 317.776C466 317.776 465.58 318.316 465.532 319.396H463.888C463.936 318.396 464.24 317.64 464.8 317.128C465.36 316.608 466.068 316.348 466.924 316.348C467.796 316.348 468.464 316.576 468.928 317.032C469.4 317.48 469.636 318.08 469.636 318.832C469.636 319.424 469.46 320.02 469.108 320.62C468.764 321.212 468.324 321.76 467.788 322.264C467.252 322.76 466.688 323.188 466.096 323.548H469.804V324.928H463.84V323.668ZM470.757 320.692C470.757 323.564 471.837 325 473.997 325C475.141 325 475.965 324.616 476.469 323.848C476.973 323.08 477.225 322.028 477.225 320.692C477.225 319.364 476.973 318.316 476.469 317.548C475.965 316.78 475.141 316.396 473.997 316.396C471.837 316.396 470.757 317.828 470.757 320.692ZM475.557 320.692C475.557 321.564 475.449 322.236 475.233 322.708C475.025 323.172 474.613 323.404 473.997 323.404C473.373 323.404 472.953 323.172 472.737 322.708C472.529 322.236 472.425 321.564 472.425 320.692C472.425 319.828 472.529 319.164 472.737 318.7C472.953 318.228 473.373 317.992 473.997 317.992C474.613 317.992 475.025 318.228 475.233 318.7C475.449 319.164 475.557 319.828 475.557 320.692ZM478.219 323.668C480.931 321.788 482.287 320.228 482.287 318.988C482.287 318.612 482.195 318.316 482.011 318.1C481.835 317.884 481.555 317.776 481.171 317.776C480.379 317.776 479.959 318.316 479.911 319.396H478.267C478.315 318.396 478.619 317.64 479.179 317.128C479.739 316.608 480.447 316.348 481.303 316.348C482.175 316.348 482.843 316.576 483.307 317.032C483.779 317.48 484.015 318.08 484.015 318.832C484.015 319.424 483.839 320.02 483.487 320.62C483.143 321.212 482.703 321.76 482.167 322.264C481.631 322.76 481.067 323.188 480.475 323.548H484.183V324.928H478.219V323.668ZM488.184 316.204C488.76 316.204 489.252 316.304 489.66 316.504C490.076 316.704 490.388 316.98 490.596 317.332C490.812 317.684 490.92 318.076 490.92 318.508C490.92 319.052 490.772 319.5 490.476 319.852C490.18 320.196 489.788 320.408 489.3 320.488V320.548C490.484 320.9 491.076 321.596 491.076 322.636C491.076 323.364 490.832 323.956 490.344 324.412C489.856 324.86 489.168 325.084 488.28 325.084C487.336 325.084 486.584 324.852 486.024 324.388C485.464 323.916 485.152 323.208 485.088 322.264H486.744C486.784 322.696 486.924 323.04 487.164 323.296C487.412 323.544 487.76 323.668 488.208 323.668C488.592 323.668 488.892 323.564 489.108 323.356C489.324 323.14 489.432 322.86 489.432 322.516C489.432 322.108 489.276 321.796 488.964 321.58C488.652 321.364 488.192 321.256 487.584 321.256H487.236V319.876H487.584C488.704 319.892 489.264 319.504 489.264 318.712C489.264 318.368 489.164 318.1 488.964 317.908C488.764 317.708 488.492 317.608 488.148 317.608C487.788 317.608 487.492 317.724 487.26 317.956C487.028 318.18 486.896 318.496 486.864 318.904H485.208C485.256 318.04 485.536 317.376 486.048 316.912C486.56 316.44 487.272 316.204 488.184 316.204Z" fill="#C0C0C7"/>
<rect x="436" y="26" width="60" height="278" rx="4" fill="url(#paint0_linear_98_277)"/>
<rect x="302" y="66" width="60" height="238" rx="4" fill="url(#paint1_linear_98_277)"/>
<rect x="168" y="40" width="60" height="264" rx="4" fill="url(#paint2_linear_98_277)"/>
<rect x="34" y="47" width="60" height="257" rx="4" fill="url(#paint3_linear_98_277)"/>
<path d="M451.371 5.812V4.528H454.083V13H452.643V5.812H451.371ZM461.307 4.264C461.867 4.264 462.347 4.364 462.747 4.564C463.147 4.756 463.447 5.024 463.647 5.368C463.855 5.712 463.959 6.096 463.959 6.52C463.959 7.056 463.807 7.504 463.503 7.864C463.207 8.216 462.787 8.428 462.243 8.5V8.56C462.827 8.728 463.283 8.98 463.611 9.316C463.947 9.644 464.115 10.1 464.115 10.684C464.115 11.396 463.879 11.976 463.407 12.424C462.935 12.864 462.259 13.084 461.379 13.084C460.475 13.084 459.747 12.856 459.195 12.4C458.643 11.936 458.327 11.252 458.247 10.348H459.603C459.651 10.828 459.823 11.212 460.119 11.5C460.415 11.78 460.815 11.92 461.319 11.92C461.791 11.92 462.151 11.796 462.399 11.548C462.655 11.3 462.783 10.98 462.783 10.588C462.783 10.116 462.599 9.756 462.231 9.508C461.871 9.26 461.347 9.136 460.659 9.136H460.335V8.008H460.659C461.963 8.024 462.615 7.58 462.615 6.676C462.615 6.284 462.495 5.976 462.255 5.752C462.015 5.528 461.687 5.416 461.271 5.416C460.855 5.416 460.507 5.544 460.227 5.8C459.947 6.048 459.779 6.412 459.723 6.892H458.379C458.435 6.06 458.715 5.416 459.219 4.96C459.723 4.496 460.419 4.264 461.307 4.264ZM465.456 8.704C465.456 10.056 465.696 11.116 466.176 11.884C466.656 12.644 467.456 13.024 468.576 13.024C469.696 13.024 470.496 12.64 470.976 11.872C471.456 11.104 471.696 10.048 471.696 8.704C471.696 7.368 471.456 6.32 470.976 5.56C470.496 4.792 469.696 4.408 468.576 4.408C467.456 4.408 466.656 4.788 466.176 5.548C465.696 6.308 465.456 7.36 465.456 8.704ZM470.328 8.704C470.328 9.68 470.208 10.428 469.968 10.948C469.728 11.468 469.264 11.728 468.576 11.728C467.88 11.728 467.412 11.468 467.172 10.948C466.932 10.428 466.812 9.68 466.812 8.704C466.812 7.736 466.932 6.996 467.172 6.484C467.412 5.972 467.88 5.716 468.576 5.716C469.264 5.716 469.728 5.976 469.968 6.496C470.208 7.008 470.328 7.744 470.328 8.704ZM472.933 8.704C472.933 10.056 473.173 11.116 473.653 11.884C474.133 12.644 474.933 13.024 476.053 13.024C477.173 13.024 477.973 12.64 478.453 11.872C478.933 11.104 479.173 10.048 479.173 8.704C479.173 7.368 478.933 6.32 478.453 5.56C477.973 4.792 477.173 4.408 476.053 4.408C474.933 4.408 474.133 4.788 473.653 5.548C473.173 6.308 472.933 7.36 472.933 8.704ZM477.805 8.704C477.805 9.68 477.685 10.428 477.445 10.948C477.205 11.468 476.741 11.728 476.053 11.728C475.357 11.728 474.889 11.468 474.649 10.948C474.409 10.428 474.289 9.68 474.289 8.704C474.289 7.736 474.409 6.996 474.649 6.484C474.889 5.972 475.357 5.716 476.053 5.716C476.741 5.716 477.205 5.976 477.445 6.496C477.685 7.008 477.805 7.744 477.805 8.704Z" fill="white"/>
<path d="M322.509 50.552C322.573 51.008 322.729 51.36 322.977 51.608C323.233 51.856 323.577 51.98 324.009 51.98C324.617 51.98 325.069 51.74 325.365 51.26C325.669 50.772 325.821 50.008 325.821 48.968L325.809 48.56C325.681 48.992 325.413 49.34 325.005 49.604C324.605 49.86 324.137 49.988 323.601 49.988C322.769 49.988 322.117 49.74 321.645 49.244C321.173 48.74 320.937 48.04 320.937 47.144C320.937 46.6 321.045 46.112 321.261 45.68C321.477 45.248 321.801 44.908 322.233 44.66C322.665 44.404 323.197 44.276 323.829 44.276C325.053 44.276 325.893 44.652 326.349 45.404C326.813 46.148 327.045 47.18 327.045 48.5C327.045 49.996 326.809 51.136 326.337 51.92C325.873 52.704 325.097 53.096 324.009 53.096C323.169 53.096 322.509 52.86 322.029 52.388C321.557 51.908 321.285 51.296 321.213 50.552H322.509ZM325.677 47.288C325.677 46.768 325.525 46.336 325.221 45.992C324.925 45.64 324.477 45.464 323.877 45.464C323.381 45.464 322.981 45.612 322.677 45.908C322.381 46.204 322.233 46.62 322.233 47.156C322.233 47.724 322.381 48.16 322.677 48.464C322.981 48.768 323.393 48.92 323.913 48.92C324.217 48.92 324.501 48.86 324.765 48.74C325.037 48.612 325.257 48.428 325.425 48.188C325.593 47.94 325.677 47.64 325.677 47.288ZM328.286 48.704C328.286 50.056 328.526 51.116 329.006 51.884C329.486 52.644 330.286 53.024 331.406 53.024C332.526 53.024 333.326 52.64 333.806 51.872C334.286 51.104 334.526 50.048 334.526 48.704C334.526 47.368 334.286 46.32 333.806 45.56C333.326 44.792 332.526 44.408 331.406 44.408C330.286 44.408 329.486 44.788 329.006 45.548C328.526 46.308 328.286 47.36 328.286 48.704ZM333.158 48.704C333.158 49.68 333.038 50.428 332.798 50.948C332.558 51.468 332.094 51.728 331.406 51.728C330.71 51.728 330.242 51.468 330.002 50.948C329.762 50.428 329.642 49.68 329.642 48.704C329.642 47.736 329.762 46.996 330.002 46.484C330.242 45.972 330.71 45.716 331.406 45.716C332.094 45.716 332.558 45.976 332.798 46.496C333.038 47.008 333.158 47.744 333.158 48.704ZM335.763 48.704C335.763 50.056 336.003 51.116 336.483 51.884C336.963 52.644 337.763 53.024 338.883 53.024C340.003 53.024 340.803 52.64 341.283 51.872C341.763 51.104 342.003 50.048 342.003 48.704C342.003 47.368 341.763 46.32 341.283 45.56C340.803 44.792 340.003 44.408 338.883 44.408C337.763 44.408 336.963 44.788 336.483 45.548C336.003 46.308 335.763 47.36 335.763 48.704ZM340.635 48.704C340.635 49.68 340.515 50.428 340.275 50.948C340.035 51.468 339.571 51.728 338.883 51.728C338.187 51.728 337.719 51.468 337.479 50.948C337.239 50.428 337.119 49.68 337.119 48.704C337.119 47.736 337.239 46.996 337.479 46.484C337.719 45.972 338.187 45.716 338.883 45.716C339.571 45.716 340.035 45.976 340.275 46.496C340.515 47.008 340.635 47.744 340.635 48.704Z" fill="white"/>
<path d="M184.594 19.812V18.528H187.306V27H185.866V19.812H184.594ZM191.086 19.812V18.528H193.798V27H192.358V19.812H191.086ZM195.233 22.704C195.233 24.056 195.473 25.116 195.953 25.884C196.433 26.644 197.233 27.024 198.353 27.024C199.473 27.024 200.273 26.64 200.753 25.872C201.233 25.104 201.473 24.048 201.473 22.704C201.473 21.368 201.233 20.32 200.753 19.56C200.273 18.792 199.473 18.408 198.353 18.408C197.233 18.408 196.433 18.788 195.953 19.548C195.473 20.308 195.233 21.36 195.233 22.704ZM200.105 22.704C200.105 23.68 199.985 24.428 199.745 24.948C199.505 25.468 199.041 25.728 198.353 25.728C197.657 25.728 197.189 25.468 196.949 24.948C196.709 24.428 196.589 23.68 196.589 22.704C196.589 21.736 196.709 20.996 196.949 20.484C197.189 19.972 197.657 19.716 198.353 19.716C199.041 19.716 199.505 19.976 199.745 20.496C199.985 21.008 200.105 21.744 200.105 22.704ZM202.71 22.704C202.71 24.056 202.95 25.116 203.43 25.884C203.91 26.644 204.71 27.024 205.83 27.024C206.95 27.024 207.75 26.64 208.23 25.872C208.71 25.104 208.95 24.048 208.95 22.704C208.95 21.368 208.71 20.32 208.23 19.56C207.75 18.792 206.95 18.408 205.83 18.408C204.71 18.408 203.91 18.788 203.43 19.548C202.95 20.308 202.71 21.36 202.71 22.704ZM207.582 22.704C207.582 23.68 207.462 24.428 207.222 24.948C206.982 25.468 206.518 25.728 205.83 25.728C205.134 25.728 204.666 25.468 204.426 24.948C204.186 24.428 204.066 23.68 204.066 22.704C204.066 21.736 204.186 20.996 204.426 20.484C204.666 19.972 205.134 19.716 205.83 19.716C206.518 19.716 206.982 19.976 207.222 20.496C207.462 21.008 207.582 21.744 207.582 22.704Z" fill="white"/>
<path d="M50.1951 26.812V25.528H52.9071V34H51.4671V26.812H50.1951ZM57.1553 29.704C57.1553 31.056 57.3953 32.116 57.8753 32.884C58.3553 33.644 59.1553 34.024 60.2753 34.024C61.3953 34.024 62.1953 33.64 62.6753 32.872C63.1553 32.104 63.3953 31.048 63.3953 29.704C63.3953 28.368 63.1553 27.32 62.6753 26.56C62.1953 25.792 61.3953 25.408 60.2753 25.408C59.1553 25.408 58.3553 25.788 57.8753 26.548C57.3953 27.308 57.1553 28.36 57.1553 29.704ZM62.0273 29.704C62.0273 30.68 61.9073 31.428 61.6673 31.948C61.4273 32.468 60.9633 32.728 60.2753 32.728C59.5793 32.728 59.1113 32.468 58.8713 31.948C58.6313 31.428 58.5113 30.68 58.5113 29.704C58.5113 28.736 58.6313 27.996 58.8713 27.484C59.1113 26.972 59.5793 26.716 60.2753 26.716C60.9633 26.716 61.4273 26.976 61.6673 27.496C61.9073 28.008 62.0273 28.744 62.0273 29.704ZM64.6318 29.704C64.6318 31.056 64.8718 32.116 65.3518 32.884C65.8318 33.644 66.6318 34.024 67.7518 34.024C68.8718 34.024 69.6718 33.64 70.1518 32.872C70.6318 32.104 70.8718 31.048 70.8718 29.704C70.8718 28.368 70.6318 27.32 70.1518 26.56C69.6718 25.792 68.8718 25.408 67.7518 25.408C66.6318 25.408 65.8318 25.788 65.3518 26.548C64.8718 27.308 64.6318 28.36 64.6318 29.704ZM69.5038 29.704C69.5038 30.68 69.3838 31.428 69.1438 31.948C68.9038 32.468 68.4398 32.728 67.7518 32.728C67.0558 32.728 66.5878 32.468 66.3478 31.948C66.1078 31.428 65.9878 30.68 65.9878 29.704C65.9878 28.736 66.1078 27.996 66.3478 27.484C66.5878 26.972 67.0558 26.716 67.7518 26.716C68.4398 26.716 68.9038 26.976 69.1438 27.496C69.3838 28.008 69.5038 28.744 69.5038 29.704ZM72.1084 29.704C72.1084 31.056 72.3484 32.116 72.8284 32.884C73.3084 33.644 74.1084 34.024 75.2284 34.024C76.3484 34.024 77.1484 33.64 77.6284 32.872C78.1084 32.104 78.3484 31.048 78.3484 29.704C78.3484 28.368 78.1084 27.32 77.6284 26.56C77.1484 25.792 76.3484 25.408 75.2284 25.408C74.1084 25.408 73.3084 25.788 72.8284 26.548C72.3484 27.308 72.1084 28.36 72.1084 29.704ZM76.9804 29.704C76.9804 30.68 76.8604 31.428 76.6204 31.948C76.3804 32.468 75.9164 32.728 75.2284 32.728C74.5324 32.728 74.0644 32.468 73.8244 31.948C73.5844 31.428 73.4644 30.68 73.4644 29.704C73.4644 28.736 73.5844 27.996 73.8244 27.484C74.0644 26.972 74.5324 26.716 75.2284 26.716C75.9164 26.716 76.3804 26.976 76.6204 27.496C76.8604 28.008 76.9804 28.744 76.9804 29.704Z" fill="white"/>
<path d="M187.63 155.932C188.926 155.044 189.962 154.176 190.738 153.328C191.522 152.472 191.914 151.68 191.914 150.952C191.914 150.52 191.806 150.176 191.59 149.92C191.382 149.664 191.042 149.536 190.57 149.536C190.082 149.536 189.714 149.696 189.466 150.016C189.218 150.328 189.078 150.776 189.046 151.36H187.714C187.77 150.392 188.066 149.652 188.602 149.14C189.146 148.628 189.838 148.372 190.678 148.372C191.502 148.372 192.146 148.592 192.61 149.032C193.082 149.464 193.318 150.064 193.318 150.832C193.318 151.448 193.126 152.072 192.742 152.704C192.366 153.336 191.886 153.92 191.302 154.456C190.718 154.984 190.114 155.44 189.49 155.824H193.51V156.94H187.63V155.932ZM194.583 152.704C194.583 154.056 194.823 155.116 195.303 155.884C195.783 156.644 196.583 157.024 197.703 157.024C198.823 157.024 199.623 156.64 200.103 155.872C200.583 155.104 200.823 154.048 200.823 152.704C200.823 151.368 200.583 150.32 200.103 149.56C199.623 148.792 198.823 148.408 197.703 148.408C196.583 148.408 195.783 148.788 195.303 149.548C194.823 150.308 194.583 151.36 194.583 152.704ZM199.455 152.704C199.455 153.68 199.335 154.428 199.095 154.948C198.855 155.468 198.391 155.728 197.703 155.728C197.007 155.728 196.539 155.468 196.299 154.948C196.059 154.428 195.939 153.68 195.939 152.704C195.939 151.736 196.059 150.996 196.299 150.484C196.539 149.972 197.007 149.716 197.703 149.716C198.391 149.716 198.855 149.976 199.095 150.496C199.335 151.008 199.455 151.744 199.455 152.704ZM203.632 148.408C204.168 148.408 204.604 148.576 204.94 148.912C205.276 149.24 205.444 149.688 205.444 150.256C205.444 150.824 205.276 151.272 204.94 151.6C204.604 151.928 204.168 152.092 203.632 152.092C203.096 152.092 202.656 151.928 202.312 151.6C201.976 151.272 201.808 150.824 201.808 150.256C201.808 149.688 201.976 149.24 202.312 148.912C202.656 148.576 203.096 148.408 203.632 148.408ZM208.708 148.516L203.92 157H202.576L207.376 148.516H208.708ZM202.744 150.256C202.744 150.56 202.824 150.804 202.984 150.988C203.144 151.164 203.356 151.252 203.62 151.252C203.884 151.252 204.096 151.16 204.256 150.976C204.424 150.792 204.508 150.552 204.508 150.256C204.508 149.952 204.424 149.708 204.256 149.524C204.096 149.34 203.884 149.248 203.62 149.248C203.356 149.248 203.144 149.34 202.984 149.524C202.824 149.708 202.744 149.952 202.744 150.256ZM207.664 153.424C208.2 153.424 208.636 153.588 208.972 153.916C209.316 154.244 209.488 154.692 209.488 155.26C209.488 155.828 209.316 156.28 208.972 156.616C208.636 156.944 208.2 157.108 207.664 157.108C207.136 157.108 206.7 156.944 206.356 156.616C206.02 156.28 205.852 155.828 205.852 155.26C205.852 154.7 206.02 154.256 206.356 153.928C206.7 153.592 207.136 153.424 207.664 153.424ZM206.788 155.26C206.788 155.564 206.868 155.808 207.028 155.992C207.188 156.176 207.4 156.268 207.664 156.268C207.928 156.268 208.14 156.176 208.3 155.992C208.468 155.808 208.552 155.564 208.552 155.26C208.552 154.964 208.468 154.724 208.3 154.54C208.14 154.356 207.928 154.264 207.664 154.264C207.4 154.264 207.188 154.356 207.028 154.54C206.868 154.724 206.788 154.964 206.788 155.26Z" fill="white"/>
<path d="M320.63 189.932C321.926 189.044 322.962 188.176 323.738 187.328C324.522 186.472 324.914 185.68 324.914 184.952C324.914 184.52 324.806 184.176 324.59 183.92C324.382 183.664 324.042 183.536 323.57 183.536C323.082 183.536 322.714 183.696 322.466 184.016C322.218 184.328 322.078 184.776 322.046 185.36H320.714C320.77 184.392 321.066 183.652 321.602 183.14C322.146 182.628 322.838 182.372 323.678 182.372C324.502 182.372 325.146 182.592 325.61 183.032C326.082 183.464 326.318 184.064 326.318 184.832C326.318 185.448 326.126 186.072 325.742 186.704C325.366 187.336 324.886 187.92 324.302 188.456C323.718 188.984 323.114 189.44 322.49 189.824H326.51V190.94H320.63V189.932ZM327.583 186.704C327.583 188.056 327.823 189.116 328.303 189.884C328.783 190.644 329.583 191.024 330.703 191.024C331.823 191.024 332.623 190.64 333.103 189.872C333.583 189.104 333.823 188.048 333.823 186.704C333.823 185.368 333.583 184.32 333.103 183.56C332.623 182.792 331.823 182.408 330.703 182.408C329.583 182.408 328.783 182.788 328.303 183.548C327.823 184.308 327.583 185.36 327.583 186.704ZM332.455 186.704C332.455 187.68 332.335 188.428 332.095 188.948C331.855 189.468 331.391 189.728 330.703 189.728C330.007 189.728 329.539 189.468 329.299 188.948C329.059 188.428 328.939 187.68 328.939 186.704C328.939 185.736 329.059 184.996 329.299 184.484C329.539 183.972 330.007 183.716 330.703 183.716C331.391 183.716 331.855 183.976 332.095 184.496C332.335 185.008 332.455 185.744 332.455 186.704ZM336.632 182.408C337.168 182.408 337.604 182.576 337.94 182.912C338.276 183.24 338.444 183.688 338.444 184.256C338.444 184.824 338.276 185.272 337.94 185.6C337.604 185.928 337.168 186.092 336.632 186.092C336.096 186.092 335.656 185.928 335.312 185.6C334.976 185.272 334.808 184.824 334.808 184.256C334.808 183.688 334.976 183.24 335.312 182.912C335.656 182.576 336.096 182.408 336.632 182.408ZM341.708 182.516L336.92 191H335.576L340.376 182.516H341.708ZM335.744 184.256C335.744 184.56 335.824 184.804 335.984 184.988C336.144 185.164 336.356 185.252 336.62 185.252C336.884 185.252 337.096 185.16 337.256 184.976C337.424 184.792 337.508 184.552 337.508 184.256C337.508 183.952 337.424 183.708 337.256 183.524C337.096 183.34 336.884 183.248 336.62 183.248C336.356 183.248 336.144 183.34 335.984 183.524C335.824 183.708 335.744 183.952 335.744 184.256ZM340.664 187.424C341.2 187.424 341.636 187.588 341.972 187.916C342.316 188.244 342.488 188.692 342.488 189.26C342.488 189.828 342.316 190.28 341.972 190.616C341.636 190.944 341.2 191.108 340.664 191.108C340.136 191.108 339.7 190.944 339.356 190.616C339.02 190.28 338.852 189.828 338.852 189.26C338.852 188.7 339.02 188.256 339.356 187.928C339.7 187.592 340.136 187.424 340.664 187.424ZM339.788 189.26C339.788 189.564 339.868 189.808 340.028 189.992C340.188 190.176 340.4 190.268 340.664 190.268C340.928 190.268 341.14 190.176 341.3 189.992C341.468 189.808 341.552 189.564 341.552 189.26C341.552 188.964 341.468 188.724 341.3 188.54C341.14 188.356 340.928 188.264 340.664 188.264C340.4 188.264 340.188 188.356 340.028 188.54C339.868 188.724 339.788 188.964 339.788 189.26Z" fill="white"/>
<path d="M464.541 205.608H460.353V208.128C460.545 207.88 460.817 207.684 461.169 207.54C461.521 207.388 461.909 207.312 462.333 207.312C462.925 207.312 463.417 207.44 463.809 207.696C464.201 207.944 464.489 208.276 464.673 208.692C464.865 209.108 464.961 209.568 464.961 210.072C464.961 210.96 464.713 211.68 464.217 212.232C463.721 212.776 463.001 213.048 462.057 213.048C461.169 213.048 460.453 212.812 459.909 212.34C459.365 211.868 459.069 211.24 459.021 210.456H460.365C460.437 210.888 460.613 211.228 460.893 211.476C461.181 211.724 461.545 211.848 461.985 211.848C462.529 211.848 462.937 211.684 463.209 211.356C463.481 211.028 463.617 210.592 463.617 210.048C463.617 209.536 463.477 209.136 463.197 208.848C462.917 208.552 462.517 208.404 461.997 208.404C461.629 208.404 461.305 208.484 461.025 208.644C460.753 208.804 460.553 209.016 460.425 209.28H459.093V204.396H464.541V205.608ZM467.733 204.408C468.269 204.408 468.705 204.576 469.041 204.912C469.377 205.24 469.545 205.688 469.545 206.256C469.545 206.824 469.377 207.272 469.041 207.6C468.705 207.928 468.269 208.092 467.733 208.092C467.197 208.092 466.757 207.928 466.413 207.6C466.077 207.272 465.909 206.824 465.909 206.256C465.909 205.688 466.077 205.24 466.413 204.912C466.757 204.576 467.197 204.408 467.733 204.408ZM472.809 204.516L468.021 213H466.677L471.477 204.516H472.809ZM466.845 206.256C466.845 206.56 466.925 206.804 467.085 206.988C467.245 207.164 467.457 207.252 467.721 207.252C467.985 207.252 468.197 207.16 468.357 206.976C468.525 206.792 468.609 206.552 468.609 206.256C468.609 205.952 468.525 205.708 468.357 205.524C468.197 205.34 467.985 205.248 467.721 205.248C467.457 205.248 467.245 205.34 467.085 205.524C466.925 205.708 466.845 205.952 466.845 206.256ZM471.765 209.424C472.301 209.424 472.737 209.588 473.073 209.916C473.417 210.244 473.589 210.692 473.589 211.26C473.589 211.828 473.417 212.28 473.073 212.616C472.737 212.944 472.301 213.108 471.765 213.108C471.237 213.108 470.801 212.944 470.457 212.616C470.121 212.28 469.953 211.828 469.953 211.26C469.953 210.7 470.121 210.256 470.457 209.928C470.801 209.592 471.237 209.424 471.765 209.424ZM470.889 211.26C470.889 211.564 470.969 211.808 471.129 211.992C471.289 212.176 471.501 212.268 471.765 212.268C472.029 212.268 472.241 212.176 472.401 211.992C472.569 211.808 472.653 211.564 472.653 211.26C472.653 210.964 472.569 210.724 472.401 210.54C472.241 210.356 472.029 210.264 471.765 210.264C471.501 210.264 471.289 210.356 471.129 210.54C470.969 210.724 470.889 210.964 470.889 211.26Z" fill="white"/>
<path d="M54.3708 193.812V192.528H57.0828V201H55.6428V193.812H54.3708ZM58.5185 196.704C58.5185 198.056 58.7585 199.116 59.2385 199.884C59.7185 200.644 60.5185 201.024 61.6385 201.024C62.7585 201.024 63.5585 200.64 64.0385 199.872C64.5185 199.104 64.7585 198.048 64.7585 196.704C64.7585 195.368 64.5185 194.32 64.0385 193.56C63.5585 192.792 62.7585 192.408 61.6385 192.408C60.5185 192.408 59.7185 192.788 59.2385 193.548C58.7585 194.308 58.5185 195.36 58.5185 196.704ZM63.3905 196.704C63.3905 197.68 63.2705 198.428 63.0305 198.948C62.7905 199.468 62.3265 199.728 61.6385 199.728C60.9425 199.728 60.4745 199.468 60.2345 198.948C59.9945 198.428 59.8745 197.68 59.8745 196.704C59.8745 195.736 59.9945 194.996 60.2345 194.484C60.4745 193.972 60.9425 193.716 61.6385 193.716C62.3265 193.716 62.7905 193.976 63.0305 194.496C63.2705 195.008 63.3905 195.744 63.3905 196.704ZM67.5671 192.408C68.1031 192.408 68.5391 192.576 68.8751 192.912C69.2111 193.24 69.3791 193.688 69.3791 194.256C69.3791 194.824 69.2111 195.272 68.8751 195.6C68.5391 195.928 68.1031 196.092 67.5671 196.092C67.0311 196.092 66.5911 195.928 66.2471 195.6C65.9111 195.272 65.7431 194.824 65.7431 194.256C65.7431 193.688 65.9111 193.24 66.2471 192.912C66.5911 192.576 67.0311 192.408 67.5671 192.408ZM72.6431 192.516L67.8551 201H66.5111L71.3111 192.516H72.6431ZM66.6791 194.256C66.6791 194.56 66.7591 194.804 66.9191 194.988C67.0791 195.164 67.2911 195.252 67.5551 195.252C67.8191 195.252 68.0311 195.16 68.1911 194.976C68.3591 194.792 68.4431 194.552 68.4431 194.256C68.4431 193.952 68.3591 193.708 68.1911 193.524C68.0311 193.34 67.8191 193.248 67.5551 193.248C67.2911 193.248 67.0791 193.34 66.9191 193.524C66.7591 193.708 66.6791 193.952 66.6791 194.256ZM71.5991 197.424C72.1351 197.424 72.5711 197.588 72.9071 197.916C73.2511 198.244 73.4231 198.692 73.4231 199.26C73.4231 199.828 73.2511 200.28 72.9071 200.616C72.5711 200.944 72.1351 201.108 71.5991 201.108C71.0711 201.108 70.6351 200.944 70.2911 200.616C69.9551 200.28 69.7871 199.828 69.7871 199.26C69.7871 198.7 69.9551 198.256 70.2911 197.928C70.6351 197.592 71.0711 197.424 71.5991 197.424ZM70.7231 199.26C70.7231 199.564 70.8031 199.808 70.9631 199.992C71.1231 200.176 71.3351 200.268 71.5991 200.268C71.8631 200.268 72.0751 200.176 72.2351 199.992C72.4031 199.808 72.4871 199.564 72.4871 199.26C72.4871 198.964 72.4031 198.724 72.2351 198.54C72.0751 198.356 71.8631 198.264 71.5991 198.264C71.3351 198.264 71.1231 198.356 70.9631 198.54C70.8031 198.724 70.7231 198.964 70.7231 199.26Z" fill="white"/>
<path d="M468 225.5L332.5 204.5L213.457 174.068C204.338 171.737 194.746 172.027 185.784 174.905L62.5 214.5" stroke="#63B866" stroke-width="2"/>
<path d="M465.5 254.5L339.948 234.127C335.339 233.379 330.648 233.281 326.011 233.834L203.237 248.494C200.417 248.831 197.574 248.927 194.739 248.781L63 242" stroke="#EDA13D" stroke-width="2"/>
<defs>
<linearGradient id="paint0_linear_98_277" x1="466" y1="26" x2="466" y2="304" gradientUnits="userSpaceOnUse">
<stop stop-color="#59A5FE"/>
<stop offset="1" stop-color="#59A5FE" stop-opacity="0"/>
</linearGradient>
<linearGradient id="paint1_linear_98_277" x1="332" y1="66" x2="332" y2="304" gradientUnits="userSpaceOnUse">
<stop stop-color="#59A5FE"/>
<stop offset="1" stop-color="#59A5FE" stop-opacity="0"/>
</linearGradient>
<linearGradient id="paint2_linear_98_277" x1="198" y1="40" x2="198" y2="304" gradientUnits="userSpaceOnUse">
<stop stop-color="#59A5FE"/>
<stop offset="1" stop-color="#59A5FE" stop-opacity="0"/>
</linearGradient>
<linearGradient id="paint3_linear_98_277" x1="64" y1="47" x2="64" y2="304" gradientUnits="userSpaceOnUse">
<stop stop-color="#59A5FE"/>
<stop offset="1" stop-color="#59A5FE" stop-opacity="0"/>
</linearGradient>
</defs>
</svg>
