<svg width="577" height="327" viewBox="0 0 577 327" fill="none" xmlns="http://www.w3.org/2000/svg">
<path opacity="0.08" d="M0 1L576 1" stroke="white" stroke-dasharray="8 8"/>
<path opacity="0.08" d="M0 131L576 131" stroke="white" stroke-dasharray="8 8"/>
<path opacity="0.08" d="M0 66L576 66" stroke="white" stroke-dasharray="8 8"/>
<path opacity="0.08" d="M0 196L576 196" stroke="white" stroke-dasharray="8 8"/>
<path opacity="0.08" d="M0 261L576 261" stroke="white" stroke-dasharray="8 8"/>
<path opacity="0.08" d="M0 326L576 326" stroke="white" stroke-dasharray="8 8"/>
<path opacity="0.2" d="M398 160L398 326" stroke="url(#paint0_linear_88_33)" stroke-width="2"/>
<path d="M552.978 128.807L576 125V326H32L81.5455 256.716L102.565 243.773L129.089 233.875H146.105L186.642 221.693L207.661 218.648L231.183 204.943L251.702 201.898L296.242 189.716H315.26L377.817 168.398L401.339 156.977H442.376L464.397 148.602H483.414L497.927 142.511L533.46 137.182L552.978 128.807Z" fill="url(#paint1_linear_88_33)"/>
<path d="M576 125L558.191 127.827C554.094 128.478 550.095 129.635 546.284 131.274L538.472 134.632C534.534 136.325 530.394 137.504 526.155 138.141L503.021 141.617C499.071 142.211 495.21 143.295 491.527 144.843V144.843C485.626 147.324 479.288 148.602 472.886 148.602H472.661C466.673 148.602 460.735 149.695 455.139 151.827L450.223 153.7C444.538 155.867 438.505 156.977 432.42 156.977H412.177C404.599 156.977 397.12 158.7 390.306 162.014L377.183 168.398L322.595 187.034C317.394 188.81 311.936 189.716 306.44 189.716H302.484C298.02 189.716 293.576 190.314 289.271 191.493L251.298 201.898L240.348 203.526C234.052 204.462 227.993 206.592 222.496 209.8L215.738 213.745C210.19 216.983 204.071 219.122 197.715 220.045L190.033 221.16C187.587 221.515 185.169 222.051 182.802 222.764L152.946 231.752C148.271 233.16 143.415 233.875 138.532 233.875H137.951C131.973 233.875 126.043 234.947 120.443 237.041L107.016 242.06C103.97 243.199 101.041 244.633 98.273 246.34L90.0389 251.42C84.3731 254.915 79.4623 259.507 75.5946 264.925L32 326" stroke="#59A5FE" stroke-width="2"/>
<path d="M565.5 187H576V326H32L79 283.464L96 272.071L119.5 260.678H141L187.5 243.208H201.5L242 225.738H292L364 212.066L391.5 209.5L400.5 205.23H437.5L469 196.874H500.5L514 192.317H546L565.5 187Z" fill="url(#paint2_linear_88_33)"/>
<path d="M576 187H572.194C567.751 187 563.328 187.592 559.041 188.761L552.459 190.556C548.172 191.725 543.749 192.317 539.306 192.317H521.124C516.406 192.317 511.72 193.087 507.25 194.596V194.596C502.78 196.105 498.094 196.874 493.376 196.874H475.518C471.191 196.874 466.882 197.436 462.699 198.545L443.801 203.558C439.618 204.668 435.309 205.23 430.982 205.23H406.081C402.406 205.23 398.778 206.047 395.458 207.622V207.622C392.84 208.864 390.024 209.638 387.138 209.907L364 212.066L296.623 224.86C293.548 225.444 290.425 225.738 287.295 225.738H252.324C245.513 225.738 238.774 227.129 232.52 229.827L208.339 240.258C203.827 242.204 198.966 243.208 194.052 243.208V243.208C189.72 243.208 185.422 243.988 181.366 245.512L149.502 257.483C143.88 259.596 137.923 260.678 131.917 260.678H130.982C123.426 260.678 115.968 262.39 109.169 265.687L96 272.071L82.0193 281.441C80.0091 282.788 78.0993 284.28 76.3051 285.903L32 326" stroke="#63B866" stroke-width="2"/>
<circle cx="398" cy="207" r="12" fill="white"/>
<circle cx="398" cy="207" r="6" fill="#63B866"/>
<circle cx="398" cy="160" r="12" fill="white"/>
<circle cx="398" cy="160" r="6" fill="#59A5FE"/>
<rect x="339" y="38" width="117" height="94" rx="4" fill="white"/>
<path d="M363.244 67H361.192L357.76 61.792V67H355.708V58.516H357.76L361.192 63.772V58.516H363.244V67ZM367.793 60.22C368.457 60.22 369.049 60.36 369.569 60.64C370.097 60.912 370.509 61.308 370.805 61.828C371.109 62.348 371.261 62.956 371.261 63.652C371.261 64.348 371.109 64.956 370.805 65.476C370.509 65.996 370.097 66.396 369.569 66.676C369.049 66.948 368.457 67.084 367.793 67.084C367.129 67.084 366.533 66.948 366.005 66.676C365.477 66.396 365.061 65.996 364.757 65.476C364.461 64.956 364.313 64.348 364.313 63.652C364.313 62.956 364.461 62.348 364.757 61.828C365.061 61.308 365.477 60.912 366.005 60.64C366.533 60.36 367.129 60.22 367.793 60.22ZM367.793 61.996C367.401 61.996 367.069 62.14 366.797 62.428C366.533 62.708 366.401 63.116 366.401 63.652C366.401 64.188 366.533 64.596 366.797 64.876C367.069 65.156 367.401 65.296 367.793 65.296C368.185 65.296 368.513 65.156 368.777 64.876C369.041 64.596 369.173 64.188 369.173 63.652C369.173 63.116 369.041 62.708 368.777 62.428C368.513 62.14 368.185 61.996 367.793 61.996ZM375.421 64.996L376.873 60.304H379.057L376.681 67H374.137L371.761 60.304H373.945L375.421 64.996ZM381.734 60.436V58.516H385.166V67H383.006V60.436H381.734ZM390.679 60.856C390.623 60.512 390.511 60.252 390.343 60.076C390.183 59.9 389.951 59.812 389.647 59.812C389.183 59.812 388.851 60.028 388.651 60.46C388.459 60.884 388.371 61.54 388.387 62.428C388.523 62.1 388.755 61.844 389.083 61.66C389.419 61.468 389.807 61.372 390.247 61.372C391.047 61.372 391.679 61.616 392.143 62.104C392.607 62.584 392.839 63.276 392.839 64.18C392.839 64.748 392.723 65.252 392.491 65.692C392.259 66.132 391.915 66.476 391.459 66.724C391.011 66.964 390.471 67.084 389.839 67.084C388.599 67.084 387.743 66.7 387.271 65.932C386.799 65.164 386.563 64.1 386.563 62.74C386.563 61.172 386.815 60.02 387.319 59.284C387.823 58.54 388.643 58.168 389.779 58.168C390.675 58.168 391.355 58.424 391.819 58.936C392.283 59.44 392.543 60.08 392.599 60.856H390.679ZM388.543 64.084C388.543 64.452 388.647 64.752 388.855 64.984C389.063 65.208 389.367 65.32 389.767 65.32C390.127 65.32 390.407 65.22 390.607 65.02C390.815 64.82 390.919 64.528 390.919 64.144C390.919 63.76 390.815 63.468 390.607 63.268C390.399 63.06 390.115 62.956 389.755 62.956C389.411 62.956 389.123 63.056 388.891 63.256C388.659 63.448 388.543 63.724 388.543 64.084ZM395.442 65.728C395.682 66.192 395.802 66.696 395.802 67.24C395.802 67.792 395.654 68.248 395.358 68.608C395.07 68.968 394.618 69.148 394.002 69.148V68.392C394.218 68.392 394.374 68.344 394.47 68.248C394.574 68.152 394.626 67.968 394.626 67.696V67.576H393.75V65.728H395.442ZM399.072 65.368C401.616 63.552 402.888 62.108 402.888 61.036C402.888 60.38 402.604 60.052 402.036 60.052C401.716 60.052 401.48 60.164 401.328 60.388C401.184 60.612 401.104 60.96 401.088 61.432H399.084C399.132 60.4 399.444 59.624 400.02 59.104C400.596 58.584 401.324 58.324 402.204 58.324C403.124 58.324 403.816 58.556 404.28 59.02C404.752 59.484 404.988 60.088 404.988 60.832C404.988 61.656 404.672 62.464 404.04 63.256C403.408 64.04 402.652 64.704 401.772 65.248H405.12V66.904H399.072V65.368ZM405.965 62.668C405.965 63.996 406.233 65.048 406.769 65.824C407.305 66.6 408.161 66.988 409.337 66.988C410.505 66.988 411.357 66.6 411.893 65.824C412.437 65.048 412.709 63.996 412.709 62.668C412.709 61.348 412.437 60.304 411.893 59.536C411.357 58.76 410.505 58.372 409.337 58.372C408.161 58.372 407.305 58.76 406.769 59.536C406.233 60.304 405.965 61.348 405.965 62.668ZM410.669 62.668C410.669 63.428 410.577 64.016 410.393 64.432C410.217 64.84 409.865 65.044 409.337 65.044C408.801 65.044 408.441 64.84 408.257 64.432C408.073 64.016 407.981 63.428 407.981 62.668C407.981 61.916 408.073 61.336 408.257 60.928C408.441 60.52 408.801 60.316 409.337 60.316C409.865 60.316 410.217 60.52 410.393 60.928C410.577 61.328 410.669 61.908 410.669 62.668ZM413.316 60.436V58.516H416.748V67H414.588V60.436H413.316ZM423.365 59.956L420.329 67H418.205L421.277 60.196H417.677V58.432H423.365V59.956Z" fill="#22338A"/>
<path d="M360.244 84.632C360.756 84.736 361.168 84.98 361.48 85.364C361.8 85.748 361.96 86.196 361.96 86.708C361.96 87.412 361.724 87.972 361.252 88.388C360.78 88.796 360.096 89 359.2 89H355.828V80.528H359.14C359.988 80.528 360.636 80.72 361.084 81.104C361.54 81.48 361.768 82 361.768 82.664C361.768 83.2 361.628 83.636 361.348 83.972C361.068 84.3 360.7 84.52 360.244 84.632ZM357.196 84.176H358.888C359.368 84.176 359.732 84.064 359.98 83.84C360.236 83.616 360.364 83.304 360.364 82.904C360.364 82.512 360.236 82.204 359.98 81.98C359.732 81.756 359.352 81.644 358.84 81.644H357.196V84.176ZM358.924 87.872C359.444 87.872 359.844 87.756 360.124 87.524C360.412 87.284 360.556 86.952 360.556 86.528C360.556 86.104 360.412 85.772 360.124 85.532C359.836 85.292 359.432 85.172 358.912 85.172H357.196V87.872H358.924ZM364.026 82.388L366.006 87.248L367.842 82.388H369.366L365.37 92.144H363.846L365.274 88.844L362.49 82.388H364.026ZM376.858 80.444C377.898 80.444 378.762 80.708 379.45 81.236C380.138 81.764 380.602 82.48 380.842 83.384H379.39C379.19 82.872 378.87 82.468 378.43 82.172C377.998 81.868 377.466 81.716 376.834 81.716C376.33 81.716 375.878 81.84 375.478 82.088C375.086 82.336 374.774 82.692 374.542 83.156C374.318 83.612 374.206 84.148 374.206 84.764C374.206 85.372 374.318 85.908 374.542 86.372C374.774 86.828 375.086 87.18 375.478 87.428C375.878 87.676 376.33 87.8 376.834 87.8C377.466 87.8 377.998 87.652 378.43 87.356C378.87 87.052 379.19 86.648 379.39 86.144H380.842C380.602 87.048 380.138 87.764 379.45 88.292C378.762 88.812 377.898 89.072 376.858 89.072C376.058 89.072 375.35 88.892 374.734 88.532C374.118 88.164 373.642 87.656 373.306 87.008C372.97 86.352 372.802 85.604 372.802 84.764C372.802 83.924 372.97 83.18 373.306 82.532C373.642 81.876 374.118 81.364 374.734 80.996C375.35 80.628 376.058 80.444 376.858 80.444ZM385.231 82.304C385.871 82.304 386.447 82.44 386.959 82.712C387.471 82.984 387.871 83.376 388.159 83.888C388.447 84.4 388.591 85 388.591 85.688C388.591 86.384 388.447 86.988 388.159 87.5C387.871 88.012 387.471 88.404 386.959 88.676C386.447 88.948 385.871 89.084 385.231 89.084C384.591 89.084 384.015 88.948 383.503 88.676C382.999 88.404 382.599 88.012 382.303 87.5C382.015 86.98 381.871 86.376 381.871 85.688C381.871 85 382.015 84.4 382.303 83.888C382.599 83.376 382.999 82.984 383.503 82.712C384.015 82.44 384.591 82.304 385.231 82.304ZM385.231 83.492C384.879 83.492 384.555 83.572 384.259 83.732C383.963 83.892 383.723 84.14 383.539 84.476C383.363 84.804 383.275 85.208 383.275 85.688C383.275 86.176 383.363 86.584 383.539 86.912C383.723 87.24 383.963 87.484 384.259 87.644C384.555 87.804 384.879 87.884 385.231 87.884C385.583 87.884 385.907 87.804 386.203 87.644C386.499 87.484 386.735 87.24 386.911 86.912C387.095 86.584 387.187 86.176 387.187 85.688C387.187 85.208 387.095 84.804 386.911 84.476C386.735 84.14 386.499 83.892 386.203 83.732C385.907 83.572 385.583 83.492 385.231 83.492ZM396.002 82.388V89H394.622V87.56C394.454 88.048 394.162 88.428 393.746 88.7C393.33 88.964 392.846 89.096 392.294 89.096C391.526 89.096 390.91 88.848 390.446 88.352C389.982 87.856 389.75 87.148 389.75 86.228V82.388H391.118V86.084C391.118 86.684 391.27 87.148 391.574 87.476C391.878 87.796 392.294 87.956 392.822 87.956C393.366 87.956 393.802 87.78 394.13 87.428C394.458 87.076 394.622 86.564 394.622 85.892V82.388H396.002ZM401.337 82.28C402.105 82.28 402.721 82.528 403.185 83.024C403.649 83.52 403.881 84.228 403.881 85.148V89H402.513V85.292C402.513 84.7 402.361 84.244 402.057 83.924C401.753 83.596 401.337 83.432 400.809 83.432C400.265 83.432 399.829 83.608 399.501 83.96C399.173 84.304 399.009 84.812 399.009 85.484V89H397.641V82.388H399.009V83.84C399.185 83.344 399.481 82.96 399.896 82.688C400.313 82.416 400.793 82.28 401.337 82.28ZM408.804 87.812V89H407.964C407.26 89 406.724 88.832 406.356 88.496C405.996 88.152 405.816 87.584 405.816 86.792V83.552H404.868V82.388H405.816V80.744H407.196V82.388H408.792V83.552H407.196V86.816C407.196 87.192 407.264 87.452 407.4 87.596C407.544 87.74 407.792 87.812 408.144 87.812H408.804ZM411.358 82.4V83.912H409.81V82.4H411.358ZM411.358 87.488V89H409.81V87.488H411.358ZM414.816 81.812V80.528H417.528V89H416.088V81.812H414.816ZM420.248 87.488V89H418.7V87.488H420.248ZM421.105 87.932C422.401 87.044 423.437 86.176 424.213 85.328C424.997 84.472 425.389 83.68 425.389 82.952C425.389 82.52 425.281 82.176 425.065 81.92C424.857 81.664 424.517 81.536 424.045 81.536C423.557 81.536 423.189 81.696 422.941 82.016C422.693 82.328 422.553 82.776 422.521 83.36H421.189C421.245 82.392 421.541 81.652 422.077 81.14C422.621 80.628 423.313 80.372 424.153 80.372C424.977 80.372 425.621 80.592 426.085 81.032C426.557 81.464 426.793 82.064 426.793 82.832C426.793 83.448 426.601 84.072 426.217 84.704C425.841 85.336 425.361 85.92 424.777 86.456C424.193 86.984 423.589 87.44 422.965 87.824H426.985V88.94H421.105V87.932ZM427.59 81.812V80.528H430.302V89H428.862V81.812H427.59ZM433.309 80.408C433.845 80.408 434.281 80.576 434.617 80.912C434.953 81.24 435.121 81.688 435.121 82.256C435.121 82.824 434.953 83.272 434.617 83.6C434.281 83.928 433.845 84.092 433.309 84.092C432.773 84.092 432.333 83.928 431.989 83.6C431.653 83.272 431.485 82.824 431.485 82.256C431.485 81.688 431.653 81.24 431.989 80.912C432.333 80.576 432.773 80.408 433.309 80.408ZM438.385 80.516L433.597 89H432.253L437.053 80.516H438.385ZM432.421 82.256C432.421 82.56 432.501 82.804 432.661 82.988C432.821 83.164 433.033 83.252 433.297 83.252C433.561 83.252 433.773 83.16 433.933 82.976C434.101 82.792 434.185 82.552 434.185 82.256C434.185 81.952 434.101 81.708 433.933 81.524C433.773 81.34 433.561 81.248 433.297 81.248C433.033 81.248 432.821 81.34 432.661 81.524C432.501 81.708 432.421 81.952 432.421 82.256ZM437.341 85.424C437.877 85.424 438.313 85.588 438.649 85.916C438.993 86.244 439.165 86.692 439.165 87.26C439.165 87.828 438.993 88.28 438.649 88.616C438.313 88.944 437.877 89.108 437.341 89.108C436.813 89.108 436.377 88.944 436.033 88.616C435.697 88.28 435.529 87.828 435.529 87.26C435.529 86.7 435.697 86.256 436.033 85.928C436.377 85.592 436.813 85.424 437.341 85.424ZM436.465 87.26C436.465 87.564 436.545 87.808 436.705 87.992C436.865 88.176 437.077 88.268 437.341 88.268C437.605 88.268 437.817 88.176 437.977 87.992C438.145 87.808 438.229 87.564 438.229 87.26C438.229 86.964 438.145 86.724 437.977 86.54C437.817 86.356 437.605 86.264 437.341 86.264C437.077 86.264 436.865 86.356 436.705 86.54C436.545 86.724 436.465 86.964 436.465 87.26Z" fill="#737373"/>
<path d="M360.244 106.632C360.756 106.736 361.168 106.98 361.48 107.364C361.8 107.748 361.96 108.196 361.96 108.708C361.96 109.412 361.724 109.972 361.252 110.388C360.78 110.796 360.096 111 359.2 111H355.828V102.528H359.14C359.988 102.528 360.636 102.72 361.084 103.104C361.54 103.48 361.768 104 361.768 104.664C361.768 105.2 361.628 105.636 361.348 105.972C361.068 106.3 360.7 106.52 360.244 106.632ZM357.196 106.176H358.888C359.368 106.176 359.732 106.064 359.98 105.84C360.236 105.616 360.364 105.304 360.364 104.904C360.364 104.512 360.236 104.204 359.98 103.98C359.732 103.756 359.352 103.644 358.84 103.644H357.196V106.176ZM358.924 109.872C359.444 109.872 359.844 109.756 360.124 109.524C360.412 109.284 360.556 108.952 360.556 108.528C360.556 108.104 360.412 107.772 360.124 107.532C359.836 107.292 359.432 107.172 358.912 107.172H357.196V109.872H358.924ZM364.026 104.388L366.006 109.248L367.842 104.388H369.366L365.37 114.144H363.846L365.274 110.844L362.49 104.388H364.026ZM376.246 106.224C376.814 106.4 377.27 106.568 377.614 106.728C377.966 106.888 378.262 107.132 378.502 107.46C378.75 107.78 378.874 108.208 378.874 108.744C378.874 109.16 378.766 109.548 378.55 109.908C378.342 110.26 378.026 110.544 377.602 110.76C377.178 110.976 376.658 111.084 376.042 111.084H376.018V112.044H375.61V111.06C374.818 110.996 374.17 110.748 373.666 110.316C373.162 109.876 372.882 109.32 372.826 108.648H374.29C374.322 108.96 374.45 109.244 374.674 109.5C374.906 109.756 375.218 109.916 375.61 109.98V107.256C374.954 107.056 374.454 106.884 374.11 106.74C373.766 106.588 373.462 106.348 373.198 106.02C372.934 105.692 372.802 105.252 372.802 104.7C372.802 104.252 372.918 103.856 373.15 103.512C373.39 103.168 373.722 102.9 374.146 102.708C374.57 102.516 375.058 102.42 375.61 102.42V101.4H376.018V102.432C376.802 102.488 377.426 102.72 377.89 103.128C378.354 103.536 378.622 104.052 378.694 104.676H377.218C377.17 104.388 377.042 104.14 376.834 103.932C376.634 103.716 376.362 103.576 376.018 103.512V106.152L376.246 106.224ZM374.266 104.652C374.266 105.004 374.382 105.284 374.614 105.492C374.846 105.692 375.178 105.868 375.61 106.02V103.476C375.194 103.484 374.866 103.592 374.626 103.8C374.386 104 374.266 104.284 374.266 104.652ZM376.018 110.016C376.458 110.016 376.798 109.9 377.038 109.668C377.286 109.436 377.41 109.14 377.41 108.78C377.41 108.412 377.29 108.128 377.05 107.928C376.81 107.72 376.466 107.54 376.018 107.388V110.016ZM381.51 104.4V105.912H379.962V104.4H381.51ZM381.51 109.488V111H379.962V109.488H381.51ZM384.969 103.812V102.528H387.681V111H386.241V103.812H384.969ZM390.4 109.488V111H388.852V109.488H390.4ZM391.197 109.176V108.024L395.409 102.456H396.873V107.976H398.061V109.176H396.873V111H395.493V109.176H391.197ZM395.589 104.088L392.613 107.976H395.589V104.088ZM398.875 109.932C400.171 109.044 401.207 108.176 401.983 107.328C402.767 106.472 403.159 105.68 403.159 104.952C403.159 104.52 403.051 104.176 402.835 103.92C402.627 103.664 402.287 103.536 401.815 103.536C401.327 103.536 400.959 103.696 400.711 104.016C400.463 104.328 400.323 104.776 400.291 105.36H398.959C399.015 104.392 399.311 103.652 399.847 103.14C400.391 102.628 401.083 102.372 401.923 102.372C402.747 102.372 403.391 102.592 403.855 103.032C404.327 103.464 404.563 104.064 404.563 104.832C404.563 105.448 404.371 106.072 403.987 106.704C403.611 107.336 403.131 107.92 402.547 108.456C401.963 108.984 401.359 109.44 400.735 109.824H404.755V110.94H398.875V109.932ZM407.399 102.408C407.935 102.408 408.371 102.576 408.707 102.912C409.043 103.24 409.211 103.688 409.211 104.256C409.211 104.824 409.043 105.272 408.707 105.6C408.371 105.928 407.935 106.092 407.399 106.092C406.863 106.092 406.423 105.928 406.079 105.6C405.743 105.272 405.575 104.824 405.575 104.256C405.575 103.688 405.743 103.24 406.079 102.912C406.423 102.576 406.863 102.408 407.399 102.408ZM412.475 102.516L407.687 111H406.343L411.143 102.516H412.475ZM406.511 104.256C406.511 104.56 406.591 104.804 406.751 104.988C406.911 105.164 407.123 105.252 407.387 105.252C407.651 105.252 407.863 105.16 408.023 104.976C408.191 104.792 408.275 104.552 408.275 104.256C408.275 103.952 408.191 103.708 408.023 103.524C407.863 103.34 407.651 103.248 407.387 103.248C407.123 103.248 406.911 103.34 406.751 103.524C406.591 103.708 406.511 103.952 406.511 104.256ZM411.431 107.424C411.967 107.424 412.403 107.588 412.739 107.916C413.083 108.244 413.255 108.692 413.255 109.26C413.255 109.828 413.083 110.28 412.739 110.616C412.403 110.944 411.967 111.108 411.431 111.108C410.903 111.108 410.467 110.944 410.123 110.616C409.787 110.28 409.619 109.828 409.619 109.26C409.619 108.7 409.787 108.256 410.123 107.928C410.467 107.592 410.903 107.424 411.431 107.424ZM410.555 109.26C410.555 109.564 410.635 109.808 410.795 109.992C410.955 110.176 411.167 110.268 411.431 110.268C411.695 110.268 411.907 110.176 412.067 109.992C412.235 109.808 412.319 109.564 412.319 109.26C412.319 108.964 412.235 108.724 412.067 108.54C411.907 108.356 411.695 108.264 411.431 108.264C411.167 108.264 410.955 108.356 410.795 108.54C410.635 108.724 410.555 108.964 410.555 109.26Z" fill="#737373"/>
<defs>
<linearGradient id="paint0_linear_88_33" x1="398" y1="160" x2="398" y2="326" gradientUnits="userSpaceOnUse">
<stop stop-color="white"/>
<stop offset="1" stop-color="white" stop-opacity="0"/>
</linearGradient>
<linearGradient id="paint1_linear_88_33" x1="304" y1="125" x2="304" y2="253.609" gradientUnits="userSpaceOnUse">
<stop stop-color="#59A5FE" stop-opacity="0.16"/>
<stop offset="0.348958" stop-color="#59A5FE" stop-opacity="0.16"/>
<stop offset="1" stop-color="#59A5FE" stop-opacity="0"/>
</linearGradient>
<linearGradient id="paint2_linear_88_33" x1="304" y1="216" x2="304" y2="326" gradientUnits="userSpaceOnUse">
<stop stop-color="#63B866" stop-opacity="0.24"/>
<stop offset="0.348958" stop-color="#63B866" stop-opacity="0.24"/>
<stop offset="1" stop-color="#63B866" stop-opacity="0"/>
</linearGradient>
</defs>
</svg>
