<svg viewBox="0 0 1080 338" fill="none" xmlns="http://www.w3.org/2000/svg">
<path d="M2.00734 11.932C3.30334 11.044 4.33934 10.176 5.11534 9.328C5.89934 8.472 6.29134 7.68 6.29134 6.952C6.29134 6.52 6.18334 6.176 5.96734 5.92C5.75934 5.664 5.41934 5.536 4.94734 5.536C4.45934 5.536 4.09134 5.696 3.84334 6.016C3.59534 6.328 3.45534 6.776 3.42334 7.36H2.09134C2.14734 6.392 2.44334 5.652 2.97934 5.14C3.52334 4.628 4.21534 4.372 5.05534 4.372C5.87934 4.372 6.52334 4.592 6.98734 5.032C7.45934 5.464 7.69534 6.064 7.69534 6.832C7.69534 7.448 7.50334 8.072 7.11934 8.704C6.74334 9.336 6.26334 9.92 5.67934 10.456C5.09534 10.984 4.49134 11.44 3.86734 11.824H7.88734V12.94H2.00734V11.932ZM10.2439 11.488V13H8.69594V11.488H10.2439ZM17.1131 5.608H12.9251V8.128C13.1171 7.88 13.3891 7.684 13.7411 7.54C14.0931 7.388 14.4811 7.312 14.9051 7.312C15.4971 7.312 15.9891 7.44 16.3811 7.696C16.7731 7.944 17.0611 8.276 17.2451 8.692C17.4371 9.108 17.5331 9.568 17.5331 10.072C17.5331 10.96 17.2851 11.68 16.7891 12.232C16.2931 12.776 15.5731 13.048 14.6291 13.048C13.7411 13.048 13.0251 12.812 12.4811 12.34C11.9371 11.868 11.6411 11.24 11.5931 10.456H12.9371C13.0091 10.888 13.1851 11.228 13.4651 11.476C13.7531 11.724 14.1171 11.848 14.5571 11.848C15.1011 11.848 15.5091 11.684 15.7811 11.356C16.0531 11.028 16.1891 10.592 16.1891 10.048C16.1891 9.536 16.0491 9.136 15.7691 8.848C15.4891 8.552 15.0891 8.404 14.5691 8.404C14.2011 8.404 13.8771 8.484 13.5971 8.644C13.3251 8.804 13.1251 9.016 12.9971 9.28H11.6651V4.396H17.1131V5.608ZM19.4534 11.884C18.9734 11.116 18.7334 10.056 18.7334 8.704C18.7334 7.36 18.9734 6.308 19.4534 5.548C19.9334 4.788 20.7334 4.408 21.8534 4.408C22.9734 4.408 23.7734 4.792 24.2534 5.56C24.7334 6.32 24.9734 7.368 24.9734 8.704C24.9734 10.048 24.7334 11.104 24.2534 11.872C23.7734 12.64 22.9734 13.024 21.8534 13.024C20.7334 13.024 19.9334 12.644 19.4534 11.884ZM23.2454 10.948C23.4854 10.428 23.6054 9.68 23.6054 8.704C23.6054 7.744 23.4854 7.008 23.2454 6.496C23.0054 5.976 22.5414 5.716 21.8534 5.716C21.1574 5.716 20.6894 5.972 20.4494 6.484C20.2094 6.996 20.0894 7.736 20.0894 8.704C20.0894 9.68 20.2094 10.428 20.4494 10.948C20.6894 11.468 21.1574 11.728 21.8534 11.728C22.5414 11.728 23.0054 11.468 23.2454 10.948ZM27.7819 4.408C28.3179 4.408 28.7539 4.576 29.0899 4.912C29.4259 5.24 29.5939 5.688 29.5939 6.256C29.5939 6.824 29.4259 7.272 29.0899 7.6C28.7539 7.928 28.3179 8.092 27.7819 8.092C27.2459 8.092 26.8059 7.928 26.4619 7.6C26.1259 7.272 25.9579 6.824 25.9579 6.256C25.9579 5.688 26.1259 5.24 26.4619 4.912C26.8059 4.576 27.2459 4.408 27.7819 4.408ZM32.8579 4.516L28.0699 13H26.7259L31.5259 4.516H32.8579ZM26.8939 6.256C26.8939 6.56 26.9739 6.804 27.1339 6.988C27.2939 7.164 27.5059 7.252 27.7699 7.252C28.0339 7.252 28.2459 7.16 28.4059 6.976C28.5739 6.792 28.6579 6.552 28.6579 6.256C28.6579 5.952 28.5739 5.708 28.4059 5.524C28.2459 5.34 28.0339 5.248 27.7699 5.248C27.5059 5.248 27.2939 5.34 27.1339 5.524C26.9739 5.708 26.8939 5.952 26.8939 6.256ZM31.8139 9.424C32.3499 9.424 32.7859 9.588 33.1219 9.916C33.4659 10.244 33.6379 10.692 33.6379 11.26C33.6379 11.828 33.4659 12.28 33.1219 12.616C32.7859 12.944 32.3499 13.108 31.8139 13.108C31.2859 13.108 30.8499 12.944 30.5059 12.616C30.1699 12.28 30.0019 11.828 30.0019 11.26C30.0019 10.7 30.1699 10.256 30.5059 9.928C30.8499 9.592 31.2859 9.424 31.8139 9.424ZM30.9379 11.26C30.9379 11.564 31.0179 11.808 31.1779 11.992C31.3379 12.176 31.5499 12.268 31.8139 12.268C32.0779 12.268 32.2899 12.176 32.4499 11.992C32.6179 11.808 32.7019 11.564 32.7019 11.26C32.7019 10.964 32.6179 10.724 32.4499 10.54C32.2899 10.356 32.0779 10.264 31.8139 10.264C31.5499 10.264 31.3379 10.356 31.1779 10.54C31.0179 10.724 30.9379 10.964 30.9379 11.26Z" fill="#C0C0C7"/>
<path d="M2.21509 316.884C1.73509 316.116 1.49509 315.056 1.49509 313.704C1.49509 312.36 1.73509 311.308 2.21509 310.548C2.69509 309.788 3.49509 309.408 4.61509 309.408C5.73509 309.408 6.53509 309.792 7.01509 310.56C7.49509 311.32 7.73509 312.368 7.73509 313.704C7.73509 315.048 7.49509 316.104 7.01509 316.872C6.53509 317.64 5.73509 318.024 4.61509 318.024C3.49509 318.024 2.69509 317.644 2.21509 316.884ZM6.00709 315.948C6.24709 315.428 6.36709 314.68 6.36709 313.704C6.36709 312.744 6.24709 312.008 6.00709 311.496C5.76709 310.976 5.30309 310.716 4.61509 310.716C3.91909 310.716 3.45109 310.972 3.21109 311.484C2.97109 311.996 2.85109 312.736 2.85109 313.704C2.85109 314.68 2.97109 315.428 3.21109 315.948C3.45109 316.468 3.91909 316.728 4.61509 316.728C5.30309 316.728 5.76709 316.468 6.00709 315.948ZM10.2557 316.488V318H8.70766V316.488H10.2557ZM11.9768 316.884C11.4968 316.116 11.2568 315.056 11.2568 313.704C11.2568 312.36 11.4968 311.308 11.9768 310.548C12.4568 309.788 13.2568 309.408 14.3768 309.408C15.4968 309.408 16.2968 309.792 16.7768 310.56C17.2568 311.32 17.4968 312.368 17.4968 313.704C17.4968 315.048 17.2568 316.104 16.7768 316.872C16.2968 317.64 15.4968 318.024 14.3768 318.024C13.2568 318.024 12.4568 317.644 11.9768 316.884ZM15.7688 315.948C16.0088 315.428 16.1288 314.68 16.1288 313.704C16.1288 312.744 16.0088 312.008 15.7688 311.496C15.5288 310.976 15.0648 310.716 14.3768 310.716C13.6808 310.716 13.2128 310.972 12.9728 311.484C12.7328 311.996 12.6128 312.736 12.6128 313.704C12.6128 314.68 12.7328 315.428 12.9728 315.948C13.2128 316.468 13.6808 316.728 14.3768 316.728C15.0648 316.728 15.5288 316.468 15.7688 315.948ZM19.4534 316.884C18.9734 316.116 18.7334 315.056 18.7334 313.704C18.7334 312.36 18.9734 311.308 19.4534 310.548C19.9334 309.788 20.7334 309.408 21.8534 309.408C22.9734 309.408 23.7734 309.792 24.2534 310.56C24.7334 311.32 24.9734 312.368 24.9734 313.704C24.9734 315.048 24.7334 316.104 24.2534 316.872C23.7734 317.64 22.9734 318.024 21.8534 318.024C20.7334 318.024 19.9334 317.644 19.4534 316.884ZM23.2454 315.948C23.4854 315.428 23.6054 314.68 23.6054 313.704C23.6054 312.744 23.4854 312.008 23.2454 311.496C23.0054 310.976 22.5414 310.716 21.8534 310.716C21.1574 310.716 20.6894 310.972 20.4494 311.484C20.2094 311.996 20.0894 312.736 20.0894 313.704C20.0894 314.68 20.2094 315.428 20.4494 315.948C20.6894 316.468 21.1574 316.728 21.8534 316.728C22.5414 316.728 23.0054 316.468 23.2454 315.948ZM27.7819 309.408C28.3179 309.408 28.7539 309.576 29.0899 309.912C29.4259 310.24 29.5939 310.688 29.5939 311.256C29.5939 311.824 29.4259 312.272 29.0899 312.6C28.7539 312.928 28.3179 313.092 27.7819 313.092C27.2459 313.092 26.8059 312.928 26.4619 312.6C26.1259 312.272 25.9579 311.824 25.9579 311.256C25.9579 310.688 26.1259 310.24 26.4619 309.912C26.8059 309.576 27.2459 309.408 27.7819 309.408ZM32.8579 309.516L28.0699 318H26.7259L31.5259 309.516H32.8579ZM26.8939 311.256C26.8939 311.56 26.9739 311.804 27.1339 311.988C27.2939 312.164 27.5059 312.252 27.7699 312.252C28.0339 312.252 28.2459 312.16 28.4059 311.976C28.5739 311.792 28.6579 311.552 28.6579 311.256C28.6579 310.952 28.5739 310.708 28.4059 310.524C28.2459 310.34 28.0339 310.248 27.7699 310.248C27.5059 310.248 27.2939 310.34 27.1339 310.524C26.9739 310.708 26.8939 310.952 26.8939 311.256ZM31.8139 314.424C32.3499 314.424 32.7859 314.588 33.1219 314.916C33.4659 315.244 33.6379 315.692 33.6379 316.26C33.6379 316.828 33.4659 317.28 33.1219 317.616C32.7859 317.944 32.3499 318.108 31.8139 318.108C31.2859 318.108 30.8499 317.944 30.5059 317.616C30.1699 317.28 30.0019 316.828 30.0019 316.26C30.0019 315.7 30.1699 315.256 30.5059 314.928C30.8499 314.592 31.2859 314.424 31.8139 314.424ZM30.9379 316.26C30.9379 316.564 31.0179 316.808 31.1779 316.992C31.3379 317.176 31.5499 317.268 31.8139 317.268C32.0779 317.268 32.2899 317.176 32.4499 316.992C32.6179 316.808 32.7019 316.564 32.7019 316.26C32.7019 315.964 32.6179 315.724 32.4499 315.54C32.2899 315.356 32.0779 315.264 31.8139 315.264C31.5499 315.264 31.3379 315.356 31.1779 315.54C31.0179 315.724 30.9379 315.964 30.9379 316.26Z" fill="#C0C0C7"/>
<path opacity="0.08" d="M42 315L1080 315" stroke="white" stroke-dasharray="8 8"/>
<path opacity="0.08" d="M42 253L1080 253" stroke="white" stroke-dasharray="8 8"/>
<path opacity="0.08" d="M42 192L1080 192" stroke="white" stroke-dasharray="8 8"/>
<path opacity="0.08" d="M42 131L1080 131" stroke="white" stroke-dasharray="8 8"/>
<path opacity="0.08" d="M42 70L1080 70" stroke="white" stroke-dasharray="8 8"/>
<path opacity="0.08" d="M42 9L1080 9.00005" stroke="white" stroke-dasharray="8 8"/>
<path d="M185.505 324.624V330.504C185.505 331.32 185.269 331.956 184.797 332.412C184.325 332.86 183.693 333.084 182.901 333.084C182.101 333.084 181.453 332.852 180.957 332.388C180.469 331.924 180.225 331.276 180.225 330.444H181.905C181.913 330.804 181.997 331.084 182.157 331.284C182.325 331.484 182.565 331.584 182.877 331.584C183.181 331.584 183.413 331.488 183.573 331.296C183.733 331.104 183.813 330.84 183.813 330.504V324.624H185.505ZM187.033 329.652C187.033 328.98 187.165 328.384 187.429 327.864C187.701 327.344 188.065 326.944 188.521 326.664C188.985 326.384 189.501 326.244 190.069 326.244C190.565 326.244 190.997 326.344 191.365 326.544C191.741 326.744 192.041 326.996 192.265 327.3V326.352H193.957V333H192.265V332.028C192.049 332.34 191.749 332.6 191.365 332.808C190.989 333.008 190.553 333.108 190.057 333.108C189.497 333.108 188.985 332.964 188.521 332.676C188.065 332.388 187.701 331.984 187.429 331.464C187.165 330.936 187.033 330.332 187.033 329.652ZM192.265 329.676C192.265 329.268 192.185 328.92 192.025 328.632C191.865 328.336 191.649 328.112 191.377 327.96C191.105 327.8 190.813 327.72 190.501 327.72C190.189 327.72 189.901 327.796 189.637 327.948C189.373 328.1 189.157 328.324 188.989 328.62C188.829 328.908 188.749 329.252 188.749 329.652C188.749 330.052 188.829 330.404 188.989 330.708C189.157 331.004 189.373 331.232 189.637 331.392C189.909 331.552 190.197 331.632 190.501 331.632C190.813 331.632 191.105 331.556 191.377 331.404C191.649 331.244 191.865 331.02 192.025 330.732C192.185 330.436 192.265 330.084 192.265 329.676ZM199.282 326.256C200.074 326.256 200.714 326.508 201.202 327.012C201.69 327.508 201.934 328.204 201.934 329.1V333H200.254V329.328C200.254 328.8 200.122 328.396 199.858 328.116C199.594 327.828 199.234 327.684 198.778 327.684C198.314 327.684 197.946 327.828 197.674 328.116C197.41 328.396 197.278 328.8 197.278 329.328V333H195.598V326.352H197.278V327.18C197.502 326.892 197.786 326.668 198.13 326.508C198.482 326.34 198.866 326.256 199.282 326.256ZM209.807 326.352V333H208.115V332.16C207.899 332.448 207.615 332.676 207.263 332.844C206.919 333.004 206.543 333.084 206.135 333.084C205.615 333.084 205.155 332.976 204.755 332.76C204.355 332.536 204.039 332.212 203.807 331.788C203.583 331.356 203.471 330.844 203.471 330.252V326.352H205.151V330.012C205.151 330.54 205.283 330.948 205.547 331.236C205.811 331.516 206.171 331.656 206.627 331.656C207.091 331.656 207.455 331.516 207.719 331.236C207.983 330.948 208.115 330.54 208.115 330.012V326.352H209.807ZM211.033 329.652C211.033 328.98 211.165 328.384 211.429 327.864C211.701 327.344 212.065 326.944 212.521 326.664C212.985 326.384 213.501 326.244 214.069 326.244C214.565 326.244 214.997 326.344 215.365 326.544C215.741 326.744 216.041 326.996 216.265 327.3V326.352H217.957V333H216.265V332.028C216.049 332.34 215.749 332.6 215.365 332.808C214.989 333.008 214.553 333.108 214.057 333.108C213.497 333.108 212.985 332.964 212.521 332.676C212.065 332.388 211.701 331.984 211.429 331.464C211.165 330.936 211.033 330.332 211.033 329.652ZM216.265 329.676C216.265 329.268 216.185 328.92 216.025 328.632C215.865 328.336 215.649 328.112 215.377 327.96C215.105 327.8 214.813 327.72 214.501 327.72C214.189 327.72 213.901 327.796 213.637 327.948C213.373 328.1 213.157 328.324 212.989 328.62C212.829 328.908 212.749 329.252 212.749 329.652C212.749 330.052 212.829 330.404 212.989 330.708C213.157 331.004 213.373 331.232 213.637 331.392C213.909 331.552 214.197 331.632 214.501 331.632C214.813 331.632 215.105 331.556 215.377 331.404C215.649 331.244 215.865 331.02 216.025 330.732C216.185 330.436 216.265 330.084 216.265 329.676ZM221.278 327.384C221.494 327.032 221.774 326.756 222.118 326.556C222.47 326.356 222.87 326.256 223.318 326.256V328.02H222.874C222.346 328.02 221.946 328.144 221.674 328.392C221.41 328.64 221.278 329.072 221.278 329.688V333H219.598V326.352H221.278V327.384ZM230.809 326.352L226.693 336.144H224.905L226.345 332.832L223.681 326.352H225.565L227.281 330.996L229.021 326.352H230.809Z" fill="#C0C0C7"/>
<path d="M371.559 324.624V325.98H368.067V328.128H370.743V329.46H368.067V333H366.387V324.624H371.559ZM378.93 329.532C378.93 329.772 378.914 329.988 378.882 330.18H374.022C374.062 330.66 374.23 331.036 374.526 331.308C374.822 331.58 375.186 331.716 375.618 331.716C376.242 331.716 376.686 331.448 376.95 330.912H378.762C378.57 331.552 378.202 332.08 377.658 332.496C377.114 332.904 376.446 333.108 375.654 333.108C375.014 333.108 374.438 332.968 373.926 332.688C373.422 332.4 373.026 331.996 372.738 331.476C372.458 330.956 372.318 330.356 372.318 329.676C372.318 328.988 372.458 328.384 372.738 327.864C373.018 327.344 373.41 326.944 373.914 326.664C374.418 326.384 374.998 326.244 375.654 326.244C376.286 326.244 376.85 326.38 377.346 326.652C377.85 326.924 378.238 327.312 378.51 327.816C378.79 328.312 378.93 328.884 378.93 329.532ZM377.19 329.052C377.182 328.62 377.026 328.276 376.722 328.02C376.418 327.756 376.046 327.624 375.606 327.624C375.19 327.624 374.838 327.752 374.55 328.008C374.27 328.256 374.098 328.604 374.034 329.052H377.19ZM381.836 327.324C382.052 327.004 382.348 326.744 382.724 326.544C383.108 326.344 383.544 326.244 384.032 326.244C384.6 326.244 385.112 326.384 385.568 326.664C386.032 326.944 386.396 327.344 386.66 327.864C386.932 328.376 387.068 328.972 387.068 329.652C387.068 330.332 386.932 330.936 386.66 331.464C386.396 331.984 386.032 332.388 385.568 332.676C385.112 332.964 384.6 333.108 384.032 333.108C383.536 333.108 383.1 333.012 382.724 332.82C382.356 332.62 382.06 332.364 381.836 332.052V333H380.156V324.12H381.836V327.324ZM385.352 329.652C385.352 329.252 385.268 328.908 385.1 328.62C384.94 328.324 384.724 328.1 384.452 327.948C384.188 327.796 383.9 327.72 383.588 327.72C383.284 327.72 382.996 327.8 382.724 327.96C382.46 328.112 382.244 328.336 382.076 328.632C381.916 328.928 381.836 329.276 381.836 329.676C381.836 330.076 381.916 330.424 382.076 330.72C382.244 331.016 382.46 331.244 382.724 331.404C382.996 331.556 383.284 331.632 383.588 331.632C383.9 331.632 384.188 331.552 384.452 331.392C384.724 331.232 384.94 331.004 385.1 330.708C385.268 330.412 385.352 330.06 385.352 329.652ZM389.969 327.384C390.185 327.032 390.465 326.756 390.809 326.556C391.161 326.356 391.561 326.256 392.009 326.256V328.02H391.565C391.037 328.02 390.637 328.144 390.365 328.392C390.101 328.64 389.969 329.072 389.969 329.688V333H388.289V326.352H389.969V327.384ZM399.417 326.352V333H397.725V332.16C397.509 332.448 397.225 332.676 396.873 332.844C396.529 333.004 396.153 333.084 395.745 333.084C395.225 333.084 394.765 332.976 394.365 332.76C393.965 332.536 393.649 332.212 393.417 331.788C393.193 331.356 393.081 330.844 393.081 330.252V326.352H394.761V330.012C394.761 330.54 394.893 330.948 395.157 331.236C395.421 331.516 395.781 331.656 396.237 331.656C396.701 331.656 397.065 331.516 397.329 331.236C397.593 330.948 397.725 330.54 397.725 330.012V326.352H399.417ZM400.642 329.652C400.642 328.98 400.774 328.384 401.038 327.864C401.31 327.344 401.674 326.944 402.13 326.664C402.594 326.384 403.11 326.244 403.678 326.244C404.174 326.244 404.606 326.344 404.974 326.544C405.35 326.744 405.65 326.996 405.874 327.3V326.352H407.566V333H405.874V332.028C405.658 332.34 405.358 332.6 404.974 332.808C404.598 333.008 404.162 333.108 403.666 333.108C403.106 333.108 402.594 332.964 402.13 332.676C401.674 332.388 401.31 331.984 401.038 331.464C400.774 330.936 400.642 330.332 400.642 329.652ZM405.874 329.676C405.874 329.268 405.794 328.92 405.634 328.632C405.474 328.336 405.258 328.112 404.986 327.96C404.714 327.8 404.422 327.72 404.11 327.72C403.798 327.72 403.51 327.796 403.246 327.948C402.982 328.1 402.766 328.324 402.598 328.62C402.438 328.908 402.358 329.252 402.358 329.652C402.358 330.052 402.438 330.404 402.598 330.708C402.766 331.004 402.982 331.232 403.246 331.392C403.518 331.552 403.806 331.632 404.11 331.632C404.422 331.632 404.714 331.556 404.986 331.404C405.258 331.244 405.474 331.02 405.634 330.732C405.794 330.436 405.874 330.084 405.874 329.676ZM410.887 327.384C411.103 327.032 411.383 326.756 411.727 326.556C412.079 326.356 412.479 326.256 412.927 326.256V328.02H412.483C411.955 328.02 411.555 328.144 411.283 328.392C411.019 328.64 410.887 329.072 410.887 329.688V333H409.207V326.352H410.887V327.384ZM420.419 326.352L416.303 336.144H414.515L415.955 332.832L413.291 326.352H415.175L416.891 330.996L418.631 326.352H420.419Z" fill="#C0C0C7"/>
<path d="M572.204 324.624V333H570.524V327.552L568.28 333H567.008L564.752 327.552V333H563.072V324.624H564.98L567.644 330.852L570.308 324.624H572.204ZM573.433 329.652C573.433 328.98 573.565 328.384 573.829 327.864C574.101 327.344 574.465 326.944 574.921 326.664C575.385 326.384 575.901 326.244 576.469 326.244C576.965 326.244 577.397 326.344 577.765 326.544C578.141 326.744 578.441 326.996 578.665 327.3V326.352H580.357V333H578.665V332.028C578.449 332.34 578.149 332.6 577.765 332.808C577.389 333.008 576.953 333.108 576.457 333.108C575.897 333.108 575.385 332.964 574.921 332.676C574.465 332.388 574.101 331.984 573.829 331.464C573.565 330.936 573.433 330.332 573.433 329.652ZM578.665 329.676C578.665 329.268 578.585 328.92 578.425 328.632C578.265 328.336 578.049 328.112 577.777 327.96C577.505 327.8 577.213 327.72 576.901 327.72C576.589 327.72 576.301 327.796 576.037 327.948C575.773 328.1 575.557 328.324 575.389 328.62C575.229 328.908 575.149 329.252 575.149 329.652C575.149 330.052 575.229 330.404 575.389 330.708C575.557 331.004 575.773 331.232 576.037 331.392C576.309 331.552 576.597 331.632 576.901 331.632C577.213 331.632 577.505 331.556 577.777 331.404C578.049 331.244 578.265 331.02 578.425 330.732C578.585 330.436 578.665 330.084 578.665 329.676ZM583.677 327.384C583.893 327.032 584.173 326.756 584.517 326.556C584.869 326.356 585.269 326.256 585.717 326.256V328.02H585.273C584.745 328.02 584.345 328.144 584.073 328.392C583.809 328.64 583.677 329.072 583.677 329.688V333H581.997V326.352H583.677V327.384ZM586.417 329.676C586.417 328.988 586.557 328.388 586.837 327.876C587.117 327.356 587.505 326.956 588.001 326.676C588.497 326.388 589.065 326.244 589.705 326.244C590.529 326.244 591.209 326.452 591.745 326.868C592.289 327.276 592.653 327.852 592.837 328.596H591.025C590.929 328.308 590.765 328.084 590.533 327.924C590.309 327.756 590.029 327.672 589.693 327.672C589.213 327.672 588.833 327.848 588.553 328.2C588.273 328.544 588.133 329.036 588.133 329.676C588.133 330.308 588.273 330.8 588.553 331.152C588.833 331.496 589.213 331.668 589.693 331.668C590.373 331.668 590.817 331.364 591.025 330.756H592.837C592.653 331.476 592.289 332.048 591.745 332.472C591.201 332.896 590.521 333.108 589.705 333.108C589.065 333.108 588.497 332.968 588.001 332.688C587.505 332.4 587.117 332 586.837 331.488C586.557 330.968 586.417 330.364 586.417 329.676ZM597.812 326.256C598.316 326.256 598.764 326.368 599.156 326.592C599.548 326.808 599.852 327.132 600.068 327.564C600.292 327.988 600.404 328.5 600.404 329.1V333H598.724V329.328C598.724 328.8 598.592 328.396 598.328 328.116C598.064 327.828 597.704 327.684 597.248 327.684C596.784 327.684 596.416 327.828 596.144 328.116C595.88 328.396 595.748 328.8 595.748 329.328V333H594.068V324.12H595.748V327.18C595.964 326.892 596.252 326.668 596.612 326.508C596.972 326.34 597.372 326.256 597.812 326.256Z" fill="#C0C0C7"/>
<path d="M956.927 324.624V333H955.247V327.552L953.003 333H951.731L949.475 327.552V333H947.795V324.624H949.703L952.367 330.852L955.031 324.624H956.927ZM958.156 329.652C958.156 328.98 958.288 328.384 958.552 327.864C958.824 327.344 959.188 326.944 959.644 326.664C960.108 326.384 960.624 326.244 961.192 326.244C961.688 326.244 962.12 326.344 962.488 326.544C962.864 326.744 963.164 326.996 963.388 327.3V326.352H965.08V333H963.388V332.028C963.172 332.34 962.872 332.6 962.488 332.808C962.112 333.008 961.676 333.108 961.18 333.108C960.62 333.108 960.108 332.964 959.644 332.676C959.188 332.388 958.824 331.984 958.552 331.464C958.288 330.936 958.156 330.332 958.156 329.652ZM963.388 329.676C963.388 329.268 963.308 328.92 963.148 328.632C962.988 328.336 962.772 328.112 962.5 327.96C962.228 327.8 961.936 327.72 961.624 327.72C961.312 327.72 961.024 327.796 960.76 327.948C960.496 328.1 960.28 328.324 960.112 328.62C959.952 328.908 959.872 329.252 959.872 329.652C959.872 330.052 959.952 330.404 960.112 330.708C960.28 331.004 960.496 331.232 960.76 331.392C961.032 331.552 961.32 331.632 961.624 331.632C961.936 331.632 962.228 331.556 962.5 331.404C962.772 331.244 962.988 331.02 963.148 330.732C963.308 330.436 963.388 330.084 963.388 329.676ZM973.081 326.352L968.965 336.144H967.177L968.617 332.832L965.953 326.352H967.837L969.553 330.996L971.293 326.352H973.081Z" fill="#C0C0C7"/>
<path d="M762.226 331.404H758.89L758.338 333H756.574L759.586 324.612H761.542L764.554 333H762.778L762.226 331.404ZM761.77 330.06L760.558 326.556L759.346 330.06H761.77ZM767.36 327.312C767.576 327.008 767.872 326.756 768.248 326.556C768.632 326.348 769.068 326.244 769.556 326.244C770.124 326.244 770.636 326.384 771.092 326.664C771.556 326.944 771.92 327.344 772.184 327.864C772.456 328.376 772.592 328.972 772.592 329.652C772.592 330.332 772.456 330.936 772.184 331.464C771.92 331.984 771.556 332.388 771.092 332.676C770.636 332.964 770.124 333.108 769.556 333.108C769.068 333.108 768.636 333.008 768.26 332.808C767.892 332.608 767.592 332.356 767.36 332.052V336.168H765.68V326.352H767.36V327.312ZM770.876 329.652C770.876 329.252 770.792 328.908 770.624 328.62C770.464 328.324 770.248 328.1 769.976 327.948C769.712 327.796 769.424 327.72 769.112 327.72C768.808 327.72 768.52 327.8 768.248 327.96C767.984 328.112 767.768 328.336 767.6 328.632C767.44 328.928 767.36 329.276 767.36 329.676C767.36 330.076 767.44 330.424 767.6 330.72C767.768 331.016 767.984 331.244 768.248 331.404C768.52 331.556 768.808 331.632 769.112 331.632C769.424 331.632 769.712 331.552 769.976 331.392C770.248 331.232 770.464 331.004 770.624 330.708C770.792 330.412 770.876 330.06 770.876 329.652ZM775.493 327.384C775.709 327.032 775.989 326.756 776.333 326.556C776.685 326.356 777.085 326.256 777.533 326.256V328.02H777.089C776.561 328.02 776.161 328.144 775.889 328.392C775.625 328.64 775.493 329.072 775.493 329.688V333H773.813V326.352H775.493V327.384ZM779.516 325.56C779.22 325.56 778.972 325.468 778.772 325.284C778.58 325.092 778.484 324.856 778.484 324.576C778.484 324.296 778.58 324.064 778.772 323.88C778.972 323.688 779.22 323.592 779.516 323.592C779.812 323.592 780.056 323.688 780.248 323.88C780.448 324.064 780.548 324.296 780.548 324.576C780.548 324.856 780.448 325.092 780.248 325.284C780.056 325.468 779.812 325.56 779.516 325.56ZM780.344 326.352V333H778.664V326.352H780.344ZM783.684 324.12V333H782.004V324.12H783.684Z" fill="#C0C0C7"/>
<rect x="108" y="164.066" width="24" height="151.934" rx="4" fill="url(#paint0_linear_564_30)"/>
<rect x="140" y="144.729" width="24" height="171.271" rx="4" fill="url(#paint1_linear_564_30)"/>
<rect x="172" y="193.072" width="23" height="122.928" rx="4" fill="url(#paint2_linear_564_30)"/>
<rect x="203" y="155.779" width="24" height="160.221" rx="4" fill="url(#paint3_linear_564_30)"/>
<rect x="235" y="95.0054" width="24" height="220.994" rx="4" fill="url(#paint4_linear_564_30)"/>
<rect x="297" y="195.834" width="24" height="120.166" rx="4" fill="url(#paint5_linear_564_30)"/>
<rect x="328" y="184.785" width="24" height="131.215" rx="4" fill="url(#paint6_linear_564_30)"/>
<rect x="360" y="197.216" width="24" height="118.785" rx="4" fill="url(#paint7_linear_564_30)"/>
<rect x="392" y="168.21" width="24" height="147.79" rx="4" fill="url(#paint8_linear_564_30)"/>
<rect x="424" y="144.729" width="24" height="171.271" rx="4" fill="url(#paint9_linear_564_30)"/>
<rect x="485" y="146.11" width="24" height="169.89" rx="4" fill="url(#paint10_linear_564_30)"/>
<rect x="517" y="193.071" width="24" height="122.928" rx="4" fill="url(#paint11_linear_564_30)"/>
<rect x="549" y="170.973" width="24" height="145.028" rx="4" fill="url(#paint12_linear_564_30)"/>
<rect x="581" y="130.917" width="24" height="185.083" rx="4" fill="url(#paint13_linear_564_30)"/>
<rect x="612" y="146.11" width="24" height="169.89" rx="4" fill="url(#paint14_linear_564_30)"/>
<rect x="674" y="81.1929" width="24" height="234.807" rx="4" fill="url(#paint15_linear_564_30)"/>
<rect x="706" y="144.729" width="24" height="171.271" rx="4" fill="url(#paint16_linear_564_30)"/>
<rect x="738" y="177.879" width="23" height="138.122" rx="4" fill="url(#paint17_linear_564_30)"/>
<rect x="769" y="115.724" width="24" height="200.276" rx="4" fill="url(#paint18_linear_564_30)"/>
<rect x="801" y="99.1499" width="24" height="216.851" rx="4" fill="url(#paint19_linear_564_30)"/>
<rect x="863" y="66" width="24" height="250" rx="4" fill="url(#paint20_linear_564_30)"/>
<rect x="895" y="148.873" width="23" height="167.127" rx="4" fill="url(#paint21_linear_564_30)"/>
<rect x="926" y="170.973" width="24" height="145.028" rx="4" fill="url(#paint22_linear_564_30)"/>
<rect x="958" y="99.1499" width="24" height="216.851" rx="4" fill="url(#paint23_linear_564_30)"/>
<rect x="990" y="112.961" width="24" height="203.039" rx="4" fill="url(#paint24_linear_564_30)"/>
<path d="M180 139L364.068 160.239C368.448 160.744 372.875 160.668 377.235 160.012L752.993 103.5L941.674 94" stroke="#63B866" stroke-width="2"/>
<path d="M2.20338 255.884C1.72338 255.116 1.48338 254.056 1.48338 252.704C1.48338 251.36 1.72338 250.308 2.20338 249.548C2.68338 248.788 3.48338 248.408 4.60338 248.408C5.72338 248.408 6.52338 248.792 7.00338 249.56C7.48338 250.32 7.72338 251.368 7.72338 252.704C7.72338 254.048 7.48338 255.104 7.00338 255.872C6.52338 256.64 5.72338 257.024 4.60338 257.024C3.48338 257.024 2.68338 256.644 2.20338 255.884ZM5.99538 254.948C6.23538 254.428 6.35538 253.68 6.35538 252.704C6.35538 251.744 6.23538 251.008 5.99538 250.496C5.75538 249.976 5.29138 249.716 4.60338 249.716C3.90738 249.716 3.43938 249.972 3.19938 250.484C2.95938 250.996 2.83938 251.736 2.83938 252.704C2.83938 253.68 2.95938 254.428 3.19938 254.948C3.43938 255.468 3.90738 255.728 4.60338 255.728C5.29138 255.728 5.75538 255.468 5.99538 254.948ZM10.2439 255.488V257H8.69594V255.488H10.2439ZM17.1131 249.608H12.9251V252.128C13.1171 251.88 13.3891 251.684 13.7411 251.54C14.0931 251.388 14.4811 251.312 14.9051 251.312C15.4971 251.312 15.9891 251.44 16.3811 251.696C16.7731 251.944 17.0611 252.276 17.2451 252.692C17.4371 253.108 17.5331 253.568 17.5331 254.072C17.5331 254.96 17.2851 255.68 16.7891 256.232C16.2931 256.776 15.5731 257.048 14.6291 257.048C13.7411 257.048 13.0251 256.812 12.4811 256.34C11.9371 255.868 11.6411 255.24 11.5931 254.456H12.9371C13.0091 254.888 13.1851 255.228 13.4651 255.476C13.7531 255.724 14.1171 255.848 14.5571 255.848C15.1011 255.848 15.5091 255.684 15.7811 255.356C16.0531 255.028 16.1891 254.592 16.1891 254.048C16.1891 253.536 16.0491 253.136 15.7691 252.848C15.4891 252.552 15.0891 252.404 14.5691 252.404C14.2011 252.404 13.8771 252.484 13.5971 252.644C13.3251 252.804 13.1251 253.016 12.9971 253.28H11.6651V248.396H17.1131V249.608ZM19.4534 255.884C18.9734 255.116 18.7334 254.056 18.7334 252.704C18.7334 251.36 18.9734 250.308 19.4534 249.548C19.9334 248.788 20.7334 248.408 21.8534 248.408C22.9734 248.408 23.7734 248.792 24.2534 249.56C24.7334 250.32 24.9734 251.368 24.9734 252.704C24.9734 254.048 24.7334 255.104 24.2534 255.872C23.7734 256.64 22.9734 257.024 21.8534 257.024C20.7334 257.024 19.9334 256.644 19.4534 255.884ZM23.2454 254.948C23.4854 254.428 23.6054 253.68 23.6054 252.704C23.6054 251.744 23.4854 251.008 23.2454 250.496C23.0054 249.976 22.5414 249.716 21.8534 249.716C21.1574 249.716 20.6894 249.972 20.4494 250.484C20.2094 250.996 20.0894 251.736 20.0894 252.704C20.0894 253.68 20.2094 254.428 20.4494 254.948C20.6894 255.468 21.1574 255.728 21.8534 255.728C22.5414 255.728 23.0054 255.468 23.2454 254.948ZM27.7819 248.408C28.3179 248.408 28.7539 248.576 29.0899 248.912C29.4259 249.24 29.5939 249.688 29.5939 250.256C29.5939 250.824 29.4259 251.272 29.0899 251.6C28.7539 251.928 28.3179 252.092 27.7819 252.092C27.2459 252.092 26.8059 251.928 26.4619 251.6C26.1259 251.272 25.9579 250.824 25.9579 250.256C25.9579 249.688 26.1259 249.24 26.4619 248.912C26.8059 248.576 27.2459 248.408 27.7819 248.408ZM32.8579 248.516L28.0699 257H26.7259L31.5259 248.516H32.8579ZM26.8939 250.256C26.8939 250.56 26.9739 250.804 27.1339 250.988C27.2939 251.164 27.5059 251.252 27.7699 251.252C28.0339 251.252 28.2459 251.16 28.4059 250.976C28.5739 250.792 28.6579 250.552 28.6579 250.256C28.6579 249.952 28.5739 249.708 28.4059 249.524C28.2459 249.34 28.0339 249.248 27.7699 249.248C27.5059 249.248 27.2939 249.34 27.1339 249.524C26.9739 249.708 26.8939 249.952 26.8939 250.256ZM31.8139 253.424C32.3499 253.424 32.7859 253.588 33.1219 253.916C33.4659 254.244 33.6379 254.692 33.6379 255.26C33.6379 255.828 33.4659 256.28 33.1219 256.616C32.7859 256.944 32.3499 257.108 31.8139 257.108C31.2859 257.108 30.8499 256.944 30.5059 256.616C30.1699 256.28 30.0019 255.828 30.0019 255.26C30.0019 254.7 30.1699 254.256 30.5059 253.928C30.8499 253.592 31.2859 253.424 31.8139 253.424ZM30.9379 255.26C30.9379 255.564 31.0179 255.808 31.1779 255.992C31.3379 256.176 31.5499 256.268 31.8139 256.268C32.0779 256.268 32.2899 256.176 32.4499 255.992C32.6179 255.808 32.7019 255.564 32.7019 255.26C32.7019 254.964 32.6179 254.724 32.4499 254.54C32.2899 254.356 32.0779 254.264 31.8139 254.264C31.5499 254.264 31.3379 254.356 31.1779 254.54C31.0179 254.724 30.9379 254.964 30.9379 255.26Z" fill="#C0C0C7"/>
<path d="M4.82397 188.812V187.528H7.53597V196H6.09597V188.812H4.82397ZM10.2557 194.488V196H8.70766V194.488H10.2557ZM11.9768 194.884C11.4968 194.116 11.2568 193.056 11.2568 191.704C11.2568 190.36 11.4968 189.308 11.9768 188.548C12.4568 187.788 13.2568 187.408 14.3768 187.408C15.4968 187.408 16.2968 187.792 16.7768 188.56C17.2568 189.32 17.4968 190.368 17.4968 191.704C17.4968 193.048 17.2568 194.104 16.7768 194.872C16.2968 195.64 15.4968 196.024 14.3768 196.024C13.2568 196.024 12.4568 195.644 11.9768 194.884ZM15.7688 193.948C16.0088 193.428 16.1288 192.68 16.1288 191.704C16.1288 190.744 16.0088 190.008 15.7688 189.496C15.5288 188.976 15.0648 188.716 14.3768 188.716C13.6808 188.716 13.2128 188.972 12.9728 189.484C12.7328 189.996 12.6128 190.736 12.6128 191.704C12.6128 192.68 12.7328 193.428 12.9728 193.948C13.2128 194.468 13.6808 194.728 14.3768 194.728C15.0648 194.728 15.5288 194.468 15.7688 193.948ZM19.4534 194.884C18.9734 194.116 18.7334 193.056 18.7334 191.704C18.7334 190.36 18.9734 189.308 19.4534 188.548C19.9334 187.788 20.7334 187.408 21.8534 187.408C22.9734 187.408 23.7734 187.792 24.2534 188.56C24.7334 189.32 24.9734 190.368 24.9734 191.704C24.9734 193.048 24.7334 194.104 24.2534 194.872C23.7734 195.64 22.9734 196.024 21.8534 196.024C20.7334 196.024 19.9334 195.644 19.4534 194.884ZM23.2454 193.948C23.4854 193.428 23.6054 192.68 23.6054 191.704C23.6054 190.744 23.4854 190.008 23.2454 189.496C23.0054 188.976 22.5414 188.716 21.8534 188.716C21.1574 188.716 20.6894 188.972 20.4494 189.484C20.2094 189.996 20.0894 190.736 20.0894 191.704C20.0894 192.68 20.2094 193.428 20.4494 193.948C20.6894 194.468 21.1574 194.728 21.8534 194.728C22.5414 194.728 23.0054 194.468 23.2454 193.948ZM27.7819 187.408C28.3179 187.408 28.7539 187.576 29.0899 187.912C29.4259 188.24 29.5939 188.688 29.5939 189.256C29.5939 189.824 29.4259 190.272 29.0899 190.6C28.7539 190.928 28.3179 191.092 27.7819 191.092C27.2459 191.092 26.8059 190.928 26.4619 190.6C26.1259 190.272 25.9579 189.824 25.9579 189.256C25.9579 188.688 26.1259 188.24 26.4619 187.912C26.8059 187.576 27.2459 187.408 27.7819 187.408ZM32.8579 187.516L28.0699 196H26.7259L31.5259 187.516H32.8579ZM26.8939 189.256C26.8939 189.56 26.9739 189.804 27.1339 189.988C27.2939 190.164 27.5059 190.252 27.7699 190.252C28.0339 190.252 28.2459 190.16 28.4059 189.976C28.5739 189.792 28.6579 189.552 28.6579 189.256C28.6579 188.952 28.5739 188.708 28.4059 188.524C28.2459 188.34 28.0339 188.248 27.7699 188.248C27.5059 188.248 27.2939 188.34 27.1339 188.524C26.9739 188.708 26.8939 188.952 26.8939 189.256ZM31.8139 192.424C32.3499 192.424 32.7859 192.588 33.1219 192.916C33.4659 193.244 33.6379 193.692 33.6379 194.26C33.6379 194.828 33.4659 195.28 33.1219 195.616C32.7859 195.944 32.3499 196.108 31.8139 196.108C31.2859 196.108 30.8499 195.944 30.5059 195.616C30.1699 195.28 30.0019 194.828 30.0019 194.26C30.0019 193.7 30.1699 193.256 30.5059 192.928C30.8499 192.592 31.2859 192.424 31.8139 192.424ZM30.9379 194.26C30.9379 194.564 31.0179 194.808 31.1779 194.992C31.3379 195.176 31.5499 195.268 31.8139 195.268C32.0779 195.268 32.2899 195.176 32.4499 194.992C32.6179 194.808 32.7019 194.564 32.7019 194.26C32.7019 193.964 32.6179 193.724 32.4499 193.54C32.2899 193.356 32.0779 193.264 31.8139 193.264C31.5499 193.264 31.3379 193.356 31.1779 193.54C31.0179 193.724 30.9379 193.964 30.9379 194.26Z" fill="#C0C0C7"/>
<path d="M4.81225 127.812V126.528H7.52425V135H6.08425V127.812H4.81225ZM10.2439 133.488V135H8.69594V133.488H10.2439ZM17.1131 127.608H12.9251V130.128C13.1171 129.88 13.3891 129.684 13.7411 129.54C14.0931 129.388 14.4811 129.312 14.9051 129.312C15.4971 129.312 15.9891 129.44 16.3811 129.696C16.7731 129.944 17.0611 130.276 17.2451 130.692C17.4371 131.108 17.5331 131.568 17.5331 132.072C17.5331 132.96 17.2851 133.68 16.7891 134.232C16.2931 134.776 15.5731 135.048 14.6291 135.048C13.7411 135.048 13.0251 134.812 12.4811 134.34C11.9371 133.868 11.6411 133.24 11.5931 132.456H12.9371C13.0091 132.888 13.1851 133.228 13.4651 133.476C13.7531 133.724 14.1171 133.848 14.5571 133.848C15.1011 133.848 15.5091 133.684 15.7811 133.356C16.0531 133.028 16.1891 132.592 16.1891 132.048C16.1891 131.536 16.0491 131.136 15.7691 130.848C15.4891 130.552 15.0891 130.404 14.5691 130.404C14.2011 130.404 13.8771 130.484 13.5971 130.644C13.3251 130.804 13.1251 131.016 12.9971 131.28H11.6651V126.396H17.1131V127.608ZM19.4534 133.884C18.9734 133.116 18.7334 132.056 18.7334 130.704C18.7334 129.36 18.9734 128.308 19.4534 127.548C19.9334 126.788 20.7334 126.408 21.8534 126.408C22.9734 126.408 23.7734 126.792 24.2534 127.56C24.7334 128.32 24.9734 129.368 24.9734 130.704C24.9734 132.048 24.7334 133.104 24.2534 133.872C23.7734 134.64 22.9734 135.024 21.8534 135.024C20.7334 135.024 19.9334 134.644 19.4534 133.884ZM23.2454 132.948C23.4854 132.428 23.6054 131.68 23.6054 130.704C23.6054 129.744 23.4854 129.008 23.2454 128.496C23.0054 127.976 22.5414 127.716 21.8534 127.716C21.1574 127.716 20.6894 127.972 20.4494 128.484C20.2094 128.996 20.0894 129.736 20.0894 130.704C20.0894 131.68 20.2094 132.428 20.4494 132.948C20.6894 133.468 21.1574 133.728 21.8534 133.728C22.5414 133.728 23.0054 133.468 23.2454 132.948ZM27.7819 126.408C28.3179 126.408 28.7539 126.576 29.0899 126.912C29.4259 127.24 29.5939 127.688 29.5939 128.256C29.5939 128.824 29.4259 129.272 29.0899 129.6C28.7539 129.928 28.3179 130.092 27.7819 130.092C27.2459 130.092 26.8059 129.928 26.4619 129.6C26.1259 129.272 25.9579 128.824 25.9579 128.256C25.9579 127.688 26.1259 127.24 26.4619 126.912C26.8059 126.576 27.2459 126.408 27.7819 126.408ZM32.8579 126.516L28.0699 135H26.7259L31.5259 126.516H32.8579ZM26.8939 128.256C26.8939 128.56 26.9739 128.804 27.1339 128.988C27.2939 129.164 27.5059 129.252 27.7699 129.252C28.0339 129.252 28.2459 129.16 28.4059 128.976C28.5739 128.792 28.6579 128.552 28.6579 128.256C28.6579 127.952 28.5739 127.708 28.4059 127.524C28.2459 127.34 28.0339 127.248 27.7699 127.248C27.5059 127.248 27.2939 127.34 27.1339 127.524C26.9739 127.708 26.8939 127.952 26.8939 128.256ZM31.8139 131.424C32.3499 131.424 32.7859 131.588 33.1219 131.916C33.4659 132.244 33.6379 132.692 33.6379 133.26C33.6379 133.828 33.4659 134.28 33.1219 134.616C32.7859 134.944 32.3499 135.108 31.8139 135.108C31.2859 135.108 30.8499 134.944 30.5059 134.616C30.1699 134.28 30.0019 133.828 30.0019 133.26C30.0019 132.7 30.1699 132.256 30.5059 131.928C30.8499 131.592 31.2859 131.424 31.8139 131.424ZM30.9379 133.26C30.9379 133.564 31.0179 133.808 31.1779 133.992C31.3379 134.176 31.5499 134.268 31.8139 134.268C32.0779 134.268 32.2899 134.176 32.4499 133.992C32.6179 133.808 32.7019 133.564 32.7019 133.26C32.7019 132.964 32.6179 132.724 32.4499 132.54C32.2899 132.356 32.0779 132.264 31.8139 132.264C31.5499 132.264 31.3379 132.356 31.1779 132.54C31.0179 132.724 30.9379 132.964 30.9379 133.26Z" fill="#C0C0C7"/>
<path d="M2.01906 72.932C3.31506 72.044 4.35106 71.176 5.12706 70.328C5.91106 69.472 6.30306 68.68 6.30306 67.952C6.30306 67.52 6.19506 67.176 5.97906 66.92C5.77106 66.664 5.43106 66.536 4.95906 66.536C4.47106 66.536 4.10306 66.696 3.85506 67.016C3.60706 67.328 3.46706 67.776 3.43506 68.36H2.10306C2.15906 67.392 2.45506 66.652 2.99106 66.14C3.53506 65.628 4.22706 65.372 5.06706 65.372C5.89106 65.372 6.53506 65.592 6.99906 66.032C7.47106 66.464 7.70706 67.064 7.70706 67.832C7.70706 68.448 7.51506 69.072 7.13106 69.704C6.75506 70.336 6.27506 70.92 5.69106 71.456C5.10706 71.984 4.50306 72.44 3.87906 72.824H7.89906V73.94H2.01906V72.932ZM10.2557 72.488V74H8.70766V72.488H10.2557ZM11.9768 72.884C11.4968 72.116 11.2568 71.056 11.2568 69.704C11.2568 68.36 11.4968 67.308 11.9768 66.548C12.4568 65.788 13.2568 65.408 14.3768 65.408C15.4968 65.408 16.2968 65.792 16.7768 66.56C17.2568 67.32 17.4968 68.368 17.4968 69.704C17.4968 71.048 17.2568 72.104 16.7768 72.872C16.2968 73.64 15.4968 74.024 14.3768 74.024C13.2568 74.024 12.4568 73.644 11.9768 72.884ZM15.7688 71.948C16.0088 71.428 16.1288 70.68 16.1288 69.704C16.1288 68.744 16.0088 68.008 15.7688 67.496C15.5288 66.976 15.0648 66.716 14.3768 66.716C13.6808 66.716 13.2128 66.972 12.9728 67.484C12.7328 67.996 12.6128 68.736 12.6128 69.704C12.6128 70.68 12.7328 71.428 12.9728 71.948C13.2128 72.468 13.6808 72.728 14.3768 72.728C15.0648 72.728 15.5288 72.468 15.7688 71.948ZM19.4534 72.884C18.9734 72.116 18.7334 71.056 18.7334 69.704C18.7334 68.36 18.9734 67.308 19.4534 66.548C19.9334 65.788 20.7334 65.408 21.8534 65.408C22.9734 65.408 23.7734 65.792 24.2534 66.56C24.7334 67.32 24.9734 68.368 24.9734 69.704C24.9734 71.048 24.7334 72.104 24.2534 72.872C23.7734 73.64 22.9734 74.024 21.8534 74.024C20.7334 74.024 19.9334 73.644 19.4534 72.884ZM23.2454 71.948C23.4854 71.428 23.6054 70.68 23.6054 69.704C23.6054 68.744 23.4854 68.008 23.2454 67.496C23.0054 66.976 22.5414 66.716 21.8534 66.716C21.1574 66.716 20.6894 66.972 20.4494 67.484C20.2094 67.996 20.0894 68.736 20.0894 69.704C20.0894 70.68 20.2094 71.428 20.4494 71.948C20.6894 72.468 21.1574 72.728 21.8534 72.728C22.5414 72.728 23.0054 72.468 23.2454 71.948ZM27.7819 65.408C28.3179 65.408 28.7539 65.576 29.0899 65.912C29.4259 66.24 29.5939 66.688 29.5939 67.256C29.5939 67.824 29.4259 68.272 29.0899 68.6C28.7539 68.928 28.3179 69.092 27.7819 69.092C27.2459 69.092 26.8059 68.928 26.4619 68.6C26.1259 68.272 25.9579 67.824 25.9579 67.256C25.9579 66.688 26.1259 66.24 26.4619 65.912C26.8059 65.576 27.2459 65.408 27.7819 65.408ZM32.8579 65.516L28.0699 74H26.7259L31.5259 65.516H32.8579ZM26.8939 67.256C26.8939 67.56 26.9739 67.804 27.1339 67.988C27.2939 68.164 27.5059 68.252 27.7699 68.252C28.0339 68.252 28.2459 68.16 28.4059 67.976C28.5739 67.792 28.6579 67.552 28.6579 67.256C28.6579 66.952 28.5739 66.708 28.4059 66.524C28.2459 66.34 28.0339 66.248 27.7699 66.248C27.5059 66.248 27.2939 66.34 27.1339 66.524C26.9739 66.708 26.8939 66.952 26.8939 67.256ZM31.8139 70.424C32.3499 70.424 32.7859 70.588 33.1219 70.916C33.4659 71.244 33.6379 71.692 33.6379 72.26C33.6379 72.828 33.4659 73.28 33.1219 73.616C32.7859 73.944 32.3499 74.108 31.8139 74.108C31.2859 74.108 30.8499 73.944 30.5059 73.616C30.1699 73.28 30.0019 72.828 30.0019 72.26C30.0019 71.7 30.1699 71.256 30.5059 70.928C30.8499 70.592 31.2859 70.424 31.8139 70.424ZM30.9379 72.26C30.9379 72.564 31.0179 72.808 31.1779 72.992C31.3379 73.176 31.5499 73.268 31.8139 73.268C32.0779 73.268 32.2899 73.176 32.4499 72.992C32.6179 72.808 32.7019 72.564 32.7019 72.26C32.7019 71.964 32.6179 71.724 32.4499 71.54C32.2899 71.356 32.0779 71.264 31.8139 71.264C31.5499 71.264 31.3379 71.356 31.1779 71.54C31.0179 71.724 30.9379 71.964 30.9379 72.26Z" fill="#C0C0C7"/>
<defs>
<linearGradient id="paint0_linear_564_30" x1="120" y1="164.066" x2="120" y2="316" gradientUnits="userSpaceOnUse">
<stop stop-color="#EDA13D"/>
<stop offset="1" stop-color="#EDA13D" stop-opacity="0"/>
</linearGradient>
<linearGradient id="paint1_linear_564_30" x1="152" y1="144.729" x2="152" y2="316" gradientUnits="userSpaceOnUse">
<stop stop-color="#7963B8"/>
<stop offset="1" stop-color="#7963B8" stop-opacity="0"/>
</linearGradient>
<linearGradient id="paint2_linear_564_30" x1="183.5" y1="193.072" x2="183.5" y2="316" gradientUnits="userSpaceOnUse">
<stop stop-color="#EDD13D"/>
<stop offset="1" stop-color="#EDD13D" stop-opacity="0"/>
</linearGradient>
<linearGradient id="paint3_linear_564_30" x1="215" y1="155.779" x2="215" y2="316" gradientUnits="userSpaceOnUse">
<stop stop-color="#59A5FE"/>
<stop offset="1" stop-color="#59A5FE" stop-opacity="0"/>
</linearGradient>
<linearGradient id="paint4_linear_564_30" x1="247" y1="95.0054" x2="247" y2="316" gradientUnits="userSpaceOnUse">
<stop stop-color="#B86363"/>
<stop offset="1" stop-color="#B86363" stop-opacity="0"/>
</linearGradient>
<linearGradient id="paint5_linear_564_30" x1="309" y1="195.834" x2="309" y2="316" gradientUnits="userSpaceOnUse">
<stop stop-color="#EDA13D"/>
<stop offset="1" stop-color="#EDA13D" stop-opacity="0"/>
</linearGradient>
<linearGradient id="paint6_linear_564_30" x1="340" y1="184.785" x2="340" y2="316" gradientUnits="userSpaceOnUse">
<stop stop-color="#7963B8"/>
<stop offset="1" stop-color="#7963B8" stop-opacity="0"/>
</linearGradient>
<linearGradient id="paint7_linear_564_30" x1="372" y1="197.216" x2="372" y2="316" gradientUnits="userSpaceOnUse">
<stop stop-color="#EDD13D"/>
<stop offset="1" stop-color="#EDD13D" stop-opacity="0"/>
</linearGradient>
<linearGradient id="paint8_linear_564_30" x1="404" y1="168.21" x2="404" y2="316.001" gradientUnits="userSpaceOnUse">
<stop stop-color="#59A5FE"/>
<stop offset="1" stop-color="#59A5FE" stop-opacity="0"/>
</linearGradient>
<linearGradient id="paint9_linear_564_30" x1="436" y1="144.729" x2="436" y2="316" gradientUnits="userSpaceOnUse">
<stop stop-color="#B86363"/>
<stop offset="1" stop-color="#B86363" stop-opacity="0"/>
</linearGradient>
<linearGradient id="paint10_linear_564_30" x1="497" y1="146.11" x2="497" y2="316" gradientUnits="userSpaceOnUse">
<stop stop-color="#EDA13D"/>
<stop offset="1" stop-color="#EDA13D" stop-opacity="0"/>
</linearGradient>
<linearGradient id="paint11_linear_564_30" x1="529" y1="193.071" x2="529" y2="315.999" gradientUnits="userSpaceOnUse">
<stop stop-color="#7963B8"/>
<stop offset="1" stop-color="#7963B8" stop-opacity="0"/>
</linearGradient>
<linearGradient id="paint12_linear_564_30" x1="561" y1="170.973" x2="561" y2="316.001" gradientUnits="userSpaceOnUse">
<stop stop-color="#EDD13D"/>
<stop offset="1" stop-color="#EDD13D" stop-opacity="0"/>
</linearGradient>
<linearGradient id="paint13_linear_564_30" x1="593" y1="130.917" x2="593" y2="316" gradientUnits="userSpaceOnUse">
<stop stop-color="#59A5FE"/>
<stop offset="1" stop-color="#59A5FE" stop-opacity="0"/>
</linearGradient>
<linearGradient id="paint14_linear_564_30" x1="624" y1="146.11" x2="624" y2="316" gradientUnits="userSpaceOnUse">
<stop stop-color="#B86363"/>
<stop offset="1" stop-color="#B86363" stop-opacity="0"/>
</linearGradient>
<linearGradient id="paint15_linear_564_30" x1="686" y1="81.1929" x2="686" y2="316" gradientUnits="userSpaceOnUse">
<stop stop-color="#EDA13D"/>
<stop offset="1" stop-color="#EDA13D" stop-opacity="0"/>
</linearGradient>
<linearGradient id="paint16_linear_564_30" x1="718" y1="144.729" x2="718" y2="316" gradientUnits="userSpaceOnUse">
<stop stop-color="#7963B8"/>
<stop offset="1" stop-color="#7963B8" stop-opacity="0"/>
</linearGradient>
<linearGradient id="paint17_linear_564_30" x1="749.5" y1="177.879" x2="749.5" y2="316" gradientUnits="userSpaceOnUse">
<stop stop-color="#EDD13D"/>
<stop offset="1" stop-color="#EDD13D" stop-opacity="0"/>
</linearGradient>
<linearGradient id="paint18_linear_564_30" x1="781" y1="115.724" x2="781" y2="316" gradientUnits="userSpaceOnUse">
<stop stop-color="#59A5FE"/>
<stop offset="1" stop-color="#59A5FE" stop-opacity="0"/>
</linearGradient>
<linearGradient id="paint19_linear_564_30" x1="813" y1="99.1499" x2="813" y2="316.001" gradientUnits="userSpaceOnUse">
<stop stop-color="#B86363"/>
<stop offset="1" stop-color="#B86363" stop-opacity="0"/>
</linearGradient>
<linearGradient id="paint20_linear_564_30" x1="875" y1="66" x2="875" y2="316" gradientUnits="userSpaceOnUse">
<stop stop-color="#EDA13D"/>
<stop offset="1" stop-color="#EDA13D" stop-opacity="0"/>
</linearGradient>
<linearGradient id="paint21_linear_564_30" x1="906.5" y1="148.873" x2="906.5" y2="316" gradientUnits="userSpaceOnUse">
<stop stop-color="#7963B8"/>
<stop offset="1" stop-color="#7963B8" stop-opacity="0"/>
</linearGradient>
<linearGradient id="paint22_linear_564_30" x1="938" y1="170.973" x2="938" y2="316.001" gradientUnits="userSpaceOnUse">
<stop stop-color="#EDD13D"/>
<stop offset="1" stop-color="#EDD13D" stop-opacity="0"/>
</linearGradient>
<linearGradient id="paint23_linear_564_30" x1="970" y1="99.1499" x2="970" y2="316.001" gradientUnits="userSpaceOnUse">
<stop stop-color="#59A5FE"/>
<stop offset="1" stop-color="#59A5FE" stop-opacity="0"/>
</linearGradient>
<linearGradient id="paint24_linear_564_30" x1="1002" y1="112.961" x2="1002" y2="316" gradientUnits="userSpaceOnUse">
<stop stop-color="#B86363"/>
<stop offset="1" stop-color="#B86363" stop-opacity="0"/>
</linearGradient>
</defs>
</svg>
