<svg width="529" height="283" viewBox="0 0 529 283" fill="none" xmlns="http://www.w3.org/2000/svg">
<path d="M2.00734 11.932C3.30334 11.044 4.33934 10.176 5.11534 9.328C5.89934 8.472 6.29134 7.68 6.29134 6.952C6.29134 6.52 6.18334 6.176 5.96734 5.92C5.75934 5.664 5.41934 5.536 4.94734 5.536C4.45934 5.536 4.09134 5.696 3.84334 6.016C3.59534 6.328 3.45534 6.776 3.42334 7.36H2.09134C2.14734 6.392 2.44334 5.652 2.97934 5.14C3.52334 4.628 4.21534 4.372 5.05534 4.372C5.87934 4.372 6.52334 4.592 6.98734 5.032C7.45934 5.464 7.69534 6.064 7.69534 6.832C7.69534 7.448 7.50334 8.072 7.11934 8.704C6.74334 9.336 6.26334 9.92 5.67934 10.456C5.09534 10.984 4.49134 11.44 3.86734 11.824H7.88734V12.94H2.00734V11.932ZM10.2439 11.488V13H8.69594V11.488H10.2439ZM17.1131 5.608H12.9251V8.128C13.1171 7.88 13.3891 7.684 13.7411 7.54C14.0931 7.388 14.4811 7.312 14.9051 7.312C15.4971 7.312 15.9891 7.44 16.3811 7.696C16.7731 7.944 17.0611 8.276 17.2451 8.692C17.4371 9.108 17.5331 9.568 17.5331 10.072C17.5331 10.96 17.2851 11.68 16.7891 12.232C16.2931 12.776 15.5731 13.048 14.6291 13.048C13.7411 13.048 13.0251 12.812 12.4811 12.34C11.9371 11.868 11.6411 11.24 11.5931 10.456H12.9371C13.0091 10.888 13.1851 11.228 13.4651 11.476C13.7531 11.724 14.1171 11.848 14.5571 11.848C15.1011 11.848 15.5091 11.684 15.7811 11.356C16.0531 11.028 16.1891 10.592 16.1891 10.048C16.1891 9.536 16.0491 9.136 15.7691 8.848C15.4891 8.552 15.0891 8.404 14.5691 8.404C14.2011 8.404 13.8771 8.484 13.5971 8.644C13.3251 8.804 13.1251 9.016 12.9971 9.28H11.6651V4.396H17.1131V5.608ZM18.7334 8.704C18.7334 10.056 18.9734 11.116 19.4534 11.884C19.9334 12.644 20.7334 13.024 21.8534 13.024C22.9734 13.024 23.7734 12.64 24.2534 11.872C24.7334 11.104 24.9734 10.048 24.9734 8.704C24.9734 7.368 24.7334 6.32 24.2534 5.56C23.7734 4.792 22.9734 4.408 21.8534 4.408C20.7334 4.408 19.9334 4.788 19.4534 5.548C18.9734 6.308 18.7334 7.36 18.7334 8.704ZM23.6054 8.704C23.6054 9.68 23.4854 10.428 23.2454 10.948C23.0054 11.468 22.5414 11.728 21.8534 11.728C21.1574 11.728 20.6894 11.468 20.4494 10.948C20.2094 10.428 20.0894 9.68 20.0894 8.704C20.0894 7.736 20.2094 6.996 20.4494 6.484C20.6894 5.972 21.1574 5.716 21.8534 5.716C22.5414 5.716 23.0054 5.976 23.2454 6.496C23.4854 7.008 23.6054 7.744 23.6054 8.704ZM27.7819 4.408C28.3179 4.408 28.7539 4.576 29.0899 4.912C29.4259 5.24 29.5939 5.688 29.5939 6.256C29.5939 6.824 29.4259 7.272 29.0899 7.6C28.7539 7.928 28.3179 8.092 27.7819 8.092C27.2459 8.092 26.8059 7.928 26.4619 7.6C26.1259 7.272 25.9579 6.824 25.9579 6.256C25.9579 5.688 26.1259 5.24 26.4619 4.912C26.8059 4.576 27.2459 4.408 27.7819 4.408ZM32.8579 4.516L28.0699 13H26.7259L31.5259 4.516H32.8579ZM26.8939 6.256C26.8939 6.56 26.9739 6.804 27.1339 6.988C27.2939 7.164 27.5059 7.252 27.7699 7.252C28.0339 7.252 28.2459 7.16 28.4059 6.976C28.5739 6.792 28.6579 6.552 28.6579 6.256C28.6579 5.952 28.5739 5.708 28.4059 5.524C28.2459 5.34 28.0339 5.248 27.7699 5.248C27.5059 5.248 27.2939 5.34 27.1339 5.524C26.9739 5.708 26.8939 5.952 26.8939 6.256ZM31.8139 9.424C32.3499 9.424 32.7859 9.588 33.1219 9.916C33.4659 10.244 33.6379 10.692 33.6379 11.26C33.6379 11.828 33.4659 12.28 33.1219 12.616C32.7859 12.944 32.3499 13.108 31.8139 13.108C31.2859 13.108 30.8499 12.944 30.5059 12.616C30.1699 12.28 30.0019 11.828 30.0019 11.26C30.0019 10.7 30.1699 10.256 30.5059 9.928C30.8499 9.592 31.2859 9.424 31.8139 9.424ZM30.9379 11.26C30.9379 11.564 31.0179 11.808 31.1779 11.992C31.3379 12.176 31.5499 12.268 31.8139 12.268C32.0779 12.268 32.2899 12.176 32.4499 11.992C32.6179 11.808 32.7019 11.564 32.7019 11.26C32.7019 10.964 32.6179 10.724 32.4499 10.54C32.2899 10.356 32.0779 10.264 31.8139 10.264C31.5499 10.264 31.3379 10.356 31.1779 10.54C31.0179 10.724 30.9379 10.964 30.9379 11.26Z" fill="#C0C0C7"/>
<path d="M2.21509 259.884C1.73509 259.116 1.49509 258.056 1.49509 256.704C1.49509 255.36 1.73509 254.308 2.21509 253.548C2.69509 252.788 3.49509 252.408 4.61509 252.408C5.73509 252.408 6.53509 252.792 7.01509 253.56C7.49509 254.32 7.73509 255.368 7.73509 256.704C7.73509 258.048 7.49509 259.104 7.01509 259.872C6.53509 260.64 5.73509 261.024 4.61509 261.024C3.49509 261.024 2.69509 260.644 2.21509 259.884ZM6.00709 258.948C6.24709 258.428 6.36709 257.68 6.36709 256.704C6.36709 255.744 6.24709 255.008 6.00709 254.496C5.76709 253.976 5.30309 253.716 4.61509 253.716C3.91909 253.716 3.45109 253.972 3.21109 254.484C2.97109 254.996 2.85109 255.736 2.85109 256.704C2.85109 257.68 2.97109 258.428 3.21109 258.948C3.45109 259.468 3.91909 259.728 4.61509 259.728C5.30309 259.728 5.76709 259.468 6.00709 258.948ZM10.2557 259.488V261H8.70766V259.488H10.2557ZM11.9768 259.884C11.4968 259.116 11.2568 258.056 11.2568 256.704C11.2568 255.36 11.4968 254.308 11.9768 253.548C12.4568 252.788 13.2568 252.408 14.3768 252.408C15.4968 252.408 16.2968 252.792 16.7768 253.56C17.2568 254.32 17.4968 255.368 17.4968 256.704C17.4968 258.048 17.2568 259.104 16.7768 259.872C16.2968 260.64 15.4968 261.024 14.3768 261.024C13.2568 261.024 12.4568 260.644 11.9768 259.884ZM15.7688 258.948C16.0088 258.428 16.1288 257.68 16.1288 256.704C16.1288 255.744 16.0088 255.008 15.7688 254.496C15.5288 253.976 15.0648 253.716 14.3768 253.716C13.6808 253.716 13.2128 253.972 12.9728 254.484C12.7328 254.996 12.6128 255.736 12.6128 256.704C12.6128 257.68 12.7328 258.428 12.9728 258.948C13.2128 259.468 13.6808 259.728 14.3768 259.728C15.0648 259.728 15.5288 259.468 15.7688 258.948ZM19.4534 259.884C18.9734 259.116 18.7334 258.056 18.7334 256.704C18.7334 255.36 18.9734 254.308 19.4534 253.548C19.9334 252.788 20.7334 252.408 21.8534 252.408C22.9734 252.408 23.7734 252.792 24.2534 253.56C24.7334 254.32 24.9734 255.368 24.9734 256.704C24.9734 258.048 24.7334 259.104 24.2534 259.872C23.7734 260.64 22.9734 261.024 21.8534 261.024C20.7334 261.024 19.9334 260.644 19.4534 259.884ZM23.2454 258.948C23.4854 258.428 23.6054 257.68 23.6054 256.704C23.6054 255.744 23.4854 255.008 23.2454 254.496C23.0054 253.976 22.5414 253.716 21.8534 253.716C21.1574 253.716 20.6894 253.972 20.4494 254.484C20.2094 254.996 20.0894 255.736 20.0894 256.704C20.0894 257.68 20.2094 258.428 20.4494 258.948C20.6894 259.468 21.1574 259.728 21.8534 259.728C22.5414 259.728 23.0054 259.468 23.2454 258.948ZM27.7819 252.408C28.3179 252.408 28.7539 252.576 29.0899 252.912C29.4259 253.24 29.5939 253.688 29.5939 254.256C29.5939 254.824 29.4259 255.272 29.0899 255.6C28.7539 255.928 28.3179 256.092 27.7819 256.092C27.2459 256.092 26.8059 255.928 26.4619 255.6C26.1259 255.272 25.9579 254.824 25.9579 254.256C25.9579 253.688 26.1259 253.24 26.4619 252.912C26.8059 252.576 27.2459 252.408 27.7819 252.408ZM32.8579 252.516L28.0699 261H26.7259L31.5259 252.516H32.8579ZM26.8939 254.256C26.8939 254.56 26.9739 254.804 27.1339 254.988C27.2939 255.164 27.5059 255.252 27.7699 255.252C28.0339 255.252 28.2459 255.16 28.4059 254.976C28.5739 254.792 28.6579 254.552 28.6579 254.256C28.6579 253.952 28.5739 253.708 28.4059 253.524C28.2459 253.34 28.0339 253.248 27.7699 253.248C27.5059 253.248 27.2939 253.34 27.1339 253.524C26.9739 253.708 26.8939 253.952 26.8939 254.256ZM31.8139 257.424C32.3499 257.424 32.7859 257.588 33.1219 257.916C33.4659 258.244 33.6379 258.692 33.6379 259.26C33.6379 259.828 33.4659 260.28 33.1219 260.616C32.7859 260.944 32.3499 261.108 31.8139 261.108C31.2859 261.108 30.8499 260.944 30.5059 260.616C30.1699 260.28 30.0019 259.828 30.0019 259.26C30.0019 258.7 30.1699 258.256 30.5059 257.928C30.8499 257.592 31.2859 257.424 31.8139 257.424ZM30.9379 259.26C30.9379 259.564 31.0179 259.808 31.1779 259.992C31.3379 260.176 31.5499 260.268 31.8139 260.268C32.0779 260.268 32.2899 260.176 32.4499 259.992C32.6179 259.808 32.7019 259.564 32.7019 259.26C32.7019 258.964 32.6179 258.724 32.4499 258.54C32.2899 258.356 32.0779 258.264 31.8139 258.264C31.5499 258.264 31.3379 258.356 31.1779 258.54C31.0179 258.724 30.9379 258.964 30.9379 259.26Z" fill="#C0C0C7"/>
<path opacity="0.08" d="M42 257L529 257" stroke="white" stroke-dasharray="8 8"/>
<path opacity="0.08" d="M42 209L529 209" stroke="white" stroke-dasharray="8 8"/>
<path opacity="0.08" d="M42 159L529 159" stroke="white" stroke-dasharray="8 8"/>
<path opacity="0.08" d="M42 109L529 109" stroke="white" stroke-dasharray="8 8"/>
<path opacity="0.08" d="M42 59L529 59" stroke="white" stroke-dasharray="8 8"/>
<path opacity="0.08" d="M42 9L529 9.00005" stroke="white" stroke-dasharray="8 8"/>
<path d="M76.7558 269.528V275.504C76.7558 276.32 76.5278 276.956 76.0718 277.412C75.6238 277.86 74.9998 278.084 74.1998 278.084C73.3358 278.084 72.6518 277.836 72.1478 277.34C71.6438 276.844 71.3918 276.136 71.3918 275.216H73.0598C73.0598 275.648 73.1478 275.98 73.3238 276.212C73.5078 276.444 73.7758 276.56 74.1278 276.56C74.4478 276.56 74.6838 276.468 74.8358 276.284C74.9878 276.092 75.0638 275.832 75.0638 275.504V269.528H76.7558ZM80.8408 271.268C81.4008 271.268 81.8808 271.4 82.2808 271.664C82.6808 271.928 82.9648 272.284 83.1328 272.732V271.352H84.8128V278H83.1328V276.608C82.9648 277.056 82.6808 277.416 82.2808 277.688C81.8808 277.952 81.4008 278.084 80.8408 278.084C80.2808 278.084 79.7768 277.948 79.3288 277.676C78.8808 277.404 78.5288 277.012 78.2728 276.5C78.0248 275.98 77.9008 275.372 77.9008 274.676C77.9008 273.98 78.0248 273.376 78.2728 272.864C78.5288 272.344 78.8808 271.948 79.3288 271.676C79.7768 271.404 80.2808 271.268 80.8408 271.268ZM81.3688 272.744C80.8408 272.744 80.4168 272.916 80.0968 273.26C79.7768 273.604 79.6168 274.076 79.6168 274.676C79.6168 275.276 79.7768 275.748 80.0968 276.092C80.4168 276.428 80.8408 276.596 81.3688 276.596C81.8808 276.596 82.3008 276.424 82.6288 276.08C82.9648 275.728 83.1328 275.26 83.1328 274.676C83.1328 274.084 82.9648 273.616 82.6288 273.272C82.3008 272.92 81.8808 272.744 81.3688 272.744ZM90.3061 271.256C91.0741 271.256 91.6861 271.508 92.1421 272.012C92.5981 272.516 92.8261 273.224 92.8261 274.136V278H91.1461V274.328C91.1461 273.8 91.0101 273.392 90.7381 273.104C90.4661 272.808 90.0941 272.66 89.6221 272.66C89.1421 272.66 88.7581 272.816 88.4701 273.128C88.1821 273.44 88.0381 273.888 88.0381 274.472V278H86.3461V271.352H88.0381V272.684C88.2141 272.236 88.5021 271.888 88.9021 271.64C89.3101 271.384 89.7781 271.256 90.3061 271.256ZM100.675 271.352V278H98.9829V276.656C98.8069 277.104 98.5149 277.456 98.1069 277.712C97.7069 277.96 97.2429 278.084 96.7149 278.084C95.9469 278.084 95.3349 277.832 94.8789 277.328C94.4229 276.824 94.1949 276.12 94.1949 275.216V271.352H95.8749V275.024C95.8749 275.552 96.0109 275.964 96.2829 276.26C96.5549 276.548 96.9229 276.692 97.3869 276.692C97.8749 276.692 98.2629 276.536 98.5509 276.224C98.8389 275.912 98.9829 275.464 98.9829 274.88V271.352H100.675ZM104.817 271.268C105.377 271.268 105.857 271.4 106.257 271.664C106.657 271.928 106.941 272.284 107.109 272.732V271.352H108.789V278H107.109V276.608C106.941 277.056 106.657 277.416 106.257 277.688C105.857 277.952 105.377 278.084 104.817 278.084C104.257 278.084 103.753 277.948 103.305 277.676C102.857 277.404 102.505 277.012 102.249 276.5C102.001 275.98 101.877 275.372 101.877 274.676C101.877 273.98 102.001 273.376 102.249 272.864C102.505 272.344 102.857 271.948 103.305 271.676C103.753 271.404 104.257 271.268 104.817 271.268ZM105.345 272.744C104.817 272.744 104.393 272.916 104.073 273.26C103.753 273.604 103.593 274.076 103.593 274.676C103.593 275.276 103.753 275.748 104.073 276.092C104.393 276.428 104.817 276.596 105.345 276.596C105.857 276.596 106.277 276.424 106.605 276.08C106.941 275.728 107.109 275.26 107.109 274.676C107.109 274.084 106.941 273.616 106.605 273.272C106.277 272.92 105.857 272.744 105.345 272.744ZM112.015 272.624C112.263 272.2 112.591 271.868 112.999 271.628C113.407 271.38 113.863 271.256 114.367 271.256V273.068H113.875C112.635 273.068 112.015 273.644 112.015 274.796V278H110.323V271.352H112.015V272.624ZM116.443 271.352L118.255 275.864L119.935 271.352H121.795L117.727 281.168H115.855L117.355 277.808L114.559 271.352H116.443Z" fill="#C0C0C7"/>
<path d="M169.415 269.528V270.872H165.851V273.14H168.707V274.436H165.851V278H164.159V269.528H169.415ZM176.809 274.424C176.809 274.592 176.789 274.784 176.749 275H171.877C171.901 275.592 172.061 276.028 172.357 276.308C172.653 276.588 173.021 276.728 173.461 276.728C173.853 276.728 174.177 276.632 174.433 276.44C174.697 276.248 174.865 275.988 174.937 275.66H176.725C176.637 276.124 176.449 276.54 176.161 276.908C175.873 277.276 175.501 277.564 175.045 277.772C174.597 277.98 174.097 278.084 173.545 278.084C172.897 278.084 172.321 277.948 171.817 277.676C171.313 277.396 170.921 277 170.641 276.488C170.361 275.976 170.221 275.372 170.221 274.676C170.221 273.98 170.361 273.376 170.641 272.864C170.921 272.344 171.313 271.948 171.817 271.676C172.321 271.404 172.897 271.268 173.545 271.268C174.201 271.268 174.773 271.404 175.261 271.676C175.757 271.948 176.137 272.324 176.401 272.804C176.673 273.276 176.809 273.816 176.809 274.424ZM175.105 274.256C175.129 273.712 174.985 273.3 174.673 273.02C174.369 272.74 173.993 272.6 173.545 272.6C173.089 272.6 172.705 272.74 172.393 273.02C172.081 273.3 171.909 273.712 171.877 274.256H175.105ZM181.982 271.268C182.542 271.268 183.046 271.404 183.494 271.676C183.942 271.948 184.29 272.344 184.538 272.864C184.794 273.376 184.922 273.98 184.922 274.676C184.922 275.372 184.794 275.98 184.538 276.5C184.29 277.012 183.942 277.404 183.494 277.676C183.046 277.948 182.542 278.084 181.982 278.084C181.422 278.084 180.942 277.952 180.542 277.688C180.15 277.416 179.87 277.056 179.702 276.608V278H178.01V269.12H179.702V272.732C179.87 272.284 180.15 271.928 180.542 271.664C180.942 271.4 181.422 271.268 181.982 271.268ZM181.454 272.744C180.942 272.744 180.518 272.92 180.182 273.272C179.854 273.616 179.69 274.084 179.69 274.676C179.69 275.26 179.854 275.728 180.182 276.08C180.518 276.424 180.942 276.596 181.454 276.596C181.982 276.596 182.406 276.428 182.726 276.092C183.046 275.748 183.206 275.276 183.206 274.676C183.206 274.076 183.046 273.604 182.726 273.26C182.406 272.916 181.982 272.744 181.454 272.744ZM187.812 272.624C188.06 272.2 188.388 271.868 188.796 271.628C189.204 271.38 189.66 271.256 190.164 271.256V273.068H189.672C188.432 273.068 187.812 273.644 187.812 274.796V278H186.12V271.352H187.812V272.624ZM197.46 271.352V278H195.768V276.656C195.592 277.104 195.3 277.456 194.892 277.712C194.492 277.96 194.028 278.084 193.5 278.084C192.732 278.084 192.12 277.832 191.664 277.328C191.208 276.824 190.98 276.12 190.98 275.216V271.352H192.66V275.024C192.66 275.552 192.796 275.964 193.068 276.26C193.34 276.548 193.708 276.692 194.172 276.692C194.66 276.692 195.048 276.536 195.336 276.224C195.624 275.912 195.768 275.464 195.768 274.88V271.352H197.46ZM201.602 271.268C202.162 271.268 202.642 271.4 203.042 271.664C203.442 271.928 203.726 272.284 203.894 272.732V271.352H205.574V278H203.894V276.608C203.726 277.056 203.442 277.416 203.042 277.688C202.642 277.952 202.162 278.084 201.602 278.084C201.042 278.084 200.538 277.948 200.09 277.676C199.642 277.404 199.29 277.012 199.034 276.5C198.786 275.98 198.662 275.372 198.662 274.676C198.662 273.98 198.786 273.376 199.034 272.864C199.29 272.344 199.642 271.948 200.09 271.676C200.538 271.404 201.042 271.268 201.602 271.268ZM202.13 272.744C201.602 272.744 201.178 272.916 200.858 273.26C200.538 273.604 200.378 274.076 200.378 274.676C200.378 275.276 200.538 275.748 200.858 276.092C201.178 276.428 201.602 276.596 202.13 276.596C202.642 276.596 203.062 276.424 203.39 276.08C203.726 275.728 203.894 275.26 203.894 274.676C203.894 274.084 203.726 273.616 203.39 273.272C203.062 272.92 202.642 272.744 202.13 272.744ZM208.8 272.624C209.048 272.2 209.376 271.868 209.784 271.628C210.192 271.38 210.648 271.256 211.152 271.256V273.068H210.66C209.42 273.068 208.8 273.644 208.8 274.796V278H207.108V271.352H208.8V272.624ZM213.228 271.352L215.04 275.864L216.72 271.352H218.58L214.512 281.168H212.64L214.14 277.808L211.344 271.352H213.228Z" fill="#C0C0C7"/>
<path d="M276.336 269.624V278H274.656V272.156L272.508 278H271.044L268.896 272.18V278H267.204V269.624H269.256L271.8 275.924L274.296 269.624H276.336ZM280.472 271.268C281.032 271.268 281.512 271.4 281.912 271.664C282.312 271.928 282.596 272.284 282.764 272.732V271.352H284.444V278H282.764V276.608C282.596 277.056 282.312 277.416 281.912 277.688C281.512 277.952 281.032 278.084 280.472 278.084C279.912 278.084 279.408 277.948 278.96 277.676C278.512 277.404 278.16 277.012 277.904 276.5C277.656 275.98 277.532 275.372 277.532 274.676C277.532 273.98 277.656 273.376 277.904 272.864C278.16 272.344 278.512 271.948 278.96 271.676C279.408 271.404 279.912 271.268 280.472 271.268ZM281 272.744C280.472 272.744 280.048 272.916 279.728 273.26C279.408 273.604 279.248 274.076 279.248 274.676C279.248 275.276 279.408 275.748 279.728 276.092C280.048 276.428 280.472 276.596 281 276.596C281.512 276.596 281.932 276.424 282.26 276.08C282.596 275.728 282.764 275.26 282.764 274.676C282.764 274.084 282.596 273.616 282.26 273.272C281.932 272.92 281.512 272.744 281 272.744ZM287.669 272.624C287.917 272.2 288.245 271.868 288.653 271.628C289.061 271.38 289.517 271.256 290.021 271.256V273.068H289.529C288.289 273.068 287.669 273.644 287.669 274.796V278H285.977V271.352H287.669V272.624ZM293.945 271.268C294.801 271.268 295.513 271.5 296.081 271.964C296.657 272.428 297.017 273.06 297.161 273.86H295.373C295.301 273.508 295.137 273.232 294.881 273.032C294.625 272.824 294.301 272.72 293.909 272.72C293.461 272.72 293.085 272.888 292.781 273.224C292.485 273.552 292.337 274.036 292.337 274.676C292.337 275.316 292.485 275.804 292.781 276.14C293.085 276.468 293.461 276.632 293.909 276.632C294.301 276.632 294.625 276.532 294.881 276.332C295.137 276.124 295.301 275.844 295.373 275.492H297.161C297.017 276.292 296.657 276.924 296.081 277.388C295.513 277.852 294.801 278.084 293.945 278.084C293.297 278.084 292.721 277.948 292.217 277.676C291.713 277.396 291.321 277 291.041 276.488C290.761 275.976 290.621 275.372 290.621 274.676C290.621 273.98 290.761 273.376 291.041 272.864C291.321 272.344 291.713 271.948 292.217 271.676C292.721 271.404 293.297 271.268 293.945 271.268ZM302.324 271.256C303.092 271.256 303.704 271.508 304.16 272.012C304.616 272.516 304.844 273.224 304.844 274.136V278H303.164V274.328C303.164 273.8 303.028 273.392 302.756 273.104C302.484 272.808 302.112 272.66 301.64 272.66C301.16 272.66 300.776 272.816 300.488 273.128C300.2 273.44 300.056 273.888 300.056 274.472V278H298.364V269.12H300.056V272.684C300.232 272.236 300.52 271.888 300.92 271.64C301.328 271.384 301.796 271.256 302.324 271.256Z" fill="#C0C0C7"/>
<path d="M473.369 269.624V278H471.689V272.156L469.541 278H468.077L465.929 272.18V278H464.237V269.624H466.289L468.833 275.924L471.329 269.624H473.369ZM477.505 271.268C478.065 271.268 478.545 271.4 478.945 271.664C479.345 271.928 479.629 272.284 479.797 272.732V271.352H481.477V278H479.797V276.608C479.629 277.056 479.345 277.416 478.945 277.688C478.545 277.952 478.065 278.084 477.505 278.084C476.945 278.084 476.441 277.948 475.993 277.676C475.545 277.404 475.193 277.012 474.937 276.5C474.689 275.98 474.565 275.372 474.565 274.676C474.565 273.98 474.689 273.376 474.937 272.864C475.193 272.344 475.545 271.948 475.993 271.676C476.441 271.404 476.945 271.268 477.505 271.268ZM478.033 272.744C477.505 272.744 477.081 272.916 476.761 273.26C476.441 273.604 476.281 274.076 476.281 274.676C476.281 275.276 476.441 275.748 476.761 276.092C477.081 276.428 477.505 276.596 478.033 276.596C478.545 276.596 478.965 276.424 479.293 276.08C479.629 275.728 479.797 275.26 479.797 274.676C479.797 274.084 479.629 273.616 479.293 273.272C478.965 272.92 478.545 272.744 478.033 272.744ZM484.15 271.352L485.962 275.864L487.642 271.352H489.502L485.434 281.168H483.562L485.062 277.808L482.266 271.352H484.15Z" fill="#C0C0C7"/>
<path d="M372.936 276.296H369.54L368.94 278H367.152L370.272 269.624H372.204L375.312 278H373.524L372.936 276.296ZM372.48 275.012L371.232 271.436L369.984 275.012H372.48ZM380.197 271.268C380.757 271.268 381.261 271.404 381.709 271.676C382.157 271.948 382.505 272.344 382.753 272.864C383.009 273.376 383.137 273.98 383.137 274.676C383.137 275.372 383.009 275.98 382.753 276.5C382.505 277.012 382.157 277.404 381.709 277.676C381.261 277.948 380.757 278.084 380.197 278.084C379.637 278.084 379.157 277.952 378.757 277.688C378.365 277.416 378.085 277.056 377.917 276.608V281.168H376.225V271.352H377.917V272.732C378.085 272.284 378.365 271.928 378.757 271.664C379.157 271.4 379.637 271.268 380.197 271.268ZM379.669 272.744C379.157 272.744 378.733 272.92 378.397 273.272C378.069 273.616 377.905 274.084 377.905 274.676C377.905 275.26 378.069 275.728 378.397 276.08C378.733 276.424 379.157 276.596 379.669 276.596C380.197 276.596 380.621 276.428 380.941 276.092C381.261 275.748 381.421 275.276 381.421 274.676C381.421 274.076 381.261 273.604 380.941 273.26C380.621 272.916 380.197 272.744 379.669 272.744ZM386.026 272.624C386.274 272.2 386.602 271.868 387.01 271.628C387.418 271.38 387.874 271.256 388.378 271.256V273.068H387.886C386.646 273.068 386.026 273.644 386.026 274.796V278H384.334V271.352H386.026V272.624ZM389.123 269.444C389.123 269.172 389.219 268.952 389.411 268.784C389.603 268.608 389.855 268.52 390.167 268.52C390.479 268.52 390.731 268.608 390.923 268.784C391.115 268.952 391.211 269.172 391.211 269.444C391.211 269.708 391.115 269.928 390.923 270.104C390.731 270.272 390.479 270.356 390.167 270.356C389.855 270.356 389.603 270.272 389.411 270.104C389.219 269.928 389.123 269.708 389.123 269.444ZM391.007 271.352V278H389.315V271.352H391.007ZM394.23 269.12V278H392.538V269.12H394.23Z" fill="#C0C0C7"/>
<rect x="58" y="136" width="12" height="121" rx="4" fill="url(#paint0_linear_98_276)"/>
<rect x="74" y="120" width="12" height="137" rx="4" fill="url(#paint1_linear_98_276)"/>
<rect x="90" y="159" width="12" height="98" rx="4" fill="url(#paint2_linear_98_276)"/>
<rect x="106" y="129" width="12" height="128" rx="4" fill="url(#paint3_linear_98_276)"/>
<rect x="122" y="80" width="12" height="177" rx="4" fill="url(#paint4_linear_98_276)"/>
<rect x="153" y="161" width="12" height="96" rx="4" fill="url(#paint5_linear_98_276)"/>
<rect x="169" y="152" width="12" height="105" rx="4" fill="url(#paint6_linear_98_276)"/>
<rect x="185" y="162" width="12" height="95" rx="4" fill="url(#paint7_linear_98_276)"/>
<rect x="201" y="139" width="12" height="118" rx="4" fill="url(#paint8_linear_98_276)"/>
<rect x="217" y="120" width="12" height="137" rx="4" fill="url(#paint9_linear_98_276)"/>
<rect x="248" y="121" width="12" height="136" rx="4" fill="url(#paint10_linear_98_276)"/>
<rect x="264" y="159" width="12" height="98" rx="4" fill="url(#paint11_linear_98_276)"/>
<rect x="280" y="141" width="12" height="116" rx="4" fill="url(#paint12_linear_98_276)"/>
<rect x="296" y="109" width="12" height="148" rx="4" fill="url(#paint13_linear_98_276)"/>
<rect x="312" y="121" width="12" height="136" rx="4" fill="url(#paint14_linear_98_276)"/>
<rect x="343" y="69" width="12" height="188" rx="4" fill="url(#paint15_linear_98_276)"/>
<rect x="359" y="120" width="12" height="137" rx="4" fill="url(#paint16_linear_98_276)"/>
<rect x="375" y="147" width="12" height="110" rx="4" fill="url(#paint17_linear_98_276)"/>
<rect x="391" y="97" width="12" height="160" rx="4" fill="url(#paint18_linear_98_276)"/>
<rect x="407" y="84" width="12" height="173" rx="4" fill="url(#paint19_linear_98_276)"/>
<rect x="438" y="57" width="12" height="200" rx="4" fill="url(#paint20_linear_98_276)"/>
<rect x="454" y="123" width="12" height="134" rx="4" fill="url(#paint21_linear_98_276)"/>
<rect x="470" y="141" width="12" height="116" rx="4" fill="url(#paint22_linear_98_276)"/>
<rect x="486" y="83" width="12" height="174" rx="4" fill="url(#paint23_linear_98_276)"/>
<rect x="502" y="95" width="12" height="162" rx="4" fill="url(#paint24_linear_98_276)"/>
<path d="M93.5 121.5L176.651 140.555C185.073 142.486 193.852 142.2 202.13 139.727L377.421 87.3679C380.467 86.458 383.592 85.8408 386.756 85.5244L477 76.5" stroke="#63B866" stroke-width="2"/>
<path d="M1.48338 208.704C1.48338 210.056 1.72338 211.116 2.20338 211.884C2.68338 212.644 3.48338 213.024 4.60338 213.024C5.72338 213.024 6.52338 212.64 7.00338 211.872C7.48338 211.104 7.72338 210.048 7.72338 208.704C7.72338 207.368 7.48338 206.32 7.00338 205.56C6.52338 204.792 5.72338 204.408 4.60338 204.408C3.48338 204.408 2.68338 204.788 2.20338 205.548C1.72338 206.308 1.48338 207.36 1.48338 208.704ZM6.35538 208.704C6.35538 209.68 6.23538 210.428 5.99538 210.948C5.75538 211.468 5.29138 211.728 4.60338 211.728C3.90738 211.728 3.43938 211.468 3.19938 210.948C2.95938 210.428 2.83938 209.68 2.83938 208.704C2.83938 207.736 2.95938 206.996 3.19938 206.484C3.43938 205.972 3.90738 205.716 4.60338 205.716C5.29138 205.716 5.75538 205.976 5.99538 206.496C6.23538 207.008 6.35538 207.744 6.35538 208.704ZM10.2439 211.488V213H8.69594V211.488H10.2439ZM17.1131 205.608H12.9251V208.128C13.1171 207.88 13.3891 207.684 13.7411 207.54C14.0931 207.388 14.4811 207.312 14.9051 207.312C15.4971 207.312 15.9891 207.44 16.3811 207.696C16.7731 207.944 17.0611 208.276 17.2451 208.692C17.4371 209.108 17.5331 209.568 17.5331 210.072C17.5331 210.96 17.2851 211.68 16.7891 212.232C16.2931 212.776 15.5731 213.048 14.6291 213.048C13.7411 213.048 13.0251 212.812 12.4811 212.34C11.9371 211.868 11.6411 211.24 11.5931 210.456H12.9371C13.0091 210.888 13.1851 211.228 13.4651 211.476C13.7531 211.724 14.1171 211.848 14.5571 211.848C15.1011 211.848 15.5091 211.684 15.7811 211.356C16.0531 211.028 16.1891 210.592 16.1891 210.048C16.1891 209.536 16.0491 209.136 15.7691 208.848C15.4891 208.552 15.0891 208.404 14.5691 208.404C14.2011 208.404 13.8771 208.484 13.5971 208.644C13.3251 208.804 13.1251 209.016 12.9971 209.28H11.6651V204.396H17.1131V205.608ZM18.7334 208.704C18.7334 210.056 18.9734 211.116 19.4534 211.884C19.9334 212.644 20.7334 213.024 21.8534 213.024C22.9734 213.024 23.7734 212.64 24.2534 211.872C24.7334 211.104 24.9734 210.048 24.9734 208.704C24.9734 207.368 24.7334 206.32 24.2534 205.56C23.7734 204.792 22.9734 204.408 21.8534 204.408C20.7334 204.408 19.9334 204.788 19.4534 205.548C18.9734 206.308 18.7334 207.36 18.7334 208.704ZM23.6054 208.704C23.6054 209.68 23.4854 210.428 23.2454 210.948C23.0054 211.468 22.5414 211.728 21.8534 211.728C21.1574 211.728 20.6894 211.468 20.4494 210.948C20.2094 210.428 20.0894 209.68 20.0894 208.704C20.0894 207.736 20.2094 206.996 20.4494 206.484C20.6894 205.972 21.1574 205.716 21.8534 205.716C22.5414 205.716 23.0054 205.976 23.2454 206.496C23.4854 207.008 23.6054 207.744 23.6054 208.704ZM27.7819 204.408C28.3179 204.408 28.7539 204.576 29.0899 204.912C29.4259 205.24 29.5939 205.688 29.5939 206.256C29.5939 206.824 29.4259 207.272 29.0899 207.6C28.7539 207.928 28.3179 208.092 27.7819 208.092C27.2459 208.092 26.8059 207.928 26.4619 207.6C26.1259 207.272 25.9579 206.824 25.9579 206.256C25.9579 205.688 26.1259 205.24 26.4619 204.912C26.8059 204.576 27.2459 204.408 27.7819 204.408ZM32.8579 204.516L28.0699 213H26.7259L31.5259 204.516H32.8579ZM26.8939 206.256C26.8939 206.56 26.9739 206.804 27.1339 206.988C27.2939 207.164 27.5059 207.252 27.7699 207.252C28.0339 207.252 28.2459 207.16 28.4059 206.976C28.5739 206.792 28.6579 206.552 28.6579 206.256C28.6579 205.952 28.5739 205.708 28.4059 205.524C28.2459 205.34 28.0339 205.248 27.7699 205.248C27.5059 205.248 27.2939 205.34 27.1339 205.524C26.9739 205.708 26.8939 205.952 26.8939 206.256ZM31.8139 209.424C32.3499 209.424 32.7859 209.588 33.1219 209.916C33.4659 210.244 33.6379 210.692 33.6379 211.26C33.6379 211.828 33.4659 212.28 33.1219 212.616C32.7859 212.944 32.3499 213.108 31.8139 213.108C31.2859 213.108 30.8499 212.944 30.5059 212.616C30.1699 212.28 30.0019 211.828 30.0019 211.26C30.0019 210.7 30.1699 210.256 30.5059 209.928C30.8499 209.592 31.2859 209.424 31.8139 209.424ZM30.9379 211.26C30.9379 211.564 31.0179 211.808 31.1779 211.992C31.3379 212.176 31.5499 212.268 31.8139 212.268C32.0779 212.268 32.2899 212.176 32.4499 211.992C32.6179 211.808 32.7019 211.564 32.7019 211.26C32.7019 210.964 32.6179 210.724 32.4499 210.54C32.2899 210.356 32.0779 210.264 31.8139 210.264C31.5499 210.264 31.3379 210.356 31.1779 210.54C31.0179 210.724 30.9379 210.964 30.9379 211.26Z" fill="#C0C0C7"/>
<path d="M4.82397 155.812V154.528H7.53597V163H6.09597V155.812H4.82397ZM10.2557 161.488V163H8.70766V161.488H10.2557ZM11.2568 158.704C11.2568 160.056 11.4968 161.116 11.9768 161.884C12.4568 162.644 13.2568 163.024 14.3768 163.024C15.4968 163.024 16.2968 162.64 16.7768 161.872C17.2568 161.104 17.4968 160.048 17.4968 158.704C17.4968 157.368 17.2568 156.32 16.7768 155.56C16.2968 154.792 15.4968 154.408 14.3768 154.408C13.2568 154.408 12.4568 154.788 11.9768 155.548C11.4968 156.308 11.2568 157.36 11.2568 158.704ZM16.1288 158.704C16.1288 159.68 16.0088 160.428 15.7688 160.948C15.5288 161.468 15.0648 161.728 14.3768 161.728C13.6808 161.728 13.2128 161.468 12.9728 160.948C12.7328 160.428 12.6128 159.68 12.6128 158.704C12.6128 157.736 12.7328 156.996 12.9728 156.484C13.2128 155.972 13.6808 155.716 14.3768 155.716C15.0648 155.716 15.5288 155.976 15.7688 156.496C16.0088 157.008 16.1288 157.744 16.1288 158.704ZM18.7334 158.704C18.7334 160.056 18.9734 161.116 19.4534 161.884C19.9334 162.644 20.7334 163.024 21.8534 163.024C22.9734 163.024 23.7734 162.64 24.2534 161.872C24.7334 161.104 24.9734 160.048 24.9734 158.704C24.9734 157.368 24.7334 156.32 24.2534 155.56C23.7734 154.792 22.9734 154.408 21.8534 154.408C20.7334 154.408 19.9334 154.788 19.4534 155.548C18.9734 156.308 18.7334 157.36 18.7334 158.704ZM23.6054 158.704C23.6054 159.68 23.4854 160.428 23.2454 160.948C23.0054 161.468 22.5414 161.728 21.8534 161.728C21.1574 161.728 20.6894 161.468 20.4494 160.948C20.2094 160.428 20.0894 159.68 20.0894 158.704C20.0894 157.736 20.2094 156.996 20.4494 156.484C20.6894 155.972 21.1574 155.716 21.8534 155.716C22.5414 155.716 23.0054 155.976 23.2454 156.496C23.4854 157.008 23.6054 157.744 23.6054 158.704ZM27.7819 154.408C28.3179 154.408 28.7539 154.576 29.0899 154.912C29.4259 155.24 29.5939 155.688 29.5939 156.256C29.5939 156.824 29.4259 157.272 29.0899 157.6C28.7539 157.928 28.3179 158.092 27.7819 158.092C27.2459 158.092 26.8059 157.928 26.4619 157.6C26.1259 157.272 25.9579 156.824 25.9579 156.256C25.9579 155.688 26.1259 155.24 26.4619 154.912C26.8059 154.576 27.2459 154.408 27.7819 154.408ZM32.8579 154.516L28.0699 163H26.7259L31.5259 154.516H32.8579ZM26.8939 156.256C26.8939 156.56 26.9739 156.804 27.1339 156.988C27.2939 157.164 27.5059 157.252 27.7699 157.252C28.0339 157.252 28.2459 157.16 28.4059 156.976C28.5739 156.792 28.6579 156.552 28.6579 156.256C28.6579 155.952 28.5739 155.708 28.4059 155.524C28.2459 155.34 28.0339 155.248 27.7699 155.248C27.5059 155.248 27.2939 155.34 27.1339 155.524C26.9739 155.708 26.8939 155.952 26.8939 156.256ZM31.8139 159.424C32.3499 159.424 32.7859 159.588 33.1219 159.916C33.4659 160.244 33.6379 160.692 33.6379 161.26C33.6379 161.828 33.4659 162.28 33.1219 162.616C32.7859 162.944 32.3499 163.108 31.8139 163.108C31.2859 163.108 30.8499 162.944 30.5059 162.616C30.1699 162.28 30.0019 161.828 30.0019 161.26C30.0019 160.7 30.1699 160.256 30.5059 159.928C30.8499 159.592 31.2859 159.424 31.8139 159.424ZM30.9379 161.26C30.9379 161.564 31.0179 161.808 31.1779 161.992C31.3379 162.176 31.5499 162.268 31.8139 162.268C32.0779 162.268 32.2899 162.176 32.4499 161.992C32.6179 161.808 32.7019 161.564 32.7019 161.26C32.7019 160.964 32.6179 160.724 32.4499 160.54C32.2899 160.356 32.0779 160.264 31.8139 160.264C31.5499 160.264 31.3379 160.356 31.1779 160.54C31.0179 160.724 30.9379 160.964 30.9379 161.26Z" fill="#C0C0C7"/>
<path d="M4.81225 105.812V104.528H7.52425V113H6.08425V105.812H4.81225ZM10.2439 111.488V113H8.69594V111.488H10.2439ZM17.1131 105.608H12.9251V108.128C13.1171 107.88 13.3891 107.684 13.7411 107.54C14.0931 107.388 14.4811 107.312 14.9051 107.312C15.4971 107.312 15.9891 107.44 16.3811 107.696C16.7731 107.944 17.0611 108.276 17.2451 108.692C17.4371 109.108 17.5331 109.568 17.5331 110.072C17.5331 110.96 17.2851 111.68 16.7891 112.232C16.2931 112.776 15.5731 113.048 14.6291 113.048C13.7411 113.048 13.0251 112.812 12.4811 112.34C11.9371 111.868 11.6411 111.24 11.5931 110.456H12.9371C13.0091 110.888 13.1851 111.228 13.4651 111.476C13.7531 111.724 14.1171 111.848 14.5571 111.848C15.1011 111.848 15.5091 111.684 15.7811 111.356C16.0531 111.028 16.1891 110.592 16.1891 110.048C16.1891 109.536 16.0491 109.136 15.7691 108.848C15.4891 108.552 15.0891 108.404 14.5691 108.404C14.2011 108.404 13.8771 108.484 13.5971 108.644C13.3251 108.804 13.1251 109.016 12.9971 109.28H11.6651V104.396H17.1131V105.608ZM18.7334 108.704C18.7334 110.056 18.9734 111.116 19.4534 111.884C19.9334 112.644 20.7334 113.024 21.8534 113.024C22.9734 113.024 23.7734 112.64 24.2534 111.872C24.7334 111.104 24.9734 110.048 24.9734 108.704C24.9734 107.368 24.7334 106.32 24.2534 105.56C23.7734 104.792 22.9734 104.408 21.8534 104.408C20.7334 104.408 19.9334 104.788 19.4534 105.548C18.9734 106.308 18.7334 107.36 18.7334 108.704ZM23.6054 108.704C23.6054 109.68 23.4854 110.428 23.2454 110.948C23.0054 111.468 22.5414 111.728 21.8534 111.728C21.1574 111.728 20.6894 111.468 20.4494 110.948C20.2094 110.428 20.0894 109.68 20.0894 108.704C20.0894 107.736 20.2094 106.996 20.4494 106.484C20.6894 105.972 21.1574 105.716 21.8534 105.716C22.5414 105.716 23.0054 105.976 23.2454 106.496C23.4854 107.008 23.6054 107.744 23.6054 108.704ZM27.7819 104.408C28.3179 104.408 28.7539 104.576 29.0899 104.912C29.4259 105.24 29.5939 105.688 29.5939 106.256C29.5939 106.824 29.4259 107.272 29.0899 107.6C28.7539 107.928 28.3179 108.092 27.7819 108.092C27.2459 108.092 26.8059 107.928 26.4619 107.6C26.1259 107.272 25.9579 106.824 25.9579 106.256C25.9579 105.688 26.1259 105.24 26.4619 104.912C26.8059 104.576 27.2459 104.408 27.7819 104.408ZM32.8579 104.516L28.0699 113H26.7259L31.5259 104.516H32.8579ZM26.8939 106.256C26.8939 106.56 26.9739 106.804 27.1339 106.988C27.2939 107.164 27.5059 107.252 27.7699 107.252C28.0339 107.252 28.2459 107.16 28.4059 106.976C28.5739 106.792 28.6579 106.552 28.6579 106.256C28.6579 105.952 28.5739 105.708 28.4059 105.524C28.2459 105.34 28.0339 105.248 27.7699 105.248C27.5059 105.248 27.2939 105.34 27.1339 105.524C26.9739 105.708 26.8939 105.952 26.8939 106.256ZM31.8139 109.424C32.3499 109.424 32.7859 109.588 33.1219 109.916C33.4659 110.244 33.6379 110.692 33.6379 111.26C33.6379 111.828 33.4659 112.28 33.1219 112.616C32.7859 112.944 32.3499 113.108 31.8139 113.108C31.2859 113.108 30.8499 112.944 30.5059 112.616C30.1699 112.28 30.0019 111.828 30.0019 111.26C30.0019 110.7 30.1699 110.256 30.5059 109.928C30.8499 109.592 31.2859 109.424 31.8139 109.424ZM30.9379 111.26C30.9379 111.564 31.0179 111.808 31.1779 111.992C31.3379 112.176 31.5499 112.268 31.8139 112.268C32.0779 112.268 32.2899 112.176 32.4499 111.992C32.6179 111.808 32.7019 111.564 32.7019 111.26C32.7019 110.964 32.6179 110.724 32.4499 110.54C32.2899 110.356 32.0779 110.264 31.8139 110.264C31.5499 110.264 31.3379 110.356 31.1779 110.54C31.0179 110.724 30.9379 110.964 30.9379 111.26Z" fill="#C0C0C7"/>
<path d="M2.01906 61.932C3.31506 61.044 4.35106 60.176 5.12706 59.328C5.91106 58.472 6.30306 57.68 6.30306 56.952C6.30306 56.52 6.19506 56.176 5.97906 55.92C5.77106 55.664 5.43106 55.536 4.95906 55.536C4.47106 55.536 4.10306 55.696 3.85506 56.016C3.60706 56.328 3.46706 56.776 3.43506 57.36H2.10306C2.15906 56.392 2.45506 55.652 2.99106 55.14C3.53506 54.628 4.22706 54.372 5.06706 54.372C5.89106 54.372 6.53506 54.592 6.99906 55.032C7.47106 55.464 7.70706 56.064 7.70706 56.832C7.70706 57.448 7.51506 58.072 7.13106 58.704C6.75506 59.336 6.27506 59.92 5.69106 60.456C5.10706 60.984 4.50306 61.44 3.87906 61.824H7.89906V62.94H2.01906V61.932ZM10.2557 61.488V63H8.70766V61.488H10.2557ZM11.2568 58.704C11.2568 60.056 11.4968 61.116 11.9768 61.884C12.4568 62.644 13.2568 63.024 14.3768 63.024C15.4968 63.024 16.2968 62.64 16.7768 61.872C17.2568 61.104 17.4968 60.048 17.4968 58.704C17.4968 57.368 17.2568 56.32 16.7768 55.56C16.2968 54.792 15.4968 54.408 14.3768 54.408C13.2568 54.408 12.4568 54.788 11.9768 55.548C11.4968 56.308 11.2568 57.36 11.2568 58.704ZM16.1288 58.704C16.1288 59.68 16.0088 60.428 15.7688 60.948C15.5288 61.468 15.0648 61.728 14.3768 61.728C13.6808 61.728 13.2128 61.468 12.9728 60.948C12.7328 60.428 12.6128 59.68 12.6128 58.704C12.6128 57.736 12.7328 56.996 12.9728 56.484C13.2128 55.972 13.6808 55.716 14.3768 55.716C15.0648 55.716 15.5288 55.976 15.7688 56.496C16.0088 57.008 16.1288 57.744 16.1288 58.704ZM18.7334 58.704C18.7334 60.056 18.9734 61.116 19.4534 61.884C19.9334 62.644 20.7334 63.024 21.8534 63.024C22.9734 63.024 23.7734 62.64 24.2534 61.872C24.7334 61.104 24.9734 60.048 24.9734 58.704C24.9734 57.368 24.7334 56.32 24.2534 55.56C23.7734 54.792 22.9734 54.408 21.8534 54.408C20.7334 54.408 19.9334 54.788 19.4534 55.548C18.9734 56.308 18.7334 57.36 18.7334 58.704ZM23.6054 58.704C23.6054 59.68 23.4854 60.428 23.2454 60.948C23.0054 61.468 22.5414 61.728 21.8534 61.728C21.1574 61.728 20.6894 61.468 20.4494 60.948C20.2094 60.428 20.0894 59.68 20.0894 58.704C20.0894 57.736 20.2094 56.996 20.4494 56.484C20.6894 55.972 21.1574 55.716 21.8534 55.716C22.5414 55.716 23.0054 55.976 23.2454 56.496C23.4854 57.008 23.6054 57.744 23.6054 58.704ZM27.7819 54.408C28.3179 54.408 28.7539 54.576 29.0899 54.912C29.4259 55.24 29.5939 55.688 29.5939 56.256C29.5939 56.824 29.4259 57.272 29.0899 57.6C28.7539 57.928 28.3179 58.092 27.7819 58.092C27.2459 58.092 26.8059 57.928 26.4619 57.6C26.1259 57.272 25.9579 56.824 25.9579 56.256C25.9579 55.688 26.1259 55.24 26.4619 54.912C26.8059 54.576 27.2459 54.408 27.7819 54.408ZM32.8579 54.516L28.0699 63H26.7259L31.5259 54.516H32.8579ZM26.8939 56.256C26.8939 56.56 26.9739 56.804 27.1339 56.988C27.2939 57.164 27.5059 57.252 27.7699 57.252C28.0339 57.252 28.2459 57.16 28.4059 56.976C28.5739 56.792 28.6579 56.552 28.6579 56.256C28.6579 55.952 28.5739 55.708 28.4059 55.524C28.2459 55.34 28.0339 55.248 27.7699 55.248C27.5059 55.248 27.2939 55.34 27.1339 55.524C26.9739 55.708 26.8939 55.952 26.8939 56.256ZM31.8139 59.424C32.3499 59.424 32.7859 59.588 33.1219 59.916C33.4659 60.244 33.6379 60.692 33.6379 61.26C33.6379 61.828 33.4659 62.28 33.1219 62.616C32.7859 62.944 32.3499 63.108 31.8139 63.108C31.2859 63.108 30.8499 62.944 30.5059 62.616C30.1699 62.28 30.0019 61.828 30.0019 61.26C30.0019 60.7 30.1699 60.256 30.5059 59.928C30.8499 59.592 31.2859 59.424 31.8139 59.424ZM30.9379 61.26C30.9379 61.564 31.0179 61.808 31.1779 61.992C31.3379 62.176 31.5499 62.268 31.8139 62.268C32.0779 62.268 32.2899 62.176 32.4499 61.992C32.6179 61.808 32.7019 61.564 32.7019 61.26C32.7019 60.964 32.6179 60.724 32.4499 60.54C32.2899 60.356 32.0779 60.264 31.8139 60.264C31.5499 60.264 31.3379 60.356 31.1779 60.54C31.0179 60.724 30.9379 60.964 30.9379 61.26Z" fill="#C0C0C7"/>
<defs>
<linearGradient id="paint0_linear_98_276" x1="64" y1="136" x2="64" y2="257" gradientUnits="userSpaceOnUse">
<stop stop-color="#EDA13D"/>
<stop offset="1" stop-color="#EDA13D" stop-opacity="0"/>
</linearGradient>
<linearGradient id="paint1_linear_98_276" x1="80" y1="120" x2="80" y2="257" gradientUnits="userSpaceOnUse">
<stop stop-color="#7963B8"/>
<stop offset="1" stop-color="#7963B8" stop-opacity="0"/>
</linearGradient>
<linearGradient id="paint2_linear_98_276" x1="96" y1="159" x2="96" y2="257" gradientUnits="userSpaceOnUse">
<stop stop-color="#EDD13D"/>
<stop offset="1" stop-color="#EDD13D" stop-opacity="0"/>
</linearGradient>
<linearGradient id="paint3_linear_98_276" x1="112" y1="129" x2="112" y2="257" gradientUnits="userSpaceOnUse">
<stop stop-color="#59A5FE"/>
<stop offset="1" stop-color="#59A5FE" stop-opacity="0"/>
</linearGradient>
<linearGradient id="paint4_linear_98_276" x1="128" y1="80" x2="128" y2="257" gradientUnits="userSpaceOnUse">
<stop stop-color="#B86363"/>
<stop offset="1" stop-color="#B86363" stop-opacity="0"/>
</linearGradient>
<linearGradient id="paint5_linear_98_276" x1="159" y1="161" x2="159" y2="257" gradientUnits="userSpaceOnUse">
<stop stop-color="#EDA13D"/>
<stop offset="1" stop-color="#EDA13D" stop-opacity="0"/>
</linearGradient>
<linearGradient id="paint6_linear_98_276" x1="175" y1="152" x2="175" y2="257" gradientUnits="userSpaceOnUse">
<stop stop-color="#7963B8"/>
<stop offset="1" stop-color="#7963B8" stop-opacity="0"/>
</linearGradient>
<linearGradient id="paint7_linear_98_276" x1="191" y1="162" x2="191" y2="257" gradientUnits="userSpaceOnUse">
<stop stop-color="#EDD13D"/>
<stop offset="1" stop-color="#EDD13D" stop-opacity="0"/>
</linearGradient>
<linearGradient id="paint8_linear_98_276" x1="207" y1="139" x2="207" y2="257" gradientUnits="userSpaceOnUse">
<stop stop-color="#59A5FE"/>
<stop offset="1" stop-color="#59A5FE" stop-opacity="0"/>
</linearGradient>
<linearGradient id="paint9_linear_98_276" x1="223" y1="120" x2="223" y2="257" gradientUnits="userSpaceOnUse">
<stop stop-color="#B86363"/>
<stop offset="1" stop-color="#B86363" stop-opacity="0"/>
</linearGradient>
<linearGradient id="paint10_linear_98_276" x1="254" y1="121" x2="254" y2="257" gradientUnits="userSpaceOnUse">
<stop stop-color="#EDA13D"/>
<stop offset="1" stop-color="#EDA13D" stop-opacity="0"/>
</linearGradient>
<linearGradient id="paint11_linear_98_276" x1="270" y1="159" x2="270" y2="257" gradientUnits="userSpaceOnUse">
<stop stop-color="#7963B8"/>
<stop offset="1" stop-color="#7963B8" stop-opacity="0"/>
</linearGradient>
<linearGradient id="paint12_linear_98_276" x1="286" y1="141" x2="286" y2="257" gradientUnits="userSpaceOnUse">
<stop stop-color="#EDD13D"/>
<stop offset="1" stop-color="#EDD13D" stop-opacity="0"/>
</linearGradient>
<linearGradient id="paint13_linear_98_276" x1="302" y1="109" x2="302" y2="257" gradientUnits="userSpaceOnUse">
<stop stop-color="#59A5FE"/>
<stop offset="1" stop-color="#59A5FE" stop-opacity="0"/>
</linearGradient>
<linearGradient id="paint14_linear_98_276" x1="318" y1="121" x2="318" y2="257" gradientUnits="userSpaceOnUse">
<stop stop-color="#B86363"/>
<stop offset="1" stop-color="#B86363" stop-opacity="0"/>
</linearGradient>
<linearGradient id="paint15_linear_98_276" x1="349" y1="69" x2="349" y2="257" gradientUnits="userSpaceOnUse">
<stop stop-color="#EDA13D"/>
<stop offset="1" stop-color="#EDA13D" stop-opacity="0"/>
</linearGradient>
<linearGradient id="paint16_linear_98_276" x1="365" y1="120" x2="365" y2="257" gradientUnits="userSpaceOnUse">
<stop stop-color="#7963B8"/>
<stop offset="1" stop-color="#7963B8" stop-opacity="0"/>
</linearGradient>
<linearGradient id="paint17_linear_98_276" x1="381" y1="147" x2="381" y2="257" gradientUnits="userSpaceOnUse">
<stop stop-color="#EDD13D"/>
<stop offset="1" stop-color="#EDD13D" stop-opacity="0"/>
</linearGradient>
<linearGradient id="paint18_linear_98_276" x1="397" y1="97" x2="397" y2="257" gradientUnits="userSpaceOnUse">
<stop stop-color="#59A5FE"/>
<stop offset="1" stop-color="#59A5FE" stop-opacity="0"/>
</linearGradient>
<linearGradient id="paint19_linear_98_276" x1="413" y1="84" x2="413" y2="257" gradientUnits="userSpaceOnUse">
<stop stop-color="#B86363"/>
<stop offset="1" stop-color="#B86363" stop-opacity="0"/>
</linearGradient>
<linearGradient id="paint20_linear_98_276" x1="444" y1="57" x2="444" y2="257" gradientUnits="userSpaceOnUse">
<stop stop-color="#EDA13D"/>
<stop offset="1" stop-color="#EDA13D" stop-opacity="0"/>
</linearGradient>
<linearGradient id="paint21_linear_98_276" x1="460" y1="123" x2="460" y2="257" gradientUnits="userSpaceOnUse">
<stop stop-color="#7963B8"/>
<stop offset="1" stop-color="#7963B8" stop-opacity="0"/>
</linearGradient>
<linearGradient id="paint22_linear_98_276" x1="476" y1="141" x2="476" y2="257" gradientUnits="userSpaceOnUse">
<stop stop-color="#EDD13D"/>
<stop offset="1" stop-color="#EDD13D" stop-opacity="0"/>
</linearGradient>
<linearGradient id="paint23_linear_98_276" x1="492" y1="83" x2="492" y2="257" gradientUnits="userSpaceOnUse">
<stop stop-color="#59A5FE"/>
<stop offset="1" stop-color="#59A5FE" stop-opacity="0"/>
</linearGradient>
<linearGradient id="paint24_linear_98_276" x1="508" y1="95" x2="508" y2="257" gradientUnits="userSpaceOnUse">
<stop stop-color="#B86363"/>
<stop offset="1" stop-color="#B86363" stop-opacity="0"/>
</linearGradient>
</defs>
</svg>
