<svg width="529" height="283" viewBox="0 0 529 283" fill="none" xmlns="http://www.w3.org/2000/svg">
<path d="M2.00734 11.932C3.30334 11.044 4.33934 10.176 5.11534 9.328C5.89934 8.472 6.29134 7.68 6.29134 6.952C6.29134 6.52 6.18334 6.176 5.96734 5.92C5.75934 5.664 5.41934 5.536 4.94734 5.536C4.45934 5.536 4.09134 5.696 3.84334 6.016C3.59534 6.328 3.45534 6.776 3.42334 7.36H2.09134C2.14734 6.392 2.44334 5.652 2.97934 5.14C3.52334 4.628 4.21534 4.372 5.05534 4.372C5.87934 4.372 6.52334 4.592 6.98734 5.032C7.45934 5.464 7.69534 6.064 7.69534 6.832C7.69534 7.448 7.50334 8.072 7.11934 8.704C6.74334 9.336 6.26334 9.92 5.67934 10.456C5.09534 10.984 4.49134 11.44 3.86734 11.824H7.88734V12.94H2.00734V11.932ZM10.2439 11.488V13H8.69594V11.488H10.2439ZM17.1131 5.608H12.9251V8.128C13.1171 7.88 13.3891 7.684 13.7411 7.54C14.0931 7.388 14.4811 7.312 14.9051 7.312C15.4971 7.312 15.9891 7.44 16.3811 7.696C16.7731 7.944 17.0611 8.276 17.2451 8.692C17.4371 9.108 17.5331 9.568 17.5331 10.072C17.5331 10.96 17.2851 11.68 16.7891 12.232C16.2931 12.776 15.5731 13.048 14.6291 13.048C13.7411 13.048 13.0251 12.812 12.4811 12.34C11.9371 11.868 11.6411 11.24 11.5931 10.456H12.9371C13.0091 10.888 13.1851 11.228 13.4651 11.476C13.7531 11.724 14.1171 11.848 14.5571 11.848C15.1011 11.848 15.5091 11.684 15.7811 11.356C16.0531 11.028 16.1891 10.592 16.1891 10.048C16.1891 9.536 16.0491 9.136 15.7691 8.848C15.4891 8.552 15.0891 8.404 14.5691 8.404C14.2011 8.404 13.8771 8.484 13.5971 8.644C13.3251 8.804 13.1251 9.016 12.9971 9.28H11.6651V4.396H17.1131V5.608ZM18.7334 8.704C18.7334 10.056 18.9734 11.116 19.4534 11.884C19.9334 12.644 20.7334 13.024 21.8534 13.024C22.9734 13.024 23.7734 12.64 24.2534 11.872C24.7334 11.104 24.9734 10.048 24.9734 8.704C24.9734 7.368 24.7334 6.32 24.2534 5.56C23.7734 4.792 22.9734 4.408 21.8534 4.408C20.7334 4.408 19.9334 4.788 19.4534 5.548C18.9734 6.308 18.7334 7.36 18.7334 8.704ZM23.6054 8.704C23.6054 9.68 23.4854 10.428 23.2454 10.948C23.0054 11.468 22.5414 11.728 21.8534 11.728C21.1574 11.728 20.6894 11.468 20.4494 10.948C20.2094 10.428 20.0894 9.68 20.0894 8.704C20.0894 7.736 20.2094 6.996 20.4494 6.484C20.6894 5.972 21.1574 5.716 21.8534 5.716C22.5414 5.716 23.0054 5.976 23.2454 6.496C23.4854 7.008 23.6054 7.744 23.6054 8.704ZM27.7819 4.408C28.3179 4.408 28.7539 4.576 29.0899 4.912C29.4259 5.24 29.5939 5.688 29.5939 6.256C29.5939 6.824 29.4259 7.272 29.0899 7.6C28.7539 7.928 28.3179 8.092 27.7819 8.092C27.2459 8.092 26.8059 7.928 26.4619 7.6C26.1259 7.272 25.9579 6.824 25.9579 6.256C25.9579 5.688 26.1259 5.24 26.4619 4.912C26.8059 4.576 27.2459 4.408 27.7819 4.408ZM32.8579 4.516L28.0699 13H26.7259L31.5259 4.516H32.8579ZM26.8939 6.256C26.8939 6.56 26.9739 6.804 27.1339 6.988C27.2939 7.164 27.5059 7.252 27.7699 7.252C28.0339 7.252 28.2459 7.16 28.4059 6.976C28.5739 6.792 28.6579 6.552 28.6579 6.256C28.6579 5.952 28.5739 5.708 28.4059 5.524C28.2459 5.34 28.0339 5.248 27.7699 5.248C27.5059 5.248 27.2939 5.34 27.1339 5.524C26.9739 5.708 26.8939 5.952 26.8939 6.256ZM31.8139 9.424C32.3499 9.424 32.7859 9.588 33.1219 9.916C33.4659 10.244 33.6379 10.692 33.6379 11.26C33.6379 11.828 33.4659 12.28 33.1219 12.616C32.7859 12.944 32.3499 13.108 31.8139 13.108C31.2859 13.108 30.8499 12.944 30.5059 12.616C30.1699 12.28 30.0019 11.828 30.0019 11.26C30.0019 10.7 30.1699 10.256 30.5059 9.928C30.8499 9.592 31.2859 9.424 31.8139 9.424ZM30.9379 11.26C30.9379 11.564 31.0179 11.808 31.1779 11.992C31.3379 12.176 31.5499 12.268 31.8139 12.268C32.0779 12.268 32.2899 12.176 32.4499 11.992C32.6179 11.808 32.7019 11.564 32.7019 11.26C32.7019 10.964 32.6179 10.724 32.4499 10.54C32.2899 10.356 32.0779 10.264 31.8139 10.264C31.5499 10.264 31.3379 10.356 31.1779 10.54C31.0179 10.724 30.9379 10.964 30.9379 11.26Z" fill="#C0C0C7"/>
<path d="M1.49509 256.704C1.49509 258.056 1.73509 259.116 2.21509 259.884C2.69509 260.644 3.49509 261.024 4.61509 261.024C5.73509 261.024 6.53509 260.64 7.01509 259.872C7.49509 259.104 7.73509 258.048 7.73509 256.704C7.73509 255.368 7.49509 254.32 7.01509 253.56C6.53509 252.792 5.73509 252.408 4.61509 252.408C3.49509 252.408 2.69509 252.788 2.21509 253.548C1.73509 254.308 1.49509 255.36 1.49509 256.704ZM6.36709 256.704C6.36709 257.68 6.24709 258.428 6.00709 258.948C5.76709 259.468 5.30309 259.728 4.61509 259.728C3.91909 259.728 3.45109 259.468 3.21109 258.948C2.97109 258.428 2.85109 257.68 2.85109 256.704C2.85109 255.736 2.97109 254.996 3.21109 254.484C3.45109 253.972 3.91909 253.716 4.61509 253.716C5.30309 253.716 5.76709 253.976 6.00709 254.496C6.24709 255.008 6.36709 255.744 6.36709 256.704ZM10.2557 259.488V261H8.70766V259.488H10.2557ZM11.2568 256.704C11.2568 258.056 11.4968 259.116 11.9768 259.884C12.4568 260.644 13.2568 261.024 14.3768 261.024C15.4968 261.024 16.2968 260.64 16.7768 259.872C17.2568 259.104 17.4968 258.048 17.4968 256.704C17.4968 255.368 17.2568 254.32 16.7768 253.56C16.2968 252.792 15.4968 252.408 14.3768 252.408C13.2568 252.408 12.4568 252.788 11.9768 253.548C11.4968 254.308 11.2568 255.36 11.2568 256.704ZM16.1288 256.704C16.1288 257.68 16.0088 258.428 15.7688 258.948C15.5288 259.468 15.0648 259.728 14.3768 259.728C13.6808 259.728 13.2128 259.468 12.9728 258.948C12.7328 258.428 12.6128 257.68 12.6128 256.704C12.6128 255.736 12.7328 254.996 12.9728 254.484C13.2128 253.972 13.6808 253.716 14.3768 253.716C15.0648 253.716 15.5288 253.976 15.7688 254.496C16.0088 255.008 16.1288 255.744 16.1288 256.704ZM18.7334 256.704C18.7334 258.056 18.9734 259.116 19.4534 259.884C19.9334 260.644 20.7334 261.024 21.8534 261.024C22.9734 261.024 23.7734 260.64 24.2534 259.872C24.7334 259.104 24.9734 258.048 24.9734 256.704C24.9734 255.368 24.7334 254.32 24.2534 253.56C23.7734 252.792 22.9734 252.408 21.8534 252.408C20.7334 252.408 19.9334 252.788 19.4534 253.548C18.9734 254.308 18.7334 255.36 18.7334 256.704ZM23.6054 256.704C23.6054 257.68 23.4854 258.428 23.2454 258.948C23.0054 259.468 22.5414 259.728 21.8534 259.728C21.1574 259.728 20.6894 259.468 20.4494 258.948C20.2094 258.428 20.0894 257.68 20.0894 256.704C20.0894 255.736 20.2094 254.996 20.4494 254.484C20.6894 253.972 21.1574 253.716 21.8534 253.716C22.5414 253.716 23.0054 253.976 23.2454 254.496C23.4854 255.008 23.6054 255.744 23.6054 256.704ZM27.7819 252.408C28.3179 252.408 28.7539 252.576 29.0899 252.912C29.4259 253.24 29.5939 253.688 29.5939 254.256C29.5939 254.824 29.4259 255.272 29.0899 255.6C28.7539 255.928 28.3179 256.092 27.7819 256.092C27.2459 256.092 26.8059 255.928 26.4619 255.6C26.1259 255.272 25.9579 254.824 25.9579 254.256C25.9579 253.688 26.1259 253.24 26.4619 252.912C26.8059 252.576 27.2459 252.408 27.7819 252.408ZM32.8579 252.516L28.0699 261H26.7259L31.5259 252.516H32.8579ZM26.8939 254.256C26.8939 254.56 26.9739 254.804 27.1339 254.988C27.2939 255.164 27.5059 255.252 27.7699 255.252C28.0339 255.252 28.2459 255.16 28.4059 254.976C28.5739 254.792 28.6579 254.552 28.6579 254.256C28.6579 253.952 28.5739 253.708 28.4059 253.524C28.2459 253.34 28.0339 253.248 27.7699 253.248C27.5059 253.248 27.2939 253.34 27.1339 253.524C26.9739 253.708 26.8939 253.952 26.8939 254.256ZM31.8139 257.424C32.3499 257.424 32.7859 257.588 33.1219 257.916C33.4659 258.244 33.6379 258.692 33.6379 259.26C33.6379 259.828 33.4659 260.28 33.1219 260.616C32.7859 260.944 32.3499 261.108 31.8139 261.108C31.2859 261.108 30.8499 260.944 30.5059 260.616C30.1699 260.28 30.0019 259.828 30.0019 259.26C30.0019 258.7 30.1699 258.256 30.5059 257.928C30.8499 257.592 31.2859 257.424 31.8139 257.424ZM30.9379 259.26C30.9379 259.564 31.0179 259.808 31.1779 259.992C31.3379 260.176 31.5499 260.268 31.8139 260.268C32.0779 260.268 32.2899 260.176 32.4499 259.992C32.6179 259.808 32.7019 259.564 32.7019 259.26C32.7019 258.964 32.6179 258.724 32.4499 258.54C32.2899 258.356 32.0779 258.264 31.8139 258.264C31.5499 258.264 31.3379 258.356 31.1779 258.54C31.0179 258.724 30.9379 258.964 30.9379 259.26Z" fill="#C0C0C7"/>
<path opacity="0.08" d="M42 257L529 257" stroke="white" stroke-dasharray="8 8"/>
<path opacity="0.08" d="M42 209L529 209" stroke="white" stroke-dasharray="8 8"/>
<path opacity="0.08" d="M42 159L529 159" stroke="white" stroke-dasharray="8 8"/>
<path opacity="0.08" d="M42 109L529 109" stroke="white" stroke-dasharray="8 8"/>
<path opacity="0.08" d="M42 59L529 59" stroke="white" stroke-dasharray="8 8"/>
<path opacity="0.08" d="M42 9L529 9.00005" stroke="white" stroke-dasharray="8 8"/>
<path d="M83.4831 276.668C86.1951 274.788 87.5511 273.228 87.5511 271.988C87.5511 271.612 87.4591 271.316 87.2751 271.1C87.0991 270.884 86.8191 270.776 86.4351 270.776C85.6431 270.776 85.2231 271.316 85.1751 272.396H83.5311C83.5791 271.396 83.8831 270.64 84.4431 270.128C85.0031 269.608 85.7111 269.348 86.5671 269.348C87.4391 269.348 88.1071 269.576 88.5711 270.032C89.0431 270.48 89.2791 271.08 89.2791 271.832C89.2791 272.424 89.1031 273.02 88.7511 273.62C88.4071 274.212 87.9671 274.76 87.4311 275.264C86.8951 275.76 86.3311 276.188 85.7391 276.548H89.4471V277.928H83.4831V276.668ZM90.3999 273.692C90.3999 276.564 91.4799 278 93.6399 278C94.7839 278 95.6079 277.616 96.1119 276.848C96.6159 276.08 96.8679 275.028 96.8679 273.692C96.8679 272.364 96.6159 271.316 96.1119 270.548C95.6079 269.78 94.7839 269.396 93.6399 269.396C91.4799 269.396 90.3999 270.828 90.3999 273.692ZM95.1999 273.692C95.1999 274.564 95.0919 275.236 94.8759 275.708C94.6679 276.172 94.2559 276.404 93.6399 276.404C93.0159 276.404 92.5959 276.172 92.3799 275.708C92.1719 275.236 92.0679 274.564 92.0679 273.692C92.0679 272.828 92.1719 272.164 92.3799 271.7C92.5959 271.228 93.0159 270.992 93.6399 270.992C94.2559 270.992 94.6679 271.228 94.8759 271.7C95.0919 272.164 95.1999 272.828 95.1999 273.692ZM97.562 271.112V269.528H100.61V278H98.834V271.112H97.562ZM101.943 273.692C101.943 276.564 103.023 278 105.183 278C106.327 278 107.151 277.616 107.655 276.848C108.159 276.08 108.411 275.028 108.411 273.692C108.411 272.364 108.159 271.316 107.655 270.548C107.151 269.78 106.327 269.396 105.183 269.396C103.023 269.396 101.943 270.828 101.943 273.692ZM106.743 273.692C106.743 274.564 106.635 275.236 106.419 275.708C106.211 276.172 105.799 276.404 105.183 276.404C104.559 276.404 104.139 276.172 103.923 275.708C103.715 275.236 103.611 274.564 103.611 273.692C103.611 272.828 103.715 272.164 103.923 271.7C104.139 271.228 104.559 270.992 105.183 270.992C105.799 270.992 106.211 271.228 106.419 271.7C106.635 272.164 106.743 272.828 106.743 273.692Z" fill="#C0C0C7"/>
<path d="M180.794 276.668C183.506 274.788 184.862 273.228 184.862 271.988C184.862 271.612 184.77 271.316 184.586 271.1C184.41 270.884 184.13 270.776 183.746 270.776C182.954 270.776 182.534 271.316 182.486 272.396H180.842C180.89 271.396 181.194 270.64 181.754 270.128C182.314 269.608 183.022 269.348 183.878 269.348C184.75 269.348 185.418 269.576 185.882 270.032C186.354 270.48 186.59 271.08 186.59 271.832C186.59 272.424 186.414 273.02 186.062 273.62C185.718 274.212 185.278 274.76 184.742 275.264C184.206 275.76 183.642 276.188 183.05 276.548H186.758V277.928H180.794V276.668ZM187.71 273.692C187.71 276.564 188.79 278 190.95 278C192.094 278 192.918 277.616 193.422 276.848C193.926 276.08 194.178 275.028 194.178 273.692C194.178 272.364 193.926 271.316 193.422 270.548C192.918 269.78 192.094 269.396 190.95 269.396C188.79 269.396 187.71 270.828 187.71 273.692ZM192.51 273.692C192.51 274.564 192.402 275.236 192.186 275.708C191.978 276.172 191.566 276.404 190.95 276.404C190.326 276.404 189.906 276.172 189.69 275.708C189.482 275.236 189.378 274.564 189.378 273.692C189.378 272.828 189.482 272.164 189.69 271.7C189.906 271.228 190.326 270.992 190.95 270.992C191.566 270.992 191.978 271.228 192.186 271.7C192.402 272.164 192.51 272.828 192.51 273.692ZM194.873 271.112V269.528H197.921V278H196.145V271.112H194.873ZM198.833 271.112V269.528H201.881V278H200.105V271.112H198.833Z" fill="#C0C0C7"/>
<path d="M273.876 276.668C276.588 274.788 277.944 273.228 277.944 271.988C277.944 271.612 277.852 271.316 277.668 271.1C277.492 270.884 277.212 270.776 276.828 270.776C276.036 270.776 275.616 271.316 275.568 272.396H273.924C273.972 271.396 274.276 270.64 274.836 270.128C275.396 269.608 276.104 269.348 276.96 269.348C277.832 269.348 278.5 269.576 278.964 270.032C279.436 270.48 279.672 271.08 279.672 271.832C279.672 272.424 279.496 273.02 279.144 273.62C278.8 274.212 278.36 274.76 277.824 275.264C277.288 275.76 276.724 276.188 276.132 276.548H279.84V277.928H273.876V276.668ZM280.793 273.692C280.793 276.564 281.873 278 284.033 278C285.177 278 286.001 277.616 286.505 276.848C287.009 276.08 287.261 275.028 287.261 273.692C287.261 272.364 287.009 271.316 286.505 270.548C286.001 269.78 285.177 269.396 284.033 269.396C281.873 269.396 280.793 270.828 280.793 273.692ZM285.593 273.692C285.593 274.564 285.485 275.236 285.269 275.708C285.061 276.172 284.649 276.404 284.033 276.404C283.409 276.404 282.989 276.172 282.773 275.708C282.565 275.236 282.461 274.564 282.461 273.692C282.461 272.828 282.565 272.164 282.773 271.7C282.989 271.228 283.409 270.992 284.033 270.992C284.649 270.992 285.061 271.228 285.269 271.7C285.485 272.164 285.593 272.828 285.593 273.692ZM287.955 271.112V269.528H291.003V278H289.227V271.112H287.955ZM292.215 276.668C294.927 274.788 296.283 273.228 296.283 271.988C296.283 271.612 296.191 271.316 296.007 271.1C295.831 270.884 295.551 270.776 295.167 270.776C294.375 270.776 293.955 271.316 293.907 272.396H292.263C292.311 271.396 292.615 270.64 293.175 270.128C293.735 269.608 294.443 269.348 295.299 269.348C296.171 269.348 296.839 269.576 297.303 270.032C297.775 270.48 298.011 271.08 298.011 271.832C298.011 272.424 297.835 273.02 297.483 273.62C297.139 274.212 296.699 274.76 296.163 275.264C295.627 275.76 295.063 276.188 294.471 276.548H298.179V277.928H292.215V276.668Z" fill="#C0C0C7"/>
<path d="M463.86 276.668C466.572 274.788 467.928 273.228 467.928 271.988C467.928 271.612 467.836 271.316 467.652 271.1C467.476 270.884 467.196 270.776 466.812 270.776C466.02 270.776 465.6 271.316 465.552 272.396H463.908C463.956 271.396 464.26 270.64 464.82 270.128C465.38 269.608 466.088 269.348 466.944 269.348C467.816 269.348 468.484 269.576 468.948 270.032C469.42 270.48 469.656 271.08 469.656 271.832C469.656 272.424 469.48 273.02 469.128 273.62C468.784 274.212 468.344 274.76 467.808 275.264C467.272 275.76 466.708 276.188 466.116 276.548H469.824V277.928H463.86V276.668ZM470.777 273.692C470.777 276.564 471.857 278 474.017 278C475.161 278 475.985 277.616 476.489 276.848C476.993 276.08 477.245 275.028 477.245 273.692C477.245 272.364 476.993 271.316 476.489 270.548C475.985 269.78 475.161 269.396 474.017 269.396C471.857 269.396 470.777 270.828 470.777 273.692ZM475.577 273.692C475.577 274.564 475.469 275.236 475.253 275.708C475.045 276.172 474.633 276.404 474.017 276.404C473.393 276.404 472.973 276.172 472.757 275.708C472.549 275.236 472.445 274.564 472.445 273.692C472.445 272.828 472.549 272.164 472.757 271.7C472.973 271.228 473.393 270.992 474.017 270.992C474.633 270.992 475.045 271.228 475.253 271.7C475.469 272.164 475.577 272.828 475.577 273.692ZM477.939 271.112V269.528H480.987V278H479.211V271.112H477.939ZM482.224 276.296V274.892L486.28 269.432H488.092V274.832H489.196V276.296H488.092V278H486.388V276.296H482.224ZM486.52 271.412L483.952 274.832H486.52V271.412Z" fill="#C0C0C7"/>
<path d="M368.682 276.668C371.394 274.788 372.75 273.228 372.75 271.988C372.75 271.612 372.658 271.316 372.474 271.1C372.298 270.884 372.018 270.776 371.634 270.776C370.842 270.776 370.422 271.316 370.374 272.396H368.73C368.778 271.396 369.082 270.64 369.642 270.128C370.202 269.608 370.91 269.348 371.766 269.348C372.638 269.348 373.306 269.576 373.77 270.032C374.242 270.48 374.478 271.08 374.478 271.832C374.478 272.424 374.302 273.02 373.95 273.62C373.606 274.212 373.166 274.76 372.63 275.264C372.094 275.76 371.53 276.188 370.938 276.548H374.646V277.928H368.682V276.668ZM375.599 273.692C375.599 276.564 376.679 278 378.839 278C379.983 278 380.807 277.616 381.311 276.848C381.815 276.08 382.067 275.028 382.067 273.692C382.067 272.364 381.815 271.316 381.311 270.548C380.807 269.78 379.983 269.396 378.839 269.396C376.679 269.396 375.599 270.828 375.599 273.692ZM380.399 273.692C380.399 274.564 380.291 275.236 380.075 275.708C379.867 276.172 379.455 276.404 378.839 276.404C378.215 276.404 377.795 276.172 377.579 275.708C377.371 275.236 377.267 274.564 377.267 273.692C377.267 272.828 377.371 272.164 377.579 271.7C377.795 271.228 378.215 270.992 378.839 270.992C379.455 270.992 379.867 271.228 380.075 271.7C380.291 272.164 380.399 272.828 380.399 273.692ZM382.761 271.112V269.528H385.809V278H384.033V271.112H382.761ZM390.19 269.204C390.766 269.204 391.258 269.304 391.666 269.504C392.082 269.704 392.394 269.98 392.602 270.332C392.818 270.684 392.926 271.076 392.926 271.508C392.926 272.052 392.778 272.5 392.482 272.852C392.186 273.196 391.794 273.408 391.306 273.488V273.548C392.49 273.9 393.082 274.596 393.082 275.636C393.082 276.364 392.838 276.956 392.35 277.412C391.862 277.86 391.174 278.084 390.286 278.084C389.342 278.084 388.59 277.852 388.03 277.388C387.47 276.916 387.158 276.208 387.094 275.264H388.75C388.79 275.696 388.93 276.04 389.17 276.296C389.418 276.544 389.766 276.668 390.214 276.668C390.598 276.668 390.898 276.564 391.114 276.356C391.33 276.14 391.438 275.86 391.438 275.516C391.438 275.108 391.282 274.796 390.97 274.58C390.658 274.364 390.198 274.256 389.59 274.256H389.242V272.876H389.59C390.71 272.892 391.27 272.504 391.27 271.712C391.27 271.368 391.17 271.1 390.97 270.908C390.77 270.708 390.498 270.608 390.154 270.608C389.794 270.608 389.498 270.724 389.266 270.956C389.034 271.18 388.902 271.496 388.87 271.904H387.214C387.262 271.04 387.542 270.376 388.054 269.912C388.566 269.44 389.278 269.204 390.19 269.204Z" fill="#C0C0C7"/>
<rect x="58" y="136" width="12" height="121" rx="4" fill="url(#paint0_linear_98_276)"/>
<rect x="74" y="120" width="12" height="137" rx="4" fill="url(#paint1_linear_98_276)"/>
<rect x="90" y="159" width="12" height="98" rx="4" fill="url(#paint2_linear_98_276)"/>
<rect x="106" y="129" width="12" height="128" rx="4" fill="url(#paint3_linear_98_276)"/>
<rect x="122" y="80" width="12" height="177" rx="4" fill="url(#paint4_linear_98_276)"/>
<rect x="153" y="161" width="12" height="96" rx="4" fill="url(#paint5_linear_98_276)"/>
<rect x="169" y="152" width="12" height="105" rx="4" fill="url(#paint6_linear_98_276)"/>
<rect x="185" y="162" width="12" height="95" rx="4" fill="url(#paint7_linear_98_276)"/>
<rect x="201" y="139" width="12" height="118" rx="4" fill="url(#paint8_linear_98_276)"/>
<rect x="217" y="120" width="12" height="137" rx="4" fill="url(#paint9_linear_98_276)"/>
<rect x="248" y="121" width="12" height="136" rx="4" fill="url(#paint10_linear_98_276)"/>
<rect x="264" y="159" width="12" height="98" rx="4" fill="url(#paint11_linear_98_276)"/>
<rect x="280" y="141" width="12" height="116" rx="4" fill="url(#paint12_linear_98_276)"/>
<rect x="296" y="109" width="12" height="148" rx="4" fill="url(#paint13_linear_98_276)"/>
<rect x="312" y="121" width="12" height="136" rx="4" fill="url(#paint14_linear_98_276)"/>
<rect x="343" y="69" width="12" height="188" rx="4" fill="url(#paint15_linear_98_276)"/>
<rect x="359" y="120" width="12" height="137" rx="4" fill="url(#paint16_linear_98_276)"/>
<rect x="375" y="147" width="12" height="110" rx="4" fill="url(#paint17_linear_98_276)"/>
<rect x="391" y="97" width="12" height="160" rx="4" fill="url(#paint18_linear_98_276)"/>
<rect x="407" y="84" width="12" height="173" rx="4" fill="url(#paint19_linear_98_276)"/>
<rect x="438" y="57" width="12" height="200" rx="4" fill="url(#paint20_linear_98_276)"/>
<rect x="454" y="123" width="12" height="134" rx="4" fill="url(#paint21_linear_98_276)"/>
<rect x="470" y="141" width="12" height="116" rx="4" fill="url(#paint22_linear_98_276)"/>
<rect x="486" y="83" width="12" height="174" rx="4" fill="url(#paint23_linear_98_276)"/>
<rect x="502" y="95" width="12" height="162" rx="4" fill="url(#paint24_linear_98_276)"/>
<path d="M93.5 121.5L176.651 140.555C185.073 142.486 193.852 142.2 202.13 139.727L377.421 87.3679C380.467 86.458 383.592 85.8408 386.756 85.5244L477 76.5" stroke="#63B866" stroke-width="2"/>
<path d="M1.48338 208.704C1.48338 210.056 1.72338 211.116 2.20338 211.884C2.68338 212.644 3.48338 213.024 4.60338 213.024C5.72338 213.024 6.52338 212.64 7.00338 211.872C7.48338 211.104 7.72338 210.048 7.72338 208.704C7.72338 207.368 7.48338 206.32 7.00338 205.56C6.52338 204.792 5.72338 204.408 4.60338 204.408C3.48338 204.408 2.68338 204.788 2.20338 205.548C1.72338 206.308 1.48338 207.36 1.48338 208.704ZM6.35538 208.704C6.35538 209.68 6.23538 210.428 5.99538 210.948C5.75538 211.468 5.29138 211.728 4.60338 211.728C3.90738 211.728 3.43938 211.468 3.19938 210.948C2.95938 210.428 2.83938 209.68 2.83938 208.704C2.83938 207.736 2.95938 206.996 3.19938 206.484C3.43938 205.972 3.90738 205.716 4.60338 205.716C5.29138 205.716 5.75538 205.976 5.99538 206.496C6.23538 207.008 6.35538 207.744 6.35538 208.704ZM10.2439 211.488V213H8.69594V211.488H10.2439ZM17.1131 205.608H12.9251V208.128C13.1171 207.88 13.3891 207.684 13.7411 207.54C14.0931 207.388 14.4811 207.312 14.9051 207.312C15.4971 207.312 15.9891 207.44 16.3811 207.696C16.7731 207.944 17.0611 208.276 17.2451 208.692C17.4371 209.108 17.5331 209.568 17.5331 210.072C17.5331 210.96 17.2851 211.68 16.7891 212.232C16.2931 212.776 15.5731 213.048 14.6291 213.048C13.7411 213.048 13.0251 212.812 12.4811 212.34C11.9371 211.868 11.6411 211.24 11.5931 210.456H12.9371C13.0091 210.888 13.1851 211.228 13.4651 211.476C13.7531 211.724 14.1171 211.848 14.5571 211.848C15.1011 211.848 15.5091 211.684 15.7811 211.356C16.0531 211.028 16.1891 210.592 16.1891 210.048C16.1891 209.536 16.0491 209.136 15.7691 208.848C15.4891 208.552 15.0891 208.404 14.5691 208.404C14.2011 208.404 13.8771 208.484 13.5971 208.644C13.3251 208.804 13.1251 209.016 12.9971 209.28H11.6651V204.396H17.1131V205.608ZM18.7334 208.704C18.7334 210.056 18.9734 211.116 19.4534 211.884C19.9334 212.644 20.7334 213.024 21.8534 213.024C22.9734 213.024 23.7734 212.64 24.2534 211.872C24.7334 211.104 24.9734 210.048 24.9734 208.704C24.9734 207.368 24.7334 206.32 24.2534 205.56C23.7734 204.792 22.9734 204.408 21.8534 204.408C20.7334 204.408 19.9334 204.788 19.4534 205.548C18.9734 206.308 18.7334 207.36 18.7334 208.704ZM23.6054 208.704C23.6054 209.68 23.4854 210.428 23.2454 210.948C23.0054 211.468 22.5414 211.728 21.8534 211.728C21.1574 211.728 20.6894 211.468 20.4494 210.948C20.2094 210.428 20.0894 209.68 20.0894 208.704C20.0894 207.736 20.2094 206.996 20.4494 206.484C20.6894 205.972 21.1574 205.716 21.8534 205.716C22.5414 205.716 23.0054 205.976 23.2454 206.496C23.4854 207.008 23.6054 207.744 23.6054 208.704ZM27.7819 204.408C28.3179 204.408 28.7539 204.576 29.0899 204.912C29.4259 205.24 29.5939 205.688 29.5939 206.256C29.5939 206.824 29.4259 207.272 29.0899 207.6C28.7539 207.928 28.3179 208.092 27.7819 208.092C27.2459 208.092 26.8059 207.928 26.4619 207.6C26.1259 207.272 25.9579 206.824 25.9579 206.256C25.9579 205.688 26.1259 205.24 26.4619 204.912C26.8059 204.576 27.2459 204.408 27.7819 204.408ZM32.8579 204.516L28.0699 213H26.7259L31.5259 204.516H32.8579ZM26.8939 206.256C26.8939 206.56 26.9739 206.804 27.1339 206.988C27.2939 207.164 27.5059 207.252 27.7699 207.252C28.0339 207.252 28.2459 207.16 28.4059 206.976C28.5739 206.792 28.6579 206.552 28.6579 206.256C28.6579 205.952 28.5739 205.708 28.4059 205.524C28.2459 205.34 28.0339 205.248 27.7699 205.248C27.5059 205.248 27.2939 205.34 27.1339 205.524C26.9739 205.708 26.8939 205.952 26.8939 206.256ZM31.8139 209.424C32.3499 209.424 32.7859 209.588 33.1219 209.916C33.4659 210.244 33.6379 210.692 33.6379 211.26C33.6379 211.828 33.4659 212.28 33.1219 212.616C32.7859 212.944 32.3499 213.108 31.8139 213.108C31.2859 213.108 30.8499 212.944 30.5059 212.616C30.1699 212.28 30.0019 211.828 30.0019 211.26C30.0019 210.7 30.1699 210.256 30.5059 209.928C30.8499 209.592 31.2859 209.424 31.8139 209.424ZM30.9379 211.26C30.9379 211.564 31.0179 211.808 31.1779 211.992C31.3379 212.176 31.5499 212.268 31.8139 212.268C32.0779 212.268 32.2899 212.176 32.4499 211.992C32.6179 211.808 32.7019 211.564 32.7019 211.26C32.7019 210.964 32.6179 210.724 32.4499 210.54C32.2899 210.356 32.0779 210.264 31.8139 210.264C31.5499 210.264 31.3379 210.356 31.1779 210.54C31.0179 210.724 30.9379 210.964 30.9379 211.26Z" fill="#C0C0C7"/>
<path d="M4.82397 155.812V154.528H7.53597V163H6.09597V155.812H4.82397ZM10.2557 161.488V163H8.70766V161.488H10.2557ZM11.2568 158.704C11.2568 160.056 11.4968 161.116 11.9768 161.884C12.4568 162.644 13.2568 163.024 14.3768 163.024C15.4968 163.024 16.2968 162.64 16.7768 161.872C17.2568 161.104 17.4968 160.048 17.4968 158.704C17.4968 157.368 17.2568 156.32 16.7768 155.56C16.2968 154.792 15.4968 154.408 14.3768 154.408C13.2568 154.408 12.4568 154.788 11.9768 155.548C11.4968 156.308 11.2568 157.36 11.2568 158.704ZM16.1288 158.704C16.1288 159.68 16.0088 160.428 15.7688 160.948C15.5288 161.468 15.0648 161.728 14.3768 161.728C13.6808 161.728 13.2128 161.468 12.9728 160.948C12.7328 160.428 12.6128 159.68 12.6128 158.704C12.6128 157.736 12.7328 156.996 12.9728 156.484C13.2128 155.972 13.6808 155.716 14.3768 155.716C15.0648 155.716 15.5288 155.976 15.7688 156.496C16.0088 157.008 16.1288 157.744 16.1288 158.704ZM18.7334 158.704C18.7334 160.056 18.9734 161.116 19.4534 161.884C19.9334 162.644 20.7334 163.024 21.8534 163.024C22.9734 163.024 23.7734 162.64 24.2534 161.872C24.7334 161.104 24.9734 160.048 24.9734 158.704C24.9734 157.368 24.7334 156.32 24.2534 155.56C23.7734 154.792 22.9734 154.408 21.8534 154.408C20.7334 154.408 19.9334 154.788 19.4534 155.548C18.9734 156.308 18.7334 157.36 18.7334 158.704ZM23.6054 158.704C23.6054 159.68 23.4854 160.428 23.2454 160.948C23.0054 161.468 22.5414 161.728 21.8534 161.728C21.1574 161.728 20.6894 161.468 20.4494 160.948C20.2094 160.428 20.0894 159.68 20.0894 158.704C20.0894 157.736 20.2094 156.996 20.4494 156.484C20.6894 155.972 21.1574 155.716 21.8534 155.716C22.5414 155.716 23.0054 155.976 23.2454 156.496C23.4854 157.008 23.6054 157.744 23.6054 158.704ZM27.7819 154.408C28.3179 154.408 28.7539 154.576 29.0899 154.912C29.4259 155.24 29.5939 155.688 29.5939 156.256C29.5939 156.824 29.4259 157.272 29.0899 157.6C28.7539 157.928 28.3179 158.092 27.7819 158.092C27.2459 158.092 26.8059 157.928 26.4619 157.6C26.1259 157.272 25.9579 156.824 25.9579 156.256C25.9579 155.688 26.1259 155.24 26.4619 154.912C26.8059 154.576 27.2459 154.408 27.7819 154.408ZM32.8579 154.516L28.0699 163H26.7259L31.5259 154.516H32.8579ZM26.8939 156.256C26.8939 156.56 26.9739 156.804 27.1339 156.988C27.2939 157.164 27.5059 157.252 27.7699 157.252C28.0339 157.252 28.2459 157.16 28.4059 156.976C28.5739 156.792 28.6579 156.552 28.6579 156.256C28.6579 155.952 28.5739 155.708 28.4059 155.524C28.2459 155.34 28.0339 155.248 27.7699 155.248C27.5059 155.248 27.2939 155.34 27.1339 155.524C26.9739 155.708 26.8939 155.952 26.8939 156.256ZM31.8139 159.424C32.3499 159.424 32.7859 159.588 33.1219 159.916C33.4659 160.244 33.6379 160.692 33.6379 161.26C33.6379 161.828 33.4659 162.28 33.1219 162.616C32.7859 162.944 32.3499 163.108 31.8139 163.108C31.2859 163.108 30.8499 162.944 30.5059 162.616C30.1699 162.28 30.0019 161.828 30.0019 161.26C30.0019 160.7 30.1699 160.256 30.5059 159.928C30.8499 159.592 31.2859 159.424 31.8139 159.424ZM30.9379 161.26C30.9379 161.564 31.0179 161.808 31.1779 161.992C31.3379 162.176 31.5499 162.268 31.8139 162.268C32.0779 162.268 32.2899 162.176 32.4499 161.992C32.6179 161.808 32.7019 161.564 32.7019 161.26C32.7019 160.964 32.6179 160.724 32.4499 160.54C32.2899 160.356 32.0779 160.264 31.8139 160.264C31.5499 160.264 31.3379 160.356 31.1779 160.54C31.0179 160.724 30.9379 160.964 30.9379 161.26Z" fill="#C0C0C7"/>
<path d="M4.81225 105.812V104.528H7.52425V113H6.08425V105.812H4.81225ZM10.2439 111.488V113H8.69594V111.488H10.2439ZM17.1131 105.608H12.9251V108.128C13.1171 107.88 13.3891 107.684 13.7411 107.54C14.0931 107.388 14.4811 107.312 14.9051 107.312C15.4971 107.312 15.9891 107.44 16.3811 107.696C16.7731 107.944 17.0611 108.276 17.2451 108.692C17.4371 109.108 17.5331 109.568 17.5331 110.072C17.5331 110.96 17.2851 111.68 16.7891 112.232C16.2931 112.776 15.5731 113.048 14.6291 113.048C13.7411 113.048 13.0251 112.812 12.4811 112.34C11.9371 111.868 11.6411 111.24 11.5931 110.456H12.9371C13.0091 110.888 13.1851 111.228 13.4651 111.476C13.7531 111.724 14.1171 111.848 14.5571 111.848C15.1011 111.848 15.5091 111.684 15.7811 111.356C16.0531 111.028 16.1891 110.592 16.1891 110.048C16.1891 109.536 16.0491 109.136 15.7691 108.848C15.4891 108.552 15.0891 108.404 14.5691 108.404C14.2011 108.404 13.8771 108.484 13.5971 108.644C13.3251 108.804 13.1251 109.016 12.9971 109.28H11.6651V104.396H17.1131V105.608ZM18.7334 108.704C18.7334 110.056 18.9734 111.116 19.4534 111.884C19.9334 112.644 20.7334 113.024 21.8534 113.024C22.9734 113.024 23.7734 112.64 24.2534 111.872C24.7334 111.104 24.9734 110.048 24.9734 108.704C24.9734 107.368 24.7334 106.32 24.2534 105.56C23.7734 104.792 22.9734 104.408 21.8534 104.408C20.7334 104.408 19.9334 104.788 19.4534 105.548C18.9734 106.308 18.7334 107.36 18.7334 108.704ZM23.6054 108.704C23.6054 109.68 23.4854 110.428 23.2454 110.948C23.0054 111.468 22.5414 111.728 21.8534 111.728C21.1574 111.728 20.6894 111.468 20.4494 110.948C20.2094 110.428 20.0894 109.68 20.0894 108.704C20.0894 107.736 20.2094 106.996 20.4494 106.484C20.6894 105.972 21.1574 105.716 21.8534 105.716C22.5414 105.716 23.0054 105.976 23.2454 106.496C23.4854 107.008 23.6054 107.744 23.6054 108.704ZM27.7819 104.408C28.3179 104.408 28.7539 104.576 29.0899 104.912C29.4259 105.24 29.5939 105.688 29.5939 106.256C29.5939 106.824 29.4259 107.272 29.0899 107.6C28.7539 107.928 28.3179 108.092 27.7819 108.092C27.2459 108.092 26.8059 107.928 26.4619 107.6C26.1259 107.272 25.9579 106.824 25.9579 106.256C25.9579 105.688 26.1259 105.24 26.4619 104.912C26.8059 104.576 27.2459 104.408 27.7819 104.408ZM32.8579 104.516L28.0699 113H26.7259L31.5259 104.516H32.8579ZM26.8939 106.256C26.8939 106.56 26.9739 106.804 27.1339 106.988C27.2939 107.164 27.5059 107.252 27.7699 107.252C28.0339 107.252 28.2459 107.16 28.4059 106.976C28.5739 106.792 28.6579 106.552 28.6579 106.256C28.6579 105.952 28.5739 105.708 28.4059 105.524C28.2459 105.34 28.0339 105.248 27.7699 105.248C27.5059 105.248 27.2939 105.34 27.1339 105.524C26.9739 105.708 26.8939 105.952 26.8939 106.256ZM31.8139 109.424C32.3499 109.424 32.7859 109.588 33.1219 109.916C33.4659 110.244 33.6379 110.692 33.6379 111.26C33.6379 111.828 33.4659 112.28 33.1219 112.616C32.7859 112.944 32.3499 113.108 31.8139 113.108C31.2859 113.108 30.8499 112.944 30.5059 112.616C30.1699 112.28 30.0019 111.828 30.0019 111.26C30.0019 110.7 30.1699 110.256 30.5059 109.928C30.8499 109.592 31.2859 109.424 31.8139 109.424ZM30.9379 111.26C30.9379 111.564 31.0179 111.808 31.1779 111.992C31.3379 112.176 31.5499 112.268 31.8139 112.268C32.0779 112.268 32.2899 112.176 32.4499 111.992C32.6179 111.808 32.7019 111.564 32.7019 111.26C32.7019 110.964 32.6179 110.724 32.4499 110.54C32.2899 110.356 32.0779 110.264 31.8139 110.264C31.5499 110.264 31.3379 110.356 31.1779 110.54C31.0179 110.724 30.9379 110.964 30.9379 111.26Z" fill="#C0C0C7"/>
<path d="M2.01906 61.932C3.31506 61.044 4.35106 60.176 5.12706 59.328C5.91106 58.472 6.30306 57.68 6.30306 56.952C6.30306 56.52 6.19506 56.176 5.97906 55.92C5.77106 55.664 5.43106 55.536 4.95906 55.536C4.47106 55.536 4.10306 55.696 3.85506 56.016C3.60706 56.328 3.46706 56.776 3.43506 57.36H2.10306C2.15906 56.392 2.45506 55.652 2.99106 55.14C3.53506 54.628 4.22706 54.372 5.06706 54.372C5.89106 54.372 6.53506 54.592 6.99906 55.032C7.47106 55.464 7.70706 56.064 7.70706 56.832C7.70706 57.448 7.51506 58.072 7.13106 58.704C6.75506 59.336 6.27506 59.92 5.69106 60.456C5.10706 60.984 4.50306 61.44 3.87906 61.824H7.89906V62.94H2.01906V61.932ZM10.2557 61.488V63H8.70766V61.488H10.2557ZM11.2568 58.704C11.2568 60.056 11.4968 61.116 11.9768 61.884C12.4568 62.644 13.2568 63.024 14.3768 63.024C15.4968 63.024 16.2968 62.64 16.7768 61.872C17.2568 61.104 17.4968 60.048 17.4968 58.704C17.4968 57.368 17.2568 56.32 16.7768 55.56C16.2968 54.792 15.4968 54.408 14.3768 54.408C13.2568 54.408 12.4568 54.788 11.9768 55.548C11.4968 56.308 11.2568 57.36 11.2568 58.704ZM16.1288 58.704C16.1288 59.68 16.0088 60.428 15.7688 60.948C15.5288 61.468 15.0648 61.728 14.3768 61.728C13.6808 61.728 13.2128 61.468 12.9728 60.948C12.7328 60.428 12.6128 59.68 12.6128 58.704C12.6128 57.736 12.7328 56.996 12.9728 56.484C13.2128 55.972 13.6808 55.716 14.3768 55.716C15.0648 55.716 15.5288 55.976 15.7688 56.496C16.0088 57.008 16.1288 57.744 16.1288 58.704ZM18.7334 58.704C18.7334 60.056 18.9734 61.116 19.4534 61.884C19.9334 62.644 20.7334 63.024 21.8534 63.024C22.9734 63.024 23.7734 62.64 24.2534 61.872C24.7334 61.104 24.9734 60.048 24.9734 58.704C24.9734 57.368 24.7334 56.32 24.2534 55.56C23.7734 54.792 22.9734 54.408 21.8534 54.408C20.7334 54.408 19.9334 54.788 19.4534 55.548C18.9734 56.308 18.7334 57.36 18.7334 58.704ZM23.6054 58.704C23.6054 59.68 23.4854 60.428 23.2454 60.948C23.0054 61.468 22.5414 61.728 21.8534 61.728C21.1574 61.728 20.6894 61.468 20.4494 60.948C20.2094 60.428 20.0894 59.68 20.0894 58.704C20.0894 57.736 20.2094 56.996 20.4494 56.484C20.6894 55.972 21.1574 55.716 21.8534 55.716C22.5414 55.716 23.0054 55.976 23.2454 56.496C23.4854 57.008 23.6054 57.744 23.6054 58.704ZM27.7819 54.408C28.3179 54.408 28.7539 54.576 29.0899 54.912C29.4259 55.24 29.5939 55.688 29.5939 56.256C29.5939 56.824 29.4259 57.272 29.0899 57.6C28.7539 57.928 28.3179 58.092 27.7819 58.092C27.2459 58.092 26.8059 57.928 26.4619 57.6C26.1259 57.272 25.9579 56.824 25.9579 56.256C25.9579 55.688 26.1259 55.24 26.4619 54.912C26.8059 54.576 27.2459 54.408 27.7819 54.408ZM32.8579 54.516L28.0699 63H26.7259L31.5259 54.516H32.8579ZM26.8939 56.256C26.8939 56.56 26.9739 56.804 27.1339 56.988C27.2939 57.164 27.5059 57.252 27.7699 57.252C28.0339 57.252 28.2459 57.16 28.4059 56.976C28.5739 56.792 28.6579 56.552 28.6579 56.256C28.6579 55.952 28.5739 55.708 28.4059 55.524C28.2459 55.34 28.0339 55.248 27.7699 55.248C27.5059 55.248 27.2939 55.34 27.1339 55.524C26.9739 55.708 26.8939 55.952 26.8939 56.256ZM31.8139 59.424C32.3499 59.424 32.7859 59.588 33.1219 59.916C33.4659 60.244 33.6379 60.692 33.6379 61.26C33.6379 61.828 33.4659 62.28 33.1219 62.616C32.7859 62.944 32.3499 63.108 31.8139 63.108C31.2859 63.108 30.8499 62.944 30.5059 62.616C30.1699 62.28 30.0019 61.828 30.0019 61.26C30.0019 60.7 30.1699 60.256 30.5059 59.928C30.8499 59.592 31.2859 59.424 31.8139 59.424ZM30.9379 61.26C30.9379 61.564 31.0179 61.808 31.1779 61.992C31.3379 62.176 31.5499 62.268 31.8139 62.268C32.0779 62.268 32.2899 62.176 32.4499 61.992C32.6179 61.808 32.7019 61.564 32.7019 61.26C32.7019 60.964 32.6179 60.724 32.4499 60.54C32.2899 60.356 32.0779 60.264 31.8139 60.264C31.5499 60.264 31.3379 60.356 31.1779 60.54C31.0179 60.724 30.9379 60.964 30.9379 61.26Z" fill="#C0C0C7"/>
<defs>
<linearGradient id="paint0_linear_98_276" x1="64" y1="136" x2="64" y2="257" gradientUnits="userSpaceOnUse">
<stop stop-color="#EDA13D"/>
<stop offset="1" stop-color="#EDA13D" stop-opacity="0"/>
</linearGradient>
<linearGradient id="paint1_linear_98_276" x1="80" y1="120" x2="80" y2="257" gradientUnits="userSpaceOnUse">
<stop stop-color="#7963B8"/>
<stop offset="1" stop-color="#7963B8" stop-opacity="0"/>
</linearGradient>
<linearGradient id="paint2_linear_98_276" x1="96" y1="159" x2="96" y2="257" gradientUnits="userSpaceOnUse">
<stop stop-color="#EDD13D"/>
<stop offset="1" stop-color="#EDD13D" stop-opacity="0"/>
</linearGradient>
<linearGradient id="paint3_linear_98_276" x1="112" y1="129" x2="112" y2="257" gradientUnits="userSpaceOnUse">
<stop stop-color="#59A5FE"/>
<stop offset="1" stop-color="#59A5FE" stop-opacity="0"/>
</linearGradient>
<linearGradient id="paint4_linear_98_276" x1="128" y1="80" x2="128" y2="257" gradientUnits="userSpaceOnUse">
<stop stop-color="#B86363"/>
<stop offset="1" stop-color="#B86363" stop-opacity="0"/>
</linearGradient>
<linearGradient id="paint5_linear_98_276" x1="159" y1="161" x2="159" y2="257" gradientUnits="userSpaceOnUse">
<stop stop-color="#EDA13D"/>
<stop offset="1" stop-color="#EDA13D" stop-opacity="0"/>
</linearGradient>
<linearGradient id="paint6_linear_98_276" x1="175" y1="152" x2="175" y2="257" gradientUnits="userSpaceOnUse">
<stop stop-color="#7963B8"/>
<stop offset="1" stop-color="#7963B8" stop-opacity="0"/>
</linearGradient>
<linearGradient id="paint7_linear_98_276" x1="191" y1="162" x2="191" y2="257" gradientUnits="userSpaceOnUse">
<stop stop-color="#EDD13D"/>
<stop offset="1" stop-color="#EDD13D" stop-opacity="0"/>
</linearGradient>
<linearGradient id="paint8_linear_98_276" x1="207" y1="139" x2="207" y2="257" gradientUnits="userSpaceOnUse">
<stop stop-color="#59A5FE"/>
<stop offset="1" stop-color="#59A5FE" stop-opacity="0"/>
</linearGradient>
<linearGradient id="paint9_linear_98_276" x1="223" y1="120" x2="223" y2="257" gradientUnits="userSpaceOnUse">
<stop stop-color="#B86363"/>
<stop offset="1" stop-color="#B86363" stop-opacity="0"/>
</linearGradient>
<linearGradient id="paint10_linear_98_276" x1="254" y1="121" x2="254" y2="257" gradientUnits="userSpaceOnUse">
<stop stop-color="#EDA13D"/>
<stop offset="1" stop-color="#EDA13D" stop-opacity="0"/>
</linearGradient>
<linearGradient id="paint11_linear_98_276" x1="270" y1="159" x2="270" y2="257" gradientUnits="userSpaceOnUse">
<stop stop-color="#7963B8"/>
<stop offset="1" stop-color="#7963B8" stop-opacity="0"/>
</linearGradient>
<linearGradient id="paint12_linear_98_276" x1="286" y1="141" x2="286" y2="257" gradientUnits="userSpaceOnUse">
<stop stop-color="#EDD13D"/>
<stop offset="1" stop-color="#EDD13D" stop-opacity="0"/>
</linearGradient>
<linearGradient id="paint13_linear_98_276" x1="302" y1="109" x2="302" y2="257" gradientUnits="userSpaceOnUse">
<stop stop-color="#59A5FE"/>
<stop offset="1" stop-color="#59A5FE" stop-opacity="0"/>
</linearGradient>
<linearGradient id="paint14_linear_98_276" x1="318" y1="121" x2="318" y2="257" gradientUnits="userSpaceOnUse">
<stop stop-color="#B86363"/>
<stop offset="1" stop-color="#B86363" stop-opacity="0"/>
</linearGradient>
<linearGradient id="paint15_linear_98_276" x1="349" y1="69" x2="349" y2="257" gradientUnits="userSpaceOnUse">
<stop stop-color="#EDA13D"/>
<stop offset="1" stop-color="#EDA13D" stop-opacity="0"/>
</linearGradient>
<linearGradient id="paint16_linear_98_276" x1="365" y1="120" x2="365" y2="257" gradientUnits="userSpaceOnUse">
<stop stop-color="#7963B8"/>
<stop offset="1" stop-color="#7963B8" stop-opacity="0"/>
</linearGradient>
<linearGradient id="paint17_linear_98_276" x1="381" y1="147" x2="381" y2="257" gradientUnits="userSpaceOnUse">
<stop stop-color="#EDD13D"/>
<stop offset="1" stop-color="#EDD13D" stop-opacity="0"/>
</linearGradient>
<linearGradient id="paint18_linear_98_276" x1="397" y1="97" x2="397" y2="257" gradientUnits="userSpaceOnUse">
<stop stop-color="#59A5FE"/>
<stop offset="1" stop-color="#59A5FE" stop-opacity="0"/>
</linearGradient>
<linearGradient id="paint19_linear_98_276" x1="413" y1="84" x2="413" y2="257" gradientUnits="userSpaceOnUse">
<stop stop-color="#B86363"/>
<stop offset="1" stop-color="#B86363" stop-opacity="0"/>
</linearGradient>
<linearGradient id="paint20_linear_98_276" x1="444" y1="57" x2="444" y2="257" gradientUnits="userSpaceOnUse">
<stop stop-color="#EDA13D"/>
<stop offset="1" stop-color="#EDA13D" stop-opacity="0"/>
</linearGradient>
<linearGradient id="paint21_linear_98_276" x1="460" y1="123" x2="460" y2="257" gradientUnits="userSpaceOnUse">
<stop stop-color="#7963B8"/>
<stop offset="1" stop-color="#7963B8" stop-opacity="0"/>
</linearGradient>
<linearGradient id="paint22_linear_98_276" x1="476" y1="141" x2="476" y2="257" gradientUnits="userSpaceOnUse">
<stop stop-color="#EDD13D"/>
<stop offset="1" stop-color="#EDD13D" stop-opacity="0"/>
</linearGradient>
<linearGradient id="paint23_linear_98_276" x1="492" y1="83" x2="492" y2="257" gradientUnits="userSpaceOnUse">
<stop stop-color="#59A5FE"/>
<stop offset="1" stop-color="#59A5FE" stop-opacity="0"/>
</linearGradient>
<linearGradient id="paint24_linear_98_276" x1="508" y1="95" x2="508" y2="257" gradientUnits="userSpaceOnUse">
<stop stop-color="#B86363"/>
<stop offset="1" stop-color="#B86363" stop-opacity="0"/>
</linearGradient>
</defs>
</svg>
