<svg width="63" height="25" viewBox="0 0 63 25" fill="none" xmlns="http://www.w3.org/2000/svg">
<g clip-path="url(#clip0_105_929)">
<path fill-rule="evenodd" clip-rule="evenodd" d="M62.6667 12.4428C62.6667 8.3413 60.5082 5.10498 56.3826 5.10498C52.2396 5.10498 49.733 8.3413 49.733 12.4107C49.733 17.2332 52.6922 19.6684 56.9396 19.6684C59.0111 19.6684 60.5778 19.2358 61.7615 18.627V15.4227C60.5778 15.9675 59.22 16.3039 57.4967 16.3039C55.8082 16.3039 54.3111 15.7592 54.1196 13.8687H62.6319C62.6319 13.6604 62.6667 12.8273 62.6667 12.4428ZM54.0674 10.9207C54.0674 9.11032 55.2685 8.35732 56.3652 8.35732C57.427 8.35732 58.5585 9.11032 58.5585 10.9207H54.0674Z" fill="white"/>
<path fill-rule="evenodd" clip-rule="evenodd" d="M43.0137 5.10498C41.3078 5.10498 40.2111 5.84196 39.6019 6.35465L39.3756 5.36132H35.5459V24.0422L39.8978 23.1931L39.9152 18.6591C40.5419 19.0756 41.4644 19.6684 42.9963 19.6684C46.1122 19.6684 48.9496 17.3613 48.9496 12.2826C48.9322 7.63636 46.06 5.10498 43.0137 5.10498ZM41.9693 16.1437C40.9422 16.1437 40.333 15.8073 39.9152 15.3907L39.8978 9.44677C40.3504 8.98215 40.977 8.66172 41.9693 8.66172C43.5533 8.66172 44.65 10.2959 44.65 12.3947C44.65 14.5416 43.5707 16.1437 41.9693 16.1437Z" fill="white"/>
<path fill-rule="evenodd" clip-rule="evenodd" d="M29.5578 4.15973L33.927 3.29457V0.0422363L29.5578 0.891368V4.15973Z" fill="white"/>
<path d="M33.927 5.37732H29.5578V19.396H33.927V5.37732Z" fill="white"/>
<path fill-rule="evenodd" clip-rule="evenodd" d="M24.8752 6.56298L24.5967 5.3774H20.8367V19.3961H25.1885V9.89542C26.2156 8.66178 27.9563 8.88608 28.4959 9.06231V5.3774C27.9389 5.18514 25.9022 4.83267 24.8752 6.56298Z" fill="white"/>
<path fill-rule="evenodd" clip-rule="evenodd" d="M16.1715 1.90076L11.9241 2.73387L11.9067 15.567C11.9067 17.9381 13.8389 19.6845 16.4152 19.6845C17.8426 19.6845 18.887 19.4441 19.4615 19.1558V15.9034C18.9045 16.1117 16.1541 16.8487 16.1541 14.4775V8.78994H19.4615V5.37739H16.1541L16.1715 1.90076Z" fill="white"/>
<path fill-rule="evenodd" clip-rule="evenodd" d="M4.40407 9.44677C4.40407 8.82194 4.96111 8.58162 5.8837 8.58162C7.20667 8.58162 8.87778 8.95011 10.2007 9.60698V5.84196C8.75593 5.31326 7.32852 5.10498 5.8837 5.10498C2.35 5.10498 0 6.80325 0 9.63903C0 14.0609 6.61481 13.356 6.61481 15.2625C6.61481 15.9995 5.91852 16.2398 4.9437 16.2398C3.49889 16.2398 1.6537 15.6951 0.191481 14.9581V18.7712C1.81037 19.4121 3.44667 19.6844 4.9437 19.6844C8.56444 19.6844 11.0537 18.0342 11.0537 15.1664C11.0363 10.392 4.40407 11.2412 4.40407 9.44677Z" fill="white"/>
</g>
<defs>
<clipPath id="clip0_105_929">
<rect width="62.6667" height="24" fill="white" transform="translate(0 0.0422363)"/>
</clipPath>
</defs>
</svg>
